<?xml version="1.0" standalone="no"?>
<!DOCTYPE svg PUBLIC "-//W3C//DTD SVG 20010904//EN"
 "http://www.w3.org/TR/2001/REC-SVG-20010904/DTD/svg10.dtd">
<svg version="1.0" xmlns="http://www.w3.org/2000/svg"
 width="512.000000pt" height="512.000000pt" viewBox="0 0 512.000000 512.000000"
 preserveAspectRatio="xMidYMid meet">
<metadata>
Created by potrace 1.16, written by Peter Selinger 2001-2019
</metadata>
<g transform="translate(0.000000,512.000000) scale(0.100000,-0.100000)"
fill="#000000" stroke="none">
<path d="M2472 5047 c-87 -32 -138 -98 -311 -400 -72 -125 -152 -260 -179
-299 l-49 -73 -189 -11 -189 -11 -70 36 c-38 21 -160 85 -270 144 -237 126
-318 157 -436 164 -198 13 -355 -85 -448 -280 -71 -146 -86 -225 -85 -432 0
-169 2 -185 28 -265 36 -107 72 -178 128 -255 129 -173 348 -337 613 -460 111
-52 348 -135 456 -160 l77 -18 -77 -37 c-42 -21 -85 -45 -96 -54 -11 -9 8 -3
43 14 34 17 85 39 112 50 47 19 52 19 76 4 l24 -17 -61 -36 c-34 -20 -87 -58
-117 -86 -52 -47 -112 -127 -112 -149 0 -5 13 10 28 35 50 77 169 174 263 213
33 14 37 13 63 -7 l28 -22 -56 -39 c-66 -45 -141 -125 -174 -184 -32 -57 -22
-53 17 7 34 53 107 124 179 173 l43 30 45 -23 c50 -27 52 -35 25 -87 -10 -20
-36 -86 -56 -147 -31 -92 -38 -125 -40 -205 -2 -83 -6 -102 -33 -155 -61 -121
-92 -233 -92 -331 0 -39 -12 -67 -69 -173 -115 -209 -186 -396 -211 -554 -18
-108 -8 -310 20 -406 27 -97 64 -183 105 -247 l34 -52 -21 -19 c-43 -38 -59
-108 -36 -158 18 -39 54 -53 154 -59 72 -5 81 -4 49 4 -76 20 -105 72 -80 143
13 37 13 38 -6 21 -24 -22 -35 -79 -20 -110 14 -32 -2 -32 -34 1 -52 51 -22
120 72 167 57 28 69 30 123 24 33 -4 77 -13 97 -21 36 -13 36 -14 10 -14 -69
-2 -137 -61 -137 -119 0 -26 27 -83 44 -94 15 -10 118 -10 133 0 7 4 -13 8
-44 8 -68 0 -93 23 -93 88 0 57 30 86 88 86 55 0 95 -18 86 -39 -14 -30 -16
-121 -4 -136 10 -12 39 -15 134 -15 91 1 116 3 103 11 -45 26 -53 94 -20 164
l14 30 -29 -31 c-37 -39 -48 -94 -28 -134 l14 -30 -56 0 c-31 0 -62 4 -69 8
-24 15 -34 62 -22 105 23 86 134 153 268 163 l66 4 -40 -15 c-52 -20 -69 -38
-24 -25 83 24 188 0 244 -56 58 -58 59 -140 2 -175 l-32 -19 42 0 c35 0 46 5
60 27 10 14 18 45 18 67 l0 41 70 -12 c39 -7 96 -12 127 -13 32 0 57 -3 55 -8
-1 -4 16 -29 38 -55 39 -47 40 -47 101 -47 l62 0 -30 30 c-28 29 -30 35 -26
87 5 53 4 54 -10 28 -9 -19 -12 -43 -8 -72 6 -47 -8 -51 -24 -8 -21 56 29 131
115 171 54 26 91 29 145 14 32 -9 33 -8 15 6 -36 27 -93 39 -136 27 l-39 -10
6 56 c13 134 49 254 125 419 l40 87 60 -3 c76 -5 133 16 184 66 39 39 78 113
89 172 7 34 6 33 -14 -10 -28 -59 -106 -131 -182 -170 -63 -31 -118 -39 -118
-17 0 6 23 59 51 117 49 102 92 210 84 210 -3 0 -17 -18 -31 -40 -15 -22 -30
-38 -34 -35 -11 7 -60 -50 -140 -160 -40 -55 -125 -152 -189 -215 -92 -90
-125 -131 -154 -187 -45 -87 -67 -179 -67 -288 0 -55 -3 -75 -10 -65 -13 19
-12 208 0 330 23 220 69 380 134 460 24 30 47 53 51 50 4 -3 13 6 21 20 l15
25 -5 -25 c-4 -22 -1 -20 27 15 58 72 98 112 91 90 -4 -11 10 3 31 30 20 28
40 49 44 48 4 -1 40 24 81 55 84 65 114 114 125 205 3 31 4 57 2 57 -3 0 -12
-23 -22 -52 -17 -54 -80 -158 -95 -158 -5 0 -10 15 -12 32 l-4 33 -12 -28 c-6
-15 -23 -44 -37 -65 l-25 -37 0 34 c0 33 0 33 -42 -30 -38 -56 -43 -60 -48
-40 -4 20 -12 13 -53 -53 -49 -76 -85 -117 -46 -52 11 19 19 43 17 53 -2 12
-21 -8 -57 -65 -29 -45 -56 -82 -58 -82 -2 0 9 25 25 55 17 30 26 55 22 55
-15 0 -92 -94 -117 -143 -56 -111 -82 -295 -84 -602 -1 -175 -9 -249 -22 -210
-3 11 -11 49 -16 85 -35 220 -130 422 -257 540 -27 26 -21 14 25 -44 102 -129
164 -276 191 -451 7 -44 20 -93 28 -110 14 -28 14 -29 -2 -16 -21 18 -62 97
-144 281 -73 161 -160 326 -208 391 -37 50 -141 152 -175 170 -20 10 -20 10
-2 -18 10 -15 35 -53 56 -83 32 -46 35 -56 21 -58 -61 -13 -214 50 -289 119
-25 23 -62 69 -82 101 -20 32 -37 57 -39 55 -7 -7 29 -108 60 -162 59 -107
164 -164 316 -171 67 -3 88 -7 98 -21 27 -36 91 -171 121 -257 28 -80 69 -281
59 -291 -2 -2 -26 3 -53 12 -78 24 -247 23 -311 -3 l-51 -21 -6 61 c-9 90 -39
179 -137 396 -101 226 -134 323 -151 446 -11 82 -7 207 7 262 6 20 9 18 30
-25 14 -26 22 -40 19 -30 -2 10 -12 43 -21 75 -30 101 -8 356 42 492 4 9 15
-10 29 -48 12 -34 36 -82 51 -105 41 -59 124 -138 175 -165 l44 -24 -35 28
c-93 75 -169 181 -199 278 -21 68 -29 280 -11 291 5 3 10 -2 10 -13 0 -11 16
-52 36 -92 61 -122 226 -276 349 -326 46 -18 42 -14 -40 48 -33 25 -91 78
-128 117 -57 61 -67 77 -67 108 l0 36 63 -60 c34 -33 83 -71 107 -83 52 -27
271 -99 263 -87 -2 4 -57 33 -121 65 -86 42 -131 71 -172 112 -30 30 -58 53
-62 52 -14 -4 -95 123 -117 181 -11 32 -21 75 -21 97 0 22 -5 40 -12 43 -15 4
25 67 70 110 l28 27 50 -16 c27 -9 54 -17 61 -19 9 -3 9 -15 -3 -47 -24 -65
-22 -182 4 -240 25 -56 38 -65 15 -10 -20 46 -20 179 -1 242 l14 45 54 -4 c30
-1 57 -5 59 -7 2 -2 -6 -27 -19 -56 -15 -36 -21 -64 -18 -92 6 -50 48 -139 88
-186 l30 -35 -11 33 c-14 42 -6 51 16 18 21 -31 206 -192 217 -188 5 1 7 -1 6
-5 -1 -5 9 -28 22 -53 l25 -45 5 65 c4 48 12 77 33 110 56 89 95 140 100 127
2 -7 13 3 25 23 23 37 29 116 12 155 -6 13 -7 5 -3 -24 4 -32 3 -42 -5 -37 -7
4 -12 14 -12 22 0 8 -10 34 -22 57 l-22 42 -7 -30 c-4 -16 -7 -23 -8 -15 0 8
-12 36 -26 61 l-24 47 67 5 c50 3 74 0 96 -12 43 -24 85 -81 111 -152 13 -35
24 -54 24 -43 1 30 -25 100 -49 135 -12 16 -18 29 -13 29 4 0 -8 13 -27 29
l-34 29 42 11 c51 14 130 5 171 -20 36 -22 71 -71 54 -76 -8 -3 -9 -14 -2 -36
13 -44 11 -51 -6 -37 -12 10 -15 10 -15 -3 0 -28 -41 -111 -76 -154 -46 -56
-29 -55 35 3 85 77 126 185 96 256 -8 20 -22 41 -31 46 -12 7 -4 11 32 16 28
3 52 2 58 -4 6 -6 20 -49 32 -98 17 -65 23 -78 23 -52 1 33 -17 113 -33 151
-5 12 4 18 45 27 59 14 61 13 81 -50 6 -21 15 -35 19 -32 22 13 13 -171 -12
-251 -19 -64 -95 -183 -157 -249 -34 -36 -155 -135 -198 -163 -16 -11 -15 -11
8 -3 195 67 374 273 404 465 l8 50 19 -60 c10 -33 21 -100 23 -150 5 -81 4
-88 -9 -66 -14 23 -14 23 -22 -25 -16 -108 -87 -228 -198 -330 -76 -71 -75
-72 13 -13 77 51 177 161 210 231 l28 58 5 -58 c7 -77 -12 -279 -30 -322 -8
-19 -9 -30 -3 -24 6 6 19 32 29 59 22 58 19 64 61 -135 41 -189 49 -335 26
-450 -10 -47 -44 -152 -76 -235 -93 -239 -112 -307 -125 -438 -6 -59 -9 -67
-23 -62 -67 28 -107 36 -158 33 -64 -4 -68 -2 66 -33 81 -19 161 -71 183 -118
21 -43 22 -87 2 -113 -13 -17 -16 -17 -26 -4 -9 13 -10 12 -5 -2 5 -16 -2 -18
-50 -18 -51 0 -54 1 -44 19 23 43 -3 147 -39 159 -9 3 -7 -5 4 -21 21 -32 23
-110 4 -133 -7 -9 -22 -20 -34 -24 -11 -5 91 -9 235 -9 230 -1 259 1 290 18
72 38 71 127 -2 207 l-41 44 32 69 c141 305 146 581 15 842 -30 61 -116 193
-184 284 -17 23 -35 64 -41 95 -10 47 -17 232 -18 455 0 86 -27 204 -67 295
-19 43 -34 85 -34 94 0 9 -11 45 -25 81 l-24 65 31 16 31 16 43 -48 c24 -27
57 -74 74 -104 17 -30 28 -44 24 -30 -9 38 -52 108 -92 152 -33 37 -34 39 -16
53 50 37 61 39 96 14 78 -54 133 -107 179 -172 57 -81 66 -78 13 3 -41 64
-113 139 -166 177 -39 26 -40 36 -9 52 30 17 167 -85 249 -184 l33 -40 -29 45
c-39 57 -114 130 -175 168 -42 27 -46 31 -27 37 21 7 59 -12 130 -64 24 -17
30 -19 20 -6 -8 10 -42 36 -74 57 -58 37 -58 38 -27 38 34 0 134 -46 191 -88
l35 -25 -24 26 c-13 14 -55 42 -93 62 -38 20 -68 38 -66 40 2 2 61 24 133 50
449 163 825 456 961 750 67 146 78 204 78 445 1 186 -2 222 -18 270 -48 139
-126 239 -225 287 -50 25 -67 28 -161 27 -158 0 -286 -41 -615 -196 -414 -196
-418 -197 -515 -152 -99 46 -278 257 -515 604 -43 63 -94 132 -114 154 -63 68
-142 90 -219 63z m131 -61 c39 -16 113 -94 162 -170 19 -30 67 -117 106 -193
39 -76 91 -166 115 -200 24 -35 42 -63 41 -63 -2 0 -21 8 -43 19 -21 10 -84
34 -139 52 -98 33 -104 33 -270 33 -162 0 -174 -1 -255 -29 l-85 -30 38 39
c21 22 50 59 63 82 29 49 137 325 130 332 -9 9 -143 -136 -185 -200 -24 -38
-45 -68 -47 -68 -7 0 118 248 154 303 59 94 136 127 215 93z m1992 -473 c64
-21 152 -107 187 -183 44 -93 62 -205 55 -350 -4 -69 -13 -150 -20 -180 l-15
-55 4 105 3 105 -10 -80 c-5 -44 -15 -98 -22 -120 l-12 -40 -2 50 c-4 78 -23
166 -45 208 -11 22 -22 37 -25 34 -2 -3 1 -49 7 -101 7 -53 11 -147 8 -210 -4
-103 -7 -120 -36 -178 -86 -175 -289 -366 -533 -501 -70 -39 -210 -100 -216
-93 -2 2 29 20 69 41 266 139 509 337 600 490 73 122 101 276 75 402 -42 194
-163 310 -377 360 -60 14 -119 18 -293 18 l-219 0 174 86 c96 47 219 101 274
119 87 30 111 35 199 34 117 0 182 -21 268 -85 l52 -40 -45 42 c-86 80 -213
119 -332 99 -130 -21 -206 -47 -582 -204 -87 -36 -166 -66 -175 -66 -9 0 25
18 74 39 50 21 158 70 240 108 205 95 334 142 465 167 43 8 153 -3 205 -21z
m-3672 5 c9 -1 17 -6 17 -11 0 -5 8 -6 19 -2 25 8 133 -33 124 -47 -4 -7 0 -9
10 -5 10 3 17 2 17 -4 0 -6 4 -8 8 -5 10 6 171 -72 307 -148 68 -38 92 -56 76
-56 -104 0 -537 -134 -700 -215 -156 -79 -233 -146 -256 -225 -6 -19 9 -9 66
45 117 111 283 188 592 275 294 84 480 104 957 104 355 -1 521 -12 850 -59
201 -28 971 -161 1020 -176 74 -22 120 -41 120 -49 0 -5 -14 -25 -30 -44 l-31
-34 -55 33 c-82 50 -192 93 -292 115 -804 177 -1618 226 -2172 129 -159 -27
-324 -72 -456 -124 -264 -103 -248 -124 26 -37 392 126 726 172 1230 172 320
0 628 -27 974 -86 240 -40 307 -58 448 -118 l37 -16 -48 -45 -49 -46 -88 27
c-69 20 -112 27 -194 28 l-105 1 -78 -42 c-59 -32 -90 -43 -123 -43 -24 0 -44
2 -44 4 0 2 7 20 16 41 8 20 13 39 11 42 -3 2 -13 -16 -22 -41 l-18 -46 -71 8
c-90 9 -806 9 -866 0 l-45 -7 -28 52 c-15 29 -39 66 -53 82 l-26 30 20 -35
c42 -73 64 -121 59 -126 -3 -3 -36 -10 -73 -15 l-69 -10 -30 37 c-16 21 -45
54 -63 73 -24 26 -20 17 17 -37 28 -39 51 -74 51 -77 0 -3 -8 -5 -17 -5 -10 0
-39 21 -66 48 l-48 47 -98 0 -98 0 -38 53 c-21 28 -43 52 -48 52 -5 0 7 -22
27 -49 20 -27 36 -51 36 -54 0 -4 -19 -11 -42 -18 -40 -10 -44 -9 -58 12 -24
37 -72 90 -77 85 -2 -2 12 -25 31 -51 20 -25 36 -50 36 -55 0 -4 -24 -15 -52
-25 -29 -9 -81 -30 -116 -46 l-64 -29 -59 46 c-32 25 -59 49 -59 53 0 9 45 31
65 31 8 0 15 -4 15 -10 0 -5 10 -14 23 -21 18 -9 16 -5 -9 20 l-30 32 -53 -25
-52 -24 58 -44 c32 -25 66 -49 76 -54 15 -9 11 -15 -32 -47 -98 -75 -145 -163
-145 -273 -1 -99 39 -178 132 -265 83 -78 159 -123 320 -191 67 -28 121 -53
119 -54 -2 -2 -46 10 -99 26 -107 34 -266 111 -378 185 -89 59 -202 163 -193
178 3 6 1 7 -5 3 -19 -11 -116 124 -100 139 2 3 33 -4 69 -15 75 -23 72 -23
64 -10 -3 5 -38 19 -77 30 l-70 22 6 51 c16 126 127 270 261 339 109 56 108
56 156 3 40 -44 79 -73 79 -60 0 4 -23 30 -50 59 l-51 53 83 26 c93 28 423
102 508 113 30 4 49 9 43 11 -41 14 -619 -113 -730 -160 -150 -64 -246 -145
-301 -257 -22 -45 -27 -69 -27 -130 0 -93 15 -126 104 -222 56 -62 60 -68 24
-40 -62 48 -112 109 -140 171 -22 46 -25 63 -21 130 3 55 12 90 30 126 25 49
105 133 161 170 42 27 24 31 -20 4 -63 -38 -144 -121 -171 -174 -18 -36 -27
-71 -30 -126 -4 -67 -1 -84 21 -133 31 -67 119 -163 191 -208 28 -17 111 -72
185 -121 74 -49 197 -120 275 -159 98 -48 130 -68 104 -63 -53 8 -241 71 -317
106 -35 16 -66 27 -68 25 -8 -7 119 -74 222 -116 108 -45 127 -56 80 -45 -134
32 -394 173 -586 317 -94 71 -212 196 -258 272 -75 125 -107 276 -81 373 27
96 156 190 375 273 88 33 75 33 -98 -1 -117 -23 -195 -52 -220 -82 -10 -12
-16 -15 -12 -7 3 8 -14 -7 -39 -33 -117 -124 -121 -338 -10 -523 80 -134 272
-294 524 -436 114 -64 90 -61 -35 5 -216 114 -426 275 -520 398 -57 77 -108
180 -131 269 -31 117 -19 384 22 518 5 16 5 16 -6 0 -6 -10 -19 -50 -30 -90
-10 -40 -19 -64 -19 -53 -1 52 54 209 70 199 5 -3 6 1 3 9 -12 32 130 183 213
226 58 30 129 41 233 36 58 -3 113 -6 123 -7z m1793 -73 c108 -19 255 -67 309
-102 37 -23 81 -70 73 -78 -1 -2 -46 15 -98 37 -252 105 -454 129 -696 83 -42
-8 -86 -17 -97 -21 -45 -14 -3 16 51 36 147 56 304 71 458 45z m46 -105 c82
-18 244 -77 235 -87 -3 -2 -53 10 -113 26 -152 42 -218 51 -379 51 -124 0
-187 -6 -290 -25 -55 -11 -3 12 68 30 159 39 316 40 479 5z m-42 -61 c88 -14
202 -40 197 -45 -2 -2 -39 0 -83 6 -154 19 -331 31 -449 32 -86 0 -107 3 -75
8 71 11 339 11 410 -1z m1535 -104 c135 -37 250 -113 300 -200 14 -24 33 -76
41 -116 39 -183 -30 -362 -211 -545 -156 -158 -360 -286 -613 -384 -162 -64
-212 -75 -92 -21 66 29 97 51 48 32 -13 -4 -39 -11 -59 -15 l-36 -6 10 39 c10
35 15 40 63 55 77 24 283 128 368 185 155 105 268 224 319 338 59 131 44 235
-46 325 -89 91 -219 144 -444 184 -57 9 -101 19 -99 22 8 7 189 -18 275 -39
91 -21 177 -60 256 -117 28 -19 44 -28 36 -19 -22 27 -144 105 -213 137 -73
32 -240 67 -372 77 -69 5 -84 8 -65 15 30 11 430 24 454 14 16 -6 13 -12 -21
-48 -21 -22 -30 -36 -19 -30 11 6 33 24 48 40 27 28 32 29 65 20 51 -14 146
-65 172 -93 l21 -23 -40 -33 c-53 -42 -45 -51 10 -10 l43 31 23 -22 c44 -41
23 0 -28 56 -57 63 -155 116 -247 135 -75 16 -245 14 -418 -5 -162 -17 -348
-13 -504 11 l-85 14 70 -5 c134 -10 411 -5 540 10 157 18 364 14 450 -9z
m-444 -201 c112 -39 187 -74 234 -109 17 -12 40 -25 52 -29 12 -4 35 -22 52
-41 17 -19 35 -35 41 -35 6 0 33 11 59 25 l49 24 10 -28 c10 -27 9 -28 -42
-45 -78 -25 -77 -24 -61 -85 17 -64 31 -82 21 -26 -14 76 -14 75 39 96 28 10
51 19 53 19 1 0 2 -31 2 -68 l0 -69 -61 -17 c-71 -20 -74 -32 -4 -16 26 6 49
9 51 7 2 -2 -10 -33 -28 -68 -68 -133 -264 -292 -500 -404 -64 -30 -119 -55
-122 -55 -3 0 -6 21 -6 46 0 35 7 53 30 82 99 124 95 276 -8 363 -50 41 -178
101 -282 132 -134 40 -166 41 -50 2 168 -58 280 -116 332 -174 50 -55 74 -122
62 -175 -13 -61 -72 -156 -96 -156 -5 0 -4 9 2 19 19 36 12 132 -14 186 -23
49 -104 135 -128 135 -6 0 6 -13 28 -29 43 -32 78 -87 89 -141 7 -32 5 -31
-21 18 -59 108 -110 158 -219 212 -114 57 -227 91 -400 123 -104 19 -156 22
-395 22 -305 0 -410 -13 -604 -75 -51 -17 -103 -30 -115 -30 -12 0 -20 -4 -17
-9 3 -4 -20 -24 -52 -44 -74 -46 -157 -134 -184 -194 -12 -27 -24 -75 -28
-108 l-6 -60 -22 35 c-60 95 6 211 179 313 76 45 70 49 -10 7 -138 -74 -214
-175 -215 -287 0 -34 -3 -60 -8 -57 -5 3 -18 24 -30 47 -29 55 -29 128 0 183
31 60 119 136 216 185 47 24 83 45 81 48 -3 2 -48 -18 -101 -44 -167 -83 -242
-179 -232 -299 6 -67 52 -144 113 -186 43 -30 43 -30 42 -90 -1 -33 -3 -60 -4
-60 -18 0 -171 64 -246 103 -116 60 -210 142 -251 218 -41 74 -47 174 -16 246
25 58 98 134 172 177 129 75 361 137 479 127 14 -1 59 -78 59 -101 0 -6 -10
-10 -22 -11 -13 0 -39 -7 -58 -15 -22 -9 -26 -12 -10 -9 284 58 359 65 710 72
325 6 499 -3 779 -38 241 -30 350 -66 496 -161 l60 -39 -48 44 c-60 55 -166
108 -281 142 -50 14 -91 27 -93 29 -8 8 52 106 65 106 9 0 9 -9 -3 -37 -21
-50 -12 -53 10 -3 18 40 18 40 74 40 85 0 257 -43 245 -61 -3 -5 -29 -25 -57
-44 -28 -19 -47 -35 -40 -35 6 0 34 16 63 35 29 19 58 35 66 35 22 0 94 -47
143 -94 91 -86 121 -201 82 -313 -24 -70 -8 -58 19 15 26 67 24 157 -5 212
-10 19 -13 36 -8 37 6 2 34 19 64 38 36 23 57 30 65 24 15 -12 50 -95 58 -137
5 -31 3 -34 -37 -52 -51 -22 -25 -27 28 -4 l38 15 -7 52 c-8 74 -57 167 -109
210 -56 46 -153 99 -280 153 -124 53 -114 56 24 8z m422 -91 c23 -25 43 -49
45 -54 2 -4 -18 -19 -45 -32 l-48 -25 -42 44 -42 44 23 15 c13 8 28 27 35 41
13 29 19 27 74 -33z m-350 21 c49 -25 117 -74 117 -83 0 -5 -23 -23 -50 -41
-28 -18 -48 -35 -46 -38 5 -4 45 21 102 63 10 7 22 1 44 -20 l30 -29 -61 -39
-60 -38 -48 44 c-27 25 -74 60 -105 78 l-57 32 42 43 c24 24 47 44 52 44 4 0
22 -7 40 -16z m399 -38 c105 -84 127 -213 59 -351 -54 -109 -230 -273 -371
-345 -38 -19 -13 1 70 58 174 118 275 242 305 373 27 119 1 196 -92 280 -54
48 -41 41 29 -15z m-942 -1 c0 -2 -10 -25 -22 -50 -22 -44 -22 -45 -62 -38
-23 3 -50 9 -61 14 -18 7 -18 8 5 8 14 1 48 17 75 35 48 33 65 42 65 31z
m-1520 -50 c30 -30 39 -45 28 -45 -9 0 -23 -3 -32 -6 -10 -4 -22 9 -41 45 -32
65 -15 67 45 6z m589 -182 c55 -202 62 -272 34 -326 -19 -37 -20 -35 -48 65
-18 68 -63 123 -120 149 -57 26 -159 25 -232 -3 -32 -12 -76 -25 -98 -28 l-40
-6 42 -22 c33 -17 50 -35 73 -81 53 -106 130 -148 247 -138 77 8 119 -6 144
-47 l19 -31 0 43 c0 28 7 53 21 72 30 40 35 116 14 209 -26 114 -35 159 -35
170 0 6 17 11 39 11 37 0 39 -1 69 -67 17 -38 33 -77 36 -88 7 -27 -1 82 -10
123 -12 56 12 35 26 -23 7 -30 16 -55 19 -55 4 0 13 24 21 53 12 40 20 53 37
55 21 3 21 1 11 -35 -11 -40 -5 -114 12 -141 8 -12 9 -2 4 38 -7 68 17 140 47
140 10 0 19 -2 19 -4 0 -2 -11 -53 -25 -114 -30 -133 -31 -193 -5 -251 11 -24
20 -55 21 -70 0 -14 4 -35 9 -46 7 -19 8 -19 18 5 18 47 36 53 146 54 96 1
106 3 152 31 34 22 60 49 85 90 24 41 49 67 77 83 42 24 47 42 12 42 -11 0
-43 9 -72 21 -77 30 -151 40 -210 28 -91 -20 -169 -102 -183 -194 -12 -77 -16
-82 -33 -49 -31 60 -32 94 -6 214 13 63 27 125 29 138 5 22 22 27 61 16 20 -5
20 -8 8 -42 -7 -20 -13 -57 -13 -82 l0 -45 39 43 c21 24 44 59 50 77 10 32 14
34 43 28 42 -8 43 -9 21 -34 l-19 -21 37 18 c36 17 40 17 100 0 97 -27 224
-91 279 -140 66 -59 138 -147 136 -166 -1 -8 9 -48 23 -88 18 -54 22 -75 13
-80 -9 -5 -9 -19 -3 -47 15 -62 13 -77 -8 -71 -17 6 -19 0 -19 -51 0 -32 -3
-67 -7 -79 -6 -19 -10 -20 -50 -11 l-44 10 21 36 c11 20 22 38 24 40 1 2 9 -2
18 -9 13 -11 14 -6 13 36 -2 30 2 49 10 52 28 9 -74 122 -111 122 -22 0 -30
-58 -12 -83 23 -33 20 -67 -6 -67 -18 0 -19 -3 -9 -15 18 -21 3 -35 -38 -35
l-37 -1 28 -17 c33 -20 36 -44 5 -38 -13 3 -52 8 -88 11 -117 11 -127 14 -141
48 -26 64 -89 127 -151 150 -28 10 -21 2 20 -26 34 -22 102 -107 102 -128 0
-3 -17 -1 -37 7 -45 15 -63 17 -63 6 0 -5 19 -15 43 -21 49 -15 67 -28 67 -48
0 -10 -6 -12 -22 -7 -13 4 -39 9 -58 11 -19 1 -47 6 -62 9 -17 4 -28 2 -28 -4
0 -6 19 -13 43 -17 82 -12 98 -17 104 -31 8 -22 -26 -55 -46 -45 -27 14 -71
22 -71 13 0 -4 16 -14 37 -21 l36 -13 -24 -19 c-32 -25 -42 -24 -78 7 -34 28
-43 18 -11 -11 31 -28 24 -35 -38 -35 -80 0 -146 25 -198 75 -49 46 -56 81
-25 109 10 9 26 34 36 56 10 22 24 40 32 40 8 0 25 11 38 25 21 21 23 28 14
48 -18 40 -49 50 -159 50 -92 0 -103 -2 -125 -23 -38 -36 -34 -76 9 -97 19 -9
40 -29 46 -44 6 -15 22 -37 36 -50 31 -29 30 -60 -1 -98 -55 -65 -221 -112
-295 -83 -25 9 -24 10 29 43 65 41 49 51 -23 15 -30 -15 -60 -24 -69 -20 -27
10 -20 23 18 30 19 3 35 10 35 15 0 12 -17 11 -60 -1 -34 -10 -49 -2 -50 27 0
12 61 28 148 38 28 4 52 11 52 16 0 6 -15 8 -32 5 -18 -3 -51 -8 -73 -11 -22
-3 -57 -8 -79 -12 -34 -5 -38 -4 -34 13 2 13 21 25 58 36 29 10 58 22 64 28
13 13 2 13 -64 -5 -30 -8 -56 -13 -58 -11 -2 2 6 21 16 43 20 38 66 86 112
116 34 23 17 21 -31 -3 -54 -28 -114 -90 -128 -133 -11 -34 -14 -35 -69 -41
-69 -7 -197 5 -197 19 0 6 13 11 29 13 l28 4 -33 16 c-44 22 -60 64 -35 91 17
19 16 20 -17 36 -27 13 -40 14 -55 6 -26 -14 -50 -80 -33 -91 9 -5 9 -14 1
-34 -14 -38 -13 -49 5 -42 10 4 21 -7 34 -32 11 -21 32 -44 48 -51 l28 -13
-45 -14 c-25 -8 -50 -12 -55 -10 -20 7 -57 134 -54 180 4 41 3 43 -15 34 -15
-8 -18 -7 -13 5 16 42 19 89 6 97 -11 7 -10 19 5 67 10 32 29 80 42 106 13 27
22 53 19 57 -3 5 8 16 25 25 16 8 30 18 30 21 0 3 -6 2 -12 -2 -7 -4 5 12 27
35 47 50 205 131 303 156 62 15 63 15 95 -7 l32 -22 -19 22 c-22 26 -21 27 20
35 28 5 32 2 48 -31 25 -52 76 -113 88 -106 12 8 2 85 -17 132 l-14 32 34 0
c31 0 35 -3 44 -37z m-171 -166 c5 -25 -28 -34 -44 -12 -7 10 -11 22 -8 27 10
15 49 4 52 -15z m776 6 c4 -9 2 -21 -4 -27 -13 -13 -44 4 -48 28 -5 22 44 22
52 -1z m-879 -67 c0 -54 4 -68 24 -90 30 -32 42 -32 79 -1 27 22 38 42 56 99
6 18 7 18 26 1 25 -22 26 -67 3 -87 -82 -72 -180 -59 -241 32 -30 44 -25 68
18 91 19 11 35 19 35 19 0 0 0 -29 0 -64z m999 16 c11 -18 -35 -88 -76 -115
-62 -40 -133 -34 -185 15 -27 25 -29 55 -7 86 22 31 28 28 42 -24 16 -58 53
-96 89 -92 40 5 73 59 73 120 l0 49 29 -16 c17 -8 32 -19 35 -23z m786 -277
c0 -2 -10 -9 -22 -15 -22 -11 -22 -10 -4 4 21 17 26 19 26 11z m-1198 -53 c6
-6 8 -18 4 -28 -5 -13 -9 -15 -18 -6 -21 21 -48 13 -59 -15 -5 -14 -8 -32 -5
-40 7 -17 -4 -44 -14 -38 -4 3 -11 21 -15 42 -5 27 -9 33 -16 22 -5 -8 -9 -27
-9 -43 0 -43 -19 -20 -28 35 -8 42 -9 44 -40 41 -38 -3 -45 24 -10 37 31 11
197 6 210 -7z m-637 -181 c-15 -15 -199 -50 -209 -40 -15 14 -5 18 85 33 104
17 136 19 124 7z m1158 -22 c76 -12 95 -22 58 -34 -23 -7 -191 34 -191 47 0 5
12 7 28 4 15 -3 62 -10 105 -17z m-1148 -28 c0 -10 -49 -30 -150 -63 -82 -26
-152 -48 -155 -48 -3 0 -13 13 -23 29 l-16 28 40 12 c23 7 60 14 83 17 22 2
70 13 106 23 73 22 115 23 115 2z m1148 -27 c44 -15 57 -27 40 -37 -5 -3 -39
8 -78 24 -38 16 -76 29 -82 29 -7 0 -13 4 -13 9 0 10 59 -1 133 -25z m232 20
c26 -5 35 -11 31 -21 -3 -8 -6 -18 -6 -22 0 -8 -108 17 -120 27 -9 7 34 33 47
28 6 -3 28 -8 48 -12z m-287 -48 c52 -22 59 -36 18 -36 -32 0 -128 48 -121 60
7 12 26 8 103 -24z m-1103 -7 c-74 -32 -105 -32 -41 0 33 17 64 27 70 24 6 -4
-7 -15 -29 -24z m1343 6 c48 -15 63 -27 45 -38 -5 -3 -35 8 -68 23 -67 31 -56
38 23 15z m-1297 -20 c0 -5 -203 -145 -224 -154 -5 -2 -19 7 -33 19 l-24 23
88 39 c48 22 110 50 137 62 48 23 57 25 56 11z m1302 -32 c23 -11 26 -17 17
-28 -10 -12 -22 -9 -73 17 -75 37 -75 37 -58 47 13 9 52 -4 114 -36z m177 31
l25 -15 -25 7 c-14 3 -29 10 -34 15 -16 14 6 10 34 -7z m-473 -15 c45 -20 47
-22 25 -32 -24 -11 -44 -4 -92 33 -24 19 -24 20 -3 20 12 0 43 -9 70 -21z
m-1157 -4 c0 -3 -32 -21 -72 -40 -67 -32 -73 -34 -90 -18 -10 9 -16 19 -12 22
22 23 174 54 174 36z m210 -14 c0 -4 -14 -15 -32 -25 -17 -11 -60 -44 -96 -74
-57 -49 -67 -53 -98 -48 -57 11 -53 15 130 123 61 37 96 45 96 24z m483 -21
c85 -40 171 -56 225 -43 35 9 43 8 58 -8 16 -18 15 -19 -10 -29 -15 -5 -30
-10 -32 -10 -3 0 -42 -18 -87 -40 -99 -48 -178 -64 -272 -55 -88 8 -208 46
-263 83 -38 26 -41 30 -26 43 10 8 45 14 98 14 70 1 91 6 161 38 44 20 81 37
81 37 1 0 31 -14 67 -30z m406 6 l33 -25 -31 -16 c-30 -15 -32 -15 -56 11 -19
21 -22 30 -14 40 16 20 30 17 68 -10z m279 -7 c55 -31 64 -55 20 -52 -37 2
-133 64 -116 74 22 14 41 10 96 -22z m-1154 -24 c-15 -23 -54 -35 -54 -17 0 8
50 41 63 42 4 0 0 -11 -9 -25z m1098 -11 l69 -37 -28 -18 c-29 -19 -26 -21
-167 59 -8 5 31 31 48 32 4 0 39 -16 78 -36z m-288 -16 c-3 -5 -12 -1 -20 9
-20 27 -17 39 6 18 11 -10 17 -22 14 -27z m-761 25 c11 -10 -23 -42 -39 -36
-13 5 -12 8 2 24 18 20 27 23 37 12z m941 -55 c39 -47 36 -53 -31 -64 -36 -5
-41 -3 -66 29 -15 20 -27 38 -27 41 0 9 53 35 72 36 9 0 32 -19 52 -42z m77
-24 c11 -14 10 -15 -10 -12 -13 1 -35 18 -49 36 l-26 34 36 -22 c20 -11 42
-28 49 -36z m-1113 20 c2 -1 -6 -20 -18 -43 -22 -44 -32 -47 -94 -30 l-39 11
38 31 c58 48 77 57 95 44 8 -6 16 -12 18 -13z m920 -27 c12 -18 22 -36 22 -40
0 -9 -102 -9 -153 0 l-38 6 39 22 c34 20 86 42 102 44 3 1 15 -14 28 -32z
m-798 -48 c0 -4 -14 -9 -31 -13 -44 -8 -119 -8 -119 2 0 4 11 24 25 45 l26 37
49 -33 c27 -17 50 -35 50 -38z m-377 -20 c12 -7 24 -13 26 -15 2 -2 -12 -21
-32 -43 -20 -22 -48 -64 -62 -93 -17 -35 -20 -45 -8 -31 18 22 18 21 19 -75 0
-73 5 -107 19 -137 16 -35 19 -37 22 -17 7 36 26 26 21 -12 -2 -19 0 -32 4
-30 4 3 8 -16 8 -43 l-1 -48 -30 35 c-44 51 -90 153 -96 213 -5 56 23 186 57
265 21 46 22 47 53 31z m453 -54 c23 -8 84 -17 135 -20 106 -7 107 -8 140 -94
44 -118 37 -187 -33 -297 -21 -34 -38 -66 -38 -73 0 -22 -19 -11 -40 24 -25
41 -30 43 -24 13 5 -22 4 -22 -8 -4 -7 10 -35 42 -62 70 -37 38 -48 45 -44 28
11 -39 -10 -13 -26 35 -30 88 -17 160 45 242 43 57 41 62 -11 26 -48 -33 -80
-92 -87 -160 -3 -30 -9 -52 -14 -49 -11 7 -49 93 -49 113 -1 13 -3 13 -15 -3
-20 -26 -20 0 0 34 19 33 19 46 0 30 -13 -11 -14 -10 -9 6 12 32 31 56 61 75
33 22 28 22 79 4z m-107 -240 c-1 -29 -1 -29 -9 -5 -4 14 -8 34 -9 45 -1 16 1
17 9 5 5 -8 9 -28 9 -45z m-653 -692 c-3 -10 -10 -72 -17 -137 -24 -241 13
-448 122 -685 47 -101 78 -198 53 -166 -8 11 -42 74 -74 140 -61 124 -101 238
-119 335 -9 50 -10 46 -7 -45 6 -173 84 -444 175 -605 23 -40 41 -73 41 -74 0
-2 -35 -1 -77 1 -90 6 -96 10 -148 113 -71 141 -112 332 -100 465 16 187 16
178 -5 100 l-19 -70 3 90 c3 88 3 89 -12 55 -21 -48 -27 -216 -13 -341 19
-158 60 -267 147 -388 30 -42 34 -44 85 -46 30 -1 70 -6 89 -11 28 -7 12 -10
-85 -14 -140 -7 -125 -16 -190 115 -66 132 -86 208 -92 358 -7 148 5 239 49
377 55 172 172 450 190 450 5 0 7 -8 4 -17z m2106 -410 c110 -233 104 -439
-19 -726 -41 -94 -52 -111 -68 -108 -11 2 -52 4 -91 5 l-72 1 10 25 c184 480
199 530 200 675 1 61 -4 121 -10 135 -8 20 -10 4 -11 -77 0 -126 -25 -235 -80
-360 -39 -89 -99 -203 -107 -203 -2 0 6 24 17 53 132 327 159 577 88 784 -10
31 -19 59 -19 62 0 16 128 -194 162 -266z m-555 -139 c-103 -189 -205 -380
-288 -543 l-84 -165 -7 50 c-5 27 -6 67 -3 89 4 27 3 35 -4 25 -20 -33 -51
-142 -52 -187 l-1 -48 -11 44 c-7 31 -7 68 1 128 16 119 52 182 190 326 62 66
140 160 174 210 69 105 128 180 135 174 2 -3 -20 -49 -50 -103z m473 -730 c0
-11 -5 -14 -16 -10 -9 3 -48 6 -87 7 -93 1 -61 17 36 18 55 1 67 -2 67 -15z
m7 -55 c57 -28 93 -72 93 -114 0 -26 -20 -65 -33 -65 -2 0 -2 19 0 43 2 39 -1
35 -12 -19 -5 -22 -34 -46 -71 -58 -20 -6 -21 -4 -17 39 11 94 -38 146 -140
147 l-62 0 50 23 c64 30 135 32 192 4z m-122 -53 c41 -17 55 -42 55 -95 0 -48
-26 -71 -80 -71 l-35 0 0 53 c-1 37 -8 64 -24 90 l-23 37 37 0 c19 0 51 -6 70
-14z"/>
<path d="M2720 4755 c28 -55 55 -120 60 -145 l9 -45 -3 47 c-3 46 -57 169 -96
218 -11 14 3 -20 30 -75z"/>
<path d="M1863 4083 c9 -2 23 -2 30 0 6 3 -1 5 -18 5 -16 0 -22 -2 -12 -5z"/>
<path d="M3605 3929 c-9 -17 -15 -33 -13 -35 3 -2 12 12 21 31 21 43 13 47 -8
4z"/>
<path d="M1289 3876 c33 -33 51 -44 73 -44 16 1 32 6 35 11 4 6 -5 8 -24 4
-26 -5 -36 0 -69 34 -21 21 -43 39 -48 39 -6 0 9 -20 33 -44z"/>
<path d="M729 3872 l45 -39 -23 -36 c-12 -20 -25 -37 -28 -37 -14 0 -93 56
-93 66 0 5 6 16 13 23 10 11 8 12 -8 3 -52 -26 -94 -115 -100 -212 l-5 -65 14
67 c12 56 28 101 42 117 1 2 30 -14 64 -34 34 -20 64 -35 67 -32 5 6 -92 72
-122 83 -11 5 -12 10 -3 24 10 16 15 14 66 -21 31 -22 58 -39 62 -39 4 0 22
21 40 46 l33 47 -41 38 c-23 22 -47 39 -54 39 -7 0 7 -17 31 -38z"/>
<path d="M325 3790 c3 -77 21 -158 32 -147 2 3 -1 25 -7 48 -7 24 -16 76 -21
114 l-8 70 4 -85z"/>
<path d="M988 3806 l-47 -32 37 -35 c20 -19 46 -41 57 -48 11 -7 -1 7 -27 32
-27 25 -48 47 -48 50 0 3 7 8 16 11 10 4 38 -11 75 -40 33 -25 62 -44 65 -41
3 2 -20 26 -51 52 -53 46 -55 49 -39 66 23 26 17 23 -38 -15z"/>
<path d="M629 3651 c36 -33 67 -58 70 -55 7 7 -83 91 -113 105 -12 5 8 -17 43
-50z"/>
<path d="M895 3662 c27 -26 95 -66 95 -55 0 4 -26 23 -58 41 -31 18 -48 25
-37 14z"/>
<path d="M872 3558 c-11 -29 -18 -56 -16 -60 6 -9 115 -68 126 -68 4 0 8 26 8
58 0 49 -3 59 -22 71 -18 10 -20 11 -10 0 12 -12 18 -99 7 -99 -6 0 -87 40
-94 46 -2 2 4 24 14 49 9 26 15 49 12 51 -3 3 -14 -19 -25 -48z"/>
<path d="M910 3596 c0 -2 8 -10 18 -17 15 -13 16 -12 3 4 -13 16 -21 21 -21
13z"/>
<path d="M878 3373 c7 -3 16 -2 19 1 4 3 -2 6 -13 5 -11 0 -14 -3 -6 -6z"/>
<path d="M4465 3875 c-22 -18 -37 -36 -34 -39 8 -8 75 40 82 59 9 23 -4 18
-48 -20z"/>
<path d="M4493 3836 c-57 -45 -70 -67 -23 -39 34 20 86 70 79 77 -2 2 -27 -15
-56 -38z"/>
<path d="M4506 3743 c-33 -26 -54 -49 -48 -51 15 -5 112 67 112 84 0 18 4 20
-64 -33z"/>
<path d="M2198 3773 c7 -3 16 -2 19 1 4 3 -2 6 -13 5 -11 0 -14 -3 -6 -6z"/>
<path d="M2098 3753 c7 -3 16 -2 19 1 4 3 -2 6 -13 5 -11 0 -14 -3 -6 -6z"/>
<path d="M2048 3743 c7 -3 16 -2 19 1 4 3 -2 6 -13 5 -11 0 -14 -3 -6 -6z"/>
<path d="M1958 3723 c7 -3 16 -2 19 1 4 3 -2 6 -13 5 -11 0 -14 -3 -6 -6z"/>
<path d="M1918 3713 c7 -3 16 -2 19 1 4 3 -2 6 -13 5 -11 0 -14 -3 -6 -6z"/>
<path d="M4130 3475 c-25 -6 -52 -15 -60 -18 -17 -8 54 1 75 10 10 3 8 -8 -8
-36 -19 -36 -30 -44 -82 -61 l-60 -20 55 7 c30 3 61 10 68 16 14 11 66 107 60
111 -2 2 -23 -2 -48 -9z"/>
<path d="M4050 3335 c-25 -10 -29 -14 -14 -14 11 -1 29 6 40 14 23 17 19 17
-26 0z"/>
<path d="M3840 3881 c0 -5 5 -13 10 -16 6 -3 10 -2 10 4 0 5 -4 13 -10 16 -5
3 -10 2 -10 -4z"/>
<path d="M1850 3378 c-48 -25 -97 -86 -102 -128 -2 -14 -7 -31 -12 -38 -12
-20 0 -25 27 -10 14 7 39 38 54 68 34 64 81 100 131 100 45 0 31 18 -19 26
-24 4 -47 -2 -79 -18z"/>
<path d="M3240 3380 c-12 -8 -9 -10 13 -10 34 0 75 -20 103 -52 23 -24 56 -85
52 -92 -4 -6 64 -57 69 -53 8 8 -39 123 -63 155 -41 53 -131 80 -174 52z"/>
<path d="M1969 3292 c57 -80 127 -119 197 -110 31 4 31 4 -48 33 -26 9 -70 36
-97 61 -56 50 -83 58 -52 16z"/>
<path d="M3183 3287 c-48 -39 -96 -65 -155 -82 -32 -9 -58 -19 -58 -22 0 -12
119 6 152 23 34 18 118 88 118 99 0 13 -31 3 -57 -18z"/>
<path d="M2553 3290 c-13 -5 -23 -11 -23 -12 0 -2 34 -3 75 -3 41 0 70 4 65 9
-13 13 -92 17 -117 6z"/>
<path d="M1913 3223 c37 -71 125 -107 243 -97 l59 4 -70 -24 c-116 -41 -184
-30 -257 42 -44 42 -49 33 -13 -21 39 -56 94 -80 174 -75 51 3 77 10 114 33
26 17 61 37 77 46 28 15 25 16 -69 11 -114 -5 -159 9 -231 74 l-43 39 16 -32z"/>
<path d="M3269 3204 c-7 -8 -31 -25 -53 -37 -36 -19 -57 -22 -167 -22 -124 0
-125 0 -90 -16 20 -9 62 -33 94 -52 33 -20 72 -39 87 -42 64 -14 161 39 196
106 20 39 9 36 -41 -10 -70 -64 -148 -72 -255 -24 l-45 20 83 -5 c114 -6 184
21 205 81 8 21 3 22 -14 1z"/>
<path d="M1870 3055 c0 -3 15 -14 33 -25 22 -14 49 -20 87 -19 l55 1 -67 13
c-36 7 -76 18 -87 25 -12 6 -21 8 -21 5z"/>
<path d="M3305 3042 c-16 -9 -59 -18 -95 -22 -63 -5 -64 -6 -25 -13 48 -8 104
6 137 33 27 23 24 23 -17 2z"/>
<path d="M2280 2980 c-8 -5 -11 -12 -7 -16 4 -4 13 -2 19 4 15 15 7 24 -12 12z"/>
<path d="M2310 2980 c0 -5 4 -10 9 -10 6 0 13 5 16 10 3 6 -1 10 -9 10 -9 0
-16 -4 -16 -10z"/>
<path d="M2355 2980 c3 -5 10 -10 16 -10 5 0 9 5 9 10 0 6 -7 10 -16 10 -8 0
-12 -4 -9 -10z"/>
<path d="M2845 2980 c3 -5 8 -10 11 -10 2 0 4 5 4 10 0 6 -5 10 -11 10 -5 0
-7 -4 -4 -10z"/>
<path d="M2880 2980 c0 -5 7 -10 16 -10 8 0 12 5 9 10 -3 6 -10 10 -16 10 -5
0 -9 -4 -9 -10z"/>
<path d="M2925 2980 c3 -5 13 -10 21 -10 8 0 12 5 9 10 -3 6 -13 10 -21 10 -8
0 -12 -4 -9 -10z"/>
<path d="M2370 2910 c0 -5 9 -10 20 -10 11 0 20 5 20 10 0 6 -9 10 -20 10 -11
0 -20 -4 -20 -10z"/>
<path d="M2790 2910 c0 -13 11 -13 30 0 12 8 11 10 -7 10 -13 0 -23 -4 -23
-10z"/>
<path d="M2845 2910 c3 -5 15 -10 26 -10 10 0 19 5 19 10 0 6 -12 10 -26 10
-14 0 -23 -4 -19 -10z"/>
<path d="M2800 2835 c14 -7 27 -11 30 -9 6 7 -22 24 -40 23 -9 0 -5 -6 10 -14z"/>
<path d="M2370 2830 c0 -5 4 -10 9 -10 6 0 13 5 16 10 3 6 -1 10 -9 10 -9 0
-16 -4 -16 -10z"/>
<path d="M2850 2830 c0 -5 7 -10 15 -10 8 0 15 5 15 10 0 6 -7 10 -15 10 -8 0
-15 -4 -15 -10z"/>
<path d="M2895 2830 c3 -5 10 -10 16 -10 5 0 9 5 9 10 0 6 -7 10 -16 10 -8 0
-12 -4 -9 -10z"/>
<path d="M3725 803 l0 -205 18 58 c28 89 33 196 13 274 -9 36 -20 68 -24 72
-4 4 -7 -86 -7 -199z"/>
<path d="M2865 2410 c10 -11 20 -20 22 -20 2 0 -2 9 -9 20 -7 11 -17 20 -22
20 -5 0 -1 -9 9 -20z"/>
<path d="M3141 2147 c-34 -56 -121 -131 -211 -183 -103 -59 -168 -121 -202
-194 -25 -52 -50 -130 -43 -130 2 0 24 36 49 79 50 87 93 127 201 187 114 63
165 117 213 227 24 55 22 60 -7 14z"/>
<path d="M2582 1890 c0 -19 2 -27 5 -17 2 9 2 25 0 35 -3 9 -5 1 -5 -18z"/>
<path d="M2621 1844 c-1 -62 -8 -70 -33 -41 -18 20 -19 21 -13 2 3 -11 9 -67
12 -125 l7 -105 17 70 c24 93 31 172 20 215 -9 35 -9 34 -10 -16z"/>
<path d="M1701 1840 c0 -8 6 -28 14 -45 17 -39 18 -21 0 25 -7 19 -14 28 -14
20z"/>
<path d="M2100 1674 c-17 -51 -5 -139 25 -191 29 -49 51 -67 40 -34 -6 21 -4
21 47 -8 30 -17 62 -31 70 -31 9 0 51 -33 94 -72 72 -68 82 -82 142 -208 74
-156 70 -155 122 -7 52 148 92 249 96 245 2 -2 -5 -28 -16 -56 -28 -73 -26
-90 7 -50 15 18 60 68 99 110 57 59 76 88 88 129 19 63 20 110 4 164 l-12 40
-7 -80 c-4 -44 -12 -91 -18 -105 l-10 -25 -1 30 c-1 27 -4 23 -32 -35 -29 -60
-32 -63 -36 -36 l-4 28 -26 -38 c-15 -22 -25 -43 -24 -47 1 -5 -2 -6 -7 -2
-19 11 -92 -104 -149 -235 -25 -59 2 114 52 320 l25 105 -25 -30 c-33 -41 -52
-109 -60 -218 -6 -82 -22 -159 -23 -117 -1 27 -67 154 -91 175 -12 11 -34 40
-49 65 l-26 45 -3 -63 -3 -64 -48 69 c-27 37 -58 74 -70 80 -19 12 -20 11 -11
-12 14 -36 4 -31 -16 7 -14 27 -18 30 -23 15 -5 -14 -12 -9 -35 28 -16 25 -30
44 -32 42 -2 -1 1 -19 5 -40 5 -22 5 -35 0 -31 -21 13 -40 68 -40 119 -1 30
-3 55 -4 55 -2 0 -9 -16 -15 -36z m349 -364 c0 -13 -1 -13 -8 0 -5 8 -12 26
-15 40 l-7 25 15 -25 c9 -14 15 -32 15 -40z m39 -35 c-3 -3 -9 2 -12 12 -6 14
-5 15 5 6 7 -7 10 -15 7 -18z"/>
<path d="M1873 1469 c4 -75 33 -127 92 -167 26 -18 50 -31 52 -28 2 2 -12 30
-32 62 -19 33 -35 66 -36 74 -1 8 -4 2 -8 -15 l-7 -30 -19 35 c-10 19 -24 55
-31 80 l-14 45 3 -56z"/>
<path d="M2211 1239 c-1 -50 31 -111 88 -164 l32 -30 -16 37 c-23 56 -18 59
11 8 27 -46 85 -113 91 -106 2 2 -6 22 -17 45 -12 22 -32 70 -44 105 -17 49
-26 62 -35 53 -6 -6 -11 -20 -11 -32 -1 -20 -1 -20 -12 0 -6 10 -15 33 -18 50
l-7 30 -10 -25 -10 -24 -13 24 c-7 13 -16 35 -21 49 -6 22 -7 18 -8 -20z"/>
<path d="M3374 1187 c-17 -45 -35 -91 -39 -101 -17 -39 15 -4 39 43 21 40 45
141 35 141 -2 0 -18 -37 -35 -83z"/>
<path d="M1773 1179 c25 -33 110 -99 165 -128 39 -21 24 -5 -30 29 -29 19 -77
57 -107 85 -48 44 -51 45 -28 14z"/>
<path d="M2380 1140 c0 -3 11 -39 24 -80 14 -41 22 -78 19 -83 -3 -4 2 -16 11
-25 8 -10 26 -42 40 -73 49 -112 77 -236 92 -414 10 -121 15 -85 14 100 -1 99
3 204 9 234 16 77 13 119 -4 56 -7 -27 -13 -40 -14 -28 -2 34 -38 119 -75 176
-32 50 -115 148 -116 137z m160 -308 c16 -51 30 -100 30 -110 0 -14 -28 61
-94 253 -4 11 2 4 13 -15 11 -19 34 -77 51 -128z"/>
<path d="M2601 924 c0 -11 3 -14 6 -6 3 7 2 16 -1 19 -3 4 -6 -2 -5 -13z"/>
<path d="M3341 599 c-6 -18 -9 -34 -7 -36 2 -2 9 10 15 28 6 18 9 34 7 36 -2
2 -9 -10 -15 -28z"/>
<path d="M2265 509 c7 -45 33 -129 34 -109 0 8 -8 44 -19 80 -11 36 -18 49
-15 29z"/>
<path d="M3302 481 c-7 -21 -12 -51 -11 -67 0 -17 6 -3 15 35 15 73 13 91 -4
32z"/>
<path d="M1941 414 c0 -11 3 -14 6 -6 3 7 2 16 -1 19 -3 4 -6 -2 -5 -13z"/>
<path d="M2301 364 c0 -11 3 -14 6 -6 3 7 2 16 -1 19 -3 4 -6 -2 -5 -13z"/>
<path d="M2211 194 c15 -16 32 -39 38 -51 25 -49 4 -114 -43 -133 -17 -7 -14
-9 19 -9 36 -1 40 2 44 27 13 98 -2 144 -59 180 l-25 16 26 -30z"/>
<path d="M3048 203 c-33 -39 -41 -65 -34 -129 6 -55 4 -63 -11 -67 -10 -3 18
-4 62 -4 44 0 66 2 48 4 -72 9 -105 101 -62 172 22 37 21 51 -3 24z"/>
<path d="M3363 85 c0 -22 2 -30 4 -17 2 12 2 30 0 40 -3 9 -5 -1 -4 -23z"/>
</g>
</svg>