<?xml version="1.0" standalone="no"?>
<!DOCTYPE svg PUBLIC "-//W3C//DTD SVG 20010904//EN"
 "http://www.w3.org/TR/2001/REC-SVG-20010904/DTD/svg10.dtd">
<svg version="1.0" xmlns="http://www.w3.org/2000/svg"
 width="512.000000pt" height="512.000000pt" viewBox="0 0 512.000000 512.000000"
 preserveAspectRatio="xMidYMid meet">
<metadata>
Created by potrace 1.16, written by Peter Selinger 2001-2019
</metadata>
<g transform="translate(0.000000,512.000000) scale(0.100000,-0.100000)"
fill="#000000" stroke="none">
<path d="M2081 4784 c-14 -38 -115 -126 -136 -118 -19 8 -102 -45 -139 -89
-20 -23 -45 -52 -57 -64 -50 -52 -77 -273 -38 -309 18 -16 18 -18 -15 -54 -44
-49 -70 -119 -63 -166 8 -45 12 -50 32 -34 10 8 38 12 73 11 91 -2 100 -30 55
-169 -27 -81 -29 -85 -90 -128 -75 -54 -96 -80 -113 -139 -12 -42 -20 -51 -95
-100 -200 -132 -365 -368 -469 -672 -110 -324 -162 -605 -186 -1008 -21 -352
-54 -508 -156 -743 -69 -157 -149 -402 -131 -402 16 0 220 120 347 205 161
107 207 147 326 280 53 60 92 93 156 130 93 54 115 68 197 120 69 44 199 75
314 75 106 0 124 -7 163 -61 26 -37 32 -56 37 -119 7 -91 13 -110 38 -110 12
0 19 -7 19 -18 0 -11 15 -38 33 -62 72 -95 69 -86 64 -200 -5 -110 -25 -183
-55 -207 -49 -39 -117 -64 -206 -76 -51 -7 -105 -20 -119 -29 -27 -18 -67 -92
-67 -125 0 -20 2 -20 58 -7 85 20 92 19 92 -16 0 -27 2 -30 20 -20 10 6 59 17
107 25 48 9 119 25 157 36 44 13 78 18 95 13 14 -4 63 -10 109 -13 l82 -6 0
34 c0 27 -9 42 -42 74 -30 28 -42 47 -40 63 2 14 -8 34 -29 55 l-32 32 7 81
c7 92 35 204 60 238 9 13 27 38 40 55 21 29 25 31 36 17 20 -24 32 -2 37 70
l6 66 78 0 79 0 1 -27 c0 -43 22 -98 39 -98 8 -1 47 -34 87 -75 79 -83 86
-100 102 -240 9 -77 8 -87 -9 -112 -22 -30 -26 -58 -9 -75 12 -12 -24 -41 -77
-62 -50 -20 -86 -64 -94 -116 -4 -25 -4 -45 -1 -45 4 0 59 13 124 29 l118 28
58 -64 59 -63 19 32 c10 18 25 47 32 65 11 28 15 30 41 23 16 -5 60 -11 97
-15 37 -4 80 -14 96 -22 26 -13 27 -13 27 12 0 35 -35 101 -63 119 -12 8 -49
25 -82 37 -42 16 -75 38 -116 78 -52 52 -57 61 -68 124 -6 37 -14 102 -18 145
l-5 77 47 89 c32 62 48 106 52 143 3 29 7 53 8 53 27 0 198 -70 325 -132 221
-108 238 -115 355 -143 171 -40 290 -93 540 -239 72 -41 131 -72 133 -67 5 16
-48 144 -101 240 -28 53 -54 100 -56 106 -2 5 -59 124 -127 263 -109 223 -136
290 -225 555 -56 166 -151 428 -211 582 -60 154 -136 350 -169 435 -101 259
-217 455 -354 599 -40 42 -75 86 -79 98 -4 11 -31 38 -61 59 -41 28 -59 48
-71 80 -23 60 -39 71 -119 84 -39 6 -93 17 -122 25 -50 15 -53 18 -138 140
-168 241 -352 444 -451 497 l-41 21 32 33 c50 50 53 114 9 224 l-16 40 -39
-35 c-22 -19 -44 -35 -49 -35 -6 0 -10 16 -10 35 0 37 -21 98 -37 108 -5 3
-15 -10 -22 -29z m26 -81 c-2 -27 -8 -55 -11 -64 -6 -14 -2 -16 33 -9 22 4 52
15 66 24 l25 16 0 -33 c0 -18 -6 -39 -12 -46 -11 -10 -8 -11 15 -6 24 6 27 5
27 -19 0 -14 -12 -39 -27 -56 -24 -26 -38 -32 -106 -40 -43 -5 -97 -18 -120
-28 -51 -23 -107 -83 -142 -152 -28 -55 -39 -56 -61 -6 l-13 31 -1 -27 c0 -15
4 -38 10 -52 13 -36 -11 -35 -39 0 -25 32 -28 103 -7 179 12 45 14 48 23 27 8
-20 11 -16 26 35 24 76 37 92 53 62 11 -22 12 -22 29 14 22 48 45 67 45 39 0
-16 10 -11 56 31 31 29 73 68 93 88 20 20 38 37 40 38 2 0 1 -20 -2 -46z m100
-303 c73 -37 176 -137 287 -280 102 -130 187 -252 182 -257 -2 -3 -14 0 -25 7
-31 16 -26 5 20 -45 22 -24 38 -49 34 -55 -10 -16 -61 18 -118 80 -54 59 -39
32 40 -72 24 -31 43 -60 43 -64 0 -4 -12 -20 -27 -36 l-26 -28 -34 68 c-18 37
-47 83 -64 102 -30 35 -30 34 10 -45 42 -85 59 -149 43 -159 -6 -3 -33 12 -60
33 l-50 40 9 -37 c11 -49 -10 -93 -57 -126 -40 -27 -92 -34 -111 -15 -7 7 -6
27 3 67 17 71 17 113 0 52 -17 -59 -38 -100 -69 -128 l-24 -23 -6 79 c-6 73
-43 202 -64 223 -5 5 -2 -21 8 -58 39 -147 12 -239 -83 -289 -33 -17 -32 -19
-12 37 18 50 21 162 6 199 -9 22 -11 18 -11 -31 -1 -63 -38 -148 -75 -172
l-23 -16 8 47 c5 25 13 62 19 81 15 57 5 46 -25 -24 -16 -36 -34 -70 -41 -76
-21 -17 -37 35 -31 100 l4 54 -29 -56 c-15 -32 -33 -57 -38 -57 -28 0 1 213
37 269 l15 23 18 -30 c10 -16 35 -42 55 -58 32 -24 39 -26 57 -15 15 9 23 10
31 2 6 -6 15 -11 19 -11 11 0 58 99 58 122 0 16 3 15 43 -2 53 -25 84 -25 98
-1 7 10 20 16 30 14 13 -4 20 4 27 31 6 20 20 48 32 63 18 24 20 35 15 97 -8
93 -20 122 -56 135 -23 8 -32 6 -51 -10 l-23 -20 26 5 c15 3 34 -1 47 -10 25
-17 31 -49 7 -40 -13 5 -13 2 0 -25 18 -34 17 -105 -2 -102 -6 2 -17 -13 -23
-32 -13 -39 -53 -75 -83 -75 -11 0 -39 20 -63 44 -36 35 -44 50 -44 79 0 29 7
41 35 64 36 29 48 60 19 49 -9 -4 -25 -4 -36 0 -17 5 -17 7 4 24 l23 19 -36
-6 c-39 -6 -184 31 -196 50 -9 14 109 125 142 133 19 5 39 1 61 -11 25 -13 39
-15 61 -7 l28 10 -45 21 c-57 26 -90 26 -141 0 l-40 -20 11 21 c19 36 95 63
154 57 42 -5 47 -4 31 5 -11 7 -43 12 -71 12 -61 0 -117 -33 -148 -86 -52 -90
-95 -108 -58 -26 61 138 187 184 319 118z m-357 -230 c13 -9 13 -11 0 -20 -8
-5 -23 -10 -32 -10 -22 0 -33 -19 -20 -32 12 -12 46 -3 67 19 11 10 20 12 28
5 7 -5 41 -19 77 -31 93 -31 96 -33 80 -70 -10 -26 -10 -41 5 -96 15 -55 16
-72 6 -105 -14 -47 -29 -50 -83 -17 -45 27 -85 78 -100 129 -13 44 -5 57 23
40 15 -10 24 -10 34 -2 7 6 24 8 38 5 25 -7 47 9 67 46 9 16 7 21 -15 29 -68
26 -216 3 -312 -49 -30 -17 -53 -24 -53 -18 1 101 127 218 190 177z m135 -133
c26 -20 11 -23 -85 -18 l-85 4 40 13 c53 17 107 17 130 1z m849 -319 c8 -12
13 -25 10 -30 -7 -11 -6 -11 54 12 29 11 63 20 76 20 29 0 54 -27 62 -68 5
-23 20 -41 60 -68 30 -21 53 -39 51 -40 -1 -2 -23 2 -47 7 -54 13 -179 4 -246
-16 -27 -8 -51 -15 -53 -15 -3 0 6 12 20 27 l24 26 -35 -20 c-19 -12 -60 -35
-90 -52 l-55 -32 31 28 c17 15 44 38 60 51 l29 23 -43 -23 c-24 -12 -72 -46
-105 -75 -34 -29 -90 -76 -124 -105 -34 -29 -58 -54 -53 -56 11 -4 121 51 225
113 135 80 193 99 315 99 91 1 111 -2 148 -22 63 -34 126 -94 202 -197 136
-182 173 -256 299 -597 43 -117 108 -284 145 -371 77 -182 105 -255 186 -494
65 -188 91 -250 232 -548 52 -110 97 -209 101 -220 10 -30 -155 147 -233 250
-147 196 -289 469 -405 780 -158 424 -269 683 -386 900 -150 277 -235 337
-482 339 -135 1 -141 5 -62 42 l30 15 -35 -6 c-19 -3 -80 -28 -135 -55 -140
-68 -330 -121 -434 -120 l-36 1 52 18 c125 45 239 112 348 204 61 50 124 102
140 115 27 21 24 20 -22 -4 -29 -15 -103 -65 -164 -111 -117 -89 -230 -150
-341 -184 l-68 -21 -42 25 c-24 14 -61 44 -83 66 l-39 41 49 0 c28 0 86 7 130
15 44 8 119 21 167 30 47 8 108 24 134 36 86 36 210 127 300 218 94 95 104 98
138 49z m-1084 -100 c0 -7 -3 -23 -6 -36 -5 -18 -9 -20 -20 -11 -17 14 -18 31
-2 47 16 16 28 15 28 0z m93 -226 c98 -98 175 -181 171 -185 -15 -15 -59 -6
-190 39 -160 54 -211 58 -288 20 -71 -35 -173 -130 -235 -220 -105 -153 -221
-427 -272 -646 -28 -120 -85 -479 -114 -720 -13 -113 -27 -221 -31 -240 -17
-86 9 -9 55 166 28 105 55 204 61 220 l11 29 17 -22 c14 -19 31 -23 99 -29 45
-4 87 -10 93 -14 9 -5 -1 -37 -34 -116 -25 -59 -44 -109 -42 -111 2 -2 35 47
74 110 63 100 76 115 109 125 20 6 38 10 40 8 2 -2 -16 -70 -39 -152 l-42
-149 -80 -85 c-45 -47 -109 -116 -144 -155 -70 -77 -70 -75 -2 35 25 41 62
102 80 135 111 197 -174 -206 -343 -485 -57 -94 -127 -192 -127 -177 0 1 20
63 45 137 94 279 134 468 170 797 47 425 97 713 166 958 55 194 86 249 256
451 94 113 129 145 206 190 27 16 33 23 17 19 -72 -20 -165 -91 -254 -195 -46
-54 -31 -19 30 66 78 111 270 259 327 251 18 -2 27 1 27 11 0 9 6 12 16 8 12
-5 10 4 -9 36 -22 39 -26 68 -9 68 4 0 87 -80 185 -178z m924 -117 c6 -2 17
-29 23 -59 19 -94 72 -186 148 -257 37 -35 86 -73 110 -83 23 -10 42 -22 42
-27 0 -20 -90 -117 -163 -175 -201 -159 -382 -231 -609 -241 -164 -8 -162 -9
-192 85 -25 81 -51 200 -45 206 2 3 24 0 49 -4 100 -20 314 -7 445 26 66 17
186 72 225 104 17 14 2 10 -50 -14 -74 -34 -198 -71 -207 -63 -2 3 25 21 61
41 90 51 91 62 2 20 -117 -53 -220 -75 -387 -81 l-146 -5 -6 23 c-4 13 -7 67
-7 120 l0 96 98 5 c93 5 249 34 238 45 -2 3 -29 0 -58 -7 -29 -6 -104 -14
-166 -17 l-113 -6 3 84 c3 78 4 84 23 81 80 -14 288 24 448 82 74 27 99 31
155 28 37 -2 72 -5 79 -7z m202 -10 c90 -24 202 -105 124 -90 -22 4 -19 1 14
-15 23 -11 57 -38 76 -60 34 -40 130 -220 122 -228 -7 -7 -121 64 -192 120
-35 27 -99 89 -143 136 -56 60 -78 78 -71 60 6 -16 9 -28 7 -28 -7 0 -54 76
-61 98 -6 20 -3 22 32 22 21 0 62 -7 92 -15z m-1271 -84 c-33 -49 -33 -50 -39
-23 -12 50 -10 60 14 65 58 11 59 10 25 -42z m187 -2 c80 -21 118 -24 147 -8
19 10 20 9 14 -28 -3 -21 -8 -59 -12 -85 -6 -48 -6 -48 -44 -48 -21 0 -71 7
-111 15 -40 9 -74 13 -76 11 -9 -8 101 -37 163 -43 l62 -6 4 -106 c6 -123 1
-132 -65 -124 -168 19 -307 95 -307 167 0 58 30 171 60 233 l30 61 33 -10 c17
-5 64 -18 102 -29z m-275 -41 c0 -10 -5 -18 -12 -18 -9 0 -9 -3 0 -12 26 -26
6 -152 -38 -239 -34 -66 -107 -135 -183 -174 -85 -43 -128 -82 -168 -150 -16
-27 -29 -47 -29 -43 0 21 47 122 86 186 25 40 56 100 69 133 55 138 145 276
218 329 42 31 56 28 57 -12z m116 -347 c72 -35 182 -61 263 -61 l60 0 7 -37
c7 -45 41 -184 50 -207 9 -23 -32 -21 -108 5 -198 67 -338 191 -338 297 0 18
2 32 3 32 2 0 30 -13 63 -29z m1459 -191 c72 -187 105 -350 112 -540 10 -269
-40 -483 -156 -667 -33 -54 -53 -64 -44 -23 8 40 -1 38 -28 -7 -32 -54 -70
-93 -91 -93 -28 0 -75 50 -113 120 -39 73 -45 67 -14 -15 46 -123 126 -160
196 -90 l34 34 20 -43 c35 -80 37 -133 3 -88 -12 15 -13 11 -14 -31 0 -43 -10
-73 -39 -117 -9 -13 -12 -12 -25 5 -15 19 -15 19 -22 -12 -3 -18 -8 -33 -11
-33 -2 0 -20 9 -41 19 -45 23 -67 46 -85 90 l-14 33 -7 -28 -8 -29 -13 25 c-7
14 -16 43 -20 65 -6 31 -9 36 -14 21 -13 -35 -20 -1 -9 47 9 43 12 46 33 41
23 -6 24 -5 13 24 -7 17 -16 30 -21 29 -18 -4 -67 78 -82 133 -8 30 -15 94
-15 142 0 107 20 167 96 281 44 66 47 74 18 42 -111 -125 -147 -214 -142 -351
l3 -95 -28 63 c-51 113 -62 170 -47 235 11 53 18 64 89 128 42 39 115 109 162
156 71 72 87 84 96 71 8 -13 19 -3 62 58 47 67 131 226 131 247 0 4 -25 -33
-54 -84 -30 -51 -69 -113 -87 -138 -31 -43 -33 -44 -51 -28 -11 10 -18 12 -18
4 0 -21 -150 -169 -225 -220 -79 -55 -173 -95 -244 -104 -37 -5 -47 -2 -67 20
-23 24 -106 180 -138 257 l-16 39 47 -7 c123 -16 330 34 460 112 83 49 204
152 258 218 l40 49 -70 -64 c-168 -153 -327 -248 -460 -276 -38 -8 -118 -15
-177 -15 l-107 0 -20 55 c-12 31 -21 61 -21 67 0 7 23 9 73 5 158 -11 356 27
497 96 93 46 171 100 275 189 103 89 97 90 140 -22z m-1663 53 c47 -43 63
-126 34 -181 -8 -15 -51 -57 -96 -92 -46 -36 -96 -81 -111 -100 l-29 -35 0 32
c0 25 9 39 43 67 51 43 38 47 -25 7 -42 -27 -50 -29 -80 -18 -18 6 -35 13 -37
14 -2 1 23 39 55 85 37 53 48 74 30 58 -15 -14 -48 -53 -72 -87 -35 -49 -51
-63 -71 -63 -20 0 -24 4 -19 18 18 47 106 190 144 233 71 80 182 109 234 62z
m393 -219 c50 -24 126 -53 170 -64 43 -11 82 -24 86 -28 3 -4 13 -33 22 -64
l15 -57 -31 5 c-65 12 -143 37 -201 65 -34 17 -52 22 -41 13 35 -29 140 -74
213 -92 l70 -17 47 -103 c26 -56 63 -126 81 -154 18 -29 31 -54 29 -56 -7 -8
-165 52 -224 85 -35 19 -97 67 -138 106 -61 58 -82 87 -119 161 -24 50 -44 82
-44 72 0 -19 -1 -19 -21 -1 -38 36 -99 138 -115 194 -9 31 -18 64 -21 75 -3
11 20 -2 63 -39 38 -31 110 -76 159 -101z m-655 -124 c27 -15 15 -36 -31 -54
-44 -18 -96 -21 -118 -7 -12 8 -12 13 2 35 16 24 24 26 110 34 10 1 27 -3 37
-8z m646 -201 c55 -52 127 -116 161 -142 33 -26 87 -73 120 -105 32 -32 85
-73 118 -92 32 -19 77 -50 98 -69 41 -37 92 -125 81 -142 -3 -5 -1 -16 6 -24
16 -20 25 -121 11 -129 -32 -20 -242 141 -372 285 -74 83 -155 185 -177 224
-6 11 -12 15 -12 9 0 -17 94 -169 154 -249 68 -90 175 -189 286 -264 67 -45
91 -68 112 -107 30 -54 44 -120 33 -155 l-8 -23 -23 29 -24 30 0 -25 c-1 -14
-9 -41 -20 -60 l-18 -35 0 46 c1 25 -4 54 -10 65 -10 17 -11 15 -12 -15 0 -44
-34 -115 -67 -141 l-26 -20 -21 52 c-12 29 -28 62 -34 73 l-13 20 5 -20 c2
-11 7 -33 11 -50 l6 -29 -21 19 c-29 26 -50 68 -51 102 l-1 28 -8 -30 -7 -30
-8 32 c-4 18 -12 31 -19 30 -6 -1 -12 11 -14 27 -3 24 -1 28 15 23 97 -32 101
-32 148 -9 39 19 75 58 88 97 2 6 14 1 27 -10 l23 -20 -17 26 c-9 15 -28 29
-41 32 -21 3 -25 0 -25 -20 0 -30 -47 -79 -85 -89 -59 -15 -116 38 -180 166
-15 30 -57 100 -94 155 -89 132 -111 172 -160 285 -43 103 -95 289 -105 384
l-6 58 39 -48 c21 -27 83 -92 137 -145z m-585 64 c20 -22 43 -59 50 -81 12
-41 5 -112 -11 -112 -5 0 -21 15 -36 34 l-28 34 -35 -19 c-34 -18 -72 -17 -97
3 -8 6 -13 0 -16 -17 -3 -14 -1 -25 5 -25 6 0 0 -11 -13 -25 -24 -25 -14 -33
20 -15 15 8 17 6 13 -10 -6 -24 5 -25 35 -4 34 24 52 11 52 -36 0 -43 -19 -61
-43 -42 -6 6 -38 13 -70 17 -31 4 -67 15 -80 25 -20 16 -22 25 -19 96 3 87 11
193 16 209 2 6 48 10 111 9 l108 0 38 -41z m236 -323 c-5 -249 -18 -417 -37
-464 -8 -20 -9 -20 -9 -2 -1 32 -42 106 -67 123 -35 23 -68 9 -110 -45 -20
-26 -34 -38 -30 -27 3 11 28 109 55 219 32 126 57 206 69 220 11 11 24 30 30
41 10 17 11 13 11 -25 1 -25 -4 -76 -9 -114 -25 -170 19 -13 67 244 15 80 29
134 31 120 2 -14 2 -144 -1 -290z m1911 45 c104 -361 186 -572 302 -779 28
-49 48 -91 47 -93 -10 -9 -60 44 -102 106 -91 138 -187 365 -245 584 -41 154
-84 415 -66 396 2 -2 31 -98 64 -214z m-2069 50 c12 -12 12 -17 -3 -39 -20
-31 -61 -35 -76 -7 -14 27 -13 37 6 56 17 17 49 13 73 -10z m290 -349 c12 -87
21 -159 19 -160 -9 -6 -101 -26 -104 -23 -4 4 21 197 37 290 7 37 16 64 19 60
4 -4 17 -79 29 -167z m2097 -311 c13 -30 21 -55 18 -55 -6 0 -64 125 -64 137
1 11 18 -20 46 -82z m-722 -565 c8 -41 17 -83 21 -92 6 -16 1 -18 -45 -18 -57
0 -66 20 -14 31 l29 7 -27 1 c-26 1 -28 4 -28 44 0 23 -3 52 -6 64 -5 18 -3
21 18 17 l23 -5 -22 12 c-23 12 -32 39 -13 39 6 0 10 5 10 10 0 6 -7 10 -15
10 -8 0 -15 9 -15 20 0 13 5 18 15 14 8 -4 15 -1 15 5 0 6 -9 11 -20 11 -14 0
-20 7 -20 24 0 19 4 23 19 19 13 -3 24 2 33 16 12 19 14 12 20 -66 4 -49 14
-122 22 -163z m-708 133 c-18 -100 -21 -209 -6 -218 33 -21 -30 -34 -87 -19
-32 9 -29 24 5 24 23 1 24 2 10 11 -25 14 -22 35 5 44 19 6 20 8 4 12 -27 7
-17 39 11 36 14 -2 21 1 17 7 -3 6 -13 10 -21 10 -9 0 -14 6 -11 13 2 6 11 11
21 9 9 -2 16 2 16 8 0 5 -7 10 -15 10 -23 0 -18 27 8 35 l22 8 -22 4 c-20 4
-22 10 -22 53 1 33 5 47 13 44 7 -3 23 -1 37 4 13 5 25 6 27 2 2 -5 -4 -48
-12 -97z m-48 -270 c40 -4 66 -11 69 -20 3 -8 18 -20 33 -28 34 -17 60 -42 60
-57 0 -13 -105 -1 -140 16 -21 10 -33 8 -78 -12 -29 -13 -87 -30 -130 -37 -42
-8 -85 -17 -94 -20 -36 -14 -10 33 30 54 12 6 27 9 33 5 6 -4 14 -2 18 3 3 6
24 20 46 31 51 27 80 50 73 58 -3 3 -25 -4 -49 -17 -24 -12 -68 -30 -98 -40
-30 -11 -65 -29 -78 -41 -25 -23 -44 -18 -23 7 18 21 5 19 -57 -11 -64 -32
-81 -24 -35 17 25 22 42 29 75 29 58 0 152 26 202 55 22 13 49 21 60 19 11 -2
49 -7 83 -11z m844 -28 c29 -19 72 -43 95 -51 34 -13 43 -22 43 -40 0 -13 -4
-24 -8 -24 -31 0 -107 33 -147 64 -68 52 -82 46 -40 -15 35 -52 40 -69 26
-102 -6 -17 -8 -17 -25 2 -10 11 -31 47 -47 78 -22 46 -28 53 -29 33 -1 -23
-10 -28 -102 -58 -55 -18 -103 -30 -105 -28 -8 8 17 45 38 56 15 9 24 8 35 -1
11 -9 14 -8 14 3 0 7 13 21 29 31 16 9 40 30 54 46 16 19 37 31 58 34 19 2 39
5 46 5 6 1 35 -14 65 -33z m222 -121 c5 -12 2 -15 -10 -10 -9 3 -27 9 -40 12
-27 7 -26 6 -18 28 5 14 9 14 34 1 15 -8 30 -22 34 -31z"/>
<path d="M1962 4537 c-26 -27 -56 -97 -42 -97 5 0 19 17 30 38 11 20 27 47 36
60 21 29 4 29 -24 -1z"/>
<path d="M2007 4270 c-15 -12 -34 -35 -42 -51 -15 -28 -15 -29 10 -29 14 0 25
6 25 13 0 8 4 7 10 -3 7 -11 5 -18 -5 -26 -13 -10 -12 -12 7 -18 59 -15 104
-7 152 29 25 20 46 38 46 40 0 12 -50 -13 -72 -36 -23 -25 -34 -29 -75 -27
l-48 1 45 6 c37 5 47 11 59 35 12 25 11 31 -6 55 -26 34 -70 39 -106 11z m56
-25 c1 -5 -6 -11 -15 -13 -11 -2 -18 3 -18 13 0 17 30 18 33 0z m28 -58 c-10
-9 -11 -8 -5 6 3 10 9 15 12 12 3 -3 0 -11 -7 -18z"/>
<path d="M2220 4276 c0 -3 9 -10 20 -16 11 -6 20 -8 20 -6 0 3 -9 10 -20 16
-11 6 -20 8 -20 6z"/>
<path d="M2207 3345 c-27 -7 -72 -16 -100 -20 -75 -10 -93 -24 -32 -25 56 0
151 22 193 45 23 12 24 14 7 14 -11 -1 -42 -7 -68 -14z"/>
<path d="M3145 3320 c17 -30 127 -160 148 -175 58 -41 101 2 77 77 l-14 43 -6
-42 c-3 -24 -9 -45 -12 -49 -11 -11 -52 18 -127 90 -41 39 -70 64 -66 56z"/>
<path d="M3471 3031 c-2 -27 61 -289 95 -396 19 -60 49 -137 68 -170 18 -33
65 -116 104 -185 39 -69 102 -196 139 -282 36 -87 68 -156 70 -154 6 6 -73
216 -130 346 -30 69 -87 199 -127 290 -68 155 -117 281 -188 480 -17 47 -31
79 -31 71z"/>
<path d="M3950 1825 c0 -5 5 -17 10 -25 5 -8 10 -10 10 -5 0 6 -5 17 -10 25
-5 8 -10 11 -10 5z"/>
<path d="M1815 3351 l70 -74 -105 56 c-117 62 -194 87 -213 68 -8 -8 -5 -11
11 -11 12 0 78 -29 145 -63 116 -61 223 -104 233 -95 4 5 -151 149 -191 178
-11 7 12 -19 50 -59z"/>
<path d="M871 1384 c0 -11 3 -14 6 -6 3 7 2 16 -1 19 -3 4 -6 -2 -5 -13z"/>
<path d="M1760 3050 c8 -5 20 -10 25 -10 6 0 3 5 -5 10 -8 5 -19 10 -25 10 -5
0 -3 -5 5 -10z"/>
<path d="M2991 1882 c-7 -20 -40 -91 -73 -157 -66 -133 -63 -143 6 -20 43 74
93 201 84 210 -2 3 -10 -12 -17 -33z"/>
<path d="M2041 1613 c28 -38 85 -96 114 -115 17 -12 -4 13 -45 55 -73 75 -96
95 -69 60z"/>
<path d="M3018 733 c7 -3 16 -2 19 1 4 3 -2 6 -13 5 -11 0 -14 -3 -6 -6z"/>
<path d="M3018 693 c7 -3 16 -2 19 1 4 3 -2 6 -13 5 -11 0 -14 -3 -6 -6z"/>
<path d="M2300 880 c0 -5 7 -10 15 -10 8 0 15 5 15 10 0 6 -7 10 -15 10 -8 0
-15 -4 -15 -10z"/>
</g>
</svg>