<?xml version="1.0" standalone="no"?>
<!DOCTYPE svg PUBLIC "-//W3C//DTD SVG 20010904//EN"
 "http://www.w3.org/TR/2001/REC-SVG-20010904/DTD/svg10.dtd">
<svg version="1.0" xmlns="http://www.w3.org/2000/svg"
 width="512.000000pt" height="512.000000pt" viewBox="0 0 512.000000 512.000000"
 preserveAspectRatio="xMidYMid meet">
<metadata>
Created by potrace 1.16, written by Peter Selinger 2001-2019
</metadata>
<g transform="translate(0.000000,512.000000) scale(0.100000,-0.100000)"
fill="#000000" stroke="none">
<path d="M3010 4529 c-113 -8 -182 -24 -320 -71 -140 -48 -280 -119 -388 -196
-74 -53 -282 -229 -282 -238 0 -3 9 0 19 6 11 5 28 10 38 10 13 0 9 -6 -13
-19 -36 -22 -51 -41 -32 -41 7 0 -14 -27 -47 -60 -40 -40 -54 -60 -42 -60 24
0 22 -5 -27 -68 -24 -32 -56 -79 -71 -107 -16 -27 -46 -79 -67 -113 -41 -67
-43 -81 -10 -63 17 9 13 -4 -23 -82 -48 -103 -91 -231 -130 -387 -62 -252
-136 -420 -239 -549 -37 -46 -85 -115 -107 -152 -75 -126 -150 -381 -178 -607
-6 -46 -18 -104 -26 -129 -42 -123 -40 -308 3 -343 13 -11 23 -41 32 -100 24
-168 30 -194 47 -219 14 -21 18 -58 23 -201 3 -96 10 -182 15 -190 5 -8 8 -85
6 -170 -1 -85 3 -206 10 -267 13 -113 13 -113 40 -113 19 0 29 7 34 22 l8 23
4 -22 c3 -15 12 -23 25 -23 17 0 19 5 15 32 -3 18 -11 87 -17 153 -6 66 -18
177 -26 247 -17 150 -18 205 -4 213 6 4 10 -12 10 -42 0 -26 3 -65 6 -85 8
-47 50 -91 79 -84 20 5 20 3 16 -214 -3 -218 -3 -220 18 -220 20 0 21 5 22 98
1 78 3 89 10 57 4 -22 8 -66 8 -97 l1 -58 59 0 c58 0 60 1 70 33 48 150 141
631 141 728 0 5 6 9 14 9 8 0 17 6 20 13 3 6 4 3 3 -9 -1 -11 1 -23 5 -25 11
-7 74 83 89 126 l14 40 3 -53 c6 -102 -72 -425 -178 -737 -22 -65 -40 -120
-40 -122 0 -2 11 -3 24 -3 20 0 28 9 44 53 48 128 160 499 185 612 4 17 5 17
6 -3 0 -13 5 -32 11 -42 12 -23 -36 -202 -115 -425 -75 -211 -71 -195 -47
-195 24 0 46 52 154 370 38 113 98 266 133 340 94 198 136 390 190 875 43 377
34 582 -35 823 -35 118 -57 167 -101 217 -82 93 -199 117 -309 63 -159 -79
-318 -302 -395 -553 -20 -66 -52 -169 -72 -230 -19 -60 -44 -164 -54 -230 -28
-174 -120 -505 -140 -505 -5 0 -9 23 -9 52 0 40 9 70 39 133 42 84 87 250 97
357 4 34 4 61 1 57 -4 -3 -20 -63 -37 -135 -40 -170 -75 -272 -104 -309 -37
-46 -50 -24 -50 83 0 84 23 240 31 215 7 -20 38 -15 61 10 43 46 210 448 199
480 -2 6 -20 -36 -39 -94 -68 -195 -88 -228 -123 -199 -20 17 -19 76 5 184 11
49 18 91 16 93 -6 6 -44 -149 -50 -205 -5 -53 8 -82 44 -94 15 -5 -23 -96 -57
-137 l-19 -24 0 96 c1 52 4 93 9 90 4 -2 7 15 7 39 0 86 58 284 118 403 41 83
110 187 120 181 4 -2 27 14 52 37 25 22 36 34 25 27 -11 -8 -30 -23 -42 -34
-13 -11 -23 -15 -23 -10 0 17 176 184 185 176 5 -4 5 -2 2 5 -10 17 55 66 158
119 49 26 106 59 125 75 36 27 36 27 45 6 19 -42 72 -67 141 -67 34 0 74 4 88
10 23 8 27 6 41 -24 9 -19 25 -42 35 -51 14 -13 16 -23 9 -53 -14 -62 -10
-123 12 -169 36 -74 152 -143 240 -143 35 0 39 -2 39 -26 0 -47 22 -103 56
-143 l33 -38 -33 -6 c-109 -18 -203 61 -222 185 -10 63 -23 82 -24 32 0 -97
48 -187 121 -224 39 -21 125 -26 164 -11 12 5 34 2 55 -7 44 -18 142 -12 195
14 54 25 103 78 132 141 13 29 29 53 35 53 6 0 28 -16 49 -35 51 -46 112 -49
153 -9 35 36 34 55 -2 21 -64 -61 -158 -16 -183 88 l-7 30 -1 -32 c-1 -28 -6
-33 -36 -42 -48 -13 -98 2 -129 40 -32 38 -32 40 0 89 15 22 24 43 21 46 -3 3
-13 -6 -23 -21 -39 -60 -118 -73 -164 -27 -36 37 -51 114 -26 141 21 23 21 37
-1 20 -15 -13 -16 -10 -9 31 4 25 11 49 16 54 6 6 34 13 62 16 29 4 60 10 69
14 14 6 18 -2 24 -41 10 -72 43 -140 84 -173 38 -31 53 -45 88 -85 43 -48 117
-23 132 45 9 37 11 34 30 -36 16 -61 51 -106 101 -132 44 -22 55 -37 70 -100
6 -23 4 -37 -6 -47 -9 -8 -10 -16 -4 -20 12 -7 -13 -73 -37 -95 -14 -13 -14
-13 -5 5 16 33 23 92 15 122 -6 23 -9 15 -14 -40 -7 -81 -30 -118 -81 -131
-53 -13 -120 22 -154 80 -23 39 -26 53 -22 109 3 45 1 62 -7 54 -5 -5 -10 -41
-10 -78 0 -58 4 -73 28 -109 16 -22 48 -50 70 -62 l42 -22 -57 4 c-68 5 -112
35 -163 111 -37 55 -45 57 -19 4 20 -40 81 -104 116 -123 31 -16 76 -18 127
-4 20 5 47 11 61 14 38 8 102 67 115 107 9 27 19 35 46 41 50 11 59 4 59 -44
-1 -125 -114 -210 -177 -132 -12 16 -23 24 -23 18 0 -20 39 -62 65 -68 14 -4
40 0 60 8 40 17 44 9 18 -35 -21 -36 -62 -51 -104 -39 -41 12 -66 35 -91 83
-22 44 -34 45 -18 2 15 -40 4 -61 -41 -79 -53 -22 -106 -8 -160 41 -47 42 -66
75 -91 158 l-18 60 5 -55 c2 -30 16 -77 29 -104 14 -28 23 -52 21 -55 -3 -2
-24 1 -47 8 -46 14 -95 60 -104 98 -4 13 -9 22 -13 20 -111 -60 -166 -60 -221
0 -19 22 -41 48 -47 59 -7 10 -6 1 4 -21 9 -22 19 -71 23 -110 6 -69 22 -111
63 -169 l20 -28 -34 7 c-82 18 -143 68 -178 145 -12 27 -21 37 -21 25 0 -27
33 -95 58 -121 36 -37 88 -64 138 -70 27 -3 72 -15 100 -26 37 -15 62 -19 88
-14 44 8 104 59 122 103 21 50 16 52 -11 6 -45 -74 -127 -103 -193 -69 -34 18
-85 72 -105 111 -12 24 -37 120 -37 140 0 3 15 -4 33 -15 43 -27 94 -25 149 4
l45 24 12 -35 c18 -50 85 -95 136 -92 30 2 51 -4 84 -27 37 -24 55 -29 104
-29 l59 0 -4 -72 c-3 -60 -8 -79 -34 -115 -83 -119 -197 -114 -280 12 -28 43
-44 48 -24 8 17 -33 80 -97 112 -114 32 -17 91 -18 121 -3 12 6 36 24 52 39
25 24 38 28 81 27 40 -2 59 4 91 25 44 29 93 113 93 157 -1 21 -5 16 -19 -21
-10 -25 -28 -60 -40 -76 -28 -39 -100 -75 -135 -66 -31 7 -30 3 -10 49 10 25
15 60 12 101 -2 50 1 66 16 83 l19 21 28 -26 c36 -34 105 -44 143 -19 l26 17
0 -49 c0 -56 -14 -105 -42 -145 -25 -37 -23 -46 7 -18 35 32 56 106 55 186 -1
39 7 102 17 144 l19 75 13 -55 c24 -110 43 -333 38 -440 -8 -137 -49 -402 -88
-560 -17 -69 -64 -226 -104 -350 -41 -124 -88 -281 -105 -349 -17 -68 -46
-161 -65 -207 l-33 -84 62 0 63 0 63 137 c83 182 142 330 184 461 18 59 43
130 54 157 11 28 29 95 41 148 12 55 36 128 55 166 19 37 44 100 56 140 21 66
22 85 15 209 -8 164 -8 184 1 287 7 84 -8 266 -32 395 -21 111 -49 187 -106
286 -62 108 -85 202 -67 276 11 49 5 118 -17 181 -12 35 -11 41 12 85 23 41
25 56 22 122 -3 51 -12 89 -26 117 -34 65 -30 73 28 73 55 0 148 28 204 61 34
20 36 20 43 2 5 -10 8 -47 7 -83 0 -70 -29 -147 -81 -223 -14 -20 -23 -40 -20
-43 3 -3 25 3 49 14 116 52 227 188 273 335 67 209 31 431 -102 629 -38 56
-44 71 -32 79 10 6 11 9 1 9 -7 0 -10 4 -7 10 3 5 8 19 10 31 4 17 2 19 -10 9
-13 -11 -15 -7 -15 21 0 43 -41 131 -85 185 -19 23 -63 63 -97 89 -174 130
-384 184 -648 164z m311 -43 c254 -54 468 -227 492 -397 l5 -36 -34 30 c-20
19 -35 41 -35 56 -2 24 -2 24 -6 4 -2 -13 -8 -23 -12 -23 -5 0 -6 11 -3 25 6
33 -6 32 -20 -2 l-11 -28 -7 35 c-4 19 -8 26 -9 14 0 -11 -8 -29 -16 -40 -14
-18 -14 -18 -15 6 -1 14 -5 34 -10 45 -7 15 -8 11 -4 -15 4 -27 0 -42 -14 -60
l-20 -25 5 30 c3 23 2 27 -6 15 -6 -8 -11 -25 -11 -38 0 -12 -9 -42 -21 -65
l-20 -42 30 35 c61 70 74 80 105 80 39 0 93 -32 108 -65 10 -22 8 -31 -18 -68
-36 -51 -79 -81 -147 -102 -29 -9 -65 -23 -82 -31 l-30 -16 25 22 c14 11 43
30 65 42 88 46 135 99 120 136 -5 13 -11 10 -38 -15 -18 -17 -52 -41 -77 -54
-55 -29 -115 -69 -105 -69 4 0 -8 -17 -25 -37 -18 -20 -43 -60 -56 -89 -24
-56 -44 -77 -44 -48 0 30 -15 3 -43 -74 -20 -54 -27 -92 -27 -146 0 -78 36
-242 64 -293 l16 -28 -6 30 c-4 17 -11 38 -16 48 -5 9 -6 17 -4 17 3 0 19 -26
36 -57 17 -32 28 -47 24 -33 -4 14 -13 37 -21 53 -7 15 -10 27 -5 27 30 0 92
-127 91 -185 l-1 -40 -13 40 c-13 40 -13 39 -8 -26 4 -49 1 -73 -11 -97 -9
-18 -18 -32 -20 -32 -2 0 -1 22 2 49 4 49 -13 147 -28 156 -4 2 -4 -15 1 -38
19 -99 3 -203 -28 -184 -15 10 -36 93 -27 108 5 9 10 8 15 -7 5 -10 6 10 2 46
-3 36 -12 77 -19 93 -21 40 -24 33 -6 -16 20 -55 10 -92 -29 -112 -28 -15 -69
-13 -69 4 0 4 7 23 16 41 20 38 15 139 -10 210 -9 25 -13 34 -11 20 3 -14 8
-66 12 -117 5 -77 3 -96 -11 -118 -10 -14 -24 -25 -33 -23 -14 2 -17 21 -19
108 -2 58 -7 146 -13 195 -8 77 -9 67 -4 -76 3 -92 2 -176 -2 -188 -7 -24 -38
-43 -57 -36 -19 7 -30 232 -16 310 7 36 6 37 -4 15 -8 -15 -12 -76 -13 -155 0
-118 -2 -130 -18 -133 -32 -6 -66 7 -82 32 -15 22 -15 30 -1 84 25 93 18 105
-12 22 -20 -54 -34 -78 -53 -89 -33 -18 -59 -9 -59 21 0 29 45 125 73 158 16
18 13 17 -12 -5 -41 -37 -70 -98 -71 -148 0 -47 33 -68 76 -49 23 11 28 9 60
-25 l35 -37 -29 -29 c-73 -72 -201 -49 -257 47 -24 41 -24 44 -10 92 8 27 27
69 42 94 16 25 33 56 40 70 20 45 120 145 174 175 30 16 49 22 43 14 -6 -8
-15 -25 -18 -39 -5 -15 3 -7 20 20 34 57 48 73 106 122 l48 40 -54 -109 c-29
-59 -57 -119 -60 -133 -4 -14 23 32 58 102 44 85 82 144 116 180 28 29 58 66
66 81 9 16 30 35 47 42 25 11 27 14 11 15 -11 0 -52 -24 -90 -53 -136 -103
-256 -134 -399 -104 -86 18 -97 14 -20 -9 42 -12 83 -15 149 -12 104 5 157 24
246 90 l55 41 -50 -52 c-27 -29 -79 -72 -115 -96 -36 -24 -76 -55 -89 -69 -13
-13 -47 -37 -77 -51 -37 -18 -77 -52 -130 -111 -106 -117 -180 -152 -246 -118
l-33 17 19 -21 c36 -41 112 -37 180 11 l28 20 -29 -40 c-26 -36 -52 -89 -67
-135 -9 -29 -102 -25 -149 7 -20 14 -37 30 -37 36 0 6 -4 7 -10 4 -5 -3 -23 1
-40 10 -37 19 -58 58 -42 77 8 10 0 12 -38 10 -109 -8 -198 93 -175 199 5 23
12 29 27 27 16 -2 26 -17 38 -56 10 -29 26 -62 36 -73 23 -25 73 -53 82 -45 3
3 0 6 -6 6 -17 0 -71 50 -87 81 -8 15 -16 44 -17 63 -2 20 -8 36 -15 36 -24 0
-42 44 -38 92 6 74 30 105 120 153 52 29 47 29 -48 6 -35 -8 -39 -7 -49 14
-15 33 17 91 68 128 57 40 132 57 260 57 142 0 192 -15 269 -80 32 -27 66 -50
73 -50 8 0 2 10 -14 22 -16 12 -48 39 -71 59 -56 51 -122 69 -249 69 -168 0
-276 -34 -329 -104 -29 -38 -44 -109 -26 -120 21 -14 11 -23 -31 -29 -57 -8
-112 15 -105 43 3 11 1 18 -3 15 -5 -3 -11 5 -13 17 -3 17 -5 14 -6 -10 -1
-23 7 -40 25 -59 23 -23 31 -25 88 -21 l63 4 -20 -28 c-15 -20 -22 -51 -28
-115 -4 -49 -10 -104 -14 -124 -4 -22 -2 -52 5 -73 14 -45 0 -63 -57 -71 -83
-13 -152 63 -154 170 -1 47 -1 48 -11 21 -13 -36 3 -115 32 -156 39 -55 9 -94
-37 -48 -54 55 -50 169 10 268 25 41 45 60 90 84 62 34 59 49 -4 20 -31 -13
-42 -15 -52 -5 -9 9 -9 16 1 32 8 12 9 18 3 14 -7 -3 -11 2 -11 14 0 10 -3 27
-7 37 -4 12 -3 15 5 10 8 -4 12 0 12 10 0 10 23 40 51 66 28 26 46 48 39 48
-32 0 -184 -189 -167 -207 4 -3 16 11 28 31 11 20 23 36 26 36 3 0 3 -18 -1
-39 -3 -22 -2 -51 3 -65 9 -23 6 -26 -33 -45 -23 -12 -50 -21 -60 -21 -9 0
-15 -4 -11 -9 3 -5 21 -7 39 -4 l34 5 -24 -48 c-40 -80 -28 -242 20 -260 9 -3
14 -10 11 -14 -3 -5 4 -6 14 -3 14 4 24 -3 35 -25 23 -44 94 -76 157 -70 28 3
62 14 78 25 l27 21 1 -41 c1 -23 12 -55 26 -77 21 -30 24 -45 20 -83 -4 -32
-10 -47 -20 -47 -23 0 -84 32 -90 47 -3 7 -9 10 -14 7 -5 -3 -6 -11 -3 -17 4
-7 -4 -1 -19 11 -35 32 -41 66 -20 100 l18 27 -29 -23 c-50 -39 -112 -24 -153
37 -15 22 -23 28 -23 17 0 -46 52 -86 112 -86 l33 -1 -35 -19 c-39 -21 -91
-25 -120 -10 -26 14 -42 44 -56 110 -9 40 -13 47 -13 25 -2 -48 -14 -59 -55
-51 -51 10 -71 46 -67 123 1 20 2 20 30 -8 24 -23 38 -29 73 -29 24 0 53 6 64
14 17 13 13 14 -38 9 -54 -5 -59 -4 -87 25 -28 27 -31 37 -31 93 0 34 -2 60
-5 57 -3 -3 -14 -43 -24 -89 -11 -46 -22 -95 -26 -109 l-6 -25 15 25 15 25 1
-31 c0 -17 -9 -42 -19 -56 -36 -45 -71 -121 -71 -152 0 -17 -17 -58 -36 -91
-19 -33 -33 -51 -30 -40 71 280 158 543 185 565 3 3 7 14 9 25 2 11 24 58 48
105 l45 85 -46 -50 c-42 -46 -44 -47 -25 -14 11 20 31 48 44 62 14 15 19 28
13 30 -14 4 85 148 130 187 21 19 28 30 18 30 -8 0 -15 4 -15 9 0 4 39 50 88
101 86 92 87 93 52 87 l-35 -6 35 30 c194 170 311 244 498 319 234 93 476 119
683 76z m594 -641 c18 -33 36 -71 40 -85 3 -14 -10 4 -30 40 -19 35 -49 81
-65 102 -17 20 -30 40 -30 44 0 19 55 -47 85 -101z m-66 10 c124 -141 158
-403 75 -572 -11 -20 -24 -38 -30 -40 -6 -2 -21 20 -34 49 -40 94 -73 132
-150 172 -71 37 -123 93 -164 173 -35 69 -7 115 78 127 52 8 125 53 157 95 13
17 26 31 30 31 4 0 21 -16 38 -35z m138 -207 c-3 -8 -6 -5 -6 6 -1 11 2 17 5
13 3 -3 4 -12 1 -19z m10 -50 c-3 -7 -5 -2 -5 12 0 14 2 19 5 13 2 -7 2 -19 0
-25z m-477 -63 c0 -5 -5 -3 -10 5 -5 8 -10 20 -10 25 0 6 5 3 10 -5 5 -8 10
-19 10 -25z m487 -52 c-2 -16 -4 -3 -4 27 0 30 2 43 4 28 2 -16 2 -40 0 -55z
m-447 -53 c6 -11 8 -20 6 -20 -3 0 -10 9 -16 20 -6 11 -8 20 -6 20 3 0 10 -9
16 -20z m51 -38 c-7 -2 -18 1 -23 6 -8 8 -4 9 13 5 13 -4 18 -8 10 -11z
m-1324 -146 c18 -9 47 -16 66 -16 28 0 36 -4 41 -24 6 -26 28 -46 121 -106 45
-30 74 -41 118 -46 54 -6 60 -10 82 -44 27 -42 62 -70 116 -93 35 -14 36 -17
35 -62 -2 -39 -7 -51 -30 -68 -16 -11 -49 -22 -75 -25 -40 -4 -52 0 -79 23
-38 31 -67 84 -77 137 -11 56 4 64 28 16 12 -23 34 -51 49 -62 36 -26 114 -28
152 -3 38 25 29 29 -23 11 -70 -24 -134 3 -170 74 -9 16 -9 27 -1 43 11 20 11
20 -19 4 -35 -17 -73 -12 -108 15 -17 13 -34 16 -69 12 -87 -9 -150 52 -142
139 2 27 0 38 -8 35 -16 -6 -70 29 -84 54 -17 31 -2 45 24 22 11 -11 35 -27
53 -36z m-101 12 c3 -9 20 -30 39 -47 l34 -29 -31 -11 c-68 -24 -165 -4 -187
37 -6 12 -11 31 -11 44 0 22 3 23 75 23 62 0 76 -3 81 -17z m-336 -178 c33 0
41 -5 59 -35 11 -19 36 -42 55 -52 19 -9 33 -20 31 -23 -9 -14 36 -59 69 -70
39 -13 79 -5 118 22 26 18 30 18 50 4 12 -9 32 -16 43 -16 11 0 27 -4 35 -10
20 -13 -92 -65 -186 -86 -82 -18 -140 -9 -174 28 -26 29 -25 47 5 93 29 41 26
58 -5 30 -10 -9 -39 -20 -63 -22 -49 -6 -54 -1 -73 57 l-12 35 -1 -42 c-1 -40
-3 -43 -40 -54 -47 -14 -86 2 -78 32 3 11 1 16 -5 13 -18 -11 3 38 40 93 l35
53 29 -25 c20 -17 42 -25 68 -25z m313 -108 c22 -23 22 -24 3 -38 -30 -21 -98
-18 -124 6 -27 25 -29 50 -3 50 10 0 33 10 52 23 34 23 34 23 42 3 5 -12 18
-31 30 -44z m920 34 c13 -9 46 -14 81 -14 76 1 90 -14 83 -90 -7 -69 -35 -117
-68 -117 -23 0 -24 3 -26 74 -2 83 -13 111 -13 34 0 -105 -29 -156 -95 -169
-80 -15 -148 44 -161 137 l-6 46 42 7 c33 5 52 17 88 56 26 27 48 49 50 49 1
1 13 -5 25 -13z m-555 -23 c40 -19 41 -21 24 -36 -25 -22 -86 -47 -117 -47
-58 0 -108 51 -92 93 8 20 134 13 185 -10z m816 -35 c3 -13 6 -41 7 -63 0 -22
3 -34 6 -28 3 9 10 10 24 3 10 -6 29 -8 43 -4 20 5 25 1 35 -27 31 -91 18
-209 -24 -209 -25 0 -78 61 -65 74 5 5 10 16 10 23 0 8 -7 6 -20 -7 -29 -29
-70 -25 -120 11 l-42 31 20 21 c31 35 42 62 48 126 6 55 9 60 33 64 14 2 29 5
32 6 4 0 9 -9 13 -21z m-756 -35 c3 -49 37 -117 72 -147 16 -13 26 -27 23 -30
-13 -12 -125 -6 -153 9 -35 18 -60 62 -60 103 0 25 5 30 29 35 16 3 42 20 57
36 16 17 29 30 29 30 0 1 1 -16 3 -36z m-841 1 c38 7 55 7 126 5 78 -3 37 -43
-141 -135 -63 -33 -140 -80 -173 -106 l-59 -48 22 45 c12 25 27 45 33 45 6 0
31 21 55 47 43 45 29 39 -34 -17 -32 -28 -31 -25 17 47 19 28 42 71 53 96 18
43 19 44 41 30 16 -11 35 -13 60 -9z m670 -41 c28 -4 32 -9 36 -46 4 -37 1
-46 -28 -74 -58 -56 -153 -57 -199 -2 -14 17 -26 35 -26 40 0 5 24 20 53 33
28 13 61 33 72 45 13 16 25 20 40 16 11 -4 34 -9 52 -12z m483 -124 c0 -19 70
-49 114 -49 28 0 46 -4 46 -12 0 -22 52 -78 90 -98 22 -11 53 -20 70 -20 49 0
31 -24 -20 -28 -32 -2 -51 2 -72 18 l-29 21 -35 -30 c-43 -38 -82 -40 -122 -6
-49 41 -92 164 -77 222 6 27 7 27 21 9 8 -11 14 -23 14 -27z m-410 -46 c0 -19
7 -47 15 -63 9 -17 12 -30 7 -30 -10 0 -45 37 -60 65 -8 14 -11 15 -12 5 0
-24 39 -82 61 -87 10 -3 19 -9 19 -13 0 -19 -60 -50 -95 -50 -70 0 -113 39
-128 118 -6 30 -5 32 21 32 35 0 128 46 136 67 10 26 36 -5 36 -44z m742 11
c35 -31 49 -37 103 -47 18 -3 17 -6 -13 -35 -63 -60 -152 -52 -216 18 -41 45
-44 56 -17 65 10 3 26 14 35 24 23 25 62 16 108 -25z m-600 -9 c37 7 37 6 28
-22 -5 -15 -12 -41 -15 -56 -5 -26 -8 -28 -52 -25 -53 3 -78 29 -86 89 l-5 37
46 -15 c27 -8 63 -11 84 -8z m-352 -51 c0 -130 140 -190 236 -102 15 13 39 20
77 22 l55 3 7 -44 c6 -39 3 -48 -25 -83 -39 -49 -103 -75 -165 -67 -93 13
-195 88 -215 158 -11 38 -13 132 -3 142 18 18 33 5 33 -29z m-264 -19 c72 -42
120 -121 154 -256 60 -232 71 -425 41 -694 -45 -400 -95 -734 -108 -722 -2 3
3 49 11 103 9 55 23 164 31 244 9 80 25 199 36 265 38 230 34 499 -11 703 -19
85 -21 55 -3 -38 26 -133 23 -563 -4 -685 l-21 -90 -3 190 -3 190 -6 -145 c-3
-80 -3 -173 2 -208 13 -100 -42 -529 -88 -682 -18 -62 -63 -155 -70 -147 -3 3
4 56 15 119 12 63 32 210 46 328 13 118 29 244 35 280 11 74 26 380 18 380 -3
0 -11 -51 -17 -112 -15 -137 -38 -281 -53 -327 -16 -50 -27 -22 -38 104 -8 74
-7 125 0 166 6 33 12 92 13 133 2 67 4 73 20 64 24 -12 52 -2 77 29 30 38 24
51 -8 20 -15 -15 -36 -27 -46 -27 -15 0 -17 9 -12 88 l6 87 -23 -80 c-21 -76
-22 -78 -25 -40 -2 22 -1 72 3 111 l6 71 41 -1 c33 -1 44 4 62 27 18 24 21 40
18 105 -1 42 -7 93 -11 112 -8 32 -9 29 -10 -28 -1 -35 -8 -76 -16 -92 -26
-51 -79 -51 -115 -1 l-20 29 31 12 c38 16 59 46 58 85 l-1 30 -9 -32 c-17 -57
-82 -82 -121 -46 -23 20 -23 30 2 78 11 22 20 59 20 82 0 41 1 43 25 37 39
-10 75 19 74 59 -1 29 -2 30 -8 7 -4 -14 -19 -32 -34 -40 -24 -13 -29 -13 -37
0 -5 8 -7 17 -5 21 3 3 -13 25 -35 49 -38 41 -41 43 -85 37 -33 -5 -44 -4 -39
5 4 7 3 8 -5 4 -6 -4 -9 -12 -6 -17 4 -5 0 -9 -8 -9 -22 0 -135 -108 -176
-169 -21 -31 -57 -92 -79 -136 -22 -44 -48 -89 -57 -100 -16 -20 -16 -19 -9 5
13 50 54 131 100 202 55 86 182 220 240 254 82 48 167 51 240 9z m1378 -43 c0
-22 -5 -47 -13 -56 -19 -22 -74 -20 -102 4 -24 20 -24 21 -4 33 11 7 36 28 55
48 29 30 37 34 49 24 7 -7 14 -31 15 -53z m46 14 c0 -11 -19 -15 -25 -6 -3 5
1 10 9 10 9 0 16 -2 16 -4z m56 -226 c8 -121 -3 -156 -59 -190 -47 -29 -67
-26 -67 10 0 17 -7 47 -15 67 -8 20 -14 37 -13 38 2 1 19 6 38 11 46 13 76 62
62 101 l-10 28 -1 -27 c-1 -41 -11 -57 -42 -73 -37 -20 -42 -19 -29 4 5 11 9
44 8 73 l-2 53 -3 -50 c-7 -81 -51 -108 -107 -64 -28 22 -49 58 -71 119 l-14
39 28 -1 c16 -1 33 2 40 6 7 4 18 3 25 -3 7 -6 30 -17 52 -24 37 -13 39 -13
66 15 15 16 28 33 28 38 0 5 12 16 28 24 l27 14 12 -51 c7 -29 15 -99 19 -157z
m-1628 188 c22 -22 13 -48 -22 -65 -32 -15 -37 -15 -60 1 -36 23 -32 41 12 59
47 19 55 20 70 5z m1272 -58 c0 -28 -39 -70 -64 -70 -23 0 -76 34 -76 50 0 4
11 11 24 14 14 3 35 19 48 35 l23 29 23 -21 c12 -11 22 -28 22 -37z m-1417
-27 c-18 -38 -66 -74 -79 -60 -4 3 15 32 42 63 51 60 68 59 37 -3z m177 12 c0
-50 -70 -95 -125 -81 -30 8 -40 26 -31 61 5 21 10 24 26 15 30 -16 78 -12 98
9 24 27 32 25 32 -4z m803 -51 c25 -21 39 -25 79 -23 49 3 50 3 68 -38 21 -48
61 -73 115 -73 l36 0 -23 -41 c-84 -150 -301 -186 -392 -65 -18 23 -56 120
-56 142 0 1 20 13 45 27 l44 25 11 -32 c35 -108 182 -184 273 -141 19 9 43 25
53 36 15 17 9 16 -34 -7 -49 -26 -56 -26 -105 -15 -75 17 -118 49 -154 118
-29 55 -29 59 -14 85 9 16 18 28 20 28 2 0 17 -12 34 -26z m-822 -92 c-25 -49
-75 -92 -106 -92 -13 0 -25 -3 -28 -7 -2 -5 -2 -2 0 5 1 7 -6 45 -17 84 -11
40 -18 73 -16 75 1 2 21 -7 43 -19 l40 -22 49 25 c44 21 49 22 52 7 2 -9 -6
-34 -17 -56z m-202 31 c-6 -16 -19 -38 -31 -50 -21 -23 -75 -49 -84 -41 -3 3
8 27 24 54 27 46 38 54 94 63 4 0 3 -11 -3 -26z m1922 -138 c38 -98 56 -182
63 -305 l6 -95 -38 125 c-21 69 -41 132 -45 140 -13 29 5 -75 29 -174 31 -124
47 -252 36 -291 -7 -25 -10 -18 -16 50 -5 44 -19 121 -32 170 -13 50 -21 72
-18 50 27 -223 34 -293 33 -375 l-2 -95 -13 138 c-7 76 -18 164 -24 195 -18
89 -77 313 -93 352 -14 32 -13 36 8 65 30 39 48 109 40 154 l-6 36 21 -30 c11
-16 34 -66 51 -110z m-1887 84 c16 -81 3 -109 -51 -109 -26 0 -36 5 -43 24 -8
21 -3 31 33 69 23 24 45 45 48 46 4 0 9 -13 13 -30z m-117 -117 c-8 -72 -75
-117 -92 -62 -9 28 33 108 58 112 35 6 40 -2 34 -50z m253 33 c0 -25 -28 -73
-49 -85 -49 -26 -103 0 -84 41 6 16 19 22 47 24 20 1 45 9 54 18 20 21 32 22
32 2z m73 -61 c23 -47 21 -67 -8 -102 -43 -51 -105 -45 -119 13 -5 21 -1 31
24 52 17 14 37 38 45 54 18 35 36 30 58 -17z m-246 3 c7 -12 -42 -57 -63 -57
-12 0 -14 7 -9 33 4 17 9 35 11 38 5 9 53 -2 61 -14z m423 -43 c-25 -64 -70
-83 -105 -44 -18 20 -18 20 13 14 27 -5 36 -1 64 28 18 18 34 33 36 32 1 -1
-2 -14 -8 -30z m-629 -109 c-12 -53 -44 -115 -60 -115 -5 0 -1 21 9 48 10 26
21 70 25 97 4 28 13 59 19 70 10 18 11 17 14 -15 2 -19 -1 -58 -7 -85z m189
48 c-11 -27 -29 -54 -40 -61 -19 -11 -20 -9 -20 32 0 41 3 46 38 63 20 10 38
18 40 17 2 -1 -6 -24 -18 -51z m108 9 c3 -27 -1 -34 -24 -42 -36 -14 -68 -4
-58 18 4 10 9 29 11 43 4 23 8 25 36 20 27 -6 32 -12 35 -39z m-178 -3 c0 -52
-13 -91 -36 -106 -38 -24 -54 -3 -54 71 l0 61 45 0 c42 1 45 -1 45 -26z m359
-105 c-16 -20 -34 -17 -66 10 l-28 24 36 15 c24 10 40 26 50 48 l14 34 3 -58
c2 -35 -2 -64 -9 -73z m-529 22 c-11 -54 -33 -96 -44 -85 -4 3 6 46 21 95 29
94 43 88 23 -10z m436 -6 c27 -27 57 -50 68 -50 17 0 18 -5 12 -55 -6 -57 -28
-123 -55 -164 -14 -23 -15 -22 -28 42 -7 36 -26 110 -42 163 -40 133 -32 144
45 64z m-86 18 c0 -2 16 -65 35 -141 41 -163 42 -183 13 -214 -46 -50 -73 -24
-108 102 -12 44 -33 109 -47 145 -33 90 -24 110 52 110 30 0 55 -1 55 -2z
m-281 -117 c-6 -27 -17 -57 -25 -67 -15 -18 -15 -18 -10 6 2 14 10 54 17 89
10 52 14 60 20 42 5 -12 4 -43 -2 -70z m121 69 c0 -27 -31 -79 -58 -99 -43
-30 -55 -27 -47 12 12 58 16 67 34 67 9 0 26 7 37 15 23 17 34 19 34 5z m74
-199 c26 -85 45 -160 42 -166 -7 -19 -58 -25 -92 -10 -54 22 -85 79 -109 200
-5 26 -2 32 25 44 17 7 43 31 57 52 14 22 27 38 28 37 2 -2 24 -72 49 -157z
m-254 90 c-11 -41 -53 -101 -64 -90 -3 3 -3 33 0 67 7 59 8 61 38 64 17 2 32
2 34 2 2 -1 -2 -20 -8 -43z m-80 -52 c-7 -32 -17 -59 -21 -59 -13 0 -11 12 8
82 21 75 30 58 13 -23z m144 -26 c-9 -51 -34 -113 -45 -113 -5 0 -9 4 -9 8 0
11 37 119 45 132 12 20 16 9 9 -27z m463 -61 c-10 -160 -49 -246 -111 -240
-31 3 -58 37 -71 89 -6 22 -3 27 18 33 36 9 111 97 138 161 12 30 25 55 27 55
3 0 2 -44 -1 -98z m-505 53 c-2 -14 -6 -25 -8 -25 -2 0 -4 11 -4 25 0 14 4 25
9 25 4 0 6 -11 3 -25z m-38 -47 c-20 -165 -68 -278 -118 -278 -13 0 -17 76 -7
158 12 101 19 124 32 117 11 -7 61 18 78 39 20 24 22 20 15 -36z m148 -105
c12 -19 40 -43 62 -53 l38 -18 -41 -41 c-25 -25 -50 -41 -65 -41 -34 0 -72 50
-87 114 -11 50 -10 57 10 89 11 19 21 50 22 68 0 30 2 28 19 -24 10 -32 29
-74 42 -94z m-112 -55 c6 -29 11 -90 10 -136 -2 -131 -25 -165 -62 -91 -22 42
-24 22 -3 -28 18 -44 18 -43 0 -43 -19 0 -25 14 -35 83 l-8 52 -1 -42 c-1 -35
-5 -43 -20 -43 -21 0 -51 54 -51 93 0 20 4 23 23 20 32 -6 88 59 112 132 11
30 20 55 21 55 1 0 8 -24 14 -52z m2229 -98 c19 -152 -15 -304 -91 -413 -30
-42 -31 -27 -2 43 18 46 28 94 34 169 5 58 13 122 19 141 6 19 11 64 11 99 0
89 16 67 29 -39z m-1966 68 l-5 -23 20 22 20 23 7 -28 c3 -15 18 -42 32 -61
23 -30 25 -36 14 -71 -6 -21 -18 -44 -27 -51 -15 -12 -15 -7 -9 53 5 44 3 68
-4 72 -7 5 -11 -4 -11 -23 0 -42 -20 -130 -31 -137 -33 -20 -74 38 -85 119 -6
39 -3 51 22 86 32 45 65 56 57 19z m258 -241 c10 -42 9 -50 -6 -67 -10 -11
-22 -20 -27 -20 -10 0 -11 199 -1 255 7 37 8 33 15 -40 4 -44 13 -102 19 -128z
m-444 79 c-17 -54 -51 -106 -68 -106 -5 0 -3 13 6 30 10 19 15 57 15 109 l0
79 32 -30 31 -29 -16 -53z m137 -74 c24 -26 25 -32 16 -58 -15 -38 -49 -74
-72 -74 -23 0 -44 34 -57 90 -12 56 9 168 35 187 16 12 19 7 34 -52 10 -41 26
-76 44 -93z m233 26 c-3 -73 -8 -141 -12 -150 -7 -19 -31 -23 -60 -11 -17 6
-65 95 -65 120 0 6 15 26 34 45 20 20 37 49 41 70 6 31 22 46 64 57 2 1 1 -59
-2 -131z m-651 -38 c-7 -96 -25 -173 -58 -244 -21 -44 -23 -47 -29 -25 -14 50
-8 118 15 180 13 35 32 99 42 142 15 67 19 75 27 55 5 -13 6 -61 3 -108z
m2298 -150 c0 -74 5 -138 10 -142 17 -12 -14 -151 -51 -228 -20 -41 -37 -77
-37 -80 -6 -31 -102 -275 -121 -305 -32 -53 -31 -33 6 105 26 99 35 118 65
145 19 16 37 39 39 50 2 11 18 73 34 139 17 65 31 126 30 135 -1 18 -2 15 -58
-166 -23 -73 -46 -135 -53 -139 -8 -5 -9 -2 -5 11 15 38 107 511 113 583 11
117 26 56 28 -108z m-2274 -8 c-23 -70 -46 -134 -51 -142 -17 -30 -8 11 22
102 17 51 34 119 37 151 4 54 6 56 19 37 14 -19 11 -33 -27 -148z m275 73 c8
-22 26 -47 40 -56 l26 -15 -21 -27 c-33 -42 -57 -51 -85 -33 -29 19 -51 59
-63 114 -9 39 -9 39 30 57 22 9 42 24 46 34 5 12 7 10 10 -9 1 -14 9 -43 17
-65z m200 -183 l0 -217 -30 0 c-47 0 -67 51 -73 190 l-5 112 42 68 c22 38 41
73 41 79 0 6 5 5 12 -2 9 -9 13 -71 13 -230z m-381 20 c4 -7 19 -17 32 -22 22
-9 24 -15 24 -87 1 -73 12 -173 26 -235 5 -24 3 -28 -15 -28 -39 0 -81 135
-81 263 0 28 -7 58 -17 74 -22 33 -23 171 -2 218 12 28 14 24 19 -70 3 -55 9
-106 14 -113z m645 153 c-5 -27 -23 -126 -41 -220 l-33 -170 -3 179 -2 179 42
41 c24 22 44 41 45 41 0 0 -3 -22 -8 -50z m-597 31 c1 -21 22 -96 35 -123 18
-39 12 -63 -18 -63 -44 0 -59 27 -59 106 0 59 3 75 17 83 17 9 24 8 25 -3z
m427 -102 l29 -6 -24 -92 c-14 -50 -32 -113 -42 -141 l-17 -50 -6 75 c-4 41
-7 117 -8 168 l-1 92 20 -20 c11 -11 34 -23 49 -26z m-564 -393 c-14 -44 -36
-92 -48 -108 l-22 -28 -6 150 c-5 146 -4 151 17 170 28 25 50 69 60 120 7 33
10 16 17 -92 8 -128 8 -135 -18 -212z m319 285 c3 -12 6 -37 6 -56 0 -19 8
-72 17 -116 16 -77 16 -83 -1 -108 -25 -39 -44 -42 -72 -14 -29 28 -53 141
-54 248 l0 65 49 1 c42 1 50 -2 55 -20z m-96 -267 c10 -30 23 -62 27 -73 15
-35 -29 -13 -47 24 -32 68 -52 314 -25 323 9 3 14 -25 19 -108 4 -68 14 -133
26 -166z m-168 171 c0 -52 -3 -70 -10 -60 -5 8 -10 49 -10 90 0 52 3 70 10 60
5 -8 10 -49 10 -90z m767 -2 c-3 -8 -6 -5 -6 6 -1 11 2 17 5 13 3 -3 4 -12 1
-19z m-10 -50 c-3 -8 -6 -5 -6 6 -1 11 2 17 5 13 3 -3 4 -12 1 -19z m-740 -95
c-3 -10 -5 -4 -5 12 0 17 2 24 5 18 2 -7 2 -21 0 -30z m46 -110 c11 -11 34
-18 63 -19 25 -1 50 -6 55 -11 11 -11 -48 -132 -72 -146 -52 -32 -105 41 -116
158 -6 61 -4 68 10 62 13 -5 17 -1 18 16 0 18 3 16 12 -10 7 -18 20 -40 30
-50z m263 35 c-3 -18 -15 -91 -27 -163 -23 -147 -79 -428 -85 -435 -3 -2 -3
104 -1 235 2 202 6 247 21 288 10 26 24 47 31 47 8 0 24 13 37 29 13 17 24 30
26 30 2 1 1 -14 -2 -31z m-314 -223 c9 -20 9 -20 -6 -1 -9 11 -16 27 -15 35 0
14 1 14 6 1 3 -8 10 -24 15 -35z m174 -87 c-8 -127 -30 -261 -39 -238 -15 39
-13 114 5 215 23 127 25 135 34 135 4 0 4 -51 0 -112z m-75 5 c-9 -15 -10 -13
-11 13 0 17 3 34 8 38 11 12 14 -32 3 -51z m-201 -176 c7 -76 10 -140 7 -143
-14 -14 -29 84 -32 216 -5 170 7 137 25 -73z m297 -149 c-3 -8 -6 -5 -6 6 -1
11 2 17 5 13 3 -3 4 -12 1 -19z"/>
<path d="M2845 4441 c-67 -17 -165 -55 -165 -64 0 -3 23 4 51 14 66 25 166 49
249 59 l65 7 -65 1 c-36 0 -96 -7 -135 -17z"/>
<path d="M3350 4411 c55 -18 112 -44 141 -65 8 -6 2 1 -15 16 -28 26 -133 69
-165 67 -9 0 9 -8 39 -18z"/>
<path d="M2915 4331 c-38 -11 -86 -26 -105 -35 -40 -18 -26 -16 90 15 54 14
110 20 200 21 72 1 114 4 100 9 -49 14 -213 8 -285 -10z"/>
<path d="M2920 4280 c-77 -17 -147 -60 -218 -135 -87 -93 -135 -120 -256 -144
-85 -17 -226 -70 -226 -85 0 -3 30 6 68 20 37 14 108 34 157 45 128 27 184 59
268 151 91 101 147 130 267 136 71 3 95 0 145 -19 77 -28 116 -70 146 -156 14
-37 30 -67 37 -66 6 2 9 -3 6 -10 -2 -7 9 -28 25 -47 l29 -35 -4 30 c-2 17 -8
58 -12 93 -5 34 -14 68 -21 75 -11 10 -11 8 -2 -10 6 -12 11 -43 11 -68 0 -25
5 -56 11 -67 8 -14 8 -18 0 -14 -10 7 -19 32 -42 125 -5 23 -13 41 -15 38 -3
-3 0 -24 6 -47 6 -23 9 -44 6 -47 -3 -3 -12 21 -22 53 -9 33 -28 75 -43 94
-14 19 -25 38 -24 41 1 3 -28 16 -65 28 -77 26 -167 34 -232 21z"/>
<path d="M3151 4286 c2 -2 29 -6 59 -9 36 -4 46 -3 30 3 -25 8 -97 13 -89 6z"/>
<path d="M2745 4270 c-3 -6 1 -7 9 -4 18 7 21 14 7 14 -6 0 -13 -4 -16 -10z"/>
<path d="M2979 4239 c-86 -13 -113 -34 -170 -137 -35 -62 -69 -85 -152 -103
-80 -17 -43 -24 55 -10 74 10 94 4 83 -26 -2 -7 2 -13 10 -13 8 0 15 -4 15 -9
0 -18 86 -104 117 -117 42 -18 137 -17 188 1 60 22 67 17 10 -7 -37 -16 -72
-22 -135 -22 -89 -1 -123 8 -195 52 -37 23 -39 23 -21 3 11 -11 44 -33 75 -48
46 -23 69 -27 136 -28 70 0 91 5 171 38 78 31 104 37 170 38 67 1 74 2 44 10
-45 11 -178 2 -252 -18 -76 -21 -178 -14 -215 13 -28 21 -112 123 -113 137 0
4 11 7 25 7 20 0 33 -12 60 -54 21 -33 47 -59 68 -70 51 -23 131 -20 197 9 68
30 51 32 -32 4 -86 -29 -171 -10 -199 44 l-12 22 24 -21 c56 -50 119 -57 200
-23 44 19 56 20 116 11 38 -6 77 -13 88 -17 11 -3 7 1 -10 11 -52 29 -82 64
-110 127 -43 100 -48 108 -84 136 -48 36 -149 42 -212 12 -42 -21 -43 -21 -21
-2 43 37 123 50 192 31 68 -19 102 -54 160 -166 43 -84 63 -111 90 -126 l35
-20 -34 29 c-20 18 -53 70 -85 134 -45 92 -56 107 -99 133 -54 33 -112 45
-178 35z m122 -56 c34 -13 46 -25 65 -67 13 -28 24 -58 24 -67 0 -22 57 -109
71 -109 7 0 9 -3 6 -7 -13 -13 -69 52 -96 112 -15 33 -42 72 -59 87 -71 60
-185 40 -230 -41 -27 -47 -45 -63 -77 -66 l-24 -3 26 41 c43 67 65 88 118 113
59 28 118 30 176 7z m-63 -50 c-10 -2 -28 -2 -40 0 -13 2 -5 4 17 4 22 1 32
-1 23 -4z m88 -89 c3 -19 0 -43 -9 -61 -16 -30 -62 -61 -74 -50 -3 4 0 7 9 7
8 0 25 12 39 26 35 37 32 93 -6 136 l-30 33 32 -29 c19 -17 35 -44 39 -62z
m-178 51 c-6 -14 -13 -23 -15 -21 -5 5 15 46 22 46 3 0 -1 -11 -7 -25z m86 -1
c23 -9 20 -31 -5 -39 -28 -9 -46 9 -29 30 14 17 13 17 34 9z m-101 -79 c4 -27
3 -35 -3 -25 -5 8 -10 28 -10 44 0 39 6 30 13 -19z m-35 -30 c6 -14 10 -25 8
-25 -2 0 -11 11 -20 25 -9 14 -13 25 -8 25 5 0 14 -11 20 -25z m93 -44 c15 -6
18 -10 8 -10 -9 -1 -25 7 -36 17 -10 9 -14 14 -8 10 6 -4 22 -12 36 -17z"/>
<path d="M2819 4054 c-22 -25 -22 -26 -3 -16 12 6 24 18 28 27 8 21 3 19 -25
-11z"/>
<path d="M3279 4186 c19 -20 36 -36 38 -36 12 0 -21 40 -44 55 -26 16 -25 15
6 -19z"/>
<path d="M2760 4130 c-18 -28 -49 -64 -68 -80 -20 -17 -31 -30 -25 -30 22 0
79 58 107 109 35 65 27 66 -14 1z"/>
<path d="M3496 4128 c20 -39 14 -96 -14 -136 -12 -15 -23 -41 -27 -58 l-6 -29
14 31 c8 17 35 52 61 78 36 37 46 55 45 79 l-1 32 -9 -30 c-5 -16 -17 -40 -27
-53 l-18 -23 4 39 c3 35 -19 102 -34 102 -2 0 3 -14 12 -32z"/>
<path d="M3376 4127 c3 -10 9 -15 12 -12 3 3 0 11 -7 18 -10 9 -11 8 -5 -6z"/>
<path d="M3450 4053 c0 -16 -5 -35 -10 -43 -7 -11 -10 -6 -11 20 l-1 35 -10
-35 c-5 -19 -8 -52 -5 -72 6 -47 0 -48 -18 -5 -14 31 -14 31 -15 6 0 -24 21
-45 42 -41 3 1 9 -5 12 -13 6 -17 -7 -19 -32 -6 -11 5 -28 3 -47 -5 -28 -12
-24 -13 55 -13 69 1 80 2 57 11 -38 14 -53 82 -25 110 16 16 26 78 13 78 -3 0
-5 -12 -5 -27z"/>
<path d="M3382 4050 c0 -14 2 -19 5 -12 2 6 2 18 0 25 -3 6 -5 1 -5 -13z"/>
<path d="M3635 4010 c-3 -5 -1 -10 4 -10 6 0 11 5 11 10 0 6 -2 10 -4 10 -3 0
-8 -4 -11 -10z"/>
<path d="M3500 3938 c-12 -22 -12 -22 6 -6 10 10 15 20 12 24 -4 3 -12 -5 -18
-18z"/>
<path d="M3195 3885 l-40 -13 45 5 c25 3 61 9 80 13 l35 8 -40 0 c-22 0 -58
-6 -80 -13z"/>
<path d="M3435 3860 c-3 -6 1 -7 9 -4 18 7 21 14 7 14 -6 0 -13 -4 -16 -10z"/>
<path d="M3275 3827 c-16 -7 -66 -30 -110 -52 -72 -36 -88 -40 -155 -40 -41 0
-91 3 -110 7 l-35 7 35 -16 c25 -11 58 -14 120 -11 87 4 110 11 223 74 33 18
67 28 104 30 31 2 58 6 61 9 11 10 -104 4 -133 -8z"/>
<path d="M3310 3813 c-8 -4 -43 -26 -77 -49 -80 -55 -127 -69 -233 -68 -104 1
-174 21 -260 74 -96 59 -98 48 -2 -15 99 -65 156 -79 291 -73 102 4 161 26
227 81 16 13 43 31 59 40 29 16 26 22 -5 10z"/>
<path d="M3330 3718 c-11 -24 -19 -63 -19 -88 1 -43 1 -42 13 20 6 36 17 75
24 88 7 12 10 22 7 22 -3 0 -15 -19 -25 -42z"/>
<path d="M3272 3623 c-11 -23 4 -217 23 -291 8 -31 12 -41 9 -22 -15 104 -22
193 -18 258 4 74 1 85 -14 55z"/>
<path d="M2040 3589 c-6 -11 -10 -25 -8 -30 2 -5 8 4 15 21 13 34 9 40 -7 9z"/>
<path d="M3247 3583 c-10 -16 -47 -172 -46 -195 0 -12 14 26 30 86 26 98 31
134 16 109z"/>
<path d="M2097 3573 c-16 -16 -4 -83 15 -83 6 0 5 6 -2 15 -7 8 -10 28 -8 45
5 32 5 33 -5 23z"/>
<path d="M2030 3467 c0 -4 7 -21 15 -37 16 -32 43 -50 72 -50 11 1 6 6 -14 15
-18 8 -42 29 -53 47 -11 18 -20 29 -20 25z"/>
<path d="M2981 3389 c-7 -12 -10 -23 -8 -26 3 -3 11 5 17 17 6 12 10 23 8 25
-2 2 -10 -5 -17 -16z"/>
<path d="M3191 3344 c0 -11 3 -14 6 -6 3 7 2 16 -1 19 -3 4 -6 -2 -5 -13z"/>
<path d="M3303 3095 c0 -33 2 -45 4 -27 2 18 2 45 0 60 -2 15 -4 0 -4 -33z"/>
<path d="M3396 2803 c3 -12 12 -50 20 -85 l14 -63 -4 50 c-2 28 -11 66 -19 85
-9 19 -14 25 -11 13z"/>
<path d="M1818 2624 c-38 -20 -36 -28 2 -9 17 9 30 18 30 20 0 7 -1 6 -32 -11z"/>
<path d="M2121 1874 c0 -11 3 -14 6 -6 3 7 2 16 -1 19 -3 4 -6 -2 -5 -13z"/>
<path d="M3622 2120 c0 -14 2 -19 5 -12 2 6 2 18 0 25 -3 6 -5 1 -5 -13z"/>
<path d="M3631 2074 c0 -11 3 -14 6 -6 3 7 2 16 -1 19 -3 4 -6 -2 -5 -13z"/>
<path d="M1805 2751 c-66 -19 -158 -61 -151 -68 2 -3 13 0 25 6 11 6 66 27
123 46 107 36 109 47 3 16z"/>
<path d="M1350 2260 c-6 -11 -8 -20 -6 -20 3 0 10 9 16 20 6 11 8 20 6 20 -3
0 -10 -9 -16 -20z"/>
<path d="M1392 2250 c0 -14 2 -19 5 -12 2 6 2 18 0 25 -3 6 -5 1 -5 -13z"/>
<path d="M1381 2204 c0 -11 3 -14 6 -6 3 7 2 16 -1 19 -3 4 -6 -2 -5 -13z"/>
<path d="M2471 1644 c-1 -84 17 -151 55 -202 16 -20 30 -45 31 -55 10 -61 63
-109 125 -111 32 0 44 6 76 38 l37 38 -39 -26 c-58 -39 -99 -35 -147 13 -22
21 -39 43 -39 47 0 5 25 9 55 9 47 0 58 4 82 29 l28 29 -30 -18 c-16 -10 -48
-18 -72 -18 -79 0 -133 81 -151 223 l-9 75 -2 -71z"/>
<path d="M3346 1582 c-4 -13 -21 -39 -38 -58 -25 -28 -37 -34 -70 -34 -24 0
-53 8 -71 21 l-32 21 33 -31 c39 -38 95 -42 134 -11 28 22 62 84 55 103 -2 7
-7 2 -11 -11z"/>
<path d="M3395 1580 c3 -14 8 -65 11 -115 8 -117 -15 -185 -82 -244 -65 -57
-117 -60 -171 -9 -24 23 -32 12 -10 -14 55 -68 131 -63 204 14 55 57 77 120
76 218 -1 48 -8 105 -17 130 -9 25 -14 34 -11 20z"/>
<path d="M3077 1531 c-35 -53 -89 -102 -105 -96 -7 3 -10 0 -7 -6 4 -5 1 -17
-7 -26 -18 -24 72 40 99 69 20 21 59 98 49 98 -2 0 -15 -18 -29 -39z"/>
<path d="M1142 1478 c-19 -60 -37 -144 -27 -123 10 22 53 180 50 183 -2 2 -12
-25 -23 -60z"/>
<path d="M3200 1419 c-20 -74 -56 -132 -117 -190 -138 -132 -217 -125 -325 31
-17 25 -17 25 -4 -9 18 -46 61 -98 100 -122 47 -29 93 -24 162 17 113 68 174
148 194 256 12 64 5 75 -10 17z"/>
<path d="M2271 1354 c-2 -62 52 -147 108 -173 20 -9 55 -35 78 -58 49 -49 104
-69 160 -58 l38 9 -57 6 c-32 4 -68 15 -82 23 -39 26 -76 81 -97 144 l-19 58
4 -52 c2 -39 0 -53 -10 -53 -25 0 -82 68 -103 122 -11 30 -20 44 -20 32z"/>
<path d="M2252 1300 c0 -14 2 -19 5 -12 2 6 2 18 0 25 -3 6 -5 1 -5 -13z"/>
<path d="M2227 1223 c-9 -25 -16 -48 -14 -50 2 -2 12 17 22 42 9 26 15 48 13
50 -2 2 -12 -17 -21 -42z"/>
<path d="M3402 1180 c-1 -25 -4 -70 -7 -100 -5 -53 -4 -54 6 -15 5 22 8 67 6
100 -3 50 -3 53 -5 15z"/>
<path d="M2321 1030 c0 -41 5 -101 13 -132 7 -32 10 -58 7 -58 -16 0 -81 78
-101 120 l-21 45 5 -39 c6 -48 46 -106 95 -140 39 -27 76 -35 67 -13 -18 42
-38 125 -50 202 l-14 90 -1 -75z"/>
<path d="M2889 1035 c-7 -76 4 -91 67 -88 45 2 46 1 39 -25 -7 -32 -47 -95
-84 -136 -23 -25 -23 -27 -5 -18 29 15 74 70 91 111 13 31 15 32 33 16 25 -22
71 -22 112 2 36 21 104 104 112 137 4 18 2 18 -12 -4 -54 -79 -118 -130 -165
-130 -21 0 -67 36 -67 53 0 4 18 16 40 27 23 12 50 35 60 53 30 49 24 56 -12
13 -38 -46 -98 -75 -155 -76 l-42 0 -3 63 -3 62 -6 -60z"/>
<path d="M2515 1038 c4 -13 16 -38 27 -56 65 -107 186 -114 267 -15 46 56 37
61 -19 10 -99 -90 -191 -70 -255 53 -18 35 -29 39 -20 8z"/>
<path d="M3311 1015 c0 -11 -14 -47 -29 -80 -35 -73 -90 -125 -133 -125 -18 0
-28 -4 -24 -10 3 -5 22 -10 42 -10 28 0 43 8 73 38 41 41 83 140 77 181 -3 18
-4 20 -6 6z"/>
<path d="M3197 746 c-56 -65 -123 -101 -170 -92 -18 4 -52 20 -76 38 -40 29
-42 29 -27 6 21 -31 86 -68 122 -68 40 0 108 36 143 76 28 31 66 94 58 94 -2
0 -24 -24 -50 -54z"/>
<path d="M2230 764 c0 -68 50 -163 102 -190 45 -23 84 -18 120 17 27 25 28 28
8 17 -89 -52 -163 -5 -211 135 -16 46 -18 48 -19 21z"/>
<path d="M2812 682 c-27 -58 -48 -83 -97 -116 -64 -44 -114 -34 -177 37 -46
52 -50 34 -5 -25 45 -59 100 -77 162 -53 56 21 111 84 130 149 8 27 14 51 12
52 -1 2 -13 -18 -25 -44z"/>
<path d="M2898 544 c-46 -74 -98 -77 -115 -7 l-9 38 -21 -41 c-12 -22 -40 -57
-62 -77 -67 -61 -141 -47 -192 37 -15 25 -19 27 -19 11 0 -54 68 -115 128
-115 24 0 32 -7 47 -41 21 -46 67 -89 96 -89 57 0 139 85 139 144 0 29 -2 28
-24 -20 -32 -70 -98 -115 -136 -94 -18 10 -86 99 -78 104 1 1 15 10 31 19 15
10 41 36 57 59 25 34 30 37 30 20 0 -12 5 -22 11 -22 5 0 8 -4 5 -9 -8 -13 71
4 90 20 17 14 59 98 52 104 -1 1 -15 -17 -30 -41z"/>
<path d="M3060 508 c-25 -28 -59 -60 -77 -71 -18 -10 -33 -22 -33 -26 0 -9 66
-41 85 -41 21 0 20 -4 -19 -65 -82 -127 -206 -215 -305 -215 -98 0 -168 50
-217 155 -20 41 -24 46 -25 25 -2 -43 -18 50 -18 109 -1 85 -15 49 -21 -52
l-5 -92 -17 50 c-14 43 -17 46 -17 20 -1 -35 21 -81 37 -78 6 2 14 -7 17 -18
4 -11 13 -18 20 -15 7 2 40 -22 72 -54 63 -64 64 -69 20 -117 l-20 -23 37 0
38 0 -7 41 c-7 41 -7 42 16 34 13 -4 46 -10 72 -12 36 -4 47 -9 43 -19 -3 -8
-9 -21 -13 -30 -4 -12 -2 -15 7 -12 8 2 18 18 22 34 6 22 17 33 45 43 85 30
193 132 242 228 22 45 35 57 91 85 41 21 73 46 88 67 30 46 28 64 -4 23 -40
-50 -102 -82 -161 -82 -27 0 -52 3 -55 6 -4 3 13 24 35 48 35 35 86 107 75
106 -2 -1 -23 -24 -48 -52z"/>
<path d="M1357 363 c-4 -32 -10 -127 -13 -210 -7 -152 -7 -153 14 -153 l22 0
-6 208 c-4 114 -8 208 -9 210 -1 1 -5 -23 -8 -55z"/>
<path d="M2126 335 c7 -66 22 -110 55 -157 19 -25 22 -42 20 -104 -2 -67 0
-74 17 -74 17 0 18 5 11 53 -4 28 -11 61 -15 71 -4 12 -4 17 2 13 9 -5 46 -81
58 -119 7 -25 71 -25 85 0 10 16 10 16 11 0 0 -12 8 -18 21 -18 17 0 19 4 13
18 -5 9 -10 56 -12 105 -2 48 -7 87 -12 87 -5 0 -12 -26 -16 -57 -7 -66 -29
-116 -47 -110 -17 5 -105 124 -134 182 -14 28 -34 77 -44 110 l-19 60 6 -60z"/>
<path d="M3039 190 c-52 -90 -65 -104 -71 -74 -2 11 -15 -2 -38 -37 l-35 -54
-5 30 -6 30 -22 -43 -22 -42 37 0 c20 0 45 7 55 17 17 15 18 15 18 -1 0 -56
72 55 120 183 16 45 28 81 25 81 -2 0 -27 -40 -56 -90z"/>
<path d="M1911 215 c-1 -53 16 -126 42 -185 18 -41 22 -21 6 30 -6 19 -19 73
-29 120 -17 82 -18 83 -19 35z"/>
<path d="M2119 73 c12 -49 22 -69 35 -71 15 -3 17 1 11 20 -9 28 -54 118 -59
118 -2 0 4 -30 13 -67z"/>
<path d="M3057 98 c-22 -60 -31 -105 -19 -93 12 12 45 125 39 132 -3 2 -12
-15 -20 -39z"/>
<path d="M2066 59 c-10 -51 -8 -59 18 -59 23 0 24 2 14 38 -14 52 -24 59 -32
21z"/>
<path d="M2632 35 c-16 -35 -16 -35 13 -35 28 0 30 5 12 38 l-13 23 -12 -26z"/>
<path d="M2436 35 c-10 -26 -7 -35 9 -35 17 0 19 18 6 38 -7 11 -10 10 -15 -3z"/>
<path d="M2501 26 c-15 -18 -10 -29 12 -24 9 2 12 9 8 21 -6 17 -8 18 -20 3z"/>
</g>
</svg>