<?xml version="1.0" standalone="no"?>
<!DOCTYPE svg PUBLIC "-//W3C//DTD SVG 20010904//EN"
 "http://www.w3.org/TR/2001/REC-SVG-20010904/DTD/svg10.dtd">
<svg version="1.0" xmlns="http://www.w3.org/2000/svg"
 width="512.000000pt" height="512.000000pt" viewBox="0 0 512.000000 512.000000"
 preserveAspectRatio="xMidYMid meet">
<metadata>
Created by potrace 1.16, written by Peter Selinger 2001-2019
</metadata>
<g transform="translate(0.000000,512.000000) scale(0.100000,-0.100000)"
fill="#000000" stroke="none">
<path d="M1177 4673 c-4 -3 -58 -10 -121 -14 -138 -9 -176 -24 -213 -81 -15
-24 -31 -44 -35 -46 -17 -8 -48 -138 -48 -202 0 -53 4 -73 21 -94 11 -14 26
-26 34 -26 7 0 18 -14 25 -30 39 -94 119 -158 314 -250 150 -71 187 -106 212
-196 13 -49 25 -72 49 -92 20 -16 36 -41 40 -62 16 -72 48 -158 92 -247 l45
-92 -21 -29 c-24 -35 -27 -61 -8 -86 11 -15 10 -24 -5 -56 -20 -40 -15 -74 16
-99 22 -19 21 -25 -25 -127 l-42 -90 -106 4 c-78 3 -124 0 -171 -12 -407 -103
-722 -594 -722 -1121 0 -369 171 -708 420 -833 l81 -40 -77 -7 c-224 -17 -322
-28 -367 -38 l-50 -11 50 -7 c28 -4 147 -8 265 -8 277 -1 1060 32 1048 44 -2
2 -145 9 -319 16 l-316 13 61 21 c195 69 375 226 510 445 92 149 186 432 205
618 11 101 0 256 -24 346 -8 32 -14 60 -13 61 2 1 13 7 24 13 20 11 24 7 43
-42 44 -108 129 -179 216 -180 28 -1 64 3 81 7 30 8 32 7 43 -35 7 -24 15 -49
18 -57 3 -8 1 -11 -4 -8 -12 8 -38 -20 -47 -50 -5 -15 -1 -28 13 -42 l21 -21
-24 -72 c-38 -114 -49 -198 -43 -332 9 -204 68 -358 182 -472 85 -85 138 -109
245 -109 76 0 93 3 152 33 124 61 235 184 314 348 l44 93 34 -6 c26 -4 39 0
55 16 11 11 21 28 21 36 0 16 9 19 34 9 10 -4 16 -18 16 -39 0 -62 32 -199 65
-282 60 -148 173 -290 274 -343 20 -10 32 -19 26 -20 -5 0 -82 -4 -170 -10
-88 -5 -270 -14 -405 -20 -443 -18 -685 -32 -693 -40 -14 -12 620 -23 998 -17
428 7 906 34 924 53 12 11 -19 16 -153 21 l-146 6 45 31 c25 17 43 36 42 41
-2 6 -25 11 -51 13 l-47 3 45 50 c103 114 168 280 191 485 4 38 1 113 -9 195
-42 341 -61 422 -138 576 -23 45 -39 85 -36 88 3 4 34 -14 68 -39 75 -55 223
-146 239 -146 22 0 10 40 -27 87 -21 26 -69 81 -105 121 -37 39 -67 74 -67 77
0 12 48 -21 99 -69 50 -46 53 -47 28 -14 -15 20 -27 38 -27 40 0 3 37 -8 83
-24 85 -29 167 -34 175 -11 2 7 -16 30 -40 50 -97 85 -191 180 -205 208 -9 17
-44 60 -78 97 -54 58 -65 77 -85 145 -55 189 -150 398 -246 543 -124 189 -313
340 -669 536 -220 120 -366 189 -455 213 -98 27 -221 28 -324 1 -83 -21 -228
-86 -310 -138 -28 -18 -63 -32 -79 -32 -16 0 -44 -7 -63 -16 -40 -19 -124
-109 -124 -132 0 -68 -84 153 -115 303 -15 72 -49 197 -76 278 -99 302 -203
404 -438 427 -121 12 -155 12 -164 3z m91 -19 c34 -10 26 -24 -13 -24 -69 0
-137 -40 -161 -95 l-13 -30 -1 30 c-1 79 99 142 188 119z m208 -39 c35 -14 39
-21 26 -43 -11 -16 -72 4 -72 23 0 8 -4 16 -9 19 -5 4 -7 -2 -4 -13 8 -33 -15
-33 -62 -1 -25 17 -45 34 -45 37 0 10 131 -7 166 -22z m-394 -15 c-11 -20 -32
-35 -61 -45 -54 -18 -56 -18 -42 -2 6 8 29 22 51 32 22 10 38 20 36 22 -5 6
-66 -25 -88 -45 -15 -12 -22 -13 -49 -1 l-32 13 34 28 c29 25 41 28 101 28
l67 0 -17 -30z m-182 -5 c-13 -14 -26 -22 -29 -19 -3 3 5 14 18 25 33 27 39
24 11 -6z m405 5 c17 -7 16 -9 -10 -9 -52 -2 -98 -20 -132 -53 -18 -17 -36
-29 -40 -25 -3 4 -1 7 6 7 7 0 9 5 6 10 -3 6 -1 10 6 10 7 0 9 3 6 6 -8 8 32
40 65 53 29 12 67 12 93 1z m311 -89 c19 -24 34 -48 34 -53 0 -18 -28 -6 -38
17 -9 19 -55 57 -100 81 -1 0 0 9 4 18 6 15 8 14 36 -2 16 -9 45 -37 64 -61z
m-295 59 c13 -8 19 -20 18 -43 -2 -27 -2 -28 -6 -7 -8 41 -18 43 -82 15 -66
-30 -86 -28 -56 5 29 32 93 47 126 30z m55 -64 c-6 -36 -14 -50 -44 -72 l-37
-28 31 36 c19 22 34 52 38 78 4 23 9 40 13 37 3 -3 2 -26 -1 -51z m99 41 c27
-21 13 -83 -21 -91 -45 -12 -64 1 -64 43 0 20 5 42 12 49 16 16 50 15 73 -1z
m-511 -43 c23 -25 59 -65 82 -88 22 -22 61 -68 86 -101 25 -33 57 -70 70 -82
36 -34 167 -85 200 -78 26 6 64 42 98 93 8 12 29 25 45 28 26 5 33 2 45 -21
13 -24 12 -30 -7 -63 -22 -39 -83 -77 -141 -88 -25 -5 -38 -2 -55 14 -16 14
-41 21 -90 25 -57 4 -89 15 -205 70 -152 73 -194 87 -266 87 l-49 0 6 52 c6
49 60 174 82 190 26 20 60 7 99 -38z m100 30 c8 -21 6 -22 -32 -33 -23 -7 -34
-6 -43 5 -14 17 -12 20 21 33 36 14 47 13 54 -5z m469 -5 c35 -18 77 -61 77
-80 0 -34 -23 -40 -106 -28 -44 6 -80 12 -82 14 -1 1 15 5 38 9 40 6 40 6 40
51 0 49 1 50 33 34z m-701 -21 c-7 -7 -12 -8 -12 -2 0 14 12 26 19 19 2 -3 -1
-11 -7 -17z m285 -30 c-3 -8 -6 -5 -6 6 -1 11 2 17 5 13 3 -3 4 -12 1 -19z
m-39 -28 c5 -22 7 -40 3 -40 -4 0 -22 15 -40 34 -23 24 -29 35 -19 39 33 14
46 6 56 -33z m241 12 c-22 -36 -85 -64 -134 -61 -83 5 -75 -29 14 -59 35 -12
60 -9 127 15 48 17 68 11 122 -40 40 -38 40 -57 1 -102 -38 -43 -56 -44 -156
-8 -72 25 -79 30 -139 106 l-63 80 24 13 c13 7 41 10 62 7 47 -6 103 16 129
50 22 29 31 28 13 -1z m-212 -24 c-3 -8 -6 -5 -6 6 -1 11 2 17 5 13 3 -3 4
-12 1 -19z m293 2 c23 -15 -13 -44 -88 -69 -71 -24 -86 -25 -127 -7 -28 12
-27 13 26 8 62 -5 98 9 138 52 27 29 30 30 51 16z m303 -76 c31 -72 39 -148
25 -229 l-7 -40 14 40 13 40 1 -37 c1 -20 -8 -61 -20 -90 -22 -58 -88 -154
-102 -149 -5 2 -21 -8 -35 -22 -27 -24 -64 -47 -78 -47 -4 0 11 13 32 28 46
34 61 52 61 72 0 8 17 41 37 73 48 75 65 125 70 206 3 48 2 54 -3 21 -6 -44
-7 -44 -14 30 -5 41 -16 99 -26 128 -26 76 -3 59 32 -24z m-47 31 c19 -47 19
-121 -2 -129 -47 -18 -85 14 -64 53 5 11 10 35 10 53 0 33 14 58 33 58 4 0 15
-16 23 -35z m-123 6 c26 -4 50 -11 54 -14 3 -4 1 -24 -6 -46 -9 -30 -19 -42
-43 -50 -29 -10 -34 -8 -72 27 -23 22 -51 44 -61 49 -16 9 -17 13 -6 27 15 17
57 20 134 7z m153 -156 c10 -25 -16 -113 -46 -154 -18 -25 -51 -50 -91 -70
-55 -28 -72 -31 -148 -31 -47 0 -117 7 -156 15 -78 17 -241 77 -271 100 -11 9
10 5 51 -11 201 -75 237 -82 308 -60 36 11 55 12 81 4 53 -16 120 6 174 58 44
42 45 44 38 92 -6 44 -4 50 16 60 31 15 38 14 44 -3z m-656 -42 c47 -19 112
-47 145 -61 45 -19 76 -25 127 -25 105 2 120 -42 23 -66 -55 -14 -60 -13 -259
52 -150 49 -161 54 -188 91 -15 21 -25 43 -22 48 10 15 83 -1 174 -39z m566
-68 c-31 -47 -84 -78 -142 -83 -78 -6 -73 17 9 41 47 14 72 29 102 61 33 34
41 38 43 23 2 -10 -3 -29 -12 -42z m193 -55 c1 -80 -14 -122 -65 -179 -44 -49
-165 -121 -203 -121 -9 0 4 10 28 23 113 57 210 199 220 322 3 46 6 54 12 35
4 -14 7 -50 8 -80z m-107 28 c-25 -57 -95 -144 -135 -169 -26 -15 -49 -19
-122 -17 l-90 1 86 6 c96 7 116 17 190 91 30 30 54 66 66 99 10 28 19 47 21
42 2 -6 -5 -29 -16 -53z m-478 -120 c83 -22 236 -30 306 -16 l35 7 -30 -14
c-69 -32 -322 -6 -403 41 -15 8 -18 13 -8 9 11 -3 56 -15 100 -27z m610 -35
c-7 -2 -10 -13 -7 -23 3 -11 -12 -51 -36 -95 -23 -42 -39 -80 -36 -85 3 -5
-15 -26 -41 -48 -64 -57 -163 -77 -229 -47 -30 13 -30 13 25 14 88 2 162 45
232 134 l33 42 -53 -47 c-29 -25 -73 -57 -99 -69 -57 -27 -146 -49 -173 -42
-36 10 -21 18 33 19 112 1 249 94 308 208 24 45 37 62 44 54 7 -7 6 -12 -1
-15z m1087 -23 c87 -29 254 -108 246 -116 -8 -8 -235 45 -300 70 -82 31 -182
42 -259 27 -64 -11 -164 -58 -218 -100 -19 -15 -57 -35 -85 -45 -27 -10 -77
-34 -110 -52 -42 -23 -65 -30 -75 -24 -19 12 -16 14 100 90 141 92 298 162
410 184 65 12 199 -3 291 -34z m-1428 -37 c-13 -2 -33 -2 -45 0 -13 2 -3 4 22
4 25 0 35 -2 23 -4z m1312 -17 c68 -18 125 -43 125 -54 0 -5 -24 -22 -54 -38
l-55 -28 -73 23 c-94 31 -203 37 -288 17 -35 -8 -66 -14 -67 -12 -8 7 103 71
151 88 62 21 190 23 261 4z m-983 -53 c-18 -34 -62 -85 -62 -71 0 3 16 29 35
58 19 29 35 57 36 64 0 8 2 8 5 -1 3 -6 -4 -29 -14 -50z m39 -86 l6 -82 1 73
c1 39 6 72 10 72 10 0 62 -157 62 -185 0 -17 -3 -15 -21 10 -19 28 -20 28 -13
5 3 -14 13 -38 21 -53 8 -16 12 -31 9 -34 -3 -3 -15 17 -28 43 -28 60 -27 59
-33 52 -3 -3 1 -24 8 -47 8 -22 13 -41 11 -41 -7 0 -44 80 -45 97 0 11 -3 13
-6 6 -2 -7 3 -37 13 -65 10 -29 17 -57 16 -61 -1 -4 9 -23 23 -41 30 -39 32
-50 6 -37 -10 6 -21 8 -25 6 -3 -3 -4 -2 -1 1 2 4 -11 25 -30 47 -38 44 -75
131 -75 177 0 27 69 152 80 143 2 -2 7 -41 11 -86z m1242 58 c153 -34 364
-129 474 -213 22 -16 20 -17 -65 -16 -82 0 -91 2 -152 38 -92 54 -231 123
-295 147 l-54 20 -67 -28 c-37 -15 -69 -34 -72 -40 -2 -8 24 0 60 17 35 17 71
30 80 30 9 0 112 -49 230 -108 117 -60 219 -107 226 -105 7 3 12 -4 12 -17 0
-19 -4 -21 -27 -16 -16 4 -68 10 -116 13 -75 5 -106 1 -205 -22 l-116 -28 -38
43 c-21 24 -55 69 -76 101 -61 94 -65 98 -25 21 21 -40 57 -95 81 -122 48 -55
49 -71 7 -110 -14 -13 -30 -20 -40 -16 -9 3 -38 52 -65 108 -55 116 -64 125
-21 21 39 -96 77 -153 101 -153 23 0 54 31 70 71 9 20 19 29 35 29 21 0 23 -3
15 -32 -5 -18 -11 -58 -14 -88 -8 -72 9 -35 19 42 4 30 10 60 13 65 11 17 172
53 238 53 35 0 86 -5 114 -11 48 -10 54 -15 101 -82 88 -124 206 -377 193
-412 -4 -9 -18 -22 -32 -29 -34 -18 -73 -7 -181 54 -47 26 -115 62 -151 79
-94 46 -42 5 80 -64 186 -104 229 -115 278 -66 l29 29 18 -50 c16 -45 16 -51
2 -66 -14 -13 -22 -14 -59 -3 -65 19 -193 81 -346 167 -201 114 -269 160 -345
232 -37 36 -70 63 -73 60 -3 -3 22 -35 55 -71 70 -74 170 -143 358 -246 80
-44 130 -77 126 -84 -4 -6 0 -8 10 -4 9 3 52 -11 99 -33 46 -21 100 -42 121
-45 27 -5 42 -15 50 -32 7 -15 37 -38 79 -59 45 -23 75 -46 88 -67 21 -34 28
-30 9 5 -6 11 -7 19 -2 17 5 -2 48 -22 96 -44 66 -30 87 -44 88 -60 1 -16 2
-16 6 -3 7 27 44 4 77 -48 15 -24 33 -44 38 -44 6 0 4 8 -4 18 -9 9 -20 27
-27 39 -10 21 -10 21 20 13 18 -5 32 -11 33 -12 0 -2 30 -34 66 -72 l65 -68
-35 7 -35 6 47 -30 c25 -16 49 -35 53 -41 3 -5 39 -38 78 -72 40 -34 64 -59
54 -55 -36 14 -185 118 -249 176 -83 74 -158 117 -358 209 -200 92 -493 241
-645 327 -332 188 -426 287 -536 565 -18 46 -47 100 -65 120 -45 50 -119 75
-219 75 -69 0 -89 -4 -145 -31 -36 -17 -96 -54 -135 -83 l-69 -51 -18 36 c-21
43 -45 63 -76 64 -23 0 -23 0 8 39 33 43 93 85 111 79 7 -2 -1 -12 -17 -22
-16 -10 -39 -28 -52 -39 l-22 -21 36 -12 c34 -12 41 -10 116 28 44 22 82 38
84 35 3 -2 -34 -32 -81 -67 -48 -34 -84 -65 -81 -68 3 -3 51 29 105 71 91 69
107 77 177 91 111 23 199 21 291 -9 43 -14 86 -25 96 -25 9 0 18 -8 18 -17 1
-16 2 -16 6 -1 2 9 23 28 47 42 23 14 48 32 56 40 17 21 36 20 163 -9z m-1448
-5 c-19 -31 -145 -74 -191 -66 -51 10 -41 21 19 22 34 0 70 9 107 26 61 29 74
33 65 18z m942 -115 c58 -24 90 -61 124 -144 17 -42 45 -106 61 -144 17 -37
29 -69 27 -72 -3 -2 -30 0 -62 4 -31 4 -57 4 -57 -1 0 -23 -22 -1 -58 60 -46
77 -87 109 -191 149 -52 21 -85 26 -158 27 -87 1 -91 2 -76 19 28 30 126 91
178 110 58 21 151 17 212 -8z m-838 -37 c2 -33 43 -129 65 -151 13 -12 40 -47
60 -77 31 -44 33 -49 10 -25 -16 17 -37 41 -47 55 l-17 25 15 -30 c8 -16 23
-41 32 -54 17 -24 17 -24 -4 -13 -86 46 -184 258 -142 308 12 15 14 14 20 -3
4 -10 8 -26 8 -35z m-36 -193 c16 -38 16 -39 -1 -16 -25 37 -71 143 -72 167 0
47 15 30 35 -38 12 -40 29 -91 38 -113z m-175 169 c12 -4 22 -11 22 -16 0 -10
-39 -1 -54 13 -12 11 -1 11 32 3z m101 -84 c13 -36 38 -92 57 -125 28 -50 30
-55 9 -30 -32 37 -91 158 -100 205 -11 53 8 25 34 -50z m-82 30 c6 0 17 -24
23 -52 17 -72 68 -218 87 -246 24 -38 8 -36 -27 5 -37 42 -101 172 -124 252
l-16 53 23 -6 c12 -3 27 -6 34 -6z m2081 -35 c37 -19 92 -68 70 -61 -25 7 -22
-1 3 -15 17 -8 20 -8 14 1 -5 8 -3 11 6 8 8 -3 13 -11 11 -17 -1 -7 2 -10 7
-7 13 9 137 -109 185 -178 56 -78 139 -243 130 -258 -4 -6 -3 -8 3 -5 6 4 22
-18 36 -51 49 -109 128 -314 123 -319 -9 -9 -82 20 -266 108 -102 49 -189 95
-195 104 -7 10 -5 19 5 29 13 13 20 12 60 -15 52 -36 184 -103 220 -113 14 -4
-9 11 -50 34 -41 23 -106 63 -144 88 l-70 47 -43 110 c-85 215 -141 323 -224
431 -39 51 -49 88 -26 98 20 9 117 -3 145 -19z m-1217 -17 c101 -37 155 -73
183 -121 44 -75 43 -92 -1 -121 -89 -59 -132 -51 -207 37 -26 30 -59 63 -74
73 -26 16 -26 16 4 -17 17 -19 43 -51 59 -71 66 -90 129 -99 231 -33 108 70
169 62 220 -28 l31 -54 -106 0 c-95 0 -117 -4 -220 -38 -89 -29 -119 -35 -136
-27 -21 10 -35 47 -35 96 0 45 -32 127 -63 163 -18 20 -59 48 -96 65 -45 20
-61 32 -54 39 18 18 86 21 155 7 37 -8 65 -11 62 -7 -9 15 -113 31 -173 27
-45 -3 -61 -1 -61 9 0 7 12 15 28 19 15 3 32 8 37 10 26 10 157 -7 216 -28z
m-621 -142 c19 -26 41 -57 49 -67 25 -35 0 -19 -60 37 -32 31 -57 60 -54 64 2
4 -5 30 -15 59 -30 77 -24 84 13 16 18 -33 48 -82 67 -109z m101 47 c13 -16
12 -17 -3 -4 -10 7 -18 15 -18 17 0 8 8 3 21 -13z m178 -47 c18 -21 5 -39 -19
-26 -37 20 -62 10 -119 -47 -65 -65 -137 -102 -213 -108 l-53 -5 57 15 c89 22
137 52 208 125 36 37 72 69 80 72 17 6 41 -4 59 -26z m57 -79 c-11 -8 -16 -18
-13 -23 11 -18 -10 -36 -32 -29 -27 8 -27 35 -1 42 11 3 20 13 20 22 0 27 12
33 29 16 13 -13 13 -16 -3 -28z m-140 -17 c-50 -53 -57 -83 -24 -104 13 -8 21
-6 35 6 12 10 25 13 38 8 11 -5 61 -9 110 -9 92 -1 159 -14 171 -32 3 -6 -3
-19 -15 -30 -18 -17 -36 -19 -176 -19 -128 0 -157 3 -161 15 -4 10 -11 12 -23
6 -9 -6 -67 -11 -127 -12 l-111 -2 -48 36 c-26 21 -55 37 -63 37 -12 0 -12 3
-2 15 10 13 15 12 30 -8 15 -18 28 -22 72 -22 91 0 141 21 226 96 94 83 139
95 68 19z m322 -20 l3 -35 -22 24 c-22 23 -53 25 -101 6 -11 -4 -18 -3 -18 4
0 18 61 41 100 38 32 -2 35 -5 38 -37z m-16 -27 c24 -21 24 -48 1 -38 -10 4
-32 11 -50 16 -17 5 -34 16 -37 24 -8 21 62 20 86 -2z m577 -84 c30 -11 51
-35 51 -59 0 -6 -12 -5 -31 5 -17 9 -72 27 -122 40 l-92 23 81 1 c45 1 95 -4
113 -10z m-1249 -25 c0 -8 -4 -14 -9 -14 -11 0 -22 26 -14 34 9 9 23 -3 23
-20z m1135 -59 c29 -22 79 -95 55 -80 -16 10 -18 10 -102 21 -47 5 -64 3 -102
-16 -27 -12 -53 -34 -61 -50 -21 -40 -28 -101 -16 -132 16 -42 -15 -25 -39 21
-53 105 -27 189 75 245 42 23 155 18 190 -9z m-1120 -8 c24 -18 11 -37 -26
-37 -21 0 -29 5 -29 18 0 34 23 42 55 19z m1457 -66 c69 -55 238 -222 238
-234 0 -4 -8 -4 -17 0 -17 6 -17 5 -2 -13 38 -45 29 -46 -22 -2 -57 48 -289
291 -289 302 0 15 24 1 92 -53z m-893 28 c44 -26 35 -33 -19 -14 -23 8 -51 15
-61 15 -11 0 -19 5 -19 10 0 18 64 11 99 -11z m-260 -32 c46 -23 33 -32 -43
-32 -82 1 -101 9 -72 31 24 17 83 18 115 1z m75 -170 c-83 -201 -122 -279
-134 -272 -12 7 -10 11 77 198 40 87 73 160 73 162 0 16 44 97 47 87 3 -7 -25
-86 -63 -175z m145 172 c17 -6 31 -15 31 -19 0 -5 -25 -66 -56 -137 -86 -197
-135 -323 -129 -333 5 -8 -54 12 -77 26 -4 2 12 44 34 92 33 71 102 239 149
360 10 26 7 25 48 11z m612 -10 c19 -7 41 -18 49 -27 13 -13 12 -14 -9 -9 -40
10 -115 -12 -154 -44 -39 -32 -60 -86 -50 -128 4 -20 3 -23 -6 -15 -7 6 -14
35 -17 65 -4 42 -1 63 14 92 11 20 16 37 10 37 -20 0 -40 -74 -36 -138 l4 -63
-18 33 c-9 18 -17 55 -18 82 0 43 4 53 39 87 36 37 42 39 98 39 33 0 75 -5 94
-11z m767 -230 c97 -60 97 -59 24 -74 -28 -6 -41 -1 -90 36 -63 48 -287 243
-297 258 -3 6 56 -28 132 -76 76 -48 180 -112 231 -144z m-1863 211 c4 -6 2
-17 -4 -24 -6 -7 -31 -54 -56 -104 -33 -69 -48 -90 -60 -86 -8 4 -15 9 -15 13
0 3 21 52 47 109 33 72 52 102 64 102 10 0 21 -5 24 -10z m532 -107 c-52 -131
-157 -367 -166 -376 -36 -36 14 106 123 353 21 47 42 96 47 109 7 18 13 21 21
13 8 -8 1 -35 -25 -99z m-494 46 c7 -11 -1 -37 -26 -90 -19 -40 -40 -80 -45
-87 -9 -13 -42 -6 -42 9 0 21 84 189 93 186 6 -2 15 -10 20 -18z m1132 11 c16
-7 14 -9 -15 -9 -89 -2 -161 -47 -185 -116 l-14 -40 -1 46 c0 54 22 87 72 112
35 18 110 21 143 7z m41 -41 c24 -6 47 -16 51 -22 4 -7 0 -8 -11 -4 -10 4 -36
9 -59 12 -34 4 -30 2 23 -15 36 -10 66 -19 68 -20 2 0 0 6 -3 13 -4 6 1 3 9
-7 9 -11 14 -21 13 -23 -2 -1 -31 3 -65 9 -98 18 -181 -17 -201 -85 l-9 -32
-1 37 c-1 43 41 92 92 107 23 7 26 9 11 10 -22 1 -90 -40 -111 -68 -7 -9 -13
-31 -13 -49 0 -20 -4 -31 -10 -27 -17 10 -11 66 10 100 42 68 109 88 206 64z
m-577 -70 c61 -35 248 -165 257 -180 11 -18 -10 -7 -121 64 -62 39 -136 84
-164 99 -48 26 -66 48 -39 48 6 0 36 -14 67 -31z m-513 -18 c27 -7 27 -7 -29
-44 -89 -59 -93 -58 -57 12 25 51 34 60 45 51 8 -6 26 -15 41 -19z m1167 8
c31 -7 57 -15 57 -20 0 -4 -14 -3 -31 3 -17 6 -68 8 -113 6 -65 -3 -90 -9
-117 -27 l-34 -23 37 36 c34 32 43 36 91 36 30 0 79 -5 110 -11z m-1103 -22
c0 -8 -123 -107 -132 -107 -17 0 3 21 65 66 60 43 67 48 67 41z m1128 -23 c18
-7 30 -9 27 -4 -13 20 16 9 45 -17 l30 -28 -21 -25 c-20 -24 -20 -24 -16 -3 4
17 1 20 -12 16 -24 -9 -41 -24 -41 -37 0 -6 5 -3 11 7 15 26 29 11 29 -31 0
-67 -52 -111 -66 -56 -10 39 3 94 28 122 18 19 19 24 6 19 -10 -3 -33 0 -52 8
-53 22 -115 19 -171 -10 -52 -26 -66 -26 -45 0 48 57 160 75 248 39z m-669
-19 c36 -20 77 -44 91 -55 l25 -20 -26 9 c-59 21 -179 83 -179 91 0 17 20 11
89 -25z m-812 -13 c67 -25 147 -84 178 -130 30 -44 33 -65 5 -29 -38 48 -124
80 -230 85 -273 13 -500 -146 -673 -473 -58 -108 -52 -80 14 70 26 61 51 134
55 163 8 60 36 101 115 169 70 59 99 79 168 113 124 62 259 74 368 32z m350
-6 c-1 -19 -5 -32 -8 -30 -4 2 -9 -14 -13 -36 -7 -46 -11 -48 -42 -19 l-23 22
42 48 c23 26 43 48 44 49 1 0 1 -15 0 -34z m408 -13 c22 -15 72 -44 110 -65
78 -42 73 -48 -12 -18 -96 34 -82 7 33 -65 91 -57 98 -80 9 -31 l-65 36 25
-50 c14 -27 25 -57 25 -66 0 -21 -33 25 -118 160 -81 129 -82 151 -7 99z m684
6 c24 -9 30 -15 25 -28 -3 -9 -9 -25 -11 -36 -4 -19 -8 -17 -44 17 -25 23 -50
38 -65 38 -14 0 -22 4 -19 10 8 13 74 13 114 -1z m-59 -34 c16 -8 34 -24 40
-36 15 -27 40 -109 40 -131 0 -20 -130 -73 -213 -86 -61 -10 -80 -3 -111 36
-17 21 -24 23 -62 17 -25 -3 -44 -2 -44 3 0 23 171 158 184 145 3 -4 6 -1 6 6
0 7 5 9 10 6 6 -3 10 -2 10 4 0 5 22 4 56 -4 38 -9 66 -23 90 -46 19 -18 34
-36 34 -39 0 -26 -234 -105 -248 -84 -15 23 -58 44 -87 43 -31 -1 -28 -3 16
-13 14 -3 39 -18 55 -32 28 -26 30 -27 83 -16 70 15 201 77 201 95 0 16 -55
69 -90 88 -14 7 -41 16 -60 20 l-35 7 34 1 c21 1 55 -10 88 -29 29 -17 53 -28
53 -26 0 11 -73 59 -107 72 l-38 13 33 1 c18 0 46 -7 62 -15z m218 -17 c16
-16 15 -70 -2 -94 -19 -25 -35 -10 -43 39 -8 51 18 82 45 55z m-1318 -53 c19
-19 32 -35 29 -35 -3 0 -20 16 -39 35 -19 19 -32 35 -29 35 3 0 20 -16 39 -35z
m478 -43 c41 -72 92 -178 92 -193 0 -19 -17 -8 -30 19 -44 95 -108 242 -105
242 2 0 21 -31 43 -68z m-710 29 c94 -29 145 -75 167 -151 5 -19 -5 -12 -43
30 -79 88 -180 125 -318 118 -35 -2 -60 0 -56 4 25 23 174 23 250 -1z m2285
-19 c36 -18 81 -50 101 -72 32 -36 36 -46 36 -97 0 -42 -6 -67 -25 -100 -31
-52 -39 -56 -19 -8 32 77 7 157 -69 219 -54 44 -102 65 -192 82 l-70 14 87 -3
c73 -3 96 -8 151 -35z m-793 -64 c-28 -23 -37 -23 -50 2 -8 15 -6 21 9 30 11
5 23 20 27 32 7 22 8 21 22 -12 13 -32 12 -35 -8 -52z m-906 56 c10 -26 7 -34
-15 -34 -15 0 -19 4 -15 16 3 9 6 20 6 25 0 15 17 10 24 -7z m1542 -10 c12 -9
27 -15 31 -15 30 3 103 -92 103 -134 0 -8 4 -15 9 -15 12 0 2 -88 -14 -125
-13 -29 -13 -27 -14 36 -1 37 -8 86 -16 110 -19 54 -65 133 -72 125 -4 -3 1
-14 10 -24 15 -17 47 -83 47 -98 0 -4 -18 18 -40 48 -23 33 -54 63 -77 74 -40
19 -119 24 -168 11 -16 -5 -27 -5 -23 -1 4 4 29 13 55 20 56 16 135 10 169
-12z m-35 -47 c48 -32 98 -102 105 -148 4 -21 10 -39 14 -39 5 0 8 -33 8 -74
l1 -74 -53 -50 c-101 -96 -196 -121 -281 -73 -22 12 -31 19 -20 15 57 -18 104
-16 157 9 57 26 131 86 149 120 8 13 -9 5 -47 -25 -33 -25 -74 -53 -92 -62
-68 -35 -180 -30 -212 9 -11 13 -8 13 19 4 18 -6 51 -8 75 -5 62 10 176 67
224 113 37 36 42 45 41 84 l-1 44 -9 -40 c-9 -36 -81 -127 -98 -122 -3 1 -28
-12 -55 -28 -96 -57 -211 -41 -248 35 -31 62 -19 182 22 232 19 22 19 21 -1
-26 -17 -39 -20 -64 -17 -128 3 -73 6 -82 31 -104 42 -36 124 -34 205 7 34 17
71 42 82 56 53 67 41 160 -24 195 -17 9 -16 6 6 -20 33 -40 42 -65 34 -106
-12 -61 -91 -117 -186 -131 -91 -13 -131 26 -132 127 0 73 17 121 58 162 66
66 180 87 245 43z m192 -36 c22 -25 38 -54 42 -78 11 -64 14 -70 11 -18 -2 28
-6 59 -10 70 -3 11 3 1 14 -23 18 -35 19 -48 10 -81 -6 -22 -18 -49 -29 -62
-18 -22 -18 -22 -18 38 -1 68 -29 141 -71 187 -22 23 -23 27 -6 18 11 -6 37
-29 57 -51z m-613 18 l35 -31 -33 19 c-35 19 -61 43 -46 43 5 0 25 -14 44 -31z
m-1282 6 c56 -24 82 -53 82 -93 l0 -35 -23 21 c-29 28 -89 52 -127 52 -25 0
-30 4 -30 23 0 47 34 58 98 32z m188 6 c-7 -11 -46 -21 -46 -12 0 13 13 21 32
21 11 0 17 -4 14 -9z m-636 -37 c76 -36 158 -99 191 -146 16 -24 4 -15 -44 29
-38 35 -95 75 -134 94 -58 28 -82 34 -161 37 -78 4 -102 1 -155 -18 -70 -26
-118 -54 -172 -101 -164 -144 -291 -473 -270 -699 26 -293 146 -510 332 -601
63 -32 74 -34 168 -34 111 1 158 17 280 94 33 21 73 42 88 45 26 6 27 5 17
-14 -13 -25 -117 -112 -173 -144 -147 -85 -344 -70 -474 36 -130 107 -221 280
-253 482 -19 117 -8 311 24 419 79 264 226 450 423 533 50 21 70 24 153 22 81
-3 104 -8 160 -34z m649 -9 c-10 -9 -59 -16 -59 -8 0 12 54 31 59 20 1 -4 1
-10 0 -12z m87 -153 c-9 -8 -56 110 -56 140 0 26 7 15 30 -52 16 -46 28 -86
26 -88z m403 144 c37 -40 19 -47 -23 -10 -32 28 -36 34 -19 34 11 0 30 -11 42
-24z m1387 -79 c-5 -30 -18 -58 -42 -86 -40 -46 -28 -56 16 -13 32 32 53 97
51 157 0 29 2 36 9 25 5 -8 10 -25 10 -38 0 -20 2 -21 21 -11 17 9 23 8 30 -2
36 -57 -76 -173 -159 -167 l-29 2 36 50 c33 46 36 56 36 118 0 66 1 67 14 39
9 -19 11 -44 7 -74z m-1451 78 c28 -14 63 -61 52 -71 -2 -2 -18 3 -36 12 -32
16 -83 15 -123 -1 -28 -11 -22 13 11 46 34 33 50 35 96 14z m-1301 -17 c15
-56 6 -127 -20 -165 -14 -21 -39 -64 -55 -96 -16 -32 -34 -55 -39 -52 -8 5
-42 142 -55 222 l-7 42 54 27 c46 24 89 40 109 43 4 1 9 -9 13 -21z m86 14 c0
-4 -16 -32 -35 -62 l-34 -55 -1 63 0 62 35 0 c19 0 35 -4 35 -8z m80 -24 c0
-7 -30 -73 -67 -145 -56 -111 -71 -133 -90 -133 -28 0 -28 2 60 163 38 70 75
127 83 127 8 0 14 -6 14 -12z m415 0 c7 -17 -62 -174 -74 -171 -15 4 -41 -38
-137 -224 -48 -95 -92 -173 -96 -173 -5 0 -2 13 4 28 13 28 234 471 263 525
15 29 33 35 40 15z m119 -37 c18 -18 27 -35 23 -45 -9 -23 -25 -20 -29 7 -3
22 -19 -6 -213 -375 -40 -76 -78 -144 -85 -153 -19 -22 -39 -19 -33 6 5 18 2
20 -23 17 -16 -1 -29 2 -29 7 0 20 167 336 200 379 18 24 48 78 66 120 33 75
35 77 64 71 17 -3 43 -18 59 -34z m186 29 c0 -5 -6 -10 -12 -10 -7 0 -23 -3
-35 -6 -13 -4 -23 -2 -23 4 0 6 12 13 28 15 15 2 30 5 35 6 4 0 7 -3 7 -9z
m525 0 c3 -5 1 -10 -4 -10 -6 0 -11 5 -11 10 0 6 2 10 4 10 3 0 8 -4 11 -10z
m-87 -46 c40 -26 25 -39 -21 -19 -10 4 -38 5 -62 2 -36 -5 -43 -4 -39 8 7 18
53 35 79 28 11 -3 30 -11 43 -19z m523 0 c33 -15 58 -29 56 -31 -2 -2 -33 10
-68 26 -35 16 -60 30 -55 30 5 1 35 -11 67 -25z m-2016 -85 c9 -46 23 -106 31
-133 14 -48 13 -51 -10 -75 -13 -14 -30 -39 -38 -55 l-15 -29 -70 84 c-38 46
-73 90 -77 96 -4 8 6 32 24 58 31 45 130 148 136 142 2 -2 11 -41 19 -88z
m1968 61 c26 -16 47 -34 47 -39 0 -5 -12 -19 -27 -31 -16 -12 -47 -39 -70 -61
l-42 -40 25 -36 c31 -46 37 -70 32 -128 -3 -39 -1 -43 9 -28 26 35 3 131 -41
176 -16 15 -13 19 46 63 76 56 102 69 124 60 13 -5 16 -17 12 -66 -2 -33 -3
-60 0 -60 2 0 12 5 23 10 14 8 19 7 19 -3 0 -8 -10 -19 -22 -25 -35 -16 -138
-101 -138 -112 0 -6 24 7 53 29 53 41 125 76 134 67 3 -2 -18 -16 -45 -30 -28
-14 -54 -31 -57 -37 -4 -6 7 -4 23 5 41 21 65 20 93 -4 24 -20 24 -20 5 -35
-11 -8 -26 -15 -33 -15 -47 0 -179 -94 -228 -161 -48 -67 -39 -74 11 -9 68 89
170 152 242 149 24 -1 23 -2 -8 -9 -87 -18 -134 -55 -204 -160 -51 -75 -86
-106 -111 -96 -22 8 -18 50 6 72 21 19 79 112 79 127 0 4 -22 7 -50 7 -48 0
-120 -25 -120 -42 0 -5 12 -2 28 6 32 17 122 32 122 20 0 -11 -81 -134 -89
-134 -4 0 -19 19 -34 42 -36 55 -34 42 4 -33 17 -34 28 -63 26 -65 -9 -9 -65
66 -82 110 -17 45 -17 47 4 114 24 74 81 184 98 189 17 6 56 -56 56 -88 0 -38
-29 -69 -64 -69 -15 0 -31 -4 -34 -10 -4 -6 8 -10 30 -10 81 0 114 95 57 162
-53 62 -92 127 -92 153 0 18 13 40 39 66 48 48 79 50 144 9z m-643 10 c0 -5
-7 -10 -15 -10 -12 0 -13 -4 -5 -19 5 -11 10 -42 10 -70 0 -50 0 -51 -31 -51
l-32 0 7 47 c9 71 27 113 48 113 10 0 18 -4 18 -10z m140 -25 c17 -9 30 -19
30 -23 0 -3 -10 -30 -22 -59 -17 -42 -26 -53 -44 -53 -13 0 -35 -5 -50 -10
l-27 -11 6 68 c5 52 11 72 28 86 26 21 41 21 79 2z m289 -21 c-53 -55 -118
-94 -156 -94 -20 0 -32 4 -28 10 3 6 14 10 24 10 9 0 53 24 97 54 94 63 110
69 63 20z m-1331 -30 c1 -1 -22 -33 -52 -71 -35 -45 -65 -73 -82 -77 -59 -15
-51 21 29 141 l42 62 30 -27 c16 -15 31 -28 33 -28z m1292 51 c0 -11 -84 -46
-126 -52 -78 -10 -49 19 37 38 92 20 89 20 89 14z m-1556 -131 c-31 -68 -32
-69 -40 -61 -3 3 9 33 27 66 18 33 35 59 36 57 2 -2 -9 -30 -23 -62z m1454 59
c-10 -2 -26 -2 -35 0 -10 3 -2 5 17 5 19 0 27 -2 18 -5z m-1185 -58 c-41 -51
-50 -43 -11 11 18 25 34 41 36 35 2 -6 -9 -26 -25 -46z m167 51 c0 -3 -4 -8
-10 -11 -5 -3 -10 -1 -10 4 0 6 5 11 10 11 6 0 10 -2 10 -4z m2407 -35 c-3
-14 -15 -46 -26 -71 -16 -37 -20 -41 -20 -20 -1 29 -26 70 -43 70 -6 0 -4 -8
5 -18 39 -43 9 -145 -60 -201 -56 -46 -53 -28 5 33 52 55 72 89 29 48 l-23
-21 4 72 c3 40 9 75 16 79 6 4 -10 8 -35 8 -35 0 -55 -7 -85 -28 -53 -39 -117
-111 -110 -125 15 -37 46 -115 51 -131 5 -18 7 -18 29 3 38 36 50 74 34 107
-18 37 -44 52 -60 36 -11 -11 -10 -12 5 -6 12 4 23 0 32 -12 16 -21 20 -70 6
-78 -4 -3 -6 7 -4 22 3 19 -1 15 -11 -13 -9 -22 -16 -42 -16 -45 -1 -3 -7 11
-14 30 -8 19 -20 50 -27 67 -13 31 -12 34 20 67 19 20 39 32 44 29 6 -3 7 -1
3 5 -4 7 -2 12 3 12 6 0 11 -2 11 -4 0 -2 3 -12 7 -22 4 -12 3 -15 -6 -10 -7
5 1 -16 17 -45 l31 -52 -19 -36 c-10 -20 -34 -51 -53 -69 l-35 -34 -16 56
c-11 35 -29 68 -49 88 l-32 31 65 65 c66 66 62 64 -51 -22 -136 -103 -201
-122 -277 -82 -39 20 -37 31 2 16 46 -17 117 -12 171 14 28 13 96 62 153 110
56 47 106 86 109 86 4 0 -3 -7 -15 -16 -12 -8 -22 -20 -22 -25 0 -6 12 -1 27
10 22 18 35 20 87 15 54 -5 65 -3 96 19 41 28 54 25 47 -12z m-2134 -81 c14
-68 31 -237 22 -228 -2 1 -12 57 -23 123 -32 187 -30 185 -88 74 -28 -52 -56
-109 -63 -126 -8 -18 -18 -33 -23 -33 -5 0 17 51 50 113 33 61 67 127 77 146
21 42 27 34 48 -69z m640 63 c15 -28 15 -32 1 -37 -11 -4 -14 -1 -9 13 3 11 1
22 -5 26 -5 3 -10 13 -10 22 0 20 3 17 23 -24z m-1010 -56 c-10 -26 -21 -47
-25 -47 -12 0 -10 5 13 55 27 58 35 53 12 -8z m814 37 c2 -6 -7 -16 -19 -22
-18 -8 -19 -11 -6 -11 11 -1 20 -12 24 -28 4 -16 15 -45 25 -65 23 -45 24 -60
3 -33 -27 35 -74 134 -74 155 0 16 5 21 22 18 12 -2 23 -8 25 -14z m1547 -55
c-1 -30 -7 -72 -14 -93 l-12 -38 -19 32 c-11 17 -17 35 -15 39 3 4 0 13 -6 21
-8 12 -8 11 -3 -5 3 -11 2 -16 -2 -11 -4 4 -8 17 -9 29 -1 12 -3 29 -5 37 -4
15 58 53 76 46 6 -1 10 -27 9 -57z m-1382 -4 c11 -27 39 -76 64 -108 24 -31
44 -68 44 -81 l0 -24 53 20 c37 14 48 15 37 5 -34 -33 -109 -42 -111 -13 0 6
-27 30 -59 53 -57 40 -120 121 -134 170 -8 24 9 32 58 30 24 -2 31 -9 48 -52z
m-1566 -77 c35 -45 41 -58 28 -58 -31 0 -184 54 -184 65 0 5 12 35 26 65 l25
55 30 -35 c16 -19 49 -61 75 -92z m1634 82 c-19 -13 -30 -13 -30 0 0 6 10 10
23 10 18 0 19 -2 7 -10z m1550 -80 c58 -115 84 -231 100 -445 18 -244 14 -352
-20 -440 -18 -47 -20 -22 -5 52 20 97 22 197 7 328 -29 247 -71 414 -132 522
-17 30 -28 58 -24 64 10 16 43 -20 74 -81z m-2735 60 c16 -7 12 -9 -20 -9 -50
-1 -132 -39 -166 -77 -78 -86 -114 -202 -107 -343 4 -68 3 -89 -5 -75 -6 10
-12 52 -15 94 -4 81 14 174 49 243 31 60 99 128 154 153 53 25 77 28 110 14z
m1000 -37 c27 -74 53 -131 65 -138 5 -3 10 -11 10 -17 0 -6 -11 -1 -24 11 -14
13 -34 53 -46 92 -11 38 -23 75 -26 84 -3 8 -4 15 -1 15 3 0 13 -21 22 -47z
m233 28 c10 -6 7 -10 -11 -15 -14 -3 -32 -9 -41 -12 -10 -4 -16 -1 -16 9 0 24
42 35 68 18z m-1428 -11 c0 -5 -4 -10 -10 -10 -5 0 -10 -6 -10 -13 0 -8 -9
-22 -20 -32 -20 -18 -20 -17 -20 8 0 14 -3 32 -6 41 -5 13 1 16 30 16 20 0 36
-4 36 -10z m1548 -16 c-12 -12 -148 -42 -153 -33 -5 7 20 16 90 32 30 7 69 8
63 1z m1307 -58 c12 -28 30 -78 39 -111 30 -114 78 -344 74 -362 -2 -10 -19
29 -37 87 -33 103 -85 219 -122 271 -13 19 -17 36 -12 61 3 20 1 44 -5 54 -7
13 -6 24 5 41 20 29 30 22 58 -41z m-2941 22 c8 -41 -2 -50 -50 -46 l-38 3 33
38 c18 20 37 37 41 37 4 0 10 -14 14 -32z m-138 -64 c8 -1 5 -21 -8 -60 -11
-31 -20 -88 -21 -126 -1 -37 -6 -68 -10 -68 -5 0 -55 7 -113 16 l-104 17 0 29
c0 40 28 173 46 218 l15 37 92 -30 c51 -16 97 -31 103 -33z m487 22 c15 -14
27 -32 27 -41 0 -17 -16 -20 -25 -5 -3 6 -24 10 -45 10 -30 0 -48 -8 -76 -32
-89 -78 -99 -214 -20 -280 30 -25 51 -22 91 13 20 18 41 29 50 25 23 -8 18
-21 -20 -55 -111 -97 -232 42 -184 212 13 49 67 109 118 132 34 15 39 21 31
36 -6 10 -10 20 -10 24 0 9 32 -11 63 -39z m1273 35 c-9 -13 -105 -33 -119
-24 -7 4 12 13 43 19 71 15 82 16 76 5z m919 -23 c30 -23 75 -110 75 -145 0
-22 -42 -63 -91 -88 -30 -16 -33 -15 -43 30 -4 17 -19 45 -33 63 -31 41 -25
75 18 97 37 20 62 13 89 -25 26 -37 25 -63 -5 -97 l-24 -28 -1 36 c0 50 -11
99 -21 99 -5 0 -4 -12 1 -26 6 -14 10 -42 10 -62 l0 -37 -19 41 c-10 23 -24
45 -31 49 -6 4 -2 -11 9 -34 12 -22 21 -52 21 -66 0 -14 5 -25 10 -25 21 0 81
46 86 67 7 26 -19 82 -51 113 -31 29 -85 21 -115 -17 -26 -33 -25 -40 10 -87
17 -22 30 -51 30 -65 -1 -26 -1 -26 -14 4 -13 29 -13 29 -10 -20 l4 -50 -15
53 c-27 95 -40 111 -121 148 -41 19 -74 39 -74 45 0 5 12 3 28 -5 15 -7 45
-19 66 -24 44 -13 55 -8 125 45 24 18 47 33 51 33 4 0 20 -10 35 -22z m-2363
-21 c-11 -12 -37 -49 -56 -81 -38 -63 -48 -58 -17 9 20 45 78 111 88 101 4 -3
-3 -16 -15 -29z m585 -172 c-4 -73 -13 -123 -33 -185 -26 -76 -29 -81 -32 -51
-2 19 1 62 7 96 6 34 11 114 11 179 0 94 3 122 17 143 l18 27 8 -55 c5 -29 6
-99 4 -154z m2113 175 c0 -37 -11 -50 -31 -39 -23 12 -24 27 -3 50 19 21 34
16 34 -11z m-1267 -11 c-6 -6 -27 -14 -47 -19 -27 -6 -36 -5 -36 5 0 14 22 21
70 24 17 1 21 -2 13 -10z m-1630 -46 c-8 -21 -16 -39 -18 -41 -3 -4 -45 63
-45 72 0 3 18 6 39 6 l40 0 -16 -37z m1257 5 c0 -7 -5 -20 -10 -28 -7 -12 -12
-12 -21 -3 -9 9 -9 16 1 28 15 18 30 20 30 3z m890 2 c0 -5 -15 -13 -34 -18
-48 -14 -102 -53 -137 -100 -26 -36 -63 -61 -74 -50 -2 2 16 31 41 65 32 45
57 68 96 87 52 26 108 34 108 16z m-2202 -33 c29 -44 28 -63 -7 -82 -16 -8
-37 -22 -46 -32 -16 -16 -17 -14 -10 28 9 57 27 119 34 119 3 0 16 -15 29 -33z
m742 14 c5 -11 10 -42 10 -70 l0 -51 -34 0 c-34 0 -35 -1 -45 -52 -20 -97 -19
-102 14 -109 l30 -7 -30 -1 c-17 0 -36 4 -42 10 -12 12 -8 68 7 104 17 41 18
54 9 95 -5 23 -7 45 -4 49 9 8 25 -21 25 -46 0 -17 6 -23 23 -23 32 0 34 4 28
52 -6 40 -8 43 -34 40 -32 -4 -37 15 -4 21 12 2 25 5 29 6 4 0 12 -8 18 -18z
m1618 -6 c20 -9 47 -26 60 -38 30 -28 72 -109 72 -139 0 -17 -8 -10 -30 30
-32 55 -89 104 -145 122 -23 8 -32 16 -28 26 7 18 25 18 71 -1z m-1985 -9 c4
-9 -5 -21 -21 -31 -15 -10 -39 -31 -54 -49 -22 -24 -28 -27 -28 -13 0 18 24
71 42 95 14 16 55 15 61 -2z m2473 -165 c31 -28 95 -80 143 -116 48 -36 93
-76 99 -90 26 -57 8 -115 -35 -115 -21 0 -63 36 -200 172 -95 95 -173 177
-173 183 0 17 40 56 51 50 5 -4 9 1 9 10 0 9 10 29 23 44 l22 27 3 -57 c3 -56
5 -59 58 -108z m-656 151 c0 -4 -20 -18 -45 -30 -46 -22 -59 -17 -27 10 27 24
72 37 72 20z m740 -27 c47 -25 110 -130 145 -245 7 -22 6 -23 -8 -12 -9 8 -28
45 -44 84 -16 42 -44 90 -69 117 -40 44 -44 46 -93 45 -57 -1 -62 2 -28 16 33
13 65 12 97 -5z m-616 -14 c17 -11 33 -18 37 -15 11 6 89 -86 96 -114 6 -26
-13 -72 -33 -79 -7 -2 -9 15 -6 52 4 47 1 61 -22 95 -35 53 -41 51 -11 -2 23
-41 35 -105 17 -94 -5 3 -7 -9 -5 -27 3 -28 0 -25 -21 21 -14 29 -48 75 -76
102 -28 28 -46 50 -40 50 23 0 73 -44 101 -88 16 -25 29 -40 29 -32 0 27 -52
100 -88 125 -20 14 -30 25 -22 25 8 0 28 -9 44 -19z m-1885 -15 c14 -17 11
-72 -4 -69 -5 1 -19 5 -29 9 -16 6 -18 4 -13 -9 10 -25 -9 -20 -31 8 -22 28
-19 70 4 61 8 -3 14 -1 14 4 0 15 46 12 59 -4z m71 -21 c0 -39 83 -43 95 -5 9
27 25 15 25 -18 0 -47 -9 -51 -77 -38 -72 13 -84 22 -72 54 9 25 29 30 29 7z
m1082 -42 c-21 -38 -26 -61 -26 -116 -1 -67 -1 -68 -15 -35 -19 48 -10 120 23
163 39 50 49 43 18 -12z m669 22 c61 -45 115 -131 105 -169 -5 -20 -52 -56
-75 -56 -5 0 -19 20 -30 44 -25 57 -89 121 -137 136 -48 15 -62 27 -42 35 54
21 167 -60 209 -148 17 -34 19 -36 14 -12 -11 51 -65 124 -112 152 -48 28 -52
40 -7 23 38 -15 71 -45 105 -99 16 -25 29 -40 29 -35 0 6 -14 32 -31 60 -30
47 -55 71 -89 86 -11 5 -10 7 6 7 11 1 36 -10 55 -24z m661 6 c26 -21 94 -139
85 -148 -3 -3 -24 25 -47 61 -23 36 -45 66 -48 66 -4 0 -18 9 -32 20 -24 19
-24 20 -4 20 12 0 32 -9 46 -19z m-1232 -23 c13 -24 12 -35 -9 -118 -13 -50
-24 -105 -23 -121 1 -41 -13 -36 -36 14 -40 83 -38 151 8 225 23 38 38 37 60
0z m-1670 -34 l0 -55 -32 4 c-47 5 -51 44 -8 81 17 14 33 26 36 26 2 0 4 -25
4 -56z m740 5 c-12 -41 -20 -48 -20 -18 0 20 16 49 26 49 2 0 -1 -14 -6 -31z
m635 -89 c-61 -315 87 -643 290 -643 81 0 150 38 235 130 38 42 73 73 77 70
10 -11 -65 -113 -114 -157 -58 -51 -107 -73 -173 -78 -96 -7 -170 37 -245 147
-111 162 -143 398 -79 585 25 72 29 47 9 -54z m759 50 c48 -35 91 -91 102
-134 6 -24 4 -26 -25 -26 -17 0 -60 14 -94 32 -34 17 -79 36 -100 43 l-38 11
22 28 c20 26 27 28 72 23 46 -4 49 -3 31 10 -13 10 -33 13 -65 9 -37 -5 -49
-3 -63 13 -17 19 -17 20 6 24 52 11 106 0 152 -33z m-2329 10 c39 -5 75 -10
82 -10 7 0 17 -19 23 -42 11 -38 10 -43 -11 -58 -31 -24 -197 -105 -203 -99
-8 8 -26 132 -26 182 l0 48 33 -6 c17 -3 64 -10 102 -15z m2157 -7 c21 -19 23
-33 5 -57 -12 -17 -15 -17 -52 0 -22 10 -42 20 -44 21 -9 6 43 53 57 53 9 0
24 -7 34 -17z m-1427 -52 c-83 -213 -270 -305 -388 -193 -31 29 -57 73 -56 94
0 10 2 10 6 -1 9 -22 66 -71 102 -87 85 -38 194 35 281 189 24 44 37 57 55 57
l24 0 -24 -59z m901 -38 c4 -42 3 -63 -4 -63 -6 0 -18 -3 -28 -7 -15 -6 -16
-1 -10 48 16 118 30 126 42 22z m-1436 40 c0 -10 -32 -43 -42 -43 -14 0 -9 22
10 36 19 15 32 18 32 7z m617 -51 c15 -11 16 -18 5 -60 -13 -49 -79 -194 -104
-225 -12 -17 -17 -14 -60 37 l-47 54 43 36 44 35 18 -20 c10 -12 28 -25 39
-31 11 -5 3 6 -19 24 l-38 34 26 39 c15 21 34 60 43 87 16 43 18 45 26 25 4
-12 15 -28 24 -35z m1080 6 c-1 -36 5 -62 17 -80 16 -24 16 -28 3 -28 -24 0
-47 29 -47 58 0 28 18 102 25 102 2 0 3 -24 2 -52z m213 10 c0 -11 -7 -10 -31
2 -28 16 -23 32 6 18 14 -6 25 -15 25 -20z m667 -50 c-4 -45 -12 -86 -18 -92
-9 -8 -10 3 -5 44 3 30 6 72 6 93 0 21 5 37 11 37 9 0 10 -23 6 -82z m49 15
c-9 -84 -25 -138 -37 -126 -6 6 -6 27 0 54 6 24 11 63 11 86 0 35 7 47 29 52
2 1 0 -29 -3 -66z m-2586 -66 c23 -39 0 -127 -67 -254 -35 -68 -68 -123 -72
-123 -10 0 -52 46 -89 98 l-31 43 81 127 c45 70 95 144 112 165 l30 38 13 -38
c7 -21 17 -46 23 -56z m-145 -34 c-27 -43 -62 -102 -79 -130 -17 -29 -35 -53
-39 -53 -10 0 -62 114 -71 155 -6 30 -6 31 106 87 105 52 114 55 122 37 7 -15
-2 -37 -39 -96z m801 55 c-38 -124 -110 -252 -175 -312 -40 -38 -39 -30 5 35
50 74 99 174 124 253 17 50 26 66 40 66 18 0 18 -3 6 -42z m1054 28 c0 -8 21
-33 48 -57 27 -24 36 -36 22 -29 -55 27 -113 100 -80 100 6 0 10 -6 10 -14z
m968 -36 c-6 -23 -13 -39 -15 -36 -8 8 8 86 17 81 4 -3 3 -23 -2 -45z m-2459
0 c41 -6 43 -7 19 -14 -28 -8 -98 18 -98 36 0 6 7 4 16 -3 9 -7 37 -16 63 -19z
m1596 -18 c11 -6 15 -12 8 -12 -7 0 -22 10 -35 23 -13 12 -17 17 -8 11 8 -6
24 -16 35 -22z m135 13 c-7 -8 -10 -15 -7 -15 2 0 24 7 47 15 50 18 88 19 126
5 26 -10 26 -11 8 -32 -11 -11 -46 -33 -79 -49 -33 -15 -77 -39 -98 -53 -43
-30 -47 -31 -47 -13 0 30 105 107 147 107 17 1 17 1 1 11 -24 13 -93 -18 -132
-59 -26 -28 -56 -33 -56 -11 0 10 89 109 98 109 2 0 -1 -7 -8 -15z m-547 -9
c3 -7 8 -34 12 -58 7 -44 6 -45 -22 -51 -15 -3 -31 -3 -35 0 -5 2 -8 31 -8 64
0 56 1 59 24 59 13 0 26 -6 29 -14z m77 -7 c0 -5 -4 -7 -10 -4 -5 3 -10 -1
-10 -9 0 -24 19 -29 47 -11 38 25 47 6 21 -43 -13 -23 -27 -42 -31 -42 -13 0
-49 90 -43 106 6 16 26 19 26 3z m1307 -49 c0 -93 24 -111 113 -84 25 7 25 7
6 -14 -21 -25 -80 -47 -97 -36 -18 11 -39 71 -39 111 0 34 9 83 14 83 2 0 3
-27 3 -60z m-293 -25 c131 -40 243 -78 248 -83 6 -6 8 -17 6 -25 -2 -13 -19
-10 -108 15 -227 64 -406 120 -430 135 -23 16 -23 17 -5 24 34 13 43 11 289
-66z m581 -166 c-18 -69 -64 -166 -102 -217 -20 -27 -92 -82 -106 -82 -3 0 -7
21 -11 46 -5 42 -3 49 31 90 24 30 39 42 46 35 7 -7 14 -4 21 8 6 10 31 52 55
92 51 84 70 141 73 213 1 28 4 12 5 -36 3 -58 -2 -108 -12 -149z m-2932 112
l42 -18 24 -133 c22 -127 22 -134 6 -146 -48 -36 -204 -30 -282 9 -28 15 -53
30 -56 34 -2 5 23 55 56 113 l59 105 -6 -60 c-12 -137 -16 -189 -11 -180 2 6
11 71 19 146 9 90 19 146 31 165 13 23 14 25 1 10 -17 -21 -21 -10 -10 31 6
20 8 19 46 -19 21 -21 58 -47 81 -57z m2035 57 c7 -7 12 -20 12 -30 0 -20 -35
-42 -51 -32 -6 4 -2 11 11 18 27 13 27 31 0 30 -11 0 -20 5 -20 13 0 16 32 17
48 1z m-468 -49 c18 -5 -67 -17 -124 -18 -76 -1 -79 10 -10 34 32 11 46 11 84
-1 25 -8 47 -14 50 -15z m396 -6 c-11 -11 -19 6 -11 24 8 17 8 17 12 0 3 -10
2 -21 -1 -24z m-222 5 c15 -22 12 -43 -5 -33 -5 4 -9 1 -9 -5 0 -6 -18 -1 -42
11 -39 20 -41 22 -23 35 28 20 62 17 79 -8z m-1469 -43 l46 -55 -19 -27 c-41
-56 -165 -163 -189 -163 -9 0 -53 207 -53 248 0 19 6 22 40 22 40 0 40 0 80
-80 22 -44 45 -80 51 -80 6 0 2 12 -9 28 -23 32 -75 133 -70 136 12 8 55 25
64 25 6 1 33 -24 59 -54z m1059 -1 l59 -57 -27 -75 c-14 -41 -25 -77 -22 -79
2 -2 16 31 31 75 l27 78 50 -16 49 -15 -5 -50 c-3 -27 -9 -78 -12 -113 -7 -62
-7 -63 -33 -57 -44 10 -104 58 -144 115 -33 48 -87 187 -87 225 0 12 16 21 45
24 6 0 37 -24 69 -55z m476 16 c0 -13 -60 -50 -80 -50 -8 0 -1 7 15 16 17 8
37 22 45 30 17 17 20 17 20 4z m-171 -26 c6 -15 9 -29 6 -32 -3 -3 -30 -7 -60
-10 -46 -4 -55 -2 -55 12 0 10 17 24 43 36 54 24 52 24 66 -6z m52 -4 l24 -19
-22 -1 c-12 0 -27 9 -33 20 -14 26 1 26 31 0z m654 -74 c29 -99 55 -154 121
-257 38 -58 60 -80 119 -118 119 -75 117 -73 65 -66 -172 22 -311 219 -336
477 -4 35 -4 60 -1 57 4 -3 18 -45 32 -93z m-892 67 c9 -3 17 -9 17 -14 0 -12
-6 -11 -40 6 -32 17 -41 32 -12 20 9 -4 25 -10 35 -12z m393 -28 c-13 -31 -18
-34 -30 -23 -12 11 -11 17 12 40 32 35 37 30 18 -17z m544 -10 c34 -108 132
-245 176 -245 22 0 44 -30 43 -58 l-1 -27 -8 25 c-5 17 -8 19 -9 8 -1 -10 -4
-18 -8 -18 -16 1 -88 47 -86 56 1 5 4 18 8 29 l7 20 -17 -20 c-16 -20 -16 -20
-37 5 -31 38 -67 114 -83 177 -26 101 -14 141 15 48z m115 8 c35 -17 52 -52
18 -38 -10 4 -25 9 -35 12 -9 3 -18 13 -21 24 -6 23 -6 23 38 2z m-760 -69
l-37 -57 -18 39 c-22 48 -26 38 -5 -13 15 -36 15 -37 -17 -70 -39 -40 -55 -42
-61 -5 -3 20 -4 18 -3 -7 1 -29 -5 -38 -29 -52 -17 -10 -43 -21 -59 -25 l-28
-7 6 64 c4 35 9 85 12 111 l6 48 56 0 c64 0 86 3 157 23 28 8 52 13 53 11 2
-1 -13 -28 -33 -60z m795 -15 c0 -17 -3 -18 -22 -8 -26 14 -38 28 -38 47 0 9
7 9 30 -3 18 -9 30 -23 30 -36z m229 7 c-13 -28 -42 -32 -47 -5 -1 9 9 19 25
25 35 13 36 12 22 -20z m186 2 c-4 -18 -18 -59 -31 -90 -13 -32 -24 -70 -24
-86 0 -59 -93 -144 -171 -157 -54 -9 -118 9 -163 47 -44 36 -42 44 5 24 96
-39 176 -28 246 37 46 42 100 137 123 215 15 50 25 56 15 10z m-332 -17 c26
-19 47 -40 47 -46 0 -19 -37 -47 -56 -43 -22 4 -54 64 -54 101 0 33 0 33 63
-12z m74 7 c-3 -8 -6 -5 -6 6 -1 11 2 17 5 13 3 -3 4 -12 1 -19z m-163 -30 c3
-7 7 -26 11 -43 l6 -30 -25 34 c-14 19 -26 39 -26 43 0 13 30 9 34 -4z m194
-35 c-4 -23 -85 -83 -111 -83 -16 0 -9 6 22 22 24 12 51 34 60 50 18 31 34 37
29 11z m-22 -168 c-3 -10 -19 -15 -46 -15 -39 0 -40 1 -40 33 0 28 5 34 38 48
l37 15 9 -33 c4 -18 5 -40 2 -48z"/>
<path d="M892 4508 c-23 -23 -14 -41 16 -33 26 6 26 6 7 -9 -20 -15 -20 -15 2
-16 12 0 29 7 38 16 15 15 15 18 -4 35 -23 22 -42 24 -59 7z"/>
<path d="M1696 4045 c-9 -26 -7 -32 5 -12 6 10 9 21 6 23 -2 3 -7 -2 -11 -11z"/>
<path d="M1642 3940 c-24 -31 -28 -45 -12 -35 10 6 44 65 37 65 -2 0 -13 -13
-25 -30z"/>
<path d="M1759 3863 c-13 -16 -12 -17 4 -4 9 7 17 15 17 17 0 8 -8 3 -21 -13z"/>
<path d="M1821 3774 c0 -11 3 -14 6 -6 3 7 2 16 -1 19 -3 4 -6 -2 -5 -13z"/>
<path d="M1790 3625 c0 -5 5 -17 10 -25 5 -8 10 -10 10 -5 0 6 -5 17 -10 25
-5 8 -10 11 -10 5z"/>
<path d="M1819 3562 c6 -12 16 -24 22 -28 8 -4 8 -1 0 14 -6 12 -16 24 -22 28
-8 4 -8 1 0 -14z"/>
<path d="M3310 3016 c0 -7 131 -78 136 -73 3 2 -27 21 -66 41 -38 20 -70 35
-70 32z"/>
<path d="M3834 2725 c11 -8 25 -15 30 -15 6 0 2 7 -8 15 -11 8 -25 15 -30 15
-6 0 -2 -7 8 -15z"/>
<path d="M3985 3120 c9 -16 18 -30 21 -30 2 0 -2 14 -11 30 -9 17 -18 30 -21
30 -2 0 2 -13 11 -30z"/>
<path d="M2623 3039 c-35 -10 -103 -71 -103 -92 0 -7 12 3 27 22 49 62 131 78
204 40 23 -11 38 -15 34 -9 -10 16 -85 50 -110 49 -11 0 -35 -5 -52 -10z"/>
<path d="M2528 3013 c-33 -36 -48 -66 -48 -95 1 -17 4 -14 14 15 8 20 26 53
40 72 32 42 29 45 -6 8z"/>
<path d="M2506 2915 c-3 -9 -5 -35 -5 -58 2 -40 2 -39 9 13 7 59 6 71 -4 45z"/>
<path d="M2992 2600 c0 -14 2 -19 5 -12 2 6 2 18 0 25 -3 6 -5 1 -5 -13z"/>
<path d="M2782 2586 c20 -6 40 -14 43 -18 4 -4 -29 -25 -73 -46 -77 -37 -81
-38 -103 -21 l-22 17 21 6 c12 4 22 12 22 17 0 5 15 18 33 29 17 11 26 20 18
20 -7 0 -30 -13 -50 -28 -20 -16 -44 -33 -53 -38 -14 -8 -11 -12 22 -30 l39
-22 80 40 c45 21 81 43 81 48 0 16 -43 40 -70 39 -21 -1 -19 -3 12 -13z"/>
<path d="M2730 2550 c-8 -5 -10 -10 -5 -10 6 0 17 5 25 10 8 5 11 10 5 10 -5
0 -17 -5 -25 -10z"/>
<path d="M3483 2485 c-18 -8 -33 -19 -33 -25 0 -6 13 -4 33 6 44 24 111 22
145 -3 38 -28 72 -91 72 -136 0 -41 -19 -87 -54 -127 l-21 -25 29 25 c29 25
58 80 70 133 5 21 4 27 -5 21 -9 -5 -10 -1 -7 14 4 14 2 20 -5 15 -7 -4 -8 0
-3 13 4 10 4 15 0 12 -3 -4 -16 7 -28 24 -42 61 -123 84 -193 53z"/>
<path d="M3445 2428 c-56 -33 -85 -106 -66 -168 14 -47 36 -59 100 -54 52 4
103 39 121 84 16 38 -2 94 -40 121 -33 24 -90 32 -115 17z m94 -22 c29 -15 51
-53 51 -87 0 -28 -62 -89 -91 -89 -60 0 -80 80 -31 128 26 25 26 25 2 10 -42
-26 -56 -60 -44 -108 9 -30 8 -40 0 -37 -22 7 -37 52 -33 101 7 82 73 119 146
82z"/>
<path d="M3470 2278 c0 -9 5 -20 11 -23 17 -11 18 -2 3 19 -12 17 -14 17 -14
4z"/>
<path d="M1781 2161 c-34 -53 -37 -84 -9 -89 21 -4 79 83 76 113 -5 38 -34 28
-67 -24z m49 6 c0 -23 -51 -90 -62 -79 -6 6 0 24 17 51 28 41 45 52 45 28z"/>
<path d="M2570 2346 c0 -2 8 -10 18 -17 15 -13 16 -12 3 4 -13 16 -21 21 -21
13z"/>
<path d="M3150 2150 c-7 -17 -10 -33 -8 -36 3 -3 11 9 17 27 14 42 7 49 -9 9z"/>
<path d="M4130 1493 c0 -10 9 -26 20 -36 19 -16 21 -16 27 -1 8 20 -8 48 -31
52 -10 2 -16 -3 -16 -15z"/>
<path d="M2892 1170 c0 -19 2 -27 5 -17 2 9 2 25 0 35 -3 9 -5 1 -5 -18z"/>
<path d="M2000 2229 c0 -5 5 -7 10 -4 6 3 10 8 10 11 0 2 -4 4 -10 4 -5 0 -10
-5 -10 -11z"/>
</g>
</svg>