<?xml version="1.0" standalone="no"?>
<!DOCTYPE svg PUBLIC "-//W3C//DTD SVG 20010904//EN"
 "http://www.w3.org/TR/2001/REC-SVG-20010904/DTD/svg10.dtd">
<svg version="1.0" xmlns="http://www.w3.org/2000/svg"
 width="512.000000pt" height="512.000000pt" viewBox="0 0 512.000000 512.000000"
 preserveAspectRatio="xMidYMid meet">
<metadata>
Created by potrace 1.16, written by Peter Selinger 2001-2019
</metadata>
<g transform="translate(0.000000,512.000000) scale(0.100000,-0.100000)"
fill="#000000" stroke="none">
<path d="M4215 5083 c-47 -12 -188 -87 -286 -152 -59 -39 -180 -132 -269 -207
-174 -145 -167 -142 -212 -89 -17 20 -18 20 -18 -5 -2 -43 -72 -152 -118 -183
l-41 -28 -83 25 c-175 53 -240 60 -563 59 -322 0 -401 -8 -574 -58 -100 -29
-98 -30 -148 69 -20 39 -39 73 -43 76 -4 3 -10 14 -12 25 -3 17 -7 15 -28 -17
-14 -21 -29 -38 -33 -38 -18 0 -129 78 -217 155 -129 112 -233 184 -348 244
-286 146 -457 127 -529 -61 -20 -52 -22 -306 -4 -463 29 -245 91 -495 147
-592 20 -35 22 -46 13 -70 -16 -42 -13 -135 5 -171 9 -18 30 -42 46 -54 23
-17 30 -30 30 -56 0 -40 37 -92 94 -134 48 -34 106 -37 154 -8 57 35 88 4 121
-122 20 -73 20 -81 5 -135 -23 -85 -20 -258 5 -356 25 -94 67 -186 116 -250
29 -37 39 -62 46 -112 5 -35 18 -88 29 -117 17 -47 19 -64 11 -133 -5 -47 -20
-107 -36 -144 -31 -73 -41 -148 -27 -207 7 -31 6 -45 -5 -60 -28 -36 -71 -129
-93 -199 -15 -50 -22 -99 -23 -170 -2 -82 -6 -106 -23 -135 -32 -51 -91 -206
-108 -281 -56 -238 -34 -491 48 -569 l23 -21 -18 88 c-24 112 -26 316 -4 429
22 117 90 309 105 299 4 -2 15 -43 25 -90 21 -97 35 -96 35 4 l0 64 34 -35
c40 -42 105 -74 161 -82 40 -6 40 -6 10 6 -97 41 -183 126 -210 209 -36 107
-1 321 66 410 l17 23 20 -40 c15 -30 21 -66 24 -154 4 -92 10 -128 31 -180 29
-74 32 -70 12 15 -15 61 -18 191 -6 234 6 23 11 18 72 -60 71 -91 237 -255
312 -309 37 -26 55 -50 87 -116 69 -142 198 -250 356 -296 l74 -22 -29 -31
c-35 -35 -61 -93 -61 -132 1 -42 33 -105 69 -136 66 -55 155 -56 221 -1 45 38
36 49 -12 14 -22 -16 -48 -30 -57 -30 -9 0 3 9 26 21 41 20 73 60 87 106 10
31 -10 97 -40 133 l-26 30 27 36 28 36 13 -32 c14 -31 15 -32 38 -16 14 8 63
38 111 66 47 28 101 65 121 82 l34 30 -10 -26 c-5 -14 -17 -41 -25 -59 l-16
-32 29 33 c16 18 47 65 68 104 50 91 100 142 249 253 158 118 235 185 283 248
84 111 72 107 -53 -19 -71 -73 -141 -137 -155 -144 -19 -9 -14 0 21 36 25 27
85 92 135 144 49 53 113 132 143 175 30 44 57 84 61 88 8 9 -5 -99 -21 -168
-26 -112 -97 -237 -205 -361 l-68 -77 45 24 c24 13 79 58 121 101 59 60 87 98
122 169 25 50 46 99 46 109 0 44 22 24 68 -62 98 -182 131 -308 142 -533 5
-103 14 -180 25 -215 18 -59 27 -315 13 -395 l-7 -40 15 45 c8 25 18 88 22
140 l8 95 13 -75 c8 -44 12 -111 9 -167 -5 -82 -10 -103 -41 -166 l-35 -72 33
38 c73 84 100 184 93 343 -4 93 -11 128 -46 234 -37 113 -41 138 -46 255 -9
226 -67 416 -181 596 -50 79 -55 92 -55 145 -1 33 -7 72 -13 88 -11 26 -10 41
12 110 21 68 25 104 27 226 2 139 4 148 33 210 51 109 75 220 67 320 -3 47
-10 101 -16 121 -5 20 -12 101 -14 180 -2 79 -9 168 -16 198 -20 89 10 227 56
258 21 13 31 14 63 4 21 -6 51 -11 67 -11 61 0 194 82 194 119 0 9 14 28 31
40 47 35 63 82 56 172 -6 74 -6 77 23 104 16 16 37 48 46 72 14 37 15 51 4
101 -11 56 -11 61 24 161 78 222 111 418 104 606 -4 95 -9 130 -27 169 -51
117 -123 167 -238 165 -37 -1 -77 -4 -88 -6z m187 -89 c24 -16 52 -49 65 -74
65 -128 51 -411 -34 -675 -35 -109 -163 -381 -209 -442 -29 -38 -80 -71 -125
-80 l-34 -6 48 51 c26 28 47 54 47 57 0 3 -28 -13 -61 -36 l-62 -42 32 47 c17
25 54 72 82 103 93 106 157 237 205 421 64 249 83 475 45 557 -10 23 -33 53
-52 69 -29 25 -39 28 -89 24 -109 -8 -307 -128 -470 -285 -103 -98 -150 -170
-150 -227 0 -28 3 -25 38 34 73 126 294 320 467 408 197 100 284 -17 229 -309
-46 -248 -114 -449 -195 -578 -48 -76 -190 -259 -203 -260 -19 -2 9 78 50 145
24 39 44 77 44 85 0 20 -86 -79 -110 -127 -24 -49 -27 -112 -4 -121 10 -4 14
-13 10 -29 -5 -17 -1 -26 13 -34 31 -16 36 -12 15 12 -19 21 -19 21 1 13 35
-15 115 -17 146 -5 16 7 43 28 59 47 l30 34 10 -26 c6 -15 7 -32 3 -38 -4 -6
-8 -20 -8 -29 -2 -24 -33 -56 -75 -79 -20 -10 -28 -18 -18 -19 22 0 78 -48 78
-66 0 -9 -12 -14 -36 -14 -31 0 -35 -2 -24 -15 10 -12 7 -17 -16 -26 -78 -29
-104 -22 -123 33 l-11 30 38 -6 37 -7 -37 23 c-43 25 -48 38 -15 38 21 1 21 1
4 15 -10 7 -41 19 -69 25 l-50 12 29 19 28 19 -32 0 c-21 0 -33 5 -33 14 0 7
-14 19 -30 26 -28 12 -29 14 -13 26 16 12 16 13 2 14 -9 0 -22 7 -30 16 -16
20 2 33 46 35 l30 1 -27 10 c-34 12 -35 19 -7 44 12 10 30 32 41 47 l21 29
-42 -21 c-27 -14 -47 -19 -57 -13 -12 7 -4 18 38 58 29 27 67 59 83 72 l30 22
-58 -20 c-32 -10 -74 -33 -95 -50 -36 -30 -62 -39 -62 -21 0 5 6 12 13 14 6 3
-4 6 -23 6 l-35 1 40 36 c22 20 32 33 23 30 -49 -16 -51 -16 -28 1 33 24 91
85 85 91 -2 3 -16 -3 -30 -12 -30 -20 -32 -12 -5 31 24 40 87 103 141 143 23
16 37 30 30 30 -17 0 -90 -39 -128 -68 -18 -13 -33 -20 -33 -16 1 20 58 91 99
121 44 34 40 40 -17 24 l-33 -10 30 37 c41 51 99 106 141 132 l35 21 -35 -6
c-19 -4 -50 -16 -69 -28 -32 -19 -33 -19 -23 -1 6 11 34 39 63 64 29 24 47 46
41 48 -21 7 -89 -46 -168 -131 -94 -101 -148 -185 -147 -230 2 -47 -16 -95
-40 -112 -31 -21 -40 -19 -33 10 5 21 3 25 -14 25 -20 0 -20 1 -5 30 16 31 16
31 -10 24 -20 -5 -24 -3 -20 9 4 8 16 19 28 25 20 9 18 11 -18 12 l-40 1 28
15 c34 18 35 28 2 20 -26 -7 -26 -6 -9 19 17 27 14 31 -15 16 -16 -9 -17 -6
-4 52 19 92 15 109 -13 47 -13 -30 -31 -68 -39 -85 l-15 -30 3 38 c2 20 2 37
0 37 -7 0 -33 -61 -33 -78 0 -11 16 -39 35 -63 44 -56 44 -66 -1 -38 l-37 22
17 -25 c9 -14 40 -45 68 -69 50 -42 53 -63 6 -38 -15 7 -9 -3 19 -33 l43 -44
-43 4 c-30 2 -38 0 -27 -7 9 -5 60 -58 115 -117 87 -94 96 -106 70 -100 l-30
7 40 -41 c36 -38 38 -42 15 -36 -24 7 -24 6 -6 -8 11 -9 15 -16 9 -16 -12 0
-70 74 -127 163 -42 63 -55 75 -30 25 33 -66 138 -254 155 -279 10 -14 36 -31
58 -39 23 -7 39 -15 37 -18 -3 -2 -40 7 -83 21 -151 50 -399 84 -523 73 -51
-4 -61 -3 -45 6 10 6 33 15 50 19 l30 7 -36 1 c-24 1 -49 -8 -74 -25 -21 -14
-47 -24 -59 -22 -19 3 -17 7 22 46 36 36 39 42 21 42 -22 0 -74 -49 -84 -79
-4 -12 -27 -23 -78 -35 -39 -9 -102 -30 -139 -45 l-67 -29 -7 32 c-21 94 3
171 78 243 83 81 205 110 327 79 72 -18 106 -37 201 -109 l65 -49 -61 59
c-145 141 -296 176 -451 103 -69 -32 -140 -99 -168 -157 -23 -47 -31 -136 -17
-187 11 -37 10 -38 -11 -32 -47 14 -244 18 -315 7 -65 -10 -78 -9 -130 9 -31
12 -91 32 -132 46 -54 18 -82 34 -99 56 -35 44 -94 68 -166 67 l-60 -1 50 -12
c56 -14 108 -38 144 -65 23 -17 22 -17 -50 -8 -137 17 -414 -13 -597 -64 -41
-11 -76 -19 -78 -16 -2 2 22 11 55 20 56 16 60 19 91 74 18 32 47 76 65 98 39
49 119 184 113 190 -3 3 -36 -38 -73 -90 -38 -52 -72 -95 -77 -95 -4 0 -5 14
-1 32 5 27 4 30 -11 25 -12 -5 -15 -3 -9 6 4 6 8 14 8 17 1 11 85 117 116 147
19 17 50 40 69 52 31 18 32 21 12 21 -12 0 -39 -7 -59 -15 -20 -8 -38 -14 -40
-11 -8 7 116 114 158 135 l44 22 -40 -5 c-22 -3 -59 -19 -83 -36 -34 -24 -41
-26 -32 -10 6 10 27 31 48 47 58 42 59 44 22 37 l-35 -7 42 45 c46 47 52 72
28 118 -20 39 -28 38 -21 -2 6 -31 5 -30 -18 12 l-25 45 5 -60 4 -60 -13 40
c-27 79 -36 85 -30 19 7 -77 -8 -90 -38 -32 -37 74 -125 201 -183 266 -187
210 -420 334 -553 296 -23 -6 -16 -9 42 -15 182 -18 424 -198 585 -434 58 -86
90 -148 90 -175 0 -11 6 -29 12 -40 11 -16 9 -22 -6 -33 -17 -12 -17 -14 -3
-20 15 -6 15 -10 -4 -42 -25 -42 -36 -41 -67 5 -29 44 -28 56 4 35 14 -9 28
-14 31 -12 2 3 -18 36 -45 74 -27 37 -62 92 -78 122 -51 95 -131 171 -180 171
-11 0 0 -18 35 -56 54 -59 71 -97 23 -50 -34 32 -99 53 -115 37 -8 -8 -5 -11
11 -11 29 0 106 -71 123 -113 7 -17 24 -47 37 -64 29 -39 27 -40 -29 -9 -40
22 -109 43 -109 33 0 -2 22 -18 49 -36 48 -30 95 -81 119 -127 12 -22 11 -22
-35 -8 -65 20 -77 12 -23 -16 69 -35 107 -68 119 -102 21 -60 12 -63 -35 -13
l-45 50 27 -50 c15 -27 33 -61 41 -73 23 -38 10 -35 -52 13 -82 64 -82 62 -8
-40 24 -32 43 -63 43 -67 0 -14 -30 -8 -36 7 -4 8 -10 15 -16 15 -13 0 0 -39
24 -74 l21 -29 -39 7 c-22 4 -54 17 -73 28 l-33 21 12 -23 c7 -13 30 -42 52
-66 35 -38 38 -44 20 -44 -12 0 -24 4 -27 10 -3 5 -11 10 -16 10 -6 0 -2 -13
7 -30 22 -36 17 -42 -27 -30 l-34 9 28 -22 27 -21 -62 -24 c-35 -13 -82 -29
-106 -35 l-42 -10 21 -23 c31 -33 19 -54 -31 -54 -51 0 -44 -16 10 -25 50 -8
56 -19 30 -45 -36 -36 -79 -27 -133 28 -41 42 -46 51 -41 82 4 31 1 37 -28 55
-42 26 -58 58 -58 120 0 70 8 79 56 66 66 -18 68 -13 9 36 -64 51 -92 103
-139 253 -34 106 -66 292 -65 373 l0 62 19 -87 c27 -127 55 -206 120 -332 101
-197 162 -298 211 -349 l47 -49 -31 4 c-18 3 -41 9 -52 13 -18 7 -19 6 -5 -9
37 -38 129 -35 194 7 36 24 36 83 0 126 -27 32 -131 97 -141 88 -3 -4 22 -32
55 -64 99 -94 107 -155 15 -117 -59 24 -94 68 -224 279 -163 263 -202 395
-203 685 -1 169 0 177 24 219 33 59 68 83 129 89 136 13 412 -130 636 -329 44
-39 105 -88 135 -109 31 -21 62 -45 69 -54 18 -22 40 -20 67 5 l23 21 20 -40
c27 -53 69 -102 97 -112 16 -7 41 -3 81 11 147 50 242 62 538 65 157 2 314 -1
359 -7 128 -17 265 -56 366 -105 90 -43 94 -44 69 -17 -15 15 -32 38 -38 50
-9 19 -7 24 24 42 19 11 48 41 64 65 l28 45 11 -24 c15 -32 23 -31 47 8 27 42
308 277 437 365 238 161 362 195 460 126z m-706 -872 c-18 -16 -18 -16 -6 6 6
13 14 21 18 18 3 -4 -2 -14 -12 -24z m-2133 -32 c-6 -6 -33 30 -33 43 0 5 9
-1 19 -14 11 -13 17 -26 14 -29z m2827 -140 c0 -46 -4 -55 -45 -99 l-45 -48
11 -56 c6 -31 8 -72 5 -91 -9 -48 -51 -96 -83 -96 -25 0 -24 1 17 46 l43 47
-6 86 c-6 101 4 137 57 210 21 28 40 51 42 51 2 0 4 -23 4 -50z m-2965 -130
c10 -11 16 -20 13 -20 -3 0 -13 9 -23 20 -10 11 -16 20 -13 20 3 0 13 -9 23
-20z m2155 -217 c114 -23 127 -32 141 -103 6 -33 17 -68 24 -77 10 -14 10 -3
-1 46 -17 71 -14 85 11 47 34 -51 44 -100 45 -211 0 -177 -38 -283 -127 -351
-52 -40 -139 -73 -205 -79 -27 -2 -68 -7 -91 -10 l-42 -6 -44 80 c-24 44 -55
90 -69 103 -14 13 -23 19 -20 13 3 -5 14 -28 24 -50 10 -22 31 -62 47 -89 l28
-49 -47 7 c-26 3 -53 11 -61 18 -8 6 -32 49 -54 96 -22 46 -42 82 -45 80 -5
-6 44 -129 57 -142 24 -25 4 -25 -43 1 -150 82 -269 284 -271 459 -1 83 30
132 107 168 146 69 426 91 636 49z m-1455 -26 c117 -33 176 -78 195 -147 21
-78 -15 -215 -89 -339 -81 -137 -172 -210 -280 -227 l-45 -7 23 39 c35 59 115
210 109 204 -18 -15 -112 -152 -135 -197 -36 -68 -60 -70 -102 -10 -16 23 -44
56 -61 72 -28 26 -26 21 14 -34 25 -35 46 -68 46 -74 0 -16 -131 0 -194 23
-30 12 -73 38 -97 59 -42 37 -42 38 -41 102 l1 64 -13 -38 -12 -39 -12 26
c-25 56 -45 189 -40 277 6 101 27 153 75 185 38 25 159 60 258 73 94 13 338 6
400 -12z m1819 12 c15 -7 26 -23 30 -41 9 -45 7 -101 -4 -118 -7 -10 -10 9
-10 63 l0 78 -32 14 c-18 8 -28 14 -21 15 7 0 23 -5 37 -11z m-2664 -29 l-55
-17 -5 -79 -5 -79 -6 65 c-3 36 -4 73 -1 82 4 16 76 46 112 46 8 0 -10 -8 -40
-18z m1407 -131 c47 -15 57 -31 42 -73 -11 -30 -9 -42 13 -103 14 -37 28 -76
32 -85 6 -14 1 -17 -31 -20 l-38 -3 42 -14 c23 -8 55 -28 72 -45 l31 -31 -43
3 -42 3 53 -19 c87 -31 279 -180 332 -258 38 -55 52 -64 39 -24 -6 16 -15 33
-20 36 -17 10 -9 22 11 17 40 -10 95 -150 108 -268 l8 -74 -25 6 c-34 8 -31 2
-37 73 -4 63 -20 110 -48 145 -12 16 -11 8 4 -37 26 -75 25 -84 -6 -59 -15 12
-41 21 -58 21 -31 0 -31 0 19 -34 41 -27 75 -68 75 -91 0 -2 -15 1 -32 6 -18
5 -49 8 -68 8 -26 -1 -20 -4 25 -11 66 -10 70 -12 80 -46 7 -23 7 -23 -25 -7
-39 20 -50 14 -16 -9 30 -19 46 -70 46 -145 l0 -54 -57 55 c-32 30 -69 60 -83
67 -14 8 8 -18 48 -57 72 -69 81 -87 62 -122 -8 -15 -2 -26 32 -59 l41 -42
-24 -25 c-37 -39 -73 -54 -133 -54 -50 0 -61 4 -133 55 -43 30 -117 78 -164
106 -47 29 -86 57 -87 63 0 6 -8 31 -17 55 -26 71 -18 92 39 108 86 25 170 95
212 174 18 36 30 134 20 172 -10 39 -54 85 -110 115 -49 25 -59 27 -221 30
-186 4 -223 -2 -291 -49 -74 -51 -91 -123 -52 -226 34 -93 145 -187 252 -214
44 -11 47 -14 42 -38 -3 -14 -21 -56 -38 -93 -26 -51 -43 -72 -78 -94 -25 -16
-81 -54 -125 -85 -82 -59 -133 -79 -197 -79 -47 0 -53 11 -27 44 12 15 19 29
17 32 -3 2 -16 -11 -29 -31 -13 -19 -27 -35 -30 -35 -3 0 -22 15 -41 34 -46
45 -91 123 -85 147 3 10 1 17 -4 13 -5 -3 -9 1 -9 8 0 8 18 32 40 53 l40 39 0
-39 c1 -58 25 -152 34 -136 6 10 13 8 30 -7 21 -19 59 -42 70 -42 3 0 6 5 6
10 0 6 -7 10 -15 10 -8 0 -29 13 -46 28 -31 28 -31 28 -15 60 9 18 42 62 72
98 31 36 47 61 37 56 -27 -15 -101 -97 -115 -127 -19 -41 -28 -29 -28 38 0 58
3 66 33 94 17 18 52 43 77 57 25 14 38 26 29 26 -17 0 -103 -52 -113 -69 -15
-24 -26 -9 -26 35 l0 45 63 30 c35 16 49 26 32 23 -16 -4 -42 -13 -57 -21 -34
-16 -38 -2 -11 37 26 38 45 49 83 50 26 0 31 3 20 10 -25 16 -63 11 -88 -12
l-24 -23 22 44 c12 25 16 41 9 39 -6 -2 -25 -40 -41 -85 -26 -71 -33 -83 -60
-92 -17 -6 -33 -11 -36 -11 -8 0 7 123 23 186 48 189 182 338 353 395 52 18
35 20 -31 3 -24 -6 -26 -4 -20 12 7 18 6 18 -21 0 l-29 -18 27 35 c36 47 108
93 171 108 69 18 78 29 22 29 -26 0 -47 2 -47 5 0 2 9 22 20 42 21 41 40 125
40 179 0 31 3 33 38 37 46 5 117 -1 159 -14z m-212 -16 c-3 -10 -13 -49 -21
-87 -18 -87 -46 -151 -73 -165 -20 -11 -20 -11 -4 26 22 53 43 133 43 167 0
17 10 40 22 53 25 27 43 30 33 6z m-1135 -326 c0 -7 12 -39 27 -72 22 -50 27
-81 33 -190 5 -101 13 -147 34 -208 14 -42 26 -92 26 -110 l-1 -32 -21 25
c-66 79 -128 274 -129 410 -1 103 10 202 22 194 5 -3 9 -11 9 -17z m2516 -197
c-7 -112 -26 -192 -68 -277 -38 -78 -80 -127 -174 -203 -83 -67 -107 -76 -44
-16 43 40 53 76 21 76 -21 0 -78 -54 -87 -82 -7 -22 -14 -22 -39 -4 -19 14
-18 17 23 98 44 87 51 127 27 168 l-14 25 -1 -30 c0 -17 -9 -49 -21 -70 -11
-22 -31 -68 -42 -102 l-22 -62 -40 22 -40 23 -7 81 c-8 86 -31 157 -73 223
l-25 40 49 0 c57 0 61 -6 61 -109 0 -70 10 -72 30 -6 27 86 47 114 87 120 120
19 209 53 270 104 20 17 38 29 40 28 1 -2 -6 -45 -17 -96 -24 -119 -66 -208
-131 -276 -29 -30 -47 -55 -42 -55 20 0 99 79 130 132 39 65 75 195 72 263 -2
40 4 61 29 105 18 30 32 62 33 70 1 8 6 -10 11 -40 5 -30 7 -98 4 -150z
m-2343 -82 c10 -74 83 -206 154 -277 76 -76 98 -74 25 2 -65 69 -117 151 -148
233 -13 35 -24 67 -24 69 0 3 21 -4 48 -14 50 -20 167 -41 227 -41 29 0 39 -6
54 -31 10 -17 22 -49 26 -72 l8 -42 15 77 15 77 51 9 c28 4 52 8 54 7 1 -1 -7
-22 -17 -46 -19 -42 -53 -198 -66 -300 -5 -39 -10 -48 -39 -62 l-34 -16 -11
88 c-6 48 -11 107 -12 132 -1 83 -18 9 -19 -86 -1 -88 -1 -89 -16 -60 -9 17
-27 47 -41 67 -23 34 -25 45 -21 110 l5 73 -19 -40 c-23 -50 -19 -117 11 -154
12 -14 35 -54 52 -89 26 -53 29 -65 18 -78 -12 -14 -15 -14 -34 9 -21 27 -98
87 -135 107 -19 10 -21 10 -12 -7 6 -10 24 -35 41 -57 17 -21 31 -41 31 -43 0
-13 -79 62 -117 112 -79 104 -116 202 -129 349 l-7 80 30 -22 c23 -16 32 -32
36 -64z m1258 -8 c29 -6 64 -18 78 -27 24 -15 24 -17 6 -24 -11 -4 -95 -8
-187 -8 -92 -1 -178 -5 -192 -11 -24 -9 -25 -7 -23 20 2 30 14 38 82 53 39 9
183 7 236 -3z m619 -4 c0 -2 -7 -9 -15 -16 -12 -10 -15 -10 -15 4 0 9 7 16 15
16 8 0 15 -2 15 -4z m529 -197 c1 -104 -19 -187 -65 -267 -25 -43 -117 -136
-186 -189 -104 -80 -198 -154 -198 -157 0 -7 171 63 189 76 9 7 43 35 75 62
l59 50 -6 -104 c-7 -137 -43 -260 -105 -363 -40 -68 -266 -330 -304 -353 -31
-19 65 118 153 220 75 86 113 157 135 254 13 55 37 119 62 167 10 20 -16 -10
-62 -69 -25 -33 -46 -64 -46 -70 0 -6 9 0 20 14 25 32 25 18 1 -51 -30 -88
-66 -152 -116 -205 -38 -41 -45 -45 -40 -24 5 23 3 21 -28 -13 -41 -45 -86
-127 -121 -221 -14 -37 -39 -87 -56 -109 -32 -44 -38 -39 -16 14 7 19 16 48
20 64 6 26 3 25 -20 -15 l-28 -44 -14 44 -15 45 -13 -60 c-6 -33 -19 -77 -27
-97 -26 -62 -97 -158 -165 -225 -59 -58 -229 -179 -238 -171 -10 10 37 56 132
129 118 91 167 149 189 222 22 74 18 88 -11 37 -14 -25 -44 -65 -67 -89 -41
-42 -177 -144 -184 -138 -2 2 4 23 12 47 20 58 19 59 -14 13 -16 -22 -63 -68
-104 -102 -42 -34 -89 -77 -105 -97 -33 -40 -33 -41 -48 61 -7 45 -8 47 -14
20 l-5 -30 -24 38 c-15 24 -26 34 -31 27 -4 -6 -21 23 -39 67 -32 77 -32 78
-26 29 4 -27 9 -56 12 -65 11 -35 -38 37 -57 84 l-21 50 5 -57 c6 -79 35 -136
106 -213 34 -37 59 -69 57 -72 -3 -3 -32 20 -64 51 -31 31 -78 67 -103 79 -25
12 -70 47 -101 77 -65 65 -111 163 -133 287 l-14 78 -2 -75 -1 -75 -37 95 -36
95 -8 -44 c-4 -24 -9 -46 -11 -48 -3 -2 -13 23 -23 57 -20 62 -34 77 -35 38 0
-22 -1 -22 -11 2 -6 14 -19 57 -29 95 l-18 70 0 -67 c-1 -37 3 -78 9 -92 5
-14 8 -26 6 -26 -5 0 -111 160 -129 195 -22 44 -97 141 -97 126 0 -6 7 -25 15
-41 9 -17 20 -42 25 -57 l10 -28 -22 27 c-13 15 -33 45 -45 66 l-21 38 36 58
35 59 18 -36 c23 -44 80 -93 161 -136 l63 -34 -25 29 c-14 16 -60 66 -102 110
-43 45 -78 89 -78 98 0 16 2 16 22 2 35 -25 38 -19 7 15 -55 59 -135 191 -131
219 0 3 -4 11 -10 18 -13 15 -6 15 27 0 24 -11 25 -13 8 -19 -12 -5 -8 -7 14
-6 l32 2 -69 66 c-45 43 -78 85 -95 120 -27 59 -48 147 -43 180 2 17 9 12 42
-31 21 -28 67 -72 102 -98 89 -65 86 -78 -8 -42 -29 11 -57 20 -63 20 -20 0
32 -28 83 -44 l52 -18 0 -62 c0 -96 53 -230 110 -281 l23 -20 -24 41 c-23 42
-23 42 -5 83 11 22 21 41 24 41 2 0 26 -19 54 -41 42 -36 98 -119 98 -147 0
-5 -16 -31 -37 -58 l-36 -49 41 39 c23 22 43 38 45 35 2 -2 12 -26 23 -54 21
-55 61 -112 144 -201 61 -66 90 -117 90 -159 0 -14 -7 -58 -16 -96 -9 -39 -14
-72 -12 -74 2 -3 28 42 57 99 50 96 53 107 49 158 -4 47 -42 137 -54 126 -2
-2 6 -30 18 -62 19 -52 20 -64 10 -114 -18 -84 -27 -80 -27 11 0 107 -22 151
-103 206 -67 45 -113 94 -143 153 -19 38 -20 42 -4 57 13 12 19 13 22 3 3 -7
19 -34 36 -59 44 -66 86 -88 161 -85 54 1 65 -2 98 -29 50 -40 130 -76 198
-89 84 -17 81 -14 58 -62 -25 -49 -35 -150 -19 -188 8 -22 10 -19 10 26 1 28
10 77 21 109 11 32 20 66 20 77 0 13 8 18 28 18 41 1 99 31 176 94 38 31 71
54 74 52 2 -3 -6 -19 -18 -36 -31 -44 -19 -48 18 -6 29 33 32 35 85 29 95 -10
163 31 192 113 14 40 18 44 75 65 19 8 52 29 72 47 l37 33 36 -68 c40 -77 37
-47 -4 37 l-27 56 23 49 c12 28 23 43 24 35 1 -10 3 -8 8 5 3 11 21 48 39 82
24 47 42 68 70 82 51 26 114 89 148 148 15 26 44 71 65 98 52 69 85 138 106
219 l18 68 7 -38 c4 -22 7 -82 7 -135z m-1077 26 c3 -13 1 -22 -3 -19 -9 5
-13 44 -5 44 2 0 6 -11 8 -25z m-390 -7 c-7 -7 -12 -8 -12 -2 0 14 12 26 19
19 2 -3 -1 -11 -7 -17z m99 -66 c-7 -13 -26 -22 -57 -27 -46 -6 -46 -7 -27
-28 l18 -21 -34 20 c-46 26 -51 44 -12 44 46 0 98 25 107 52 8 23 8 23 12 1 2
-12 -1 -31 -7 -41z m-138 41 c-7 -2 -19 -2 -25 0 -7 3 -2 5 12 5 14 0 19 -2
13 -5z m426 -48 c28 0 51 -3 51 -6 0 -9 -33 -35 -54 -43 -16 -5 -17 -4 -6 9
11 13 8 15 -17 15 -41 0 -73 26 -73 58 l0 27 24 -30 c21 -26 30 -30 75 -30z
m439 -81 c23 -7 23 -10 20 -99 -3 -89 -3 -91 -25 -87 -18 3 -23 11 -23 37 0
18 -3 60 -6 94 -7 63 -6 65 34 55z m-1235 -89 c-6 -55 -10 -63 -50 -99 l-43
-39 0 55 c0 98 7 115 54 131 22 8 42 14 43 13 1 -1 -1 -28 -4 -61z m1367 9 c0
-31 -33 -144 -45 -154 -9 -7 -18 -5 -34 7 -18 16 -19 23 -11 58 5 22 10 64 10
93 l0 52 40 -20 c22 -11 40 -27 40 -36z m281 2 c-17 -24 -51 -62 -77 -85 -48
-42 -76 -54 -54 -23 13 17 152 151 158 152 2 0 -11 -20 -27 -44z m-1771 -60
c0 -35 3 -79 7 -97 12 -61 -24 -15 -47 60 l-21 66 22 18 c12 9 25 17 30 17 5
0 9 -29 9 -64z m1560 23 c0 -6 -5 -20 -12 -32 -7 -14 -11 -59 -9 -117 l2 -95
-31 49 -31 48 23 88 c20 79 24 87 40 79 10 -5 18 -14 18 -20z m-1731 -20 c13
-11 21 -22 19 -25 -3 -3 -19 6 -34 20 -34 30 -20 35 15 5z m63 -15 c-10 -19 4
-80 24 -104 7 -9 20 -33 29 -53 14 -33 14 -40 0 -66 -8 -17 -19 -32 -24 -35
-10 -7 -33 18 -54 59 -12 21 -16 25 -17 12 0 -23 16 -55 43 -85 19 -21 20 -24
5 -54 l-15 -33 -15 30 c-48 94 -41 262 15 333 14 17 20 15 9 -4z m1708 -3 c0
-12 -41 -63 -47 -57 -5 5 35 66 43 66 2 0 4 -4 4 -9z m-250 -51 c0 -5 5 -10
10 -10 16 0 70 -42 70 -54 0 -6 -8 -24 -19 -39 l-18 -28 -36 49 c-24 34 -34
57 -30 71 5 21 23 30 23 11z m16 -123 c14 -26 12 -47 -4 -47 -4 0 -22 18 -40
40 -28 34 -31 43 -21 61 l11 22 20 -24 c10 -13 25 -37 34 -52z m104 -38 c-23
-73 -27 -79 -36 -45 -9 35 25 129 42 115 9 -7 8 -23 -6 -70z m-1768 -40 c10
-41 35 -111 55 -157 39 -91 38 -95 -11 -157 -14 -17 -23 -23 -24 -14 0 8 -14
68 -32 134 -18 68 -34 159 -37 210 -5 85 -4 89 12 74 9 -9 26 -50 37 -90z
m1799 23 c-9 -25 -9 -24 -10 18 0 36 2 41 10 27 7 -12 7 -27 0 -45z m-1476 8
c18 -35 4 -41 -19 -8 -18 26 -20 38 -6 38 5 0 16 -13 25 -30z m-25 -26 c11
-21 20 -47 18 -60 -3 -22 -3 -22 -36 7 -32 28 -33 32 -22 60 7 16 14 29 15 29
2 0 13 -16 25 -36z m879 15 c72 -14 75 -15 92 -54 25 -55 24 -138 -1 -191 -13
-26 -42 -58 -75 -83 -63 -48 -72 -63 -17 -30 97 58 136 121 137 221 0 38 2 68
3 68 2 0 29 -15 60 -34 32 -19 72 -38 91 -41 19 -4 51 -20 72 -35 l38 -27 -25
-40 c-31 -53 -88 -78 -144 -63 -21 6 -43 17 -50 25 -16 19 -31 19 -24 1 4 -10
-9 -21 -38 -35 -24 -12 -68 -39 -97 -61 -57 -42 -77 -46 -74 -15 1 13 -5 11
-28 -11 -16 -15 -29 -24 -29 -18 0 11 -77 60 -150 95 -66 31 -126 96 -141 152
-9 33 -7 48 7 86 10 25 17 53 16 61 -1 9 5 17 15 17 10 1 47 9 83 16 78 17
178 16 279 -4z m545 -35 c12 -31 5 -43 -39 -64 -25 -12 -52 -34 -60 -48 -10
-18 -14 -22 -15 -10 0 9 -3 24 -7 34 -4 11 -3 15 5 10 13 -8 79 48 87 75 8 23
21 25 29 3z m-1354 -50 c0 -7 15 -34 34 -62 24 -36 31 -54 24 -66 -5 -9 -13
-16 -17 -16 -11 0 -67 126 -75 170 l-7 35 20 -25 c11 -14 21 -30 21 -36z m382
-38 c-4 -45 0 -63 20 -99 l25 -44 -36 -14 c-20 -8 -39 -15 -43 -17 -5 -2 -8 3
-8 12 0 22 -13 20 -35 -4 -29 -32 -87 -27 -130 11 -20 18 -41 41 -47 52 -9 17
-8 19 8 13 15 -6 14 -2 -5 18 -24 26 -24 26 -3 26 11 0 24 5 27 10 3 6 19 10
34 10 35 0 84 20 131 54 56 40 67 35 62 -28z m-842 -10 c0 -33 47 -190 70
-236 19 -37 19 -39 1 -61 l-18 -23 -26 45 c-25 42 -47 93 -47 107 0 4 12 -11
26 -33 54 -81 52 -66 -11 68 -23 50 -26 66 -20 113 6 52 25 67 25 20z m189
-23 c17 -31 30 -62 28 -68 -4 -10 -38 51 -57 100 -16 42 -3 28 29 -32z m777
-198 c30 -25 58 -45 62 -46 25 -2 43 -9 66 -24 15 -10 25 -19 23 -21 -6 -7
-121 26 -162 46 -23 11 -56 36 -75 55 l-34 35 32 0 c23 0 48 -12 88 -45z
m-735 -261 c38 -45 74 -84 79 -86 15 -5 150 -158 150 -169 0 -28 -236 191
-319 296 -68 85 -76 102 -61 131 13 23 14 22 47 -33 18 -31 65 -93 104 -139z
m476 104 c28 -31 43 -62 43 -89 0 -17 -8 -9 -33 32 -18 30 -36 60 -40 67 -13
21 8 13 30 -10z m-128 -486 c45 -71 155 -172 241 -222 90 -53 85 -49 77 -56
-12 -13 -108 29 -176 77 -39 27 -91 75 -115 106 -43 54 -87 160 -85 206 0 14
5 6 14 -20 7 -24 27 -65 44 -91z m448 -299 c10 -15 12 -23 4 -23 -13 0 -56 89
-66 135 -3 17 5 4 20 -29 15 -33 34 -70 42 -83z m166 75 c-65 -83 -103 -126
-103 -116 0 13 97 128 107 128 3 0 1 -6 -4 -12z m-195 -152 c-54 -15 -74 -29
-94 -67 -31 -62 -11 -144 48 -192 l23 -18 -22 11 c-41 19 -73 79 -73 135 0 86
55 145 135 144 25 0 22 -3 -17 -13z m132 -49 c36 -59 18 -130 -43 -167 -44
-28 -89 -25 -126 6 -68 57 -56 156 23 182 44 14 63 10 100 -19 21 -16 26 -29
26 -63 0 -23 -7 -51 -15 -62 -21 -28 -18 -40 5 -19 33 29 43 78 26 119 -8 19
-24 41 -35 48 -27 17 -27 32 0 18 11 -6 29 -26 39 -43z m-87 -244 c-7 -2 -19
-2 -25 0 -7 3 -2 5 12 5 14 0 19 -2 13 -5z"/>
<path d="M878 4723 c-33 -94 -3 -319 63 -479 50 -119 167 -286 221 -315 21
-11 8 12 -82 146 -61 91 -91 150 -127 255 -42 118 -57 208 -58 327 0 57 -1
103 -2 103 -1 0 -7 -17 -15 -37z"/>
<path d="M1036 4729 c3 -5 12 -9 20 -9 29 0 160 -67 213 -110 48 -38 52 -40
34 -14 -32 44 -63 70 -118 97 -51 26 -159 51 -149 36z"/>
<path d="M3952 4659 c-100 -50 -205 -179 -242 -298 -11 -35 -18 -66 -16 -69 3
-2 27 43 54 99 60 124 144 223 224 263 29 14 45 26 37 26 -7 0 -33 -10 -57
-21z"/>
<path d="M2661 4340 c1 -52 4 -120 8 -150 l7 -55 8 59 c9 63 0 200 -14 225 -6
11 -9 -17 -9 -79z"/>
<path d="M2607 4265 c3 -44 9 -213 13 -375 l7 -295 -3 335 c-2 184 -8 353 -13
375 -9 33 -9 25 -4 -40z"/>
<path d="M1951 3955 c-74 -23 -146 -82 -228 -184 -56 -70 -68 -88 -41 -66 20
17 55 51 77 77 54 61 129 115 193 140 71 27 182 26 245 -2 107 -47 183 -164
186 -285 2 -53 5 -65 18 -65 17 0 29 19 29 48 0 9 -14 54 -32 100 -59 156
-175 245 -328 249 -44 2 -93 -3 -119 -12z"/>
<path d="M3124 3834 c-23 -5 -71 -50 -63 -59 3 -2 23 4 45 16 39 20 42 20 164
3 l35 -5 -37 21 c-39 21 -106 32 -144 24z"/>
<path d="M1945 3805 c-30 -13 -29 -13 17 -8 64 8 112 -3 148 -33 16 -14 30
-23 30 -19 0 13 -24 50 -39 62 -22 17 -119 15 -156 -2z"/>
<path d="M3452 3735 c15 -16 30 -26 33 -23 4 3 -9 16 -27 28 l-33 23 27 -28z"/>
<path d="M956 3715 c-12 -32 -6 -60 24 -105 16 -25 30 -51 30 -58 0 -7 5 -10
11 -6 18 11 4 73 -29 132 -22 40 -31 49 -36 37z"/>
<path d="M4214 3680 c-5 -5 -27 -16 -49 -24 -39 -14 -39 -15 -10 -15 29 -1 85
32 74 43 -3 3 -10 1 -15 -4z"/>
<path d="M3143 3594 c-20 -9 -50 -66 -57 -109 -5 -31 -4 -36 4 -25 10 13 11
13 6 0 -2 -8 -10 -32 -17 -53 -7 -22 -27 -50 -46 -64 -30 -23 -48 -53 -21 -37
11 7 9 -10 -7 -48 -5 -13 -2 -18 9 -18 10 0 16 -9 16 -25 0 -22 3 -24 18 -16
23 12 82 0 153 -34 60 -28 123 -32 172 -12 43 19 101 85 127 146 21 47 24 50
64 53 l41 3 -48 24 c-34 16 -59 40 -87 80 -78 112 -107 131 -202 131 -64 0
-106 -23 -137 -74 -13 -20 -25 -36 -27 -36 -11 0 -1 22 30 69 34 49 35 55 9
45z m196 -72 c19 -10 42 -29 50 -42 l15 -23 -34 18 c-48 25 -119 24 -165 -4
-21 -12 -40 -20 -43 -17 -10 11 31 58 61 71 44 19 76 18 116 -3z m-53 -117 c7
-29 7 -30 -22 -39 -11 -3 -29 0 -39 8 -19 14 -19 15 -1 35 26 29 54 27 62 -4z
m115 -66 c-14 -36 -60 -75 -116 -98 l-50 -20 48 0 c26 -1 62 5 80 13 33 13 97
78 97 98 0 6 3 9 6 5 14 -14 -48 -98 -86 -117 -52 -27 -95 -25 -195 6 -90 28
-98 37 -86 95 9 43 25 47 41 9 17 -42 65 -80 101 -80 55 0 159 73 159 112 0 6
2 9 5 6 3 -3 1 -16 -4 -29z"/>
<path d="M3436 3531 c5 -4 29 -23 54 -41 l45 -34 -34 36 c-18 20 -42 39 -54
42 -11 2 -16 1 -11 -3z"/>
<path d="M2881 3419 c-1 -39 14 -91 37 -127 22 -35 23 -22 2 38 -10 30 -23 71
-28 90 l-10 35 -1 -36z"/>
<path d="M3541 3249 c-2 -32 -81 -138 -131 -178 -30 -24 -45 -41 -35 -41 24 0
67 25 97 57 33 35 81 137 75 161 -4 14 -5 14 -6 1z"/>
<path d="M3160 3167 c0 -10 139 -96 165 -101 21 -5 9 6 -40 34 -83 50 -125 72
-125 67z"/>
<path d="M3616 3122 c-12 -37 -88 -147 -134 -194 -25 -27 -42 -48 -37 -48 25
0 75 43 108 92 36 55 82 157 73 165 -2 3 -7 -4 -10 -15z"/>
<path d="M1970 3575 c11 -13 6 -15 -34 -15 -57 0 -147 -43 -191 -91 l-30 -32
30 21 c17 12 43 32 60 44 25 19 22 13 -19 -40 -26 -35 -63 -73 -82 -85 -40
-26 -42 -32 -10 -49 14 -7 39 -42 58 -77 26 -51 42 -69 78 -89 37 -20 40 -23
15 -17 -53 12 -89 40 -115 87 -34 63 -41 68 -29 22 37 -139 169 -191 290 -115
107 68 166 88 184 64 7 -10 9 0 7 32 -3 38 0 51 19 72 17 17 19 24 9 23 -8 -1
-20 -2 -26 -1 -13 1 -37 56 -58 131 -9 34 -26 66 -42 80 l-27 25 23 -40 23
-40 -39 36 c-44 41 -84 69 -97 69 -5 0 -4 -7 3 -15z m73 -82 c24 -12 62 -71
53 -81 -2 -1 -29 11 -61 28 -63 33 -99 36 -160 15 -50 -18 -57 -11 -20 20 55
45 122 52 188 18z m-29 -100 c4 -9 1 -20 -6 -25 -21 -13 -43 -4 -46 20 -3 18
1 22 21 22 14 0 28 -7 31 -17z m-89 -24 c0 -15 -7 -25 -18 -27 -22 -4 -33 24
-17 43 18 21 35 13 35 -16z m-93 -114 c32 -29 46 -35 83 -35 64 0 120 31 155
87 17 27 31 40 33 32 2 -8 9 -29 15 -48 7 -19 9 -37 6 -40 -2 -3 -7 5 -11 17
-5 21 -6 20 -27 -10 -40 -59 -160 -86 -232 -52 -39 19 -85 87 -83 125 1 21 2
20 12 -9 5 -18 27 -48 49 -67z"/>
<path d="M1466 3478 c-17 -26 -31 -78 -22 -78 9 0 48 91 42 97 -2 3 -11 -6
-20 -19z"/>
<path d="M1641 3145 c41 -120 132 -193 217 -174 51 11 57 25 9 21 -73 -6 -153
53 -224 164 -10 16 -11 14 -2 -11z"/>
<path d="M1580 3007 c0 -29 47 -110 71 -122 43 -23 58 -17 21 7 -18 11 -46 44
-62 72 -17 28 -30 47 -30 43z"/>
<path d="M2624 3225 c0 -77 2 -107 3 -67 2 40 2 103 0 140 -2 37 -3 4 -3 -73z"/>
<path d="M2632 3020 l-2 -65 -98 -1 c-121 -1 -190 -25 -259 -91 -43 -40 -44
-43 -13 -23 116 72 208 91 319 67 58 -12 68 -11 120 6 93 32 173 17 286 -53
l37 -23 -12 22 c-17 33 -95 78 -155 92 -29 6 -89 10 -133 7 l-81 -5 -4 66 -3
66 -2 -65z"/>
<path d="M3035 2060 c10 -11 20 -20 23 -20 3 0 -3 9 -13 20 -10 11 -20 20 -23
20 -3 0 3 -9 13 -20z"/>
<path d="M3837 2530 c-28 -57 -31 -68 -15 -54 20 19 21 19 13 -6 -23 -78 -71
-159 -149 -254 -33 -40 -36 -47 -16 -36 90 48 191 209 210 334 15 97 0 103
-43 16z"/>
<path d="M3316 1811 c-10 -21 -52 -77 -92 -125 -66 -76 -114 -160 -99 -174 3
-3 5 -1 5 5 0 5 36 47 80 93 84 87 134 170 128 214 -3 24 -4 23 -22 -13z"/>
<path d="M3079 1582 c-32 -46 -59 -124 -59 -171 0 -64 -18 -19 -29 73 -6 49
-13 91 -16 94 -25 25 -22 -105 5 -231 12 -56 24 -113 26 -126 8 -38 12 -22 23
89 15 141 28 195 61 258 33 60 27 68 -11 14z"/>
<path d="M2463 1500 c6 -42 72 -269 82 -279 3 -2 5 11 6 30 1 32 2 31 15 -16
11 -44 12 -45 8 -10 -4 22 -6 74 -6 115 1 51 -2 69 -8 55 -5 -11 -9 -31 -10
-45 0 -15 -16 15 -41 80 -23 58 -43 107 -46 110 -3 3 -3 -15 0 -40z"/>
<path d="M3143 1873 c9 -2 23 -2 30 0 6 3 -1 5 -18 5 -16 0 -22 -2 -12 -5z"/>
<path d="M2705 1749 c-9 -28 -14 -53 -11 -56 6 -7 20 27 31 75 10 49 -1 38
-20 -19z"/>
<path d="M2661 1728 c0 -7 4 -22 9 -33 8 -18 9 -17 9 7 1 15 -3 30 -9 33 -5 3
-10 0 -9 -7z"/>
<path d="M3816 1210 c18 -141 -112 -492 -268 -725 -75 -113 -76 -118 -13 -50
120 129 234 333 276 495 25 95 31 257 11 300 -10 22 -11 19 -6 -20z"/>
<path d="M3333 932 c-75 -68 -120 -134 -143 -208 -27 -89 -25 -112 4 -42 38
92 89 170 184 281 27 30 9 18 -45 -31z"/>
<path d="M1391 830 c-1 -8 3 -31 9 -50 l9 -35 -34 37 c-19 21 -35 35 -35 32 0
-15 41 -71 72 -99 18 -17 38 -40 45 -50 6 -11 -2 16 -19 60 -43 115 -47 122
-47 105z"/>
<path d="M1875 790 c19 -64 96 -147 182 -196 26 -15 63 -38 82 -52 29 -22 32
-22 22 -5 -14 27 -61 67 -153 129 -47 33 -87 70 -107 100 -21 31 -30 40 -26
24z"/>
<path d="M3269 587 c-51 -48 -120 -98 -209 -151 -147 -87 -170 -106 -170 -138
l0 -22 16 22 c8 12 59 47 112 79 154 89 246 165 313 256 11 15 19 27 17 27 -2
-1 -37 -33 -79 -73z"/>
<path d="M1988 515 c27 -53 77 -100 199 -188 56 -39 122 -91 147 -114 53 -50
62 -53 42 -14 -18 34 -106 112 -236 208 -52 38 -112 87 -134 109 l-38 39 20
-40z"/>
<path d="M2930 479 c-14 -12 -59 -38 -101 -59 -42 -21 -90 -51 -108 -66 -34
-29 -75 -98 -68 -117 2 -7 11 2 20 18 23 45 75 89 143 123 66 33 119 73 135
103 12 24 10 23 -21 -2z"/>
<path d="M3616 374 c-103 -73 -130 -97 -159 -139 -19 -29 -18 -28 19 6 21 20
82 68 135 107 91 66 121 93 102 91 -4 0 -48 -29 -97 -65z"/>
<path d="M1280 383 c1 -5 16 -69 35 -143 31 -118 34 -127 29 -71 -5 59 -49
221 -59 221 -3 0 -5 -3 -5 -7z"/>
<path d="M2815 329 c-33 -21 -77 -58 -97 -80 -44 -48 -108 -171 -108 -206 0
-21 -10 -12 -52 48 -50 69 -169 178 -195 179 -14 0 2 -20 132 -161 55 -60 105
-109 112 -109 6 0 15 15 18 32 17 78 73 154 181 247 65 55 95 91 76 91 -4 0
-34 -19 -67 -41z"/>
</g>
</svg>