<?xml version="1.0" standalone="no"?>
<!DOCTYPE svg PUBLIC "-//W3C//DTD SVG 20010904//EN"
 "http://www.w3.org/TR/2001/REC-SVG-20010904/DTD/svg10.dtd">
<svg version="1.0" xmlns="http://www.w3.org/2000/svg"
 width="512.000000pt" height="512.000000pt" viewBox="0 0 512.000000 512.000000"
 preserveAspectRatio="xMidYMid meet">
<metadata>
Created by potrace 1.16, written by Peter Selinger 2001-2019
</metadata>
<g transform="translate(0.000000,512.000000) scale(0.100000,-0.100000)"
fill="#000000" stroke="none">
<path d="M3030 4519 c-25 -11 -69 -43 -98 -72 l-53 -52 -220 -2 -220 -1 -37
40 c-94 102 -209 122 -293 51 -17 -15 -46 -60 -66 -102 -30 -66 -34 -84 -30
-131 3 -30 15 -76 27 -101 l22 -46 -36 -92 c-20 -50 -55 -133 -78 -184 -83
-184 -44 -288 129 -346 l78 -26 -1 -40 c-1 -69 -23 -89 -188 -170 -83 -41
-164 -77 -181 -81 -43 -10 -59 -26 -94 -103 -57 -124 -72 -205 -75 -411 -3
-147 -8 -205 -25 -280 -37 -160 -61 -339 -61 -460 0 -106 -2 -118 -25 -152
-14 -20 -25 -43 -25 -50 0 -7 16 11 35 39 19 28 39 55 45 58 7 4 9 30 5 73 -4
40 0 121 10 202 16 134 58 361 72 383 4 6 7 95 8 197 0 161 3 195 23 265 25
85 71 187 86 189 20 3 96 -267 116 -409 8 -60 8 -99 -1 -154 -11 -68 -13 -72
-25 -50 -7 13 -25 55 -40 92 -14 38 -28 66 -30 64 -2 -2 3 -21 11 -42 9 -20
13 -45 10 -53 -3 -9 -3 -13 1 -9 13 12 74 -143 74 -188 0 -22 -11 -79 -24
-125 -14 -47 -24 -86 -22 -87 2 -2 17 34 35 79 l31 83 -6 -60 c-10 -105 -35
-216 -81 -358 -39 -122 -48 -140 -76 -157 -17 -11 -44 -22 -60 -26 -35 -7 -27
-17 39 -49 42 -20 45 -24 23 -24 -15 -1 -47 8 -72 19 -67 30 -127 36 -165 16
-59 -30 -130 -209 -163 -411 -15 -96 -59 -270 -113 -449 -52 -172 -70 -197
-186 -261 -74 -41 -144 -105 -155 -145 -6 -20 1 -16 33 21 34 38 182 132 182
115 0 -2 -38 -35 -85 -72 -46 -37 -92 -78 -100 -90 -18 -27 -5 -33 16 -7 8 9
49 40 91 70 89 63 133 111 171 185 39 79 133 409 173 608 73 369 127 456 251
409 15 -5 59 -28 96 -51 l68 -41 24 23 c22 21 25 21 31 6 11 -30 -16 -158 -46
-217 -45 -89 -389 -611 -412 -625 -26 -17 92 180 292 481 43 66 82 134 85 151
13 64 -45 151 -121 180 -63 24 -77 11 -18 -19 65 -33 124 -97 124 -136 0 -28
-11 -47 -237 -396 -101 -157 -160 -268 -192 -367 -41 -122 -107 -197 -209
-234 -89 -32 -132 -56 -153 -85 -32 -45 -17 -45 27 -1 28 28 57 44 99 57 124
36 174 79 265 230 30 50 151 236 269 415 118 179 225 350 238 380 18 43 23 75
23 145 2 192 6 230 33 312 28 86 67 264 67 304 0 43 18 5 59 -126 55 -178 68
-236 75 -335 8 -102 6 -106 -122 -252 -48 -55 -111 -127 -140 -161 -82 -97
-220 -309 -293 -452 -71 -137 -232 -518 -304 -718 l-42 -117 27 0 c27 0 30 5
56 83 15 45 49 136 76 202 27 66 82 201 122 300 40 99 83 198 95 220 24 44 23
37 -19 -76 -16 -42 -49 -150 -74 -240 -25 -90 -66 -233 -91 -318 -25 -85 -45
-158 -45 -163 0 -4 13 -8 30 -8 23 0 31 5 34 23 3 12 19 91 36 176 62 303 148
552 263 764 71 132 277 447 292 447 2 0 -27 -64 -65 -142 -155 -325 -305 -751
-404 -1145 -14 -56 -26 -106 -26 -112 0 -6 13 -11 30 -11 26 0 30 5 40 43 165
642 345 1147 516 1445 40 72 74 140 74 151 0 15 6 21 24 21 13 0 44 3 69 6
l45 6 -43 -128 c-25 -70 -43 -129 -42 -131 2 -1 18 30 35 70 l33 72 -6 -55
c-9 -79 -65 -334 -145 -650 -87 -350 -189 -857 -169 -844 5 3 9 13 9 23 0 20
71 297 130 511 91 326 165 691 196 972 l18 158 195 0 c108 0 213 3 234 6 35 6
37 5 37 -20 0 -36 83 -289 128 -391 19 -44 50 -120 69 -170 39 -107 35 -59 -9
88 -26 89 -123 358 -161 447 l-15 36 74 -2 c74 -2 76 -3 109 -41 19 -21 34
-49 35 -63 0 -14 9 -65 20 -115 32 -144 90 -458 110 -595 9 -69 18 -110 19
-91 1 48 -44 354 -80 540 -17 84 -28 156 -25 159 3 3 6 -1 6 -9 0 -20 111
-362 116 -357 2 3 -1 19 -7 37 -6 18 -9 34 -6 37 6 6 48 -128 81 -261 58 -234
105 -502 126 -715 19 -200 16 -190 61 -190 21 0 39 1 39 3 0 28 -83 456 -112
577 -18 76 -216 832 -232 885 -13 45 -13 48 0 30 99 -131 484 -1088 579 -1439
9 -32 18 -56 21 -54 12 12 -267 901 -337 1073 -11 28 -16 46 -11 40 10 -10
170 -262 248 -391 68 -110 127 -260 199 -499 36 -121 68 -221 70 -223 2 -2 10
-2 18 0 28 6 -90 367 -201 615 -89 199 -282 543 -381 678 -49 67 -50 68 -10
25 115 -124 320 -376 354 -435 55 -94 242 -569 322 -820 15 -46 25 -61 41 -63
20 -3 20 1 -17 110 -46 134 -155 424 -183 488 -11 25 -45 95 -75 155 l-55 110
53 -50 c47 -45 50 -46 29 -15 -36 53 -121 163 -145 185 -11 11 -14 16 -6 10
29 -20 -7 29 -143 195 -75 91 -136 169 -136 173 0 22 94 -48 186 -138 153
-151 310 -372 355 -502 25 -73 24 -82 -7 -114 -14 -15 -24 -34 -22 -44 2 -12
13 -7 47 26 37 36 42 46 38 74 -6 37 -117 283 -246 544 -50 102 -91 193 -91
202 0 10 20 32 45 49 48 33 60 48 23 29 -42 -21 -88 -60 -88 -73 0 -8 32 -78
71 -157 71 -145 113 -239 104 -239 -2 0 -60 62 -127 138 -102 115 -127 149
-146 202 -25 71 -19 89 28 82 37 -5 96 37 154 111 l39 49 -34 -7 c-33 -7 -80
-30 -144 -70 -25 -15 -22 -11 15 29 25 26 62 56 82 67 53 27 60 43 14 35 -20
-4 -36 -4 -36 -1 0 3 9 24 21 47 45 89 45 235 -1 423 -17 72 -33 159 -36 195
-2 36 -9 130 -14 210 -11 161 -38 286 -96 450 -43 122 -57 146 -87 154 -12 3
-58 25 -102 48 l-80 43 -23 70 c-12 39 -32 91 -43 116 -26 58 -24 63 72 142
90 75 129 142 129 223 0 58 -13 101 -71 227 l-41 88 26 80 c14 44 26 95 26
112 0 30 -64 170 -93 206 -17 20 -87 51 -117 51 -14 0 -45 -10 -70 -21z m123
-22 c18 -8 39 -22 47 -32 14 -17 14 -17 -7 -7 -58 31 -136 -6 -173 -83 -20
-41 -22 -58 -18 -144 3 -53 11 -110 19 -126 8 -17 37 -45 64 -63 41 -28 57
-33 93 -30 39 3 43 1 48 -22 3 -14 11 -43 17 -65 l11 -40 6 50 5 50 34 -79
c62 -148 35 -217 -120 -313 -110 -67 -285 -197 -377 -279 -66 -59 -76 -64
-106 -59 -22 5 -44 1 -65 -10 l-32 -16 -54 49 c-54 50 -125 83 -174 81 -21 0
-17 -3 16 -13 48 -16 102 -47 127 -75 18 -20 18 -20 -10 -11 -16 5 -62 22
-103 39 -40 17 -79 31 -86 31 -7 0 -27 23 -44 50 -31 50 -31 50 -8 50 41 0
200 -51 286 -91 46 -21 86 -39 89 -39 4 0 -27 32 -67 71 -111 108 -260 172
-431 185 -41 4 -93 15 -115 25 -79 36 -101 127 -52 210 25 41 59 109 85 169
10 23 11 21 11 -22 1 -40 4 -48 20 -48 14 0 17 6 13 25 -2 13 -1 36 2 51 6 22
11 25 32 20 17 -5 41 1 70 14 48 24 164 131 183 171 8 15 -3 7 -29 -21 -24
-25 -39 -36 -35 -25 3 10 9 54 12 96 5 71 3 83 -21 133 -15 31 -41 65 -57 77
-37 26 -98 35 -130 19 -24 -13 -24 -13 -5 8 38 43 110 46 181 10 41 -22 69
-53 104 -118 17 -30 31 -47 31 -37 0 10 -5 27 -11 39 -10 18 -9 19 13 12 12
-4 32 -8 43 -8 11 0 104 1 207 2 183 2 187 2 216 27 l30 25 -19 -50 c-20 -52
-27 -126 -9 -85 5 11 19 46 31 78 24 67 70 124 114 143 39 17 58 17 98 1z m51
-68 c36 -28 33 -35 -17 -31 -25 2 -60 -3 -82 -12 -45 -19 -53 -15 -31 15 35
50 88 61 130 28z m-988 -5 c19 -9 44 -31 56 -48 19 -27 19 -29 2 -15 -20 18
-40 21 -141 23 -67 1 -69 9 -8 40 38 20 49 20 91 0z m942 -120 c4 -27 -24 -52
-40 -36 -7 7 -23 12 -37 12 l-26 0 30 25 c35 29 69 29 73 -1z m-933 2 c19 -14
19 -15 -5 -35 -29 -24 -53 -23 -58 2 -9 44 25 61 63 33z m78 -111 c-3 -39 -28
-72 -73 -95 -46 -24 -98 -26 -126 -5 -17 13 -16 13 12 3 39 -14 75 -5 111 28
l28 25 -42 -21 c-23 -11 -55 -20 -71 -20 -37 0 -77 31 -91 70 l-10 31 32 -23
c49 -35 113 -32 169 9 50 37 64 36 61 -2z m797 5 c44 -38 93 -40 140 -5 42 31
44 31 29 3 -38 -75 -84 -96 -146 -68 -38 17 -43 17 -32 3 8 -9 27 -22 44 -29
16 -7 24 -13 16 -14 -28 0 -98 50 -111 79 -13 33 -8 61 12 61 7 -1 29 -14 48
-30z m-77 -823 c-15 -42 -19 -45 -44 -40 -29 6 -132 -36 -189 -77 -34 -24 -47
-26 -29 -4 27 33 266 180 276 170 2 -2 -4 -24 -14 -49z m-848 -29 c-4 -13 -21
-51 -37 -85 -33 -68 -32 -115 2 -133 34 -18 49 -10 80 43 16 28 30 46 30 39 0
-25 120 -264 198 -394 43 -73 107 -182 142 -243 34 -60 76 -128 92 -150 l29
-40 -33 37 c-19 20 -76 108 -128 195 -157 265 -213 353 -224 353 -18 0 -103
-78 -124 -114 l-21 -35 92 -83 c51 -46 155 -138 232 -205 245 -212 265 -240
360 -513 26 -72 75 -235 75 -246 0 -1 -24 -1 -52 0 -29 0 -127 -1 -218 -3
-173 -3 -173 -12 0 -27 92 -7 120 -17 120 -39 0 -13 -35 -15 -235 -15 l-235 0
-2 58 -2 57 -3 -56 c-4 -66 -9 -69 -109 -69 -69 0 -76 7 -67 63 8 54 -50 272
-112 417 -61 142 -80 215 -72 267 6 32 124 224 147 238 22 13 574 -507 686
-645 97 -121 104 -124 71 -35 -35 97 -163 225 -507 510 -142 117 -350 316
-350 334 0 4 26 15 58 25 80 26 162 68 203 107 l34 32 -120 43 c-66 24 -126
43 -134 43 -27 2 24 127 81 202 20 26 39 56 43 68 3 11 9 21 11 21 3 0 2 -10
-1 -22z m951 -75 c-64 -198 -54 -251 71 -362 l56 -50 -91 -103 c-93 -107 -377
-388 -393 -388 -14 0 -41 48 -34 60 3 5 50 46 105 90 204 165 350 323 335 362
-4 9 -33 37 -66 64 -32 26 -59 49 -59 51 0 2 5 13 11 25 9 17 8 19 -8 16 -12
-2 -47 -61 -108 -183 -80 -160 -166 -305 -181 -305 -3 0 8 19 24 43 16 23 73
128 127 232 54 105 109 206 121 226 12 20 28 56 34 80 26 99 74 242 78 231 2
-7 -8 -47 -22 -89z m135 -157 c15 -17 11 -23 -58 -77 -63 -49 -67 -51 -80 -33
-13 17 -10 23 37 65 l52 46 -26 84 c-41 130 -40 131 14 24 29 -55 56 -104 61
-109z m-1184 136 c-25 -27 -79 -149 -75 -169 4 -24 88 -69 171 -90 37 -10 67
-21 67 -25 0 -16 -81 -60 -166 -93 -49 -18 -90 -37 -92 -43 -2 -6 11 -26 27
-45 17 -19 31 -38 31 -41 0 -10 -54 -76 -61 -76 -3 0 -9 33 -12 73 -6 65 -13
112 -17 112 -1 0 -3 8 -5 17 -7 37 -145 271 -145 246 0 -3 18 -36 40 -74 69
-118 102 -224 107 -344 4 -73 2 -102 -5 -95 -6 6 -33 96 -61 200 -27 105 -59
217 -71 249 -24 72 -27 68 90 120 47 20 108 50 135 65 61 35 62 35 42 13z
m163 -17 c0 -5 -5 -3 -10 5 -5 8 -10 20 -10 25 0 6 5 3 10 -5 5 -8 10 -19 10
-25z m473 -13 c9 -1 17 -9 17 -17 0 -10 -11 -15 -35 -15 -19 0 -35 5 -35 11 0
8 -4 8 -15 -1 -8 -6 -20 -8 -26 -4 -9 5 -8 10 3 18 14 11 37 12 91 8z m241
-12 c-5 -5 -36 -12 -69 -14 l-60 -5 65 13 c36 8 67 14 70 15 2 0 0 -3 -6 -9z
m-441 -17 c-18 -2 -48 -2 -65 0 -18 2 -4 4 32 4 36 0 50 -2 33 -4z m895 -115
c16 -29 10 -161 -9 -203 l-14 -29 -5 34 c-5 30 -8 23 -19 -45 -8 -44 -17 -100
-20 -125 l-7 -45 -22 42 c-26 50 -28 80 -7 131 l15 37 -19 -25 c-51 -64 -50
-75 33 -339 38 -122 36 -189 -9 -277 -36 -72 -133 -193 -101 -127 16 33 46
146 46 173 0 8 -11 -10 -23 -41 -37 -88 -102 -171 -190 -243 -45 -36 -87 -66
-94 -66 -7 0 -15 15 -19 34 -5 31 1 45 49 118 73 111 111 178 100 178 -4 0
-46 -34 -93 -75 -47 -41 -89 -75 -93 -75 -36 -1 -1 80 88 205 l57 80 -63 -61
c-35 -34 -79 -70 -98 -79 -32 -16 -34 -16 -54 3 -13 14 -18 28 -14 44 9 36 97
149 244 315 73 81 151 173 174 203 36 48 39 55 22 61 -31 12 -93 76 -88 90 3
8 32 36 64 63 47 38 58 52 51 65 -5 9 -16 31 -25 48 l-15 32 72 -39 c40 -21
79 -49 86 -62z m-468 42 c-8 -5 -27 -10 -42 -10 -37 0 -43 -15 -11 -29 14 -6
23 -14 20 -17 -3 -3 -25 6 -50 20 -24 14 -55 27 -68 28 -23 1 72 13 136 16 23
1 26 -1 15 -8z m-381 -11 c32 -1 16 -14 -48 -38 -66 -25 -80 -20 -19 7 l43 19
-55 11 -55 11 55 -5 c30 -2 66 -4 79 -5z m915 -156 c56 -171 83 -306 91 -448
8 -139 27 -245 73 -410 47 -169 49 -252 8 -342 -15 -34 -39 -71 -52 -84 -21
-19 -24 -20 -30 -5 -3 9 -3 23 0 31 9 25 -21 232 -70 474 -43 216 -45 228 -35
310 6 46 9 86 7 88 -2 2 -9 -27 -16 -64 -21 -110 -31 -118 -25 -19 3 49 15
125 26 169 29 113 17 106 -16 -10 -16 -54 -32 -102 -36 -107 -15 -17 -29 44
-29 125 0 60 7 101 30 174 33 101 40 157 27 218 -16 74 3 34 47 -100z m-671
64 c53 -33 125 -57 146 -49 10 3 12 0 8 -12 -11 -29 -197 -346 -241 -413 l-43
-63 -128 217 c-71 120 -137 232 -147 250 l-19 32 30 -12 c40 -15 100 6 154 53
41 37 41 37 116 32 61 -4 85 -11 124 -35z m-736 -366 c-18 -20 -43 -53 -55
-73 -13 -21 -25 -38 -27 -38 -8 0 25 111 44 149 l22 43 25 -22 24 -23 -33 -36z
m1262 -6 c0 -5 -6 1 -14 15 -8 14 -14 30 -14 35 0 6 6 -1 14 -15 8 -14 14 -29
14 -35z m43 -790 c56 -150 75 -228 65 -266 -13 -51 -4 -118 26 -183 15 -33 26
-60 25 -62 -9 -8 -290 226 -320 267 -19 26 -19 27 1 145 17 98 29 135 68 213
l48 94 29 -64 c15 -35 42 -100 58 -144z m-200 68 c-11 -21 -30 -70 -42 -110
-17 -56 -19 -76 -10 -92 24 -46 -29 -56 -87 -16 -47 31 -67 20 -25 -14 19 -16
28 -31 23 -39 -13 -21 -50 15 -56 56 -4 20 -13 66 -20 102 -8 35 -13 65 -12
66 7 5 147 74 152 74 10 0 -13 -35 -56 -84 l-43 -48 44 22 43 22 -7 -44 c-6
-41 -4 -39 24 26 26 62 77 132 87 122 3 -2 -4 -21 -15 -43z m-258 -173 c30
-11 32 -22 10 -44 -29 -29 -114 -12 -114 23 0 25 62 37 104 21z m196 -110 c14
-26 5 -40 -26 -40 -26 0 -33 27 -12 48 17 17 26 15 38 -8z m567 -87 c-26 -30
-125 -85 -137 -78 -12 8 18 29 100 71 54 28 58 29 37 7z"/>
<path d="M2462 4178 c-7 -7 -12 -24 -12 -40 0 -21 8 -31 33 -44 17 -9 40 -23
50 -32 23 -20 22 -5 -3 36 -11 17 -27 32 -36 32 -9 0 -14 7 -12 18 6 29 30 19
65 -26 34 -45 45 -34 18 18 -24 46 -76 65 -103 38z"/>
<path d="M2808 4178 c-22 -18 -48 -60 -48 -77 0 -9 14 -1 38 22 34 33 62 47
62 31 0 -3 -11 -20 -24 -37 -39 -54 -41 -60 -15 -46 13 7 31 15 39 19 19 9 25
67 9 86 -14 17 -40 18 -61 2z"/>
<path d="M2920 4184 c0 -15 76 -101 83 -94 3 3 -15 27 -39 55 -24 27 -44 45
-44 39z"/>
<path d="M3032 4003 c10 -11 37 -30 60 -43 55 -30 48 -22 -22 25 -30 20 -47
28 -38 18z"/>
<path d="M2270 3979 c-22 -18 -22 -19 -3 -10 12 6 25 16 28 21 9 15 3 12 -25
-11z"/>
<path d="M2200 3940 c-19 -11 -31 -19 -27 -20 11 0 67 29 67 35 0 7 -1 7 -40
-15z"/>
<path d="M2515 3871 c-38 -11 -148 -47 -243 -80 -96 -34 -188 -61 -204 -61
-29 0 -30 2 -24 32 6 31 6 31 -14 13 -22 -20 -26 -55 -8 -73 23 -23 79 -11
242 53 230 91 304 109 431 102 88 -4 123 -12 288 -66 193 -63 254 -73 281 -45
19 18 21 45 4 62 -19 19 -27 14 -25 -15 2 -28 1 -28 -54 -26 -36 1 -114 21
-230 59 -156 52 -184 58 -274 61 -76 2 -117 -2 -170 -16z"/>
<path d="M2314 3689 c-28 -5 -86 -21 -128 -37 l-77 -28 69 -11 c38 -6 120 -32
183 -57 168 -70 299 -116 323 -116 11 1 -16 14 -60 29 -93 33 -124 48 -124 60
0 17 50 21 147 11 54 -5 105 -9 113 -8 29 3 50 -2 50 -11 0 -5 -14 -24 -31
-41 -28 -27 -17 -23 92 34 68 35 160 79 204 96 143 56 137 68 -36 76 -96 5
-137 3 -184 -9 -109 -29 -163 -31 -275 -9 -135 26 -203 32 -266 21z"/>
<path d="M2858 3450 c-43 -27 -78 -52 -78 -56 0 -6 9 -1 108 64 45 30 59 42
50 42 -2 0 -38 -22 -80 -50z"/>
<path d="M2151 2524 c0 -11 3 -14 6 -6 3 7 2 16 -1 19 -3 4 -6 -2 -5 -13z"/>
<path d="M2162 2490 c0 -8 8 -37 18 -65 10 -27 18 -43 18 -35 0 8 -8 38 -18
65 -10 28 -18 43 -18 35z"/>
<path d="M2205 2350 c3 -14 14 -61 24 -105 40 -170 37 -178 -24 -64 -44 81
-45 66 -2 -23 l33 -67 -39 22 c-50 28 -139 124 -177 190 -40 70 -38 37 4 -62
66 -152 133 -233 254 -303 l52 -29 -15 42 c-8 23 -15 43 -15 45 0 1 38 -15 84
-36 81 -39 281 -101 361 -114 22 -3 -14 14 -81 37 -136 49 -230 97 -316 163
-55 43 -59 48 -84 132 -31 105 -66 207 -59 172z m75 -365 c26 -31 3 -24 -36
10 -37 34 -38 35 -8 21 17 -8 36 -22 44 -31z"/>
<path d="M2336 2336 c3 -9 10 -16 16 -16 5 0 7 -4 4 -9 -8 -12 83 -147 136
-202 24 -25 69 -64 99 -86 57 -43 244 -148 233 -132 -3 5 -57 44 -121 85 -63
42 -145 105 -183 140 -76 72 -156 171 -146 181 3 3 32 -18 63 -48 64 -61 171
-144 177 -138 3 2 -39 39 -92 82 -54 42 -118 96 -145 118 -26 23 -44 34 -41
25z"/>
<path d="M2630 2138 c0 -32 132 -178 162 -178 6 0 -11 24 -38 53 -27 29 -66
72 -86 97 -24 29 -37 39 -38 28z"/>
<path d="M2303 1855 c0 -22 2 -30 4 -17 2 12 2 30 0 40 -3 9 -5 -1 -4 -23z"/>
<path d="M3281 2576 c-1 -5 6 -50 14 -100 8 -50 17 -104 19 -121 2 -16 2 6 0
50 -4 65 -30 203 -33 171z"/>
<path d="M3271 2314 c0 -11 3 -14 6 -6 3 7 2 16 -1 19 -3 4 -6 -2 -5 -13z"/>
<path d="M3185 2208 c-16 -24 -53 -74 -83 -112 -31 -38 -50 -66 -43 -62 30 19
174 216 158 216 -3 0 -17 -19 -32 -42z"/>
<path d="M513 3883 c-16 -6 -17 -39 -2 -49 6 -3 16 -1 22 5 9 9 8 14 -3 22
-12 9 -12 10 3 5 12 -4 17 -2 15 6 -5 14 -18 18 -35 11z"/>
<path d="M553 3841 c-7 -11 -37 -27 -67 -35 -68 -20 -91 -47 -71 -85 7 -14 26
-37 41 -51 15 -14 24 -19 19 -11 -5 9 -4 12 3 7 6 -4 9 -12 6 -19 -2 -7 30
-47 73 -88 42 -40 78 -77 78 -82 0 -4 11 -17 25 -30 14 -12 19 -17 10 -12 -13
9 -13 8 -1 -7 7 -10 17 -16 21 -13 4 3 14 -2 21 -11 15 -19 63 -44 83 -44 8 0
28 12 45 26 41 34 39 22 -4 -29 -19 -22 -40 -57 -45 -76 -12 -43 -12 -233 0
-311 l9 -55 -3 60 c-2 33 0 112 4 175 7 119 20 162 72 239 12 19 16 31 9 27
-9 -6 -12 -5 -9 5 3 8 11 13 17 11 6 -1 10 2 9 7 -2 5 40 63 93 128 l96 118
-101 -8 c-132 -10 -248 -6 -253 10 -3 9 33 12 149 10 171 -2 217 3 229 26 12
20 -29 53 -83 67 -57 16 -193 30 -268 29 -52 -2 -42 -3 45 -10 169 -12 295
-41 295 -68 0 -25 -117 -39 -287 -33 l-81 2 -12 33 c-19 57 -65 97 -109 97
-12 0 -21 5 -21 10 0 17 -25 11 -37 -9z m110 -39 c24 -21 13 -28 -15 -8 -12 9
-27 16 -33 16 -5 0 -4 -4 4 -9 22 -14 -5 -43 -33 -35 -17 5 -19 4 -8 -7 15
-16 16 -37 1 -22 -6 6 -18 9 -25 6 -18 -7 -19 50 -1 65 30 24 78 22 110 -6z
m-133 -19 c-14 -51 -15 -58 -4 -56 6 1 11 -4 11 -11 0 -14 -33 -10 -54 6 -19
15 3 52 25 43 13 -5 14 -3 5 6 -17 17 -65 -2 -80 -32 -12 -23 -13 -23 -13 -2
0 26 24 53 51 54 32 2 37 4 45 12 16 15 22 6 14 -20z m140 -23 c0 -4 -17 -15
-37 -23 -21 -9 -33 -16 -26 -16 23 -1 82 32 76 42 -3 6 -1 7 6 3 6 -4 9 -11 6
-16 -3 -4 2 -24 10 -44 8 -19 15 -37 15 -38 0 -2 -19 -2 -42 0 -55 5 -74 21
-27 24 31 1 30 2 -10 7 -25 3 -46 11 -48 17 -2 6 8 26 23 43 21 25 29 29 40
20 8 -6 14 -15 14 -19z m-210 -21 c0 -11 -4 -18 -10 -14 -5 3 -7 12 -3 20 7
21 13 19 13 -6z m-5 -49 c10 -11 16 -20 13 -20 -3 0 -13 9 -23 20 -10 11 -16
20 -13 20 3 0 13 -9 23 -20z m59 -6 c9 -3 16 -11 16 -18 0 -21 51 -87 83 -108
18 -11 23 -17 12 -13 -11 4 -24 8 -30 9 -20 3 -35 18 -30 27 4 5 2 9 -3 9 -6
0 -26 23 -46 50 -35 48 -35 57 -2 44z m122 -52 c16 -24 15 -26 -2 -39 -10 -7
-23 -12 -28 -10 -15 5 -46 50 -50 73 -4 20 -2 21 30 11 19 -6 41 -22 50 -35z
m64 6 c0 -9 4 -8 10 2 7 11 10 4 10 -27 0 -24 -4 -43 -9 -43 -9 0 -61 64 -61
74 0 3 11 6 25 6 14 0 25 -6 25 -12z m252 -26 c-3 -45 -41 -117 -92 -174 -61
-70 -88 -68 -170 18 -60 63 -61 66 -32 59 17 -3 40 -2 51 4 24 13 45 74 37
107 l-7 25 108 -3 108 -3 -3 -33z m-265 -36 c18 -20 19 -25 7 -30 -9 -3 -12
-1 -9 4 4 6 -7 10 -24 10 -30 0 -30 1 -14 20 10 11 18 20 18 20 1 0 11 -11 22
-24z"/>
<path d="M569 3793 c-13 -15 -12 -15 9 -4 23 12 28 21 13 21 -5 0 -15 -7 -22
-17z"/>
<path d="M610 3626 c0 -2 8 -10 18 -17 15 -13 16 -12 3 4 -13 16 -21 21 -21
13z"/>
<path d="M808 3613 c23 -2 59 -2 80 0 20 2 1 4 -43 4 -44 0 -61 -2 -37 -4z"/>
<path d="M733 3426 c15 -14 38 -26 51 -26 22 0 56 27 56 46 0 4 -7 -2 -16 -14
-19 -28 -53 -28 -90 -1 l-29 21 28 -26z"/>
<path d="M721 3357 l34 -49 5 -206 6 -207 2 198 c2 215 -3 241 -53 287 -26 23
-25 22 6 -23z"/>
<path d="M4629 3198 l-23 -53 -110 0 c-95 0 -117 -3 -152 -22 -48 -25 -94 -76
-94 -103 0 -14 -9 -19 -45 -22 l-45 -3 -21 55 c-48 132 -64 170 -71 170 -11 0
-10 -17 1 -38 13 -23 64 -183 60 -186 -2 -1 -35 -8 -74 -15 -87 -15 -135 -37
-135 -62 0 -21 36 -49 65 -50 19 0 19 -1 1 -8 -14 -5 -16 -10 -8 -15 7 -4 18
-4 25 0 6 4 9 4 5 -1 -5 -5 55 -72 131 -150 76 -78 146 -155 154 -172 28 -54
40 -158 35 -326 -5 -192 8 -154 18 53 4 101 3 163 -6 204 -11 54 -19 66 -103
155 -73 77 -77 83 -22 30 102 -97 131 -107 188 -67 l32 23 -27 -35 c-47 -61
-49 -76 -41 -313 l8 -222 5 235 c5 219 7 238 28 278 12 23 81 103 154 177 72
75 129 137 126 140 -2 2 -60 -53 -129 -122 -68 -70 -128 -127 -134 -128 -5 0
-22 -8 -37 -19 -18 -11 -36 -16 -50 -12 -25 7 -238 205 -238 221 0 6 17 9 40
7 22 -2 40 -8 40 -12 0 -4 7 -11 16 -14 13 -5 14 -3 6 6 -8 10 27 13 178 13
l187 0 -31 -23 c-17 -13 -64 -39 -103 -57 -68 -32 -93 -55 -58 -55 18 0 20
-31 3 -48 -9 -9 -8 -12 5 -12 9 0 80 61 158 135 77 74 144 133 148 131 4 -3
20 6 37 20 19 17 25 27 16 30 -6 3 -10 10 -6 15 3 5 2 8 -3 7 -11 -3 -73 20
-73 27 0 3 4 4 9 0 14 -8 31 28 31 66 0 25 -9 41 -39 68 l-40 37 25 47 c26 52
29 67 15 67 -5 0 -19 -24 -32 -52z m-36 -78 c9 -10 7 -11 -12 -5 -13 4 -47 7
-77 6 -82 -1 -146 -41 -197 -123 -10 -16 -24 -28 -33 -28 -8 0 -12 -4 -9 -10
4 -6 -12 -10 -39 -10 -25 0 -46 2 -46 4 0 2 -3 11 -6 20 -5 13 2 16 44 16 28
0 54 5 57 10 3 6 1 10 -4 10 -35 0 17 73 70 100 21 11 39 16 39 10 0 -5 -5
-10 -12 -10 -6 0 -9 -2 -6 -5 3 -3 25 4 49 15 34 16 58 20 107 16 35 -2 69 -9
75 -16z m76 -46 c22 -29 27 -60 11 -84 -7 -10 -8 -4 -4 21 5 31 2 39 -30 67
-20 17 -36 34 -36 37 0 12 39 -16 59 -41z m-121 -6 l12 -33 -5 32 c-4 28 -2
31 15 25 26 -10 26 -10 12 -73 l-13 -56 -97 -7 c-53 -4 -104 -4 -114 -1 -9 4
-19 1 -24 -6 -5 -10 20 -11 114 -6 106 5 143 0 115 -16 -5 -2 -3 -3 3 -1 6 1
18 -3 25 -9 10 -10 10 -8 0 6 -18 23 -13 27 29 18 22 -4 30 -10 22 -14 -6 -5
-17 -18 -23 -30 -6 -13 1 -8 16 11 30 36 41 39 74 16 20 -14 21 -18 8 -25 -25
-15 -180 -49 -227 -51 l-45 -1 50 -6 c45 -6 39 -8 -55 -15 -58 -4 -132 -6
-165 -4 -42 3 -25 5 55 8 l115 3 -130 7 c-196 12 -375 50 -375 80 0 16 54 36
134 49 56 10 71 10 77 -1 16 -24 9 -28 -43 -30 -53 -1 -53 -2 -9 -5 28 -3 50
-11 60 -24 16 -20 22 -20 186 -11 131 7 149 9 81 10 -89 2 -126 15 -126 46 0
15 79 106 92 106 5 0 34 -21 64 -46 30 -26 54 -42 54 -36 0 6 -23 27 -51 48
-47 35 -50 39 -33 51 25 18 31 17 48 -14 8 -16 15 -22 16 -15 0 7 -5 22 -10
33 -10 17 -7 19 23 19 29 0 36 -4 45 -32z m102 -72 c-9 -29 -17 -36 -37 -36
-23 0 -24 3 -18 33 4 17 12 43 17 56 l9 25 21 -21 c18 -19 19 -25 8 -57z
m-350 -86 c0 -6 -26 -10 -59 -10 -33 0 -63 5 -66 10 -4 6 18 10 59 10 37 0 66
-4 66 -10z m-247 -57 c-7 -2 -19 -2 -25 0 -7 3 -2 5 12 5 14 0 19 -2 13 -5z
m594 1 c-3 -3 -12 -4 -19 -1 -8 3 -5 6 6 6 11 1 17 -2 13 -5z m-534 -11 c-7
-2 -19 -2 -25 0 -7 3 -2 5 12 5 14 0 19 -2 13 -5z m480 0 c-7 -2 -19 -2 -25 0
-7 3 -2 5 12 5 14 0 19 -2 13 -5z m-505 -67 c37 -36 64 -67 61 -70 -3 -3 -36
26 -74 64 -87 88 -77 92 13 6z m100 57 c-10 -2 -28 -2 -40 0 -13 2 -5 4 17 4
22 1 32 -1 23 -4z"/>
<path d="M860 2860 c34 -11 60 -11 35 0 -11 5 -29 8 -40 8 -16 0 -15 -2 5 -8z"/>
<path d="M683 2783 c26 -2 67 -2 90 0 23 2 2 3 -48 3 -49 0 -68 -1 -42 -3z"/>
<path d="M4261 2658 c37 -38 75 -68 85 -67 15 0 13 3 -6 10 -14 6 -52 36 -85
67 -56 53 -55 52 6 -10z"/>
<path d="M1737 2383 c-31 -86 -55 -158 -53 -160 3 -3 84 203 106 270 7 21 10
40 8 42 -2 2 -29 -67 -61 -152z"/>
<path d="M890 2179 c-37 -15 -88 -68 -100 -105 l-11 -32 -107 5 c-150 8 -343
-16 -391 -46 -12 -8 -12 -13 3 -35 9 -15 21 -24 25 -21 11 6 39 -26 159 -182
54 -70 102 -123 115 -127 63 -17 90 -1 147 84 13 19 53 68 89 109 36 40 77 87
91 104 22 27 22 30 5 23 -34 -13 -188 -36 -245 -36 -70 0 -299 26 -331 38 -15
6 58 8 191 4 118 -2 231 -5 250 -5 64 -1 161 10 172 21 7 7 3 14 -12 22 -22
12 -22 12 -2 33 44 49 56 112 26 141 -17 18 -38 19 -74 5z m66 -24 c10 -25 -5
-78 -29 -107 -21 -26 -25 -27 -71 -18 -27 6 -51 12 -53 14 -6 6 26 66 35 66 5
0 13 -5 19 -11 9 -9 11 -7 7 7 -7 28 26 55 79 63 4 0 10 -6 13 -14z m-198
-147 c-15 -22 -22 -23 -194 -26 -194 -4 -287 4 -246 19 45 17 149 27 301 28
l153 1 -14 -22z m134 2 c43 -12 59 -30 28 -30 -14 0 -19 4 -14 13 6 9 5 9 -7
1 -17 -14 -114 -28 -129 -19 -8 5 -6 13 6 26 19 21 60 24 116 9z m-59 -116
c-15 -14 -54 -39 -85 -55 -58 -29 -89 -57 -49 -44 16 5 20 3 15 -9 -3 -9 -10
-13 -15 -10 -5 3 -6 -2 -3 -10 10 -26 -35 -105 -63 -113 -44 -10 -58 7 -58 73
l0 59 -50 26 c-27 15 -49 31 -48 37 2 7 -4 9 -14 5 -11 -4 -14 -3 -9 5 4 7 26
12 48 12 53 0 44 9 -19 20 -36 6 -8 8 110 9 97 1 157 5 157 11 0 6 25 10 56
10 l55 0 -28 -26z"/>
<path d="M930 2141 c0 -6 4 -13 10 -16 6 -3 7 1 4 9 -7 18 -14 21 -14 7z"/>
<path d="M856 1855 c-46 -52 -110 -131 -141 -176 -88 -126 -116 -125 -203 4
-69 101 -193 260 -199 254 -3 -3 36 -59 85 -124 152 -200 181 -256 183 -342 0
-35 3 -41 9 -26 5 12 7 -19 5 -80 -3 -79 -2 -90 5 -50 5 29 6 -69 3 -240 -7
-373 -6 -350 -22 -369 -11 -14 -11 -16 3 -16 9 0 16 -4 16 -10 0 -14 -28 -12
-33 3 -2 6 -8 9 -12 5 -16 -15 9 -28 54 -28 53 0 81 19 58 38 -7 6 -24 8 -37
5 -23 -6 -23 -6 -4 14 19 19 19 19 49 -3 20 -15 39 -21 53 -17 25 6 112 -15
112 -27 0 -27 -186 -46 -316 -32 -145 16 -149 22 -38 48 38 10 76 24 84 32 13
13 13 14 -5 7 -11 -4 -47 -14 -79 -22 -72 -17 -96 -29 -96 -48 0 -25 79 -38
230 -39 117 0 154 3 193 18 26 10 47 22 47 27 0 18 -48 39 -107 47 -34 5 -72
16 -85 24 l-25 16 -6 279 c-9 352 0 483 38 558 29 57 151 222 231 313 26 28
44 52 41 52 -4 0 -44 -43 -91 -95z m-234 -316 c-5 -32 -15 -29 -27 9 -5 17 -2
22 13 22 15 0 18 -6 14 -31z m-2 -769 c0 -5 -4 -10 -10 -10 -5 0 -10 5 -10 10
0 6 5 10 10 10 6 0 10 -4 10 -10z"/>
<path d="M1638 1766 c-115 -38 -133 -51 -58 -41 60 8 143 39 161 61 15 19 10
18 -103 -20z"/>
<path d="M3695 1716 c10 -14 19 -26 22 -26 7 0 -17 39 -28 46 -6 3 -3 -5 6
-20z"/>
<path d="M1645 1587 c94 -45 145 -63 145 -50 -1 11 -158 80 -200 88 -24 4 -7
-8 55 -38z"/>
<path d="M2767 1335 c-4 -154 -10 -517 -13 -808 l-7 -527 57 0 57 0 -6 73
c-17 216 -46 773 -56 1057 -16 494 -23 538 -32 205z"/>
<path d="M2586 1492 c-21 -127 -67 -339 -135 -627 -50 -209 -142 -647 -140
-668 1 -18 114 406 153 573 76 323 160 809 144 826 -2 2 -12 -45 -22 -104z"/>
<path d="M3811 1459 c-4 -26 62 -270 119 -439 38 -113 85 -268 105 -345 19
-77 42 -165 50 -195 19 -67 19 -172 0 -224 -12 -34 -12 -37 1 -24 20 20 37
132 28 193 -13 103 -87 377 -159 595 -40 124 -89 275 -108 335 -19 61 -35 107
-36 104z"/>
<path d="M2161 1245 c-23 -70 -41 -133 -40 -139 0 -6 20 50 44 124 24 74 42
136 40 138 -2 2 -22 -53 -44 -123z"/>
<path d="M2092 1008 c-12 -48 -22 -93 -21 -100 0 -7 12 28 25 77 13 50 22 94
21 100 -2 5 -13 -30 -25 -77z"/>
<path d="M2832 875 c0 -16 5 -82 13 -145 7 -66 13 -94 13 -65 0 28 -5 93 -12
145 -8 52 -14 82 -14 65z"/>
<path d="M2056 854 c-4 -20 -5 -38 -3 -40 3 -3 8 11 11 32 4 20 5 38 3 40 -3
3 -8 -11 -11 -32z"/>
<path d="M1996 579 c-26 -121 -46 -222 -44 -225 3 -2 26 95 52 217 27 121 47
222 44 224 -2 3 -26 -95 -52 -216z"/>
<path d="M3192 755 c0 -16 2 -22 5 -12 2 9 2 23 0 30 -3 6 -5 -1 -5 -18z"/>
<path d="M3172 695 c0 -16 2 -22 5 -12 2 9 2 23 0 30 -3 6 -5 -1 -5 -18z"/>
<path d="M3202 670 c0 -19 2 -27 5 -17 2 9 2 25 0 35 -3 9 -5 1 -5 -18z"/>
<path d="M720 680 c0 -5 5 -10 11 -10 5 0 7 5 4 10 -3 6 -8 10 -11 10 -2 0 -4
-4 -4 -10z"/>
<path d="M3181 634 c0 -11 3 -14 6 -6 3 7 2 16 -1 19 -3 4 -6 -2 -5 -13z"/>
<path d="M3212 590 c0 -19 2 -27 5 -17 2 9 2 25 0 35 -3 9 -5 1 -5 -18z"/>
<path d="M2863 560 c0 -30 2 -43 4 -27 2 15 2 39 0 55 -2 15 -4 2 -4 -28z"/>
<path d="M3222 520 c0 -19 6 -75 13 -125 7 -49 13 -74 13 -55 0 19 -6 76 -13
125 -7 50 -13 74 -13 55z"/>
<path d="M3680 545 c0 -5 5 -17 10 -25 5 -8 10 -10 10 -5 0 6 -5 17 -10 25 -5
8 -10 11 -10 5z"/>
<path d="M3505 485 c3 -16 18 -106 34 -200 16 -93 33 -196 36 -227 7 -55 9
-58 35 -58 l28 0 -19 88 c-39 176 -129 493 -114 397z"/>
<path d="M2873 445 c0 -33 2 -45 4 -27 2 18 2 45 0 60 -2 15 -4 0 -4 -33z"/>
<path d="M3705 483 c36 -90 80 -212 119 -330 26 -79 51 -145 55 -147 4 -3 -14
59 -39 137 -51 155 -128 357 -137 357 -3 0 -2 -8 2 -17z"/>
<path d="M3975 449 c9 -16 19 -53 22 -82 8 -76 22 -93 22 -27 1 57 -29 140
-49 140 -6 0 -4 -12 5 -31z"/>
<path d="M2883 315 c0 -38 2 -53 4 -32 2 20 2 52 0 70 -2 17 -4 1 -4 -38z"/>
<path d="M1942 320 c0 -14 2 -19 5 -12 2 6 2 18 0 25 -3 6 -5 1 -5 -13z"/>
<path d="M3253 265 c0 -22 2 -30 4 -17 2 12 2 30 0 40 -3 9 -5 -1 -4 -23z"/>
<path d="M1931 274 c0 -11 3 -14 6 -6 3 7 2 16 -1 19 -3 4 -6 -2 -5 -13z"/>
<path d="M1921 224 c0 -11 3 -14 6 -6 3 7 2 16 -1 19 -3 4 -6 -2 -5 -13z"/>
<path d="M2893 175 c0 -38 2 -53 4 -32 2 20 2 52 0 70 -2 17 -4 1 -4 -38z"/>
<path d="M3262 180 c0 -14 2 -19 5 -12 2 6 2 18 0 25 -3 6 -5 1 -5 -13z"/>
<path d="M2302 160 c0 -14 2 -19 5 -12 2 6 2 18 0 25 -3 6 -5 1 -5 -13z"/>
<path d="M2902 55 c0 -16 2 -22 5 -12 2 9 2 23 0 30 -3 6 -5 -1 -5 -18z"/>
</g>
</svg>