<?xml version="1.0" standalone="no"?>
<!DOCTYPE svg PUBLIC "-//W3C//DTD SVG 20010904//EN"
 "http://www.w3.org/TR/2001/REC-SVG-20010904/DTD/svg10.dtd">
<svg version="1.0" xmlns="http://www.w3.org/2000/svg"
 width="512.000000pt" height="512.000000pt" viewBox="0 0 512.000000 512.000000"
 preserveAspectRatio="xMidYMid meet">
<metadata>
Created by potrace 1.16, written by Peter Selinger 2001-2019
</metadata>
<g transform="translate(0.000000,512.000000) scale(0.100000,-0.100000)"
fill="#000000" stroke="none">
<path d="M2660 4630 c15 -28 11 -31 -31 -21 -31 8 -88 9 -261 3 -61 -2 -77
-17 -31 -28 24 -6 21 -9 -33 -29 -84 -31 -171 -88 -200 -133 l-15 -23 30 15
c16 9 33 16 36 16 10 0 -34 -70 -64 -104 l-26 -29 25 12 25 12 -23 -20 c-22
-20 -23 -20 -69 1 -62 27 -142 22 -179 -13 -79 -72 -86 -248 -16 -385 22 -43
78 -98 110 -108 53 -17 -25 -104 -157 -176 -86 -47 -101 -59 -101 -80 0 -21
-14 -33 -74 -69 -103 -60 -166 -119 -247 -227 -38 -51 -82 -102 -97 -113 -29
-22 -19 -27 24 -11 46 18 38 4 -28 -46 -99 -75 -176 -143 -200 -177 -13 -18
-16 -27 -7 -22 7 4 -1 -8 -20 -28 l-34 -36 -25 31 c-14 16 -57 55 -96 86 -92
73 -132 116 -164 177 -22 42 -26 63 -26 135 0 196 75 323 299 505 108 88 193
130 290 145 100 15 132 28 176 67 28 25 44 51 55 89 14 48 14 59 0 115 -35
136 -122 197 -266 187 -80 -6 -132 -32 -188 -91 -58 -64 -73 -106 -79 -217 -2
-57 -10 -107 -19 -126 -9 -17 -47 -58 -86 -90 -201 -167 -295 -320 -313 -509
-14 -144 22 -269 110 -375 44 -54 213 -210 227 -210 4 0 -43 51 -105 113 -154
152 -181 205 -185 363 -4 134 10 201 70 324 37 77 55 99 189 231 83 82 150
157 153 170 3 13 7 67 8 121 3 89 5 100 33 139 17 24 53 57 80 74 43 27 57 30
130 30 74 0 85 -3 119 -29 70 -53 99 -132 77 -214 -23 -85 -78 -123 -209 -146
-44 -8 -101 -23 -127 -35 -26 -12 -49 -21 -51 -21 -2 0 -4 17 -5 38 0 20 -3
30 -6 22 -22 -60 -43 -85 -129 -151 -197 -149 -294 -328 -297 -548 -2 -138 28
-185 217 -346 l115 -98 -25 -30 c-14 -17 -48 -48 -75 -70 -55 -44 -59 -58 -8
-31 l33 17 -18 -29 c-54 -85 -110 -155 -159 -201 -57 -54 -54 -67 8 -43 31 12
32 14 -48 -98 -32 -46 -57 -85 -55 -87 2 -3 19 0 37 5 29 8 32 7 26 -8 -18
-48 -24 -176 -11 -252 15 -86 35 -135 36 -90 0 22 4 20 29 -21 45 -71 187
-186 206 -167 4 3 -1 20 -10 37 -16 31 -15 31 47 -15 50 -37 64 -43 66 -30 2
10 8 16 14 14 6 -2 11 -66 13 -163 3 -233 34 -365 141 -598 30 -65 54 -130 54
-145 0 -19 -14 -40 -49 -72 -48 -44 -51 -45 -83 -34 -184 64 -305 194 -339
363 -16 85 -6 156 41 291 41 118 57 210 21 120 -35 -88 -70 -160 -77 -160 -12
0 5 148 21 188 9 20 37 72 62 115 25 43 43 80 40 83 -15 16 -107 -165 -132
-261 -22 -84 -29 -236 -16 -330 26 -185 138 -325 334 -422 77 -38 78 -39 58
-57 -19 -17 -22 -18 -62 -2 -120 48 -270 186 -333 305 -55 104 -69 181 -63
336 7 165 27 263 90 427 l25 66 -26 24 c-15 12 -20 15 -13 6 11 -15 8 -29 -23
-100 -72 -170 -116 -431 -96 -575 29 -213 191 -434 382 -526 57 -27 67 -35 62
-52 -33 -115 -35 -125 -24 -165 22 -81 104 -134 275 -180 110 -29 370 -21 525
16 83 20 190 72 258 124 51 39 72 44 72 15 0 -27 98 -103 151 -115 93 -23 209
9 246 68 30 47 96 103 145 122 l48 18 -7 -26 c-3 -15 -12 -44 -20 -66 -33 -97
-5 -149 88 -160 30 -3 288 -7 574 -8 568 -2 573 -2 560 50 -3 15 -20 41 -36
57 -17 18 -29 42 -29 56 0 37 -39 90 -85 117 -38 21 -50 22 -197 20 -87 -1
-160 1 -164 4 -6 7 39 43 196 158 182 134 280 259 309 398 15 72 14 216 -3
277 -26 97 -105 222 -168 266 l-33 22 31 -34 c165 -182 202 -450 89 -652 -31
-54 -104 -131 -146 -153 -37 -19 -37 -7 1 42 126 165 160 228 173 324 l6 45
-22 -61 c-23 -60 -47 -100 -95 -159 l-25 -30 8 45 c3 25 17 95 30 155 35 163
38 211 21 294 -18 88 -49 143 -111 200 -84 78 -197 111 -382 111 l-113 0 0 78
c0 42 -6 103 -14 135 -7 31 -12 57 -10 57 2 0 23 -14 46 -30 67 -47 146 -70
236 -70 72 0 105 7 207 45 16 7 18 6 8 -6 -7 -7 -13 -17 -13 -22 0 -12 56 29
131 98 36 33 90 81 120 106 94 81 149 203 149 329 0 56 -18 104 -63 171 l-17
26 142 104 c176 128 198 139 266 139 48 0 53 -2 46 -17 -4 -10 -8 -34 -8 -52
-1 -28 5 -38 25 -50 24 -13 29 -13 53 2 20 13 26 26 26 53 0 30 -5 37 -32 48
l-31 14 44 32 c24 17 56 38 71 46 27 14 28 14 17 -10 -16 -35 -4 -74 25 -82
37 -9 65 4 72 33 8 32 -5 56 -36 63 -13 3 -25 11 -27 17 -5 14 54 63 117 97
l48 26 -10 -28 c-6 -16 -8 -40 -5 -55 12 -47 80 -47 98 0 13 36 -5 63 -42 63
-45 0 -32 20 37 57 38 21 63 41 71 60 27 62 9 178 -43 273 -32 59 -107 130
-136 130 -11 0 -37 -15 -58 -33 -21 -18 -55 -42 -77 -54 l-38 -22 0 32 c0 58
-73 69 -94 14 -11 -28 4 -57 29 -57 35 0 28 -15 -20 -42 l-48 -27 -5 29 c-8
36 -39 47 -72 26 -46 -30 -23 -96 27 -81 22 7 22 6 3 -7 -59 -42 -98 -61 -93
-46 8 21 -18 58 -41 58 -38 0 -66 -61 -40 -87 8 -8 6 -14 -9 -22 -11 -6 -31
-30 -45 -54 -22 -37 -89 -98 -145 -131 -9 -5 -23 0 -38 15 -29 28 -118 38
-164 19 -52 -22 -74 -88 -48 -145 11 -24 9 -29 -18 -50 -34 -28 -26 -32 17 -9
17 8 33 13 36 11 6 -7 -21 -25 -172 -115 -209 -125 -807 -517 -813 -533 -7
-18 -29 -8 -67 32 -99 101 -250 189 -359 210 -118 21 -183 -12 -267 -138 -84
-126 -151 -184 -211 -182 -15 0 -7 5 21 14 55 17 99 59 163 155 83 124 125
159 209 174 103 18 313 -80 450 -211 l37 -35 43 29 c24 15 46 31 49 34 4 6
464 314 516 346 17 10 14 12 -24 12 -48 1 -112 -27 -154 -67 -15 -14 -30 -23
-34 -20 -8 9 20 60 51 91 34 34 24 34 -30 2 l-42 -24 -12 38 c-6 21 -11 63
-12 92 l0 54 -15 -40 c-50 -142 -62 -160 -38 -60 19 85 18 191 -5 240 l-18 40
-5 -75 c-6 -72 -36 -225 -43 -218 -2 2 3 64 11 138 7 74 14 143 14 153 0 10 5
15 10 12 6 -4 10 5 10 20 0 23 84 205 95 205 14 0 112 -287 101 -297 -1 -2
-21 13 -43 32 -23 19 -44 35 -48 35 -12 0 91 -126 162 -197 52 -53 64 -69 45
-62 -47 18 -91 49 -122 87 -16 20 -30 33 -30 29 0 -13 93 -108 120 -122 14 -7
51 -20 81 -28 51 -13 58 -13 79 3 l23 18 -31 7 c-54 11 -159 160 -188 265 -37
133 -68 214 -100 262 -31 46 -34 54 -24 83 6 18 11 58 11 89 1 31 5 56 9 56 7
0 -4 54 -24 117 -6 18 -4 22 8 17 22 -8 20 4 -10 96 l-26 78 31 40 c122 151
95 412 -45 438 -27 5 -47 0 -85 -20 -28 -14 -52 -26 -53 -26 -1 0 -19 25 -41
56 -22 31 -50 69 -63 85 -27 33 -231 189 -280 214 -33 16 -33 16 -22 -5z
m-114 -64 c28 -7 64 -22 80 -32 l29 -19 -24 33 -23 33 37 -15 c20 -9 41 -14
45 -11 4 3 24 -13 44 -35 30 -34 36 -37 36 -19 0 11 -4 18 -9 15 -5 -3 -21 11
-36 32 l-26 37 30 -35 c17 -19 31 -30 31 -25 0 5 14 -4 30 -20 17 -16 30 -23
30 -16 0 11 3 11 16 0 8 -7 13 -21 11 -30 -4 -13 4 -21 28 -29 37 -12 70 -42
37 -33 -10 2 -34 0 -53 -5 -21 -6 -26 -11 -14 -11 44 -2 97 -24 131 -53 40
-35 39 -43 -2 -28 l-29 10 25 -20 c14 -11 21 -20 16 -20 -6 0 2 -12 16 -27 27
-30 48 -65 48 -82 0 -6 -21 3 -46 19 -64 40 -121 47 -211 25 l-74 -18 -67 24
c-97 35 -197 34 -274 -4 -112 -55 -172 -139 -174 -242 0 -44 -7 -73 -27 -112
-31 -60 -33 -71 -12 -53 23 19 27 7 10 -33 -20 -49 -20 -74 0 -57 13 11 15 8
15 -19 0 -17 3 -30 8 -30 22 4 22 -4 0 -33 -41 -56 -42 -60 -3 -39 41 22 79
19 48 -4 -31 -23 9 -37 52 -20 13 6 9 -2 -13 -22 -72 -69 -94 -189 -48 -267
13 -23 44 -57 69 -78 l44 -36 -19 55 c-28 87 -21 96 12 14 19 -50 44 -89 72
-118 23 -24 37 -43 30 -43 -14 0 -95 41 -130 66 -21 15 -22 15 -16 0 12 -31
-14 -15 -51 32 -28 35 -36 41 -31 22 7 -24 6 -23 -23 8 -31 33 -48 42 -35 20
4 -7 -6 -1 -23 15 -34 32 -40 33 -45 10 -6 -28 -65 40 -102 117 -29 62 -31 71
-31 185 0 111 2 124 27 172 25 47 42 65 94 101 17 11 17 11 -3 2 -36 -17 -36
-12 0 38 51 71 53 75 28 67 -18 -6 -16 2 20 72 23 43 62 107 86 143 l45 65
-82 -80 c-75 -73 -84 -78 -94 -61 -45 76 -74 110 -110 131 -56 33 -89 32 -116
-2 -19 -24 -22 -37 -18 -98 3 -41 14 -90 26 -119 27 -60 38 -56 16 5 -9 24
-17 75 -17 112 -2 57 1 71 17 83 31 22 38 17 21 -16 -20 -40 -19 -126 4 -175
23 -50 56 -81 105 -98 l37 -13 -21 -27 c-44 -56 -116 -19 -169 86 -29 57 -35
80 -39 151 -5 99 8 145 49 181 62 51 180 19 257 -71 44 -51 56 -51 22 1 -24
37 -25 45 -2 45 22 1 56 28 72 60 l13 24 -27 -17 c-43 -29 -30 -12 24 29 27
21 48 39 46 41 -2 2 -25 -6 -52 -17 l-49 -20 25 20 c14 11 41 30 60 41 l35 20
-30 -6 -30 -6 30 25 c34 29 123 66 163 67 24 1 23 2 -10 11 -28 7 -50 6 -90
-6 -68 -20 -74 -12 -12 16 59 26 161 36 195 18 l24 -13 -24 27 c-28 30 -25 31
45 12z m678 -280 c68 -28 97 -167 57 -280 -21 -60 -64 -126 -83 -126 -6 0 2
16 17 36 60 78 89 224 57 282 -22 38 -64 29 -110 -23 -46 -52 -65 -52 -83 2
-10 30 -9 39 8 62 18 23 76 61 96 61 4 0 22 -6 41 -14z m-612 -106 c29 -11 64
-29 77 -39 24 -18 25 -18 79 10 59 31 144 39 199 18 34 -13 80 -55 99 -91 21
-41 18 -121 -6 -149 l-20 -24 7 30 c19 74 -4 133 -60 156 -44 19 -122 15 -182
-9 -68 -26 -105 -25 -194 5 -62 21 -88 24 -139 19 -104 -9 -155 -55 -168 -150
-5 -36 -11 -46 -25 -46 -41 0 -51 77 -20 146 22 49 89 108 145 128 60 21 146
19 208 -4z m642 -30 c13 -44 -6 -132 -40 -183 -14 -21 -28 -36 -31 -33 -4 3 1
14 9 23 33 37 48 145 29 196 -6 14 -7 28 -3 31 12 13 27 -1 36 -34z m-1273
-79 c-17 -16 -31 -38 -31 -50 0 -38 23 -72 53 -78 18 -4 25 -9 19 -15 -29 -29
-92 39 -92 99 0 36 32 73 63 73 16 0 14 -5 -12 -29z m1149 -4 c0 -18 -2 -19
-10 -7 -13 20 -13 43 0 35 6 -3 10 -16 10 -28z m-556 -68 c14 -11 34 -35 42
-52 l16 -32 -35 38 c-43 45 -82 49 -151 12 -53 -28 -60 -16 -15 26 39 37 102
40 143 8z m176 1 c-6 -12 -21 -20 -35 -20 -35 0 -31 15 8 28 17 5 33 10 35 11
1 1 -2 -8 -8 -19z m172 -11 c30 -28 30 -30 6 -15 -15 9 -45 16 -67 16 -32 0
-44 -6 -65 -31 -29 -34 -34 -31 -10 7 19 27 59 53 86 54 10 0 32 -14 50 -31z
m232 -88 c40 -93 46 -122 20 -100 -15 12 -15 10 0 -25 18 -44 22 -81 6 -56
-14 22 -12 6 5 -37 16 -42 45 -160 44 -183 0 -8 -13 11 -29 42 -29 55 -62 94
-46 52 36 -89 30 -221 -16 -340 -20 -51 -23 -55 -26 -31 l-3 28 -29 -38 c-15
-21 -49 -58 -75 -83 -46 -45 -46 -45 -39 -15 3 17 20 68 36 115 18 51 31 108
31 142 1 43 4 52 10 35 5 -12 7 -53 4 -91 -4 -67 -4 -68 10 -36 22 55 15 185
-14 239 -13 24 -21 46 -18 49 10 11 66 -63 80 -107 l15 -46 -5 42 c-5 42 -49
148 -66 158 -4 3 3 16 16 29 27 27 49 95 39 121 -4 9 -1 20 6 25 9 6 8 13 -4
33 -12 18 -14 26 -5 29 9 3 9 9 0 25 -8 17 -8 33 1 67 7 25 13 44 14 43 2 -1
19 -40 38 -86z m-432 15 l-4 -54 46 -29 c41 -26 52 -28 101 -23 66 7 103 38
107 88 2 23 7 32 20 32 40 0 10 -119 -40 -157 -9 -7 -27 -13 -41 -12 -25 1
-25 1 6 15 47 20 49 34 3 18 -29 -10 -47 -11 -66 -4 -63 24 -12 -19 55 -46 14
-6 21 -13 15 -16 -19 -11 -72 13 -116 52 -26 22 -51 40 -58 40 -16 0 57 -73
76 -76 32 -5 94 -54 94 -75 0 -18 -5 -15 -45 18 -25 20 -45 41 -45 45 0 4 -6
5 -14 2 -8 -3 -17 -1 -21 5 -12 20 -52 12 -69 -14 -9 -14 -21 -23 -26 -20 -6
4 -10 1 -10 -4 0 -19 20 -12 45 17 l23 27 29 -21 c38 -28 55 -63 48 -99 -4
-28 -4 -29 10 -10 9 11 14 24 12 30 -22 58 -20 61 17 25 57 -54 88 -125 84
-195 -4 -85 -22 -95 -180 -106 -137 -8 -237 0 -291 26 -52 25 -107 81 -107
111 0 38 42 74 85 74 22 0 34 4 30 10 -3 6 -17 10 -30 10 -22 0 -23 2 -13 30
5 17 26 42 47 57 37 27 128 133 114 133 -4 0 -30 -16 -57 -35 -77 -55 -164
-46 -191 20 -21 50 -18 65 6 28 24 -38 81 -67 112 -57 41 12 102 46 128 70 23
22 27 23 39 9 7 -8 18 -32 26 -52 12 -36 13 -32 7 49 -7 97 -2 118 25 118 16
0 18 -6 14 -54z m-202 19 c0 -8 -7 -15 -15 -15 -8 0 -15 7 -15 15 0 8 7 15 15
15 8 0 15 -7 15 -15z m350 0 c0 -8 -4 -15 -10 -15 -5 0 -10 7 -10 15 0 8 5 15
10 15 6 0 10 -7 10 -15z m-453 -55 c28 -25 42 -30 84 -30 28 0 59 5 70 10 11
6 19 7 19 1 0 -13 -56 -31 -97 -31 -37 0 -88 22 -96 42 -3 7 -6 8 -6 2 -1 -16
37 -53 62 -58 12 -3 31 -7 42 -9 12 -3 7 -5 -12 -6 -44 -1 -76 15 -96 49 -17
28 -23 60 -11 60 4 0 22 -13 41 -30z m-119 -23 c-1 -47 21 -97 59 -138 l24
-26 -28 -8 c-26 -6 -27 -7 -9 -20 18 -13 17 -14 -8 -21 -36 -9 -74 18 -96 69
-10 24 -16 55 -14 72 3 17 6 42 8 58 3 27 30 56 53 57 8 0 12 -15 11 -43z
m282 33 c0 -17 -73 -32 -100 -21 -23 10 -22 10 10 6 21 -3 45 0 60 9 14 8 26
14 28 15 1 1 2 -3 2 -9z m352 -23 c-12 -13 -20 -26 -17 -29 3 -2 -22 -4 -55
-3 -81 2 -99 21 -20 20 48 0 64 4 82 22 29 29 38 20 10 -10z m127 -44 c15 -93
-2 -141 -56 -157 -20 -6 -23 -4 -23 19 0 14 11 47 24 73 13 26 27 66 31 90 4
24 9 42 10 40 2 -2 8 -31 14 -65z m-191 50 c-10 -2 -28 -2 -40 0 -13 2 -5 4
17 4 22 1 32 -1 23 -4z m-324 -125 c-9 -22 -85 -78 -104 -78 -30 0 -32 17 -2
23 15 3 36 13 47 22 l20 17 -20 -7 c-43 -16 -61 -16 -80 0 -19 14 -16 15 40
14 34 -1 70 3 80 9 25 14 25 14 19 0z m-725 -223 c-5 -25 -9 -61 -11 -80 l-2
-35 -31 28 c-16 15 -34 31 -40 36 -5 4 0 3 12 -3 12 -6 25 -16 28 -21 3 -6 11
-10 17 -10 7 0 0 13 -15 28 -15 15 -27 32 -27 38 0 6 64 60 76 64 1 0 -2 -20
-7 -45z m3025 -6 c60 -47 108 -148 121 -254 10 -79 -3 -99 -97 -146 -46 -23
-150 -86 -231 -140 -144 -96 -149 -99 -205 -99 -74 -1 -113 -19 -270 -127
-165 -115 -183 -126 -190 -118 -4 3 -2 9 4 13 6 4 20 14 33 23 l22 17 -31 60
-31 61 -44 -27 c-24 -15 -45 -32 -45 -38 0 -12 -40 -27 -48 -19 -3 3 0 11 6
18 7 8 9 17 5 21 -4 4 0 4 9 1 23 -9 109 50 102 70 -4 8 -11 12 -18 7 -6 -4
-50 -33 -98 -64 -48 -32 -102 -64 -119 -73 -26 -14 -30 -21 -25 -43 6 -25 5
-26 -8 -8 -8 10 -18 16 -23 14 -35 -18 -173 -104 -173 -108 0 -3 4 -11 9 -18
7 -11 16 -9 48 11 22 14 46 32 54 39 14 14 49 31 49 24 0 -2 -31 -25 -70 -51
-38 -27 -67 -53 -63 -58 3 -6 1 -7 -4 -4 -11 7 -93 -47 -93 -61 0 -4 4 -13 8
-19 6 -10 28 1 81 38 40 28 74 49 77 47 2 -3 -28 -26 -66 -52 -39 -27 -70 -53
-70 -60 0 -6 9 -26 21 -45 l21 -34 26 28 c16 18 27 24 30 16 2 -7 2 -14 1 -15
-23 -19 -222 -166 -244 -180 -16 -11 -34 -23 -40 -28 -16 -13 -81 -61 -205
-150 -63 -45 -170 -124 -237 -175 -139 -105 -121 -106 -182 15 -17 34 -34 62
-37 62 -3 0 -63 -35 -132 -78 -70 -43 -140 -86 -157 -96 l-30 -18 25 21 c14
11 85 57 158 102 95 58 132 86 128 96 -3 8 -6 18 -6 23 0 5 -68 -31 -151 -80
-120 -71 -156 -87 -170 -80 -31 17 -32 30 -2 30 33 0 133 46 246 113 73 44
482 327 555 384 20 16 32 21 30 12 -2 -8 -9 -19 -16 -24 -15 -12 -6 -45 12
-45 6 0 24 11 41 24 26 21 28 26 16 40 -8 9 -20 15 -28 12 -7 -3 -13 0 -13 7
0 11 17 23 125 86 22 13 60 38 85 56 25 18 128 83 230 144 289 175 365 224
397 256 16 17 49 43 74 60 24 16 68 49 98 74 62 52 53 57 124 -66 23 -40 48
-73 55 -73 6 0 12 3 12 6 0 11 -112 204 -122 210 -5 3 5 20 24 38 18 17 41 46
50 64 10 19 32 39 52 47 76 32 423 245 457 281 28 29 39 30 73 3z m-226 -33
c3 -23 0 -28 -13 -22 -9 3 -23 6 -31 6 -17 0 -19 36 -1 43 25 11 42 1 45 -27z
m-2338 -10 c-15 -40 -12 -161 4 -201 21 -50 9 -43 -14 8 -24 52 -26 133 -4
187 9 23 18 39 21 37 2 -2 -1 -16 -7 -31z m780 -15 c-1 -10 -6 -7 -15 9 -19
33 -18 50 0 26 8 -11 15 -27 15 -35z m-1297 -30 c39 -36 96 -120 113 -165 4
-10 -12 1 -35 25 -41 44 -42 44 -22 9 11 -19 38 -80 60 -134 72 -177 174 -331
323 -491 l73 -78 -86 5 c-132 7 -226 66 -284 178 -29 55 -31 42 -7 -37 24 -76
61 -130 113 -165 40 -27 53 -31 153 -43 l48 -7 -48 -22 c-60 -28 -115 -88
-139 -150 -13 -35 -22 -46 -34 -42 -9 3 -43 15 -76 27 -69 24 -190 35 -261 23
l-49 -8 84 -7 c121 -11 297 -71 308 -106 2 -6 -13 -17 -33 -23 -62 -21 -175
-7 -303 36 -109 37 -116 41 -135 78 -23 47 -26 143 -4 195 13 32 13 31 10 -40
-2 -41 1 -92 6 -114 l10 -40 1 50 c3 82 28 205 48 227 30 34 52 41 59 21 41
-119 116 -210 209 -254 33 -16 71 -29 84 -29 20 0 12 7 -35 35 -140 83 -204
213 -156 318 l17 39 0 -84 c0 -58 5 -92 17 -113 l16 -30 -5 60 c-4 47 2 92 31
210 40 170 52 272 38 330 l-10 40 -1 -52 c-1 -62 -29 -156 -64 -216 -26 -45
-149 -167 -168 -167 -6 0 -26 -12 -45 -26 l-34 -26 25 53 c13 30 27 74 31 99
l6 45 -38 -63 c-21 -34 -58 -83 -82 -109 -24 -25 -38 -42 -30 -37 11 6 10 5
-1 -9 -15 -18 -26 -23 -16 -7 11 17 -6 11 -36 -14 -28 -23 -28 -24 -8 -41 32
-30 21 -37 -18 -11 -55 36 -119 51 -178 41 l-50 -8 48 -8 c61 -10 131 -44 150
-73 19 -29 12 -30 -103 -9 -138 25 -241 4 -295 -58 l-20 -23 29 22 c44 34 129
55 184 47 l47 -7 -68 -19 c-58 -16 -147 -61 -147 -73 0 -2 22 6 48 19 158 76
286 72 366 -14 34 -36 30 -39 -16 -12 -18 10 -44 22 -58 26 -14 3 -2 -7 25
-23 28 -17 91 -69 140 -117 50 -48 109 -101 133 -117 57 -39 199 -104 259
-119 26 -7 100 -39 163 -71 114 -60 114 -60 177 -53 73 8 93 -2 93 -46 0 -46
-52 -81 -66 -44 -4 8 -16 15 -28 15 -22 0 -51 17 -110 64 -66 52 -49 20 38
-76 47 -51 86 -100 86 -108 0 -8 -9 -30 -20 -48 l-20 -33 -28 20 c-15 10 -40
33 -57 51 -36 38 -94 75 -102 66 -4 -4 28 -40 70 -82 42 -41 77 -81 77 -88 0
-6 -13 -27 -29 -46 l-30 -35 -40 45 c-22 25 -55 63 -75 85 -19 22 -38 37 -41
33 -12 -11 53 -107 119 -176 l61 -63 -25 -20 c-26 -20 -85 -26 -95 -10 -3 6 5
15 17 22 13 6 25 13 27 15 6 6 -72 69 -93 74 -12 3 -29 23 -39 43 -9 20 -20
37 -22 37 -3 0 -1 -9 5 -21 23 -41 1 -29 -67 38 -75 74 -121 153 -125 215 -2
21 -4 38 -5 38 -2 0 -21 -20 -44 -45 -104 -113 -326 -163 -512 -116 -138 36
-229 97 -271 184 l-26 52 2 -57 c3 -66 -5 -64 -46 12 -18 33 -30 74 -35 118
-6 60 -8 64 -15 35 -13 -57 -29 -39 -21 25 10 83 29 121 88 175 l52 48 -44
-27 c-53 -32 -125 -62 -100 -42 8 7 47 60 86 118 100 149 146 191 278 256 61
29 107 54 103 54 -15 0 -135 -48 -196 -79 -117 -59 -118 -58 -49 27 35 42 91
114 125 158 82 109 140 158 283 238 65 37 119 69 119 71 0 3 -24 -5 -52 -16
-29 -11 -73 -29 -98 -39 -25 -9 -54 -21 -65 -26 -40 -16 4 23 90 80 93 62 111
81 69 70 l-28 -7 24 34 c43 61 164 175 218 206 48 27 51 31 30 36 -22 6 -22 7
-3 21 33 25 63 19 108 -23z m637 -5 c14 -16 18 -25 10 -21 -31 18 34 -51 81
-86 65 -50 134 -71 226 -71 65 0 84 4 144 34 78 39 81 34 34 -47 -27 -47 -102
-132 -85 -97 7 13 9 26 6 29 -3 3 -15 -14 -26 -38 -18 -41 -20 -42 -20 -15 0
24 -2 27 -15 16 -11 -9 -19 -10 -28 -1 -11 8 -17 3 -31 -25 l-17 -36 -22 32
c-12 17 -38 41 -57 53 l-35 20 40 -43 40 -43 -50 33 c-131 87 -160 123 -200
241 -20 59 -33 116 -22 98 1 -2 13 -17 27 -33z m2078 -18 c16 -16 15 -31 -2
-25 -7 3 -18 1 -24 -5 -17 -17 -34 0 -22 23 12 22 30 25 48 7z m-2021 -28 c49
-38 129 -55 258 -54 99 0 130 4 175 22 66 26 66 26 49 6 -23 -27 -104 -63
-173 -74 -55 -10 -78 -9 -138 4 -76 17 -159 58 -192 95 -24 27 -12 27 21 1z
m-537 -82 c34 -31 62 -60 62 -65 0 -17 21 -34 28 -23 11 17 99 -92 166 -204
63 -106 192 -267 252 -316 20 -16 48 -39 62 -51 l25 -21 -31 21 -32 21 -26
-21 c-27 -21 -28 -21 -62 -3 -159 86 -328 302 -430 554 -26 63 -57 129 -70
147 -13 17 -24 38 -23 45 0 7 4 4 9 -8 4 -11 36 -46 70 -76z m2425 33 c3 -5 1
-12 -4 -15 -13 -8 -42 4 -35 15 7 12 31 12 39 0z m-5 -40 c0 -16 -28 -20 -40
-5 -10 12 -8 14 14 14 14 0 26 -4 26 -9z m-2130 -171 c0 8 21 -6 48 -31 26
-24 62 -55 79 -67 l33 -22 -10 26 c-6 15 -9 28 -7 30 7 7 143 -88 186 -129 38
-37 42 -39 36 -17 -4 14 -17 43 -28 65 -35 70 8 22 65 -73 28 -47 53 -81 55
-75 3 7 -1 22 -8 35 -8 16 0 12 29 -16 l40 -38 15 23 c8 13 20 33 26 44 9 16
10 13 5 -20 -18 -106 -79 -150 -242 -170 l-54 -7 -48 50 c-30 32 -56 70 -67
102 -17 47 -18 49 -23 24 -5 -26 -9 -22 -70 64 -67 94 -140 225 -140 251 0 9
16 0 40 -24 23 -22 40 -33 40 -25z m867 -112 c-4 -62 -14 -156 -22 -208 -19
-113 -93 -421 -104 -433 -10 -10 -79 23 -103 50 -16 18 -16 28 7 183 14 91 32
218 41 284 8 66 20 127 25 135 17 27 -3 -143 -50 -443 -24 -150 -24 -143 -11
-130 5 5 13 46 17 89 4 54 9 72 13 55 4 -14 6 7 6 47 0 54 4 76 17 91 9 10 14
21 11 25 -3 3 -3 29 1 56 5 40 11 51 25 51 11 0 20 10 25 27 5 21 8 24 15 13
10 -16 12 -15 28 23 11 26 10 28 -25 45 -19 9 -35 20 -34 25 0 4 1 21 1 39 0
24 3 29 12 20 9 -9 9 -18 -1 -39 -12 -26 -9 -25 28 11 l40 39 0 -78 c0 -75 -2
-80 -32 -109 -31 -30 -31 -30 -4 -12 l29 18 -5 -29 c-3 -15 -8 -45 -12 -65 -3
-21 -13 -42 -23 -47 -10 -6 -12 -11 -4 -11 15 0 16 -30 1 -30 -5 0 -8 3 -6 8
9 13 -52 7 -65 -7 -10 -10 -10 -12 0 -7 15 9 15 4 0 -29 -9 -19 -9 -28 0 -37
14 -14 16 -42 3 -33 -6 3 -10 -3 -10 -12 0 -10 -3 -31 -6 -48 -5 -26 -2 -32
24 -47 30 -17 41 -15 41 8 0 8 -6 11 -15 8 -20 -8 -48 15 -36 30 5 6 9 13 9
16 -2 15 15 50 25 50 8 0 8 -3 -1 -12 -17 -17 -15 -31 2 -25 10 4 16 -2 19
-16 2 -12 3 -7 1 11 -1 18 -15 47 -29 64 -24 29 -25 32 -10 54 11 17 12 24 4
24 -7 0 -10 2 -7 5 3 3 17 1 32 -5 25 -9 26 -12 22 -67 l-5 -58 14 60 c31 128
56 284 62 383 3 57 10 102 16 102 7 0 8 -40 4 -112z m-167 79 c0 -2 -10 -12
-22 -23 l-23 -19 19 23 c18 21 26 27 26 19z m1260 -6 c0 -5 -24 -23 -52 -39
-29 -17 -73 -43 -98 -58 -65 -39 -28 -5 60 55 76 52 90 58 90 42z m-166 -11
c30 -11 34 -40 9 -62 -24 -21 -134 -39 -150 -26 -19 16 -16 55 7 78 22 22 90
27 134 10z m894 -63 c2 -9 -4 -20 -13 -23 -20 -8 -50 19 -40 36 10 17 49 8 53
-13z m-1951 -114 c-2 -16 -4 -5 -4 22 0 28 2 40 4 28 2 -13 2 -35 0 -50z m25
32 c-2 -14 -6 -25 -8 -25 -2 0 -4 11 -4 25 0 14 4 25 9 25 4 0 6 -11 3 -25z
m48 21 c0 -3 -4 -8 -10 -11 -5 -3 -10 -1 -10 4 0 6 5 11 10 11 6 0 10 -2 10
-4z m930 -30 c0 -5 -19 -17 -320 -202 -188 -115 -282 -175 -510 -324 -45 -30
-215 -148 -360 -250 -91 -64 -181 -126 -200 -138 -34 -20 -36 -20 -47 -3 -7
10 -34 24 -61 31 -63 15 -124 0 -163 -39 -16 -16 -33 -25 -39 -21 -12 7 30 44
77 69 40 20 133 13 180 -13 24 -14 45 -21 48 -16 3 5 -16 21 -42 37 -39 22
-60 28 -108 28 -67 -1 -108 -18 -168 -71 -40 -37 -69 -47 -46 -16 64 85 132
122 224 122 66 0 133 -25 156 -57 13 -19 20 -16 141 70 71 50 126 92 124 95
-3 2 -55 -30 -115 -73 l-111 -76 -33 25 c-123 94 -292 65 -387 -66 -16 -21
-30 -44 -32 -50 -2 -6 -43 9 -93 34 -50 25 -137 60 -195 78 -109 33 -197 73
-240 108 -24 19 -20 19 75 -5 55 -13 143 -27 195 -30 146 -8 185 15 300 177
86 121 126 146 225 137 108 -8 229 -74 355 -194 l69 -64 68 49 c107 76 492
328 653 427 132 81 373 225 377 225 1 0 3 -2 3 -4z m755 -31 c0 -22 -31 -33
-47 -17 -17 17 -1 44 24 40 15 -2 23 -10 23 -23z m-161 -87 c8 -14 7 -21 -6
-34 -30 -30 -75 9 -48 42 16 18 39 15 54 -8z m-644 -98 c0 -5 -4 -10 -9 -10
-6 0 -13 5 -16 10 -3 6 1 10 9 10 9 0 16 -4 16 -10z m-7 -51 c93 -62 138 -110
162 -174 17 -42 17 -55 7 -118 -15 -85 -62 -178 -111 -216 -106 -84 -242 -114
-333 -74 -54 24 -74 63 -63 120 l8 38 7 -30 c15 -69 58 -106 122 -104 l33 1
-30 10 c-16 6 -42 22 -57 36 -23 21 -28 34 -28 71 0 55 15 85 29 61 43 -72 83
-112 96 -98 8 8 -33 74 -107 169 -32 42 -58 81 -58 87 0 6 10 17 22 23 19 10
25 8 52 -23 17 -19 67 -76 111 -126 44 -50 87 -101 96 -114 10 -13 20 -20 23
-17 17 16 -13 67 -93 158 -171 192 -188 221 -140 236 17 6 36 -7 96 -66 41
-41 107 -110 146 -154 39 -44 74 -81 79 -83 4 -2 8 6 8 18 0 14 -45 68 -130
156 -126 130 -148 165 -114 178 28 11 33 7 122 -77 48 -45 96 -89 106 -97 49
-38 -13 41 -106 134 -79 79 -96 101 -87 112 20 24 53 15 132 -37z m-1163 -41
c44 -23 45 -24 42 -68 -2 -25 -9 -51 -17 -59 -11 -11 -18 -9 -47 13 l-34 26 4
-31 4 -31 -70 36 c-76 38 -90 51 -67 60 22 8 18 29 -7 45 -22 14 -22 14 -3 22
44 17 149 10 195 -13z m825 -334 c-22 -20 -96 -77 -165 -127 -349 -254 -392
-288 -385 -305 22 -51 18 -63 -33 -115 -87 -90 -90 -174 -11 -298 75 -115 74
-186 -2 -273 -57 -64 -153 -111 -290 -141 -187 -41 -193 -46 -299 -211 -146
-227 -284 -314 -494 -314 -247 1 -460 165 -601 463 -87 184 -124 335 -132 550
-5 117 -4 137 9 137 12 0 16 -24 21 -132 8 -206 43 -344 138 -546 77 -166 162
-272 283 -355 167 -114 372 -122 544 -21 63 37 159 138 212 223 104 166 120
178 287 212 130 26 132 26 126 48 -4 15 3 20 34 25 59 11 118 43 157 86 59 66
60 142 3 227 -91 133 -88 255 7 341 41 37 42 42 21 82 -14 27 -13 29 14 52 66
55 582 427 591 427 3 0 -13 -16 -35 -35z m-50 -262 c-5 -6 -92 34 -99 46 -3 6
18 -1 48 -16 30 -14 53 -28 51 -30z m73 -36 c106 -1 111 -2 80 -15 -51 -22
-182 -18 -249 8 -31 12 -64 30 -73 39 -14 16 -6 15 57 -7 60 -21 91 -25 185
-25z m-1092 19 c18 -14 17 -14 -9 -5 -47 17 -92 12 -132 -15 -34 -24 -61 -27
-39 -5 39 39 143 53 180 25z m637 -171 c10 -20 20 -55 23 -78 6 -51 -9 -75
-97 -153 -64 -57 -52 -38 29 43 36 38 42 49 42 86 0 24 -9 62 -19 85 -18 38
-18 53 -1 53 3 0 14 -16 23 -36z m-543 -8 c0 -3 -57 -40 -127 -83 -153 -95
-161 -99 -148 -85 9 9 266 171 273 172 1 0 2 -2 2 -4z m315 -64 c-64 -122 -58
-205 25 -348 62 -107 52 -191 -31 -242 -49 -29 -101 -41 -232 -50 -107 -8
-122 -11 -160 -38 -27 -19 -60 -60 -94 -114 -29 -47 -71 -116 -95 -153 -115
-184 -305 -280 -491 -249 -313 53 -570 419 -618 883 -6 57 -8 123 -4 147 l6
42 69 0 c37 0 114 5 170 10 96 10 103 10 138 -11 66 -39 172 -112 172 -119 0
-11 -101 -71 -110 -65 -5 3 -25 33 -45 66 l-37 60 -31 -21 c-18 -12 -42 -26
-54 -32 -13 -6 -23 -15 -23 -20 0 -5 17 -40 38 -76 22 -37 63 -112 92 -167 29
-55 75 -137 102 -182 l49 -83 39 25 c22 14 44 25 49 25 5 0 14 6 20 14 8 10 5
27 -15 72 -15 33 -32 66 -39 74 -7 8 -29 46 -49 83 -32 59 -35 71 -24 85 12
15 11 16 -4 4 -15 -12 -19 -9 -33 18 -9 18 -15 33 -13 34 19 15 98 66 101 66
12 0 67 -92 61 -102 -4 -7 -3 -10 1 -5 8 7 85 -99 85 -117 0 -5 -8 -15 -17
-23 -16 -13 -16 -13 4 -3 20 9 25 5 56 -42 18 -29 44 -72 58 -95 13 -24 27
-43 32 -43 4 0 26 12 50 27 23 15 44 28 45 29 2 1 -14 33 -36 71 -23 38 -44
81 -47 95 -6 24 -4 26 37 32 49 7 101 36 119 64 11 18 15 18 76 -15 78 -40
144 -44 228 -12 67 25 155 103 185 163 11 24 23 73 27 110 5 62 9 69 42 95 33
25 151 101 158 101 2 0 -13 -31 -32 -68z m-320 -10 c-9 -8 -235 -147 -260
-160 -7 -3 -7 -1 0 6 11 12 256 162 264 162 3 0 1 -4 -4 -8z m13 -161 c-32
-65 -88 -101 -166 -108 -55 -5 -66 -3 -102 21 -53 35 -51 51 3 21 52 -31 107
-32 164 -4 64 31 92 74 106 161 l12 73 3 -59 c2 -45 -2 -69 -20 -105z m82 62
c-12 -73 -36 -117 -87 -163 -52 -45 -117 -70 -185 -70 -52 0 -125 30 -135 56
-4 11 -10 9 -29 -11 -25 -27 -39 -31 -49 -15 -3 5 12 27 34 48 39 37 41 38 41
15 0 -50 145 -82 224 -49 47 20 104 73 128 119 11 22 23 67 26 100 5 56 6 58
23 40 15 -15 16 -26 9 -70z m-406 21 c4 -32 2 -45 -12 -58 -18 -15 -20 -15
-36 3 -18 19 -17 21 3 47 12 15 21 36 21 47 0 34 17 6 24 -39z m820 33 c-2 -7
-25 -30 -49 -50 -32 -27 -48 -50 -56 -80 -11 -39 -12 -40 -20 -18 -13 34 7 68
71 118 63 48 61 47 54 30z m-375 -64 c0 -25 -1 -26 -9 -8 -8 19 -9 18 -9 -4
-1 -13 -4 -22 -7 -18 -9 9 5 57 16 57 6 0 10 -12 9 -27z m848 -27 c133 -36
228 -148 240 -286 6 -67 -13 -165 -64 -325 -78 -242 -181 -380 -378 -506 -76
-49 -106 -60 -210 -74 -58 -8 -120 -22 -138 -30 -29 -14 -30 -15 -5 -10 15 3
164 10 330 15 271 9 309 8 355 -6 63 -20 130 -75 150 -123 14 -33 14 -36 -7
-53 -33 -27 -47 -22 -69 21 -34 65 -129 130 -193 131 -35 0 -78 -20 -78 -36 0
-10 7 -9 29 3 26 16 31 16 74 -1 46 -17 107 -75 107 -101 0 -24 -30 -45 -66
-45 -29 0 -34 3 -34 23 0 27 -29 57 -80 82 l-35 17 33 -34 c17 -19 32 -42 32
-52 0 -18 -7 -19 -106 -13 -106 6 -154 22 -154 50 0 14 49 63 90 90 45 31 7
17 -120 -42 -155 -73 -224 -94 -316 -95 -58 -1 -76 3 -93 19 -40 35 -7 96 98
181 65 52 66 65 6 40 -21 -9 -44 -16 -53 -16 -17 0 44 51 106 87 23 14 42 26
42 28 0 2 -19 -3 -42 -10 -61 -17 -135 -28 -123 -17 6 5 54 42 108 82 53 40
97 74 97 76 0 3 -12 -2 -27 -10 -48 -24 -122 -56 -129 -56 -5 0 8 17 28 38 19
20 59 73 89 117 29 44 76 102 103 129 50 49 42 48 -37 -1 -33 -21 -37 -21 -28
-5 13 24 83 88 144 131 26 19 47 35 47 37 0 1 -17 -2 -37 -7 -62 -14 -61 -10
2 24 65 35 169 107 225 156 32 28 33 30 9 22 -15 -5 -63 -28 -108 -50 -44 -23
-83 -41 -87 -41 -6 0 70 61 125 100 18 13 50 29 70 37 35 14 35 14 -31 10
l-67 -5 56 72 c31 39 61 78 67 86 6 8 -31 -21 -82 -65 -51 -44 -114 -92 -140
-107 -41 -24 -238 -108 -252 -108 -3 0 45 53 107 117 62 64 111 118 109 121
-3 2 -43 -24 -91 -57 -73 -52 -86 -59 -91 -44 -16 49 -29 78 -50 109 l-24 34
43 31 c53 40 169 95 239 113 69 19 219 20 285 2z m-1360 -28 c28 -26 29 -42 3
-68 -24 -24 -62 -26 -80 -5 -10 12 -7 20 14 46 14 17 26 35 26 40 0 15 12 11
37 -13z m-232 -69 c36 -32 44 -49 23 -49 -14 0 -78 59 -78 72 0 16 20 7 55
-23z m692 -6 c-30 -57 -103 -107 -188 -129 -77 -20 -147 -8 -194 32 -33 28
-31 28 39 -5 59 -28 127 -25 202 8 58 26 130 84 139 112 4 11 9 18 12 16 2 -3
-2 -18 -10 -34z m-817 12 c-7 -9 -15 -13 -19 -10 -3 3 1 10 9 15 21 14 24 12
10 -5z m5 -52 c0 -17 42 -26 51 -11 7 11 24 10 24 -1 0 -5 -9 -13 -20 -16 -11
-3 -20 -14 -20 -23 0 -11 -9 -5 -29 18 -16 19 -26 41 -24 48 7 16 18 6 18 -15z
m42 21 c-3 -3 -12 -4 -19 -1 -8 3 -5 6 6 6 11 1 17 -2 13 -5z m278 -64 c12
-20 -15 -50 -46 -50 -37 0 -51 27 -24 46 22 16 61 18 70 4z m-483 -110 c71
-124 78 -140 68 -140 -6 0 -18 16 -27 34 -14 29 -19 33 -35 25 -12 -6 -18 -6
-18 1 0 5 7 10 15 10 9 0 12 6 9 15 -4 10 -14 14 -28 10 -18 -5 -19 -4 -4 5
10 6 15 17 11 26 -4 11 -9 12 -18 4 -9 -8 -15 -8 -20 0 -3 5 -1 10 4 10 6 0
11 7 11 16 0 11 -6 15 -19 11 -17 -4 -18 -2 -8 14 10 16 9 21 -2 28 -8 5 -10
14 -6 21 9 14 7 17 67 -90z m277 88 c-2 -2 -15 -13 -29 -25 l-26 -22 -13 21
c-11 18 -11 20 1 15 8 -3 21 -1 29 4 8 5 20 9 28 9 8 0 12 -1 10 -2z m88 -38
c7 -14 10 -26 8 -29 -8 -7 -33 19 -38 40 -7 27 15 19 30 -11z m-62 11 c3 -5 1
-12 -5 -16 -5 -3 -10 1 -10 9 0 18 6 21 15 7z m-35 -41 c-20 -13 -33 -13 -25
0 3 6 14 10 23 10 15 0 15 -2 2 -10z m59 -3 c-2 -1 -13 -9 -24 -17 -19 -14
-19 -14 -6 3 7 9 18 17 24 17 6 0 8 -1 6 -3z m-8 -47 c-26 -22 -37 -25 -46
-10 -3 5 0 7 7 5 8 -3 22 1 33 9 29 22 34 19 6 -4z m1032 -271 c-36 -23 -283
-127 -322 -135 -14 -3 46 26 134 63 88 38 169 74 180 81 34 20 42 13 8 -9z
m-23 -113 c0 -2 -16 -42 -36 -88 -48 -113 -86 -169 -158 -234 l-61 -55 -7 40
c-14 80 -63 139 -135 161 -70 21 -70 21 -43 32 14 5 92 30 174 55 81 25 171
56 200 68 51 24 66 28 66 21z m-372 -226 c77 -47 98 -161 43 -236 -57 -80
-120 -114 -241 -130 -43 -6 -49 -4 -69 22 -21 26 -22 37 -19 135 3 103 4 109
34 146 65 80 177 109 252 63z m-1309 1 c10 -7 6 -14 -19 -32 -70 -52 -108
-171 -80 -253 14 -45 62 -101 101 -122 45 -23 118 -18 160 10 37 25 69 78 69
113 0 10 -8 1 -19 -22 -23 -50 -70 -78 -132 -79 -135 -2 -208 187 -110 285 40
40 93 47 161 22 230 -87 284 -104 348 -114 87 -12 185 0 305 38 44 13 82 22
85 18 10 -9 -44 -107 -86 -155 -74 -87 -177 -135 -376 -175 -171 -35 -339 -35
-411 -1 -92 42 -137 117 -137 228 0 38 -4 66 -9 62 -5 -3 -9 5 -9 18 0 106 94
200 159 159z m2490 -280 c48 -25 71 -60 71 -108 l-1 -38 -18 35 c-27 50 -61
78 -127 105 l-59 25 48 0 c28 0 64 -8 86 -19z m-2674 -71 c5 -26 4 -32 -4 -24
-7 6 -14 28 -17 50 -6 47 10 27 21 -26z m1188 -29 c52 -25 141 -28 211 -7 l47
14 -14 -21 c-33 -50 -179 -64 -257 -25 -47 24 -90 77 -90 112 0 17 5 15 30
-16 16 -20 49 -46 73 -57z m1599 -68 c28 -25 22 -43 -12 -43 -34 0 -49 22 -30
45 16 19 19 19 42 -2z"/>
<path d="M2402 4300 c-56 -13 -46 -17 32 -12 43 3 88 0 107 -7 19 -6 29 -8 24
-3 -30 27 -101 37 -163 22z"/>
<path d="M2793 4260 c-32 -13 -29 -21 5 -10 56 18 58 18 37 19 -11 0 -30 -4
-42 -9z"/>
<path d="M2046 3749 c-46 -54 -66 -116 -65 -203 1 -111 15 -126 21 -21 4 80 9
100 45 178 23 48 40 87 38 87 -2 0 -19 -19 -39 -41z"/>
<path d="M2065 3587 c-16 -39 -19 -110 -5 -142 6 -14 9 -3 9 40 1 33 5 76 11
94 13 47 4 52 -15 8z"/>
<path d="M2222 3524 c-18 -14 -41 -42 -52 -62 -18 -34 -19 -35 -20 -12 l-1 25
-12 -23 c-12 -26 2 -99 27 -133 11 -17 13 -12 12 39 0 60 25 124 67 170 27 29
20 28 -21 -4z"/>
<path d="M2692 3740 c0 -14 2 -19 5 -12 2 6 2 18 0 25 -3 6 -5 1 -5 -13z"/>
<path d="M2608 3730 c-14 -10 -31 -33 -38 -50 -17 -42 3 -70 69 -93 33 -12 56
-27 66 -45 16 -26 16 -26 10 23 -5 35 -13 55 -28 67 -35 27 -58 30 -64 7 -8
-28 -33 -5 -33 31 0 38 32 64 67 56 27 -7 27 -7 8 8 -26 20 -28 20 -57 -4z"/>
<path d="M2761 3644 c-19 -16 -31 -35 -31 -50 0 -29 4 -30 46 -3 23 14 34 28
34 44 0 35 -15 38 -49 9z"/>
<path d="M2440 3485 c14 -8 34 -14 45 -14 13 0 8 5 -15 14 -46 18 -61 18 -30
0z"/>
<path d="M4741 3458 c-18 -21 -38 -38 -43 -38 -12 0 -130 -68 -218 -125 -36
-23 -93 -56 -127 -74 -39 -19 -68 -42 -77 -59 -8 -15 -23 -36 -35 -46 -19 -17
-29 -46 -16 -46 3 0 29 16 59 36 38 26 56 45 60 65 7 35 41 56 63 38 13 -12
13 -15 -6 -30 -11 -9 -17 -19 -14 -23 4 -3 2 -6 -3 -6 -6 0 -16 6 -23 13 -10
10 -11 9 -6 -4 4 -12 -8 -25 -44 -48 -51 -33 -77 -58 -69 -66 2 -2 22 7 44 21
l39 26 -39 -34 c-78 -68 -16 -46 123 45 78 51 192 124 253 164 104 67 143 80
136 46 -2 -8 -52 -44 -113 -81 -60 -36 -150 -91 -200 -122 -49 -32 -116 -71
-148 -86 -38 -19 -56 -34 -54 -44 2 -8 7 -14 13 -13 5 1 74 45 152 97 135 90
172 110 157 85 -21 -32 183 97 210 133 15 20 16 21 13 4 -3 -20 -202 -165
-227 -166 -13 0 -266 -144 -288 -164 -8 -7 -9 -16 -3 -25 9 -16 101 35 325
182 121 80 214 132 221 124 2 -2 -19 -17 -48 -32 -52 -29 -52 -29 -25 -38 30
-10 35 -28 12 -47 -21 -17 -70 3 -61 25 6 15 -19 22 -26 7 -1 -4 -37 -29 -78
-55 -41 -25 -85 -56 -98 -67 -26 -24 -31 -63 -6 -53 12 4 13 7 3 14 -16 10
-11 16 16 21 29 5 33 -37 5 -52 -18 -9 -25 -8 -41 6 -10 9 -19 23 -19 30 0 9
-15 3 -42 -15 -24 -16 -60 -37 -80 -47 -21 -10 -38 -21 -38 -26 0 -8 107 -3
160 8 14 3 47 19 74 37 41 26 46 32 30 38 -15 6 -14 7 7 6 14 0 38 8 55 20 50
35 183 114 223 132 l39 17 -37 119 c-36 119 -74 201 -95 208 -6 2 -26 -14 -45
-35z m43 -34 c28 -27 20 -52 -19 -60 -42 -8 -65 0 -65 22 0 14 3 14 15 4 20
-16 32 -5 16 14 -10 11 -8 17 6 25 24 14 29 14 47 -5z m-143 -90 c7 -8 21 -13
31 -11 10 3 18 4 18 2 0 -2 -46 -31 -102 -66 -57 -34 -132 -84 -168 -109 -79
-57 -95 -67 -87 -53 4 6 61 47 127 92 65 44 115 83 110 86 -6 3 -10 17 -10 30
0 40 55 60 81 29z"/>
<path d="M4776 3412 c2 -3 -1 -11 -7 -19 -8 -9 -8 -13 -1 -13 16 0 26 20 15
30 -6 4 -8 5 -7 2z"/>
<path d="M4590 3316 c0 -14 24 -29 33 -19 3 3 3 11 0 19 -7 18 -33 18 -33 0z"/>
<path d="M4580 3279 c0 -5 5 -7 10 -4 6 3 10 8 10 11 0 2 -4 4 -10 4 -5 0 -10
-5 -10 -11z"/>
<path d="M4760 3139 c0 -5 5 -7 10 -4 6 3 10 8 10 11 0 2 -4 4 -10 4 -5 0 -10
-5 -10 -11z"/>
<path d="M4117 2993 c-53 -38 -46 -49 12 -16 27 15 47 31 45 35 -8 13 -17 10
-57 -19z"/>
<path d="M4127 2964 c-35 -23 -42 -44 -14 -44 20 0 88 50 82 61 -9 14 -27 10
-68 -17z"/>
<path d="M4158 2930 c-33 -21 -46 -34 -42 -45 8 -20 20 -19 60 6 47 29 43 17
-6 -15 -37 -24 -39 -27 -29 -56 6 -16 15 -32 19 -35 5 -3 33 12 63 33 l54 38
-32 47 c-18 26 -34 49 -36 52 -3 2 -26 -9 -51 -25z"/>
<path d="M4003 2907 c-41 -30 -51 -56 -27 -64 16 -5 98 59 102 80 5 27 -28 20
-75 -16z"/>
<path d="M4035 2863 c-27 -19 -51 -36 -53 -37 -1 -2 12 -32 30 -68 l33 -66 52
39 53 39 -17 35 c-10 21 -22 34 -30 31 -10 -4 -10 -1 -1 14 10 16 10 22 -2 34
-13 12 -22 9 -65 -21z"/>
<path d="M3432 2524 c-36 -22 -41 -28 -32 -45 11 -19 12 -18 55 11 29 20 42
35 39 45 -8 20 -12 19 -62 -11z"/>
<path d="M3361 2476 c-8 -9 -9 -21 -4 -30 7 -12 11 -12 25 -2 15 11 15 16 5
30 -12 16 -14 16 -26 2z"/>
<path d="M3278 2425 c-40 -27 -47 -42 -24 -51 18 -7 98 45 93 60 -7 20 -32 17
-69 -9z"/>
<path d="M3377 2429 c-9 -6 -14 -15 -11 -21 4 -6 2 -8 -4 -4 -6 3 -31 -6 -55
-22 -44 -28 -47 -39 -21 -71 2 -2 20 10 41 26 55 43 62 46 56 24 -5 -20 19
-75 38 -87 8 -4 9 -3 5 4 -4 7 -4 12 1 12 4 0 16 7 26 14 18 14 18 16 1 48 -9
18 -22 36 -28 40 -6 4 -7 8 -3 8 4 0 3 9 -3 20 -12 23 -18 24 -43 9z"/>
<path d="M3183 2367 c-36 -24 -37 -26 -24 -46 8 -12 15 -11 45 10 34 22 44 49
21 55 -5 1 -25 -7 -42 -19z"/>
<path d="M3323 2324 l-33 -25 23 -40 c21 -38 37 -50 37 -28 0 5 4 8 9 5 4 -3
16 3 26 14 17 19 17 21 1 39 -9 10 -16 22 -15 27 3 17 -1 34 -8 34 -5 0 -23
-12 -40 -26z"/>
<path d="M3206 2317 c-25 -20 -27 -26 -17 -45 l12 -23 32 22 c18 13 34 24 35
25 8 6 -10 44 -21 44 -7 0 -25 -10 -41 -23z"/>
<path d="M3243 2268 c-39 -27 -39 -31 -12 -74 l21 -34 27 20 c16 11 31 17 35
13 18 -18 3 46 -17 70 l-22 28 -32 -23z"/>
<path d="M3125 2256 l-30 -24 32 -66 c34 -69 45 -78 62 -48 6 9 11 13 11 9 0
-4 9 -3 19 3 17 9 18 14 10 39 -15 43 -35 57 -56 40 -16 -12 -16 -11 0 8 15
17 16 25 7 42 -14 27 -18 26 -55 -3z"/>
<path d="M3006 2237 c-16 -13 -26 -29 -23 -34 5 -7 0 -9 -12 -6 -26 7 -80 -41
-64 -58 15 -15 174 87 166 107 -8 21 -34 17 -67 -9z"/>
<path d="M3037 2194 c-21 -14 -35 -29 -32 -34 3 -6 0 -8 -7 -5 -7 3 -26 -5
-42 -18 -25 -21 -27 -26 -17 -46 12 -21 14 -22 39 -6 l27 16 -24 -20 -23 -21
26 -34 c25 -33 46 -40 63 -21 4 4 2 5 -6 0 -10 -6 -12 -4 -7 4 5 7 14 10 22 7
16 -6 4 31 -28 82 -11 18 -18 36 -15 39 3 3 17 -18 31 -46 15 -28 29 -51 33
-51 4 0 18 10 32 23 22 19 23 19 11 2 -13 -18 -12 -18 9 1 22 21 22 22 6 55
-10 19 -22 37 -27 40 -5 3 -9 10 -9 15 1 15 -10 44 -17 44 -4 0 -24 -11 -45
-26z"/>
<path d="M2860 2132 c-14 -11 -19 -23 -14 -35 6 -16 8 -17 31 -2 14 9 27 14
31 11 3 -3 1 -6 -4 -6 -5 0 -17 -7 -27 -14 -18 -14 -18 -16 -2 -40 15 -22 20
-24 34 -14 14 12 14 11 2 -4 -7 -10 -9 -18 -4 -18 6 0 18 -16 29 -35 20 -38
46 -43 53 -10 5 26 -29 87 -45 81 -8 -3 -11 1 -7 10 4 11 -41 94 -52 94 -2 0
-13 -8 -25 -18z"/>
<path d="M2799 2093 c-11 -3 -15 -11 -12 -24 6 -22 23 -25 43 -6 8 6 7 2 -3
-9 -15 -18 -16 -26 -6 -48 7 -15 18 -25 25 -22 8 3 10 -3 6 -16 -4 -17 -2 -20
13 -14 14 5 15 4 7 -6 -7 -9 -6 -18 4 -32 12 -16 18 -18 39 -8 14 6 25 16 25
21 0 14 -104 164 -116 167 -5 1 -16 0 -25 -3z"/>
<path d="M2743 2044 c-3 -8 -1 -20 4 -25 12 -12 48 14 39 29 -10 17 -36 15
-43 -4z"/>
<path d="M2702 2028 c-16 -16 -15 -37 3 -44 8 -4 12 -10 9 -15 -6 -10 26 -69
38 -69 4 0 8 -6 8 -12 0 -7 12 -26 26 -43 14 -16 23 -25 20 -19 -3 7 1 15 9
18 14 5 13 11 -5 43 -11 21 -28 49 -37 63 l-17 25 26 -23 c15 -13 32 -37 38
-52 9 -22 18 -28 41 -28 31 1 31 0 -11 63 -14 22 -31 52 -38 68 -10 24 -14 26
-32 15 -11 -7 -20 -18 -20 -24 0 -6 -6 -11 -14 -11 -7 0 -11 7 -9 17 6 23 -20
43 -35 28z"/>
<path d="M2662 1991 c-14 -8 -6 -41 9 -41 14 0 23 30 13 40 -5 5 -15 6 -22 1z"/>
<path d="M2617 1962 c-24 -27 -12 -55 16 -41 21 11 21 10 5 -6 -15 -16 -15
-21 -2 -47 13 -25 17 -28 31 -16 15 12 15 11 3 -8 -10 -17 -9 -26 6 -56 16
-30 22 -34 41 -27 22 8 22 9 -23 106 -25 54 -49 101 -53 106 -4 4 -15 -1 -24
-11z"/>
<path d="M2677 1944 c-3 -3 3 -20 14 -37 10 -18 19 -38 19 -45 0 -18 39 -72
51 -72 24 0 18 35 -17 95 -35 60 -51 74 -67 59z"/>
<path d="M1800 3062 c0 -63 -54 -179 -125 -267 -52 -66 -50 -74 5 -15 63 68
116 172 125 245 4 31 5 59 1 62 -3 4 -6 -8 -6 -25z"/>
<path d="M1316 2525 c10 -8 24 -14 29 -14 6 0 1 6 -9 14 -11 8 -24 15 -30 15
-5 0 -1 -7 10 -15z"/>
<path d="M1160 2310 c1 -40 24 -108 47 -138 37 -49 114 -82 188 -81 l60 0 -60
18 c-113 33 -171 78 -211 166 -13 27 -24 43 -24 35z"/>
<path d="M994 2007 c3 -35 14 -75 30 -102 13 -25 20 -45 15 -45 -18 0 -73 32
-119 69 l-45 36 22 -31 c104 -146 348 -213 563 -153 66 18 167 65 158 74 -2 2
-34 -7 -73 -21 -77 -26 -194 -32 -274 -13 -110 25 -218 108 -262 202 l-20 42
5 -58z"/>
<path d="M1089 1982 c20 -37 111 -110 158 -126 107 -37 222 -29 313 21 25 13
36 21 25 18 -197 -62 -356 -40 -465 66 -23 22 -37 32 -31 21z"/>
<path d="M1938 3251 c9 -17 19 -26 20 -21 2 6 8 8 13 4 23 -14 6 7 -21 26
l-30 21 18 -30z"/>
<path d="M1960 3196 c0 -9 5 -16 11 -16 5 0 8 -4 5 -9 -3 -5 3 -20 14 -33 10
-14 27 -47 38 -74 23 -60 119 -194 139 -194 10 0 13 6 9 16 -3 9 -6 32 -6 51
0 20 -2 34 -5 31 -3 -3 -25 0 -48 7 -32 10 -42 17 -41 33 0 12 -4 20 -9 19 -6
-1 -20 24 -33 56 -12 31 -18 55 -13 51 5 -3 22 -8 37 -10 l27 -5 -22 21 c-13
11 -23 25 -23 30 0 6 -4 10 -10 10 -5 0 -7 -6 -4 -14 3 -9 -2 -13 -18 -11 -34
4 -34 4 -12 19 19 14 19 15 -1 22 -11 4 -23 9 -27 11 -5 2 -8 -3 -8 -11z m193
-248 c4 1 7 -12 7 -29 0 -37 -14 -30 -44 21 l-18 32 23 -13 c13 -7 27 -12 32
-11z"/>
<path d="M2073 3084 c-3 -8 0 -26 7 -40 13 -22 15 -23 31 -8 22 20 16 34 -11
27 -22 -6 -29 22 -7 30 9 4 9 6 -1 6 -7 1 -15 -6 -19 -15z"/>
<path d="M2119 3011 c7 -5 17 -15 22 -22 6 -10 9 -8 9 9 0 16 -6 22 -22 22
-17 0 -19 -3 -9 -9z"/>
<path d="M2197 2894 c-4 -4 -7 -11 -7 -15 0 -10 24 -5 28 6 4 12 -12 18 -21 9z"/>
<path d="M2200 2845 c-11 -13 -9 -20 10 -40 13 -13 27 -22 31 -19 5 3 9 -6 9
-20 0 -16 7 -27 21 -31 12 -4 32 -19 45 -34 17 -18 23 -22 24 -10 0 8 -6 21
-12 29 -11 12 -10 12 5 1 9 -8 21 -11 25 -7 4 4 0 13 -9 19 -8 7 -18 20 -22
31 -4 10 -13 16 -20 13 -17 -6 -100 35 -105 53 -3 9 2 7 11 -5 13 -16 17 -17
31 -6 9 7 16 19 16 25 0 7 -4 6 -9 -2 -7 -11 -9 -11 -14 2 -8 20 -21 20 -37 1z
m101 -103 c-13 -2 -27 0 -32 5 -6 6 3 7 23 4 28 -4 29 -6 9 -9z"/>
<path d="M2286 2797 c3 -10 9 -15 12 -12 3 3 0 11 -7 18 -10 9 -11 8 -5 -6z"/>
<path d="M2374 2685 c-8 -21 4 -35 32 -35 29 0 31 11 6 33 -23 21 -31 21 -38
2z"/>
<path d="M2950 2782 c0 -12 19 -26 26 -19 2 2 -2 10 -11 17 -9 8 -15 8 -15 2z"/>
<path d="M2940 2670 c-7 -14 -7 -20 0 -20 5 0 10 -7 10 -15 0 -8 5 -15 10 -15
6 0 10 7 10 15 0 8 -5 15 -12 15 -6 0 -3 9 7 20 16 18 16 20 2 20 -9 0 -21 -9
-27 -20z"/>
<path d="M2926 2531 c-3 -5 0 -11 8 -14 15 -6 26 1 26 15 0 11 -27 10 -34 -1z"/>
<path d="M2880 2482 c0 -4 14 -16 30 -25 17 -10 30 -22 30 -28 0 -14 -11 -11
-32 7 -16 16 -18 16 -24 0 -7 -19 12 -46 32 -46 15 0 34 30 34 54 0 9 -13 22
-30 31 -33 17 -40 18 -40 7z"/>
<path d="M1779 1423 c-13 -16 -12 -17 4 -4 16 13 21 21 13 21 -2 0 -10 -8 -17
-17z"/>
<path d="M1844 1214 c-18 -14 -18 -15 4 -4 12 6 22 13 22 15 0 8 -5 6 -26 -11z"/>
<path d="M3070 1459 l-35 -31 32 22 c29 19 50 40 41 40 -2 0 -19 -14 -38 -31z"/>
<path d="M3498 1200 c-47 -96 -123 -229 -167 -295 -45 -66 -88 -131 -97 -145
-9 -14 16 8 55 49 143 150 253 333 286 476 9 37 14 72 12 78 -2 6 -42 -68 -89
-163z"/>
<path d="M3533 731 c-69 -77 -142 -126 -250 -168 -81 -32 -84 -34 -41 -29 115
13 218 70 285 158 36 47 68 99 61 97 -2 0 -27 -26 -55 -58z"/>
<path d="M3203 611 c-114 -70 -129 -85 -37 -37 58 30 153 97 134 94 -3 0 -46
-26 -97 -57z"/>
<path d="M2505 588 c-60 -33 -74 -111 -29 -153 41 -38 97 -34 140 9 37 37 42
62 19 106 -25 48 -82 65 -130 38z m69 -44 c27 -10 37 -40 24 -69 -14 -30 -50
-42 -84 -26 -19 8 -24 18 -24 45 0 46 37 68 84 50z"/>
<path d="M1339 491 c-56 -56 -25 -141 52 -141 79 0 119 91 64 145 -34 35 -78
33 -116 -4z m92 -11 c30 -17 26 -75 -7 -97 -24 -15 -29 -15 -53 -2 -19 10 -27
24 -29 49 -5 51 39 76 89 50z"/>
<path d="M1073 4481 c-69 -25 -129 -68 -191 -135 -95 -105 -132 -228 -112
-374 6 -42 11 -77 13 -78 1 -1 2 59 2 134 0 133 1 138 29 187 71 121 203 213
337 235 167 29 351 -64 404 -203 26 -68 18 -194 -18 -263 -29 -57 -83 -109
-136 -131 -20 -9 -74 -18 -121 -21 -83 -5 -84 -5 -50 -18 120 -43 273 24 335
146 50 99 52 239 3 334 -30 58 -109 130 -185 168 -59 29 -77 33 -162 35 -75 3
-107 -1 -148 -16z"/>
<path d="M1090 4359 c-75 -41 -106 -73 -140 -144 -35 -74 -44 -141 -27 -220
l13 -59 -1 104 c0 93 3 112 26 161 34 72 87 124 163 160 34 16 52 29 41 29
-11 0 -45 -14 -75 -31z"/>
</g>
</svg>