<?xml version="1.0" standalone="no"?>
<!DOCTYPE svg PUBLIC "-//W3C//DTD SVG 20010904//EN"
 "http://www.w3.org/TR/2001/REC-SVG-20010904/DTD/svg10.dtd">
<svg version="1.0" xmlns="http://www.w3.org/2000/svg"
 width="512.000000pt" height="512.000000pt" viewBox="0 0 512.000000 512.000000"
 preserveAspectRatio="xMidYMid meet">
<metadata>
Created by potrace 1.16, written by Peter Selinger 2001-2019
</metadata>
<g transform="translate(0.000000,512.000000) scale(0.100000,-0.100000)"
fill="#000000" stroke="none">
<path d="M0 2560 l0 -2560 231 0 c216 0 231 1 224 18 -86 220 -95 445 -23 597
l19 40 -61 -60 c-79 -78 -133 -158 -160 -240 -18 -54 -21 -82 -17 -153 2 -48
8 -98 12 -111 6 -17 5 -22 -3 -17 -6 3 -16 32 -22 63 -24 116 10 253 96 383
78 120 347 357 434 385 11 4 20 11 20 17 0 23 -24 78 -35 79 -31 2 -50 9 -64
25 -9 9 -11 14 -5 10 7 -3 14 0 17 8 7 18 -3 56 -15 56 -5 0 -6 5 -3 10 3 6 0
10 -7 10 -10 0 -10 2 0 8 9 7 8 14 -8 32 -11 13 -18 29 -16 36 3 8 0 11 -8 8
-7 -3 -19 2 -26 11 -11 13 -10 15 3 9 12 -4 15 0 14 15 -1 13 -6 20 -14 17 -7
-3 -13 -1 -13 4 0 15 -43 104 -51 108 -5 2 -5 10 -2 19 5 12 3 14 -7 8 -10 -6
-12 -3 -8 13 4 12 2 25 -3 28 -5 3 -9 21 -9 40 0 19 -4 33 -9 30 -15 -10 -41
39 -29 55 7 11 11 11 15 2 7 -18 26 -16 20 1 -4 10 1 16 14 18 18 3 17 5 -10
21 -29 17 -30 17 -26 -3 2 -11 0 -18 -6 -15 -5 4 -9 12 -9 20 0 8 -7 11 -18 8
-16 -4 -19 1 -17 26 1 17 -1 28 -5 26 -4 -2 -7 9 -8 25 -1 47 -10 64 -39 82
-27 16 -31 15 -133 -34 -137 -65 -148 -69 -155 -58 -6 10 85 59 215 116 41 19
69 34 61 34 -11 0 -9 4 5 15 19 14 19 15 -3 21 -17 5 -23 14 -23 35 0 16 -4
29 -9 29 -4 0 -7 11 -6 25 2 14 0 25 -4 25 -4 0 -7 15 -8 33 -2 60 -3 68 -11
64 -4 -3 -5 19 -4 48 3 40 8 55 20 58 15 4 15 5 0 6 -10 0 -18 6 -18 12 0 5
-4 7 -10 4 -7 -4 -7 2 -1 18 6 14 8 27 6 29 -8 8 -12 107 -4 102 15 -9 10 19
-8 38 -9 10 -12 18 -7 18 14 0 16 62 3 80 -9 13 -10 12 -5 -3 4 -13 1 -17 -12
-15 -25 4 -41 40 -25 56 11 12 11 61 -1 81 -3 5 1 11 9 15 18 7 20 32 3 39
-10 4 -10 6 0 6 18 1 14 38 -8 69 -15 21 -18 34 -11 57 4 17 13 29 20 27 6 -1
11 2 11 6 0 4 16 14 36 21 24 9 33 16 26 23 -6 6 -7 22 -1 41 13 45 12 49 -10
38 -26 -15 -46 12 -42 55 2 33 -12 47 -22 22 -2 -7 -4 6 -3 29 0 24 4 43 9 43
4 0 7 15 7 33 0 24 -3 28 -10 17 -8 -13 -10 -12 -10 3 0 9 9 26 19 36 14 14
16 21 8 25 -9 3 -9 5 0 5 9 1 9 9 1 32 -9 26 -8 33 6 41 19 11 22 30 3 22 -8
-3 -14 2 -14 11 0 8 6 15 12 15 22 0 36 25 22 40 -10 10 -8 12 8 6 16 -6 18
-5 8 5 -20 20 -16 37 14 67 15 15 26 28 25 30 -9 11 2 32 17 32 10 0 22 7 25
16 9 24 7 31 -4 14 -7 -11 -10 -11 -10 -2 0 7 -5 10 -10 7 -6 -4 -7 -11 -4
-17 5 -7 2 -8 -5 -4 -7 5 -10 14 -8 20 3 7 -4 18 -15 25 -15 9 -17 16 -9 24 6
6 11 19 11 29 0 18 7 21 45 19 11 0 14 2 7 5 -6 3 -10 10 -7 15 4 5 -1 6 -9 3
-13 -5 -14 -1 -5 25 6 17 14 29 18 27 4 -3 7 4 7 15 0 10 -5 20 -11 20 -5 1 4
4 20 8 24 5 30 11 28 31 -1 14 3 38 9 53 8 22 16 27 31 23 15 -4 17 -2 8 7
-18 18 -13 43 12 55 12 6 17 11 10 11 -6 1 -9 10 -6 22 4 16 8 17 14 7 7 -10
9 -9 9 5 0 9 -4 17 -10 17 -21 0 -9 20 13 21 12 0 16 3 10 6 -21 8 -15 44 7
50 11 3 20 9 20 14 0 5 15 17 34 26 33 15 54 52 41 73 -4 6 -1 10 5 10 7 0 9
7 6 15 -4 10 3 19 18 25 13 5 27 14 31 20 3 5 10 8 15 5 4 -3 13 2 20 10 11
13 10 14 -4 9 -24 -9 -19 11 8 32 14 10 22 22 19 27 -3 6 -1 7 5 3 6 -4 19 6
29 21 26 41 121 132 129 124 4 -3 4 0 0 7 -9 15 12 45 25 36 12 -7 69 53 69
72 0 8 5 12 11 8 8 -5 8 -1 0 14 -9 17 -7 21 18 30 16 6 32 20 36 31 3 12 11
22 16 22 5 1 14 3 19 4 6 1 14 3 20 4 5 0 7 7 4 14 -3 8 14 22 47 36 38 18 48
26 38 33 -10 6 -2 8 24 6 20 -2 37 0 37 5 0 4 5 5 10 2 6 -4 8 -10 5 -15 -3
-4 1 -12 8 -18 17 -13 47 -11 47 4 0 8 -6 11 -16 7 -18 -7 -34 12 -34 42 0 15
2 17 9 6 5 -7 14 -10 20 -7 6 4 11 2 11 -3 0 -6 7 -11 15 -11 8 0 15 5 15 10
0 6 7 10 15 10 8 0 15 5 15 10 0 6 -4 10 -10 10 -5 0 -6 8 -3 17 4 11 8 12 11
5 5 -16 57 -15 74 2 8 8 23 15 33 17 10 2 17 9 16 14 -2 6 -7 9 -12 7 -6 -1
-5 7 1 18 12 22 21 26 17 8 -1 -7 5 -11 13 -9 38 10 70 8 70 -4 0 -8 -8 -16
-18 -19 -10 -4 -19 -13 -19 -21 0 -11 4 -12 14 -3 7 6 16 8 20 4 3 -3 2 -6 -4
-6 -6 0 -10 -6 -10 -12 1 -7 -5 -47 -12 -88 -21 -113 -10 -348 22 -470 42
-161 80 -247 147 -328 33 -41 60 -82 60 -91 0 -10 -31 -79 -68 -153 -42 -81
-73 -159 -81 -195 l-11 -60 -80 1 c-96 1 -105 -6 -121 -89 -15 -79 -7 -510 10
-546 18 -36 44 -49 117 -56 71 -7 80 -20 45 -64 -52 -67 -101 -225 -101 -325
0 -19 -14 -33 -58 -61 -83 -53 -221 -196 -287 -296 -92 -142 -195 -384 -230
-542 -9 -38 -25 -104 -36 -146 -10 -42 -23 -114 -28 -160 -5 -54 -16 -100 -31
-129 -28 -55 -38 -156 -20 -209 11 -35 10 -41 -14 -79 -14 -23 -26 -46 -26
-52 0 -5 -5 -10 -11 -10 -5 0 -7 -5 -4 -10 3 -6 2 -10 -3 -10 -10 0 -21 42
-25 92 -1 14 -5 24 -8 22 -4 -2 -9 3 -12 11 -4 9 -1 12 7 9 17 -7 27 8 17 24
-10 17 -143 -70 -196 -129 -96 -105 -128 -196 -129 -369 -1 -128 13 -210 54
-318 l18 -47 92 -3 c69 -3 95 0 101 10 7 10 9 10 9 1 0 -7 9 -13 19 -13 13 0
23 11 31 34 6 19 18 40 26 47 14 11 15 8 9 -34 l-7 -47 31 0 c26 0 34 6 51 41
21 40 21 40 1 30 -28 -15 -48 -14 -55 4 -4 10 17 28 72 60 42 26 68 44 57 41
-201 -55 -206 -54 -149 54 42 81 77 113 184 170 41 23 68 39 60 38 -8 -2 -70
-17 -138 -33 l-122 -29 -1 -56 c-1 -55 -1 -55 -14 -25 -8 17 -14 49 -15 72 0
38 4 45 38 67 66 44 120 58 270 67 79 5 151 13 160 18 23 13 -180 25 -278 17
l-79 -7 12 30 c12 32 25 36 127 43 33 3 31 4 -37 32 -93 37 -110 55 -93 96 18
43 92 105 147 124 52 18 118 20 178 6 36 -8 38 -7 21 5 -44 33 -150 59 -241
60 l-90 0 -3 47 c-3 42 1 51 34 87 46 52 79 53 178 7 215 -99 405 -280 394
-374 -3 -23 -7 -27 -32 -24 -16 2 -48 13 -70 24 -69 35 -178 68 -241 74 l-60
4 80 -25 c132 -41 236 -87 272 -118 67 -59 32 -63 -76 -8 -94 48 -199 81 -255
81 -40 -1 -39 -1 30 -24 97 -31 162 -69 224 -129 61 -60 96 -110 106 -150 l7
-29 -54 32 c-57 33 -99 53 -139 65 -20 7 -17 -1 24 -46 62 -69 96 -140 96
-201 0 -50 -14 -64 -26 -25 -11 37 -67 158 -70 154 -2 -2 7 -31 21 -66 30 -72
44 -174 26 -185 -7 -4 -26 3 -44 16 -18 14 -54 38 -82 54 l-49 28 56 -66 c32
-37 64 -81 73 -98 16 -31 49 -41 58 -17 4 9 6 9 6 0 1 -8 15 -13 37 -13 30 0
37 4 45 29 7 19 19 31 35 34 22 4 24 1 24 -29 l0 -34 50 0 c47 0 50 2 50 25 0
22 4 25 34 25 47 0 66 -9 66 -31 0 -17 8 -19 66 -19 l67 0 -27 25 c-48 45 -62
127 -27 159 18 17 21 15 67 -35 59 -62 161 -149 176 -149 6 0 -18 30 -53 68
-67 69 -129 152 -129 172 0 6 11 27 24 46 l24 35 25 -44 c29 -49 99 -117 147
-142 37 -19 152 -45 195 -44 l30 1 -30 7 c-16 5 -59 14 -95 20 -35 7 -77 19
-93 28 -70 36 -168 153 -167 200 1 10 6 28 14 41 12 22 13 22 27 6 8 -10 44
-37 81 -61 63 -41 67 -46 74 -89 3 -25 17 -58 29 -72 20 -23 30 -26 113 -30
l92 -4 34 34 34 34 6 184 c3 102 8 426 12 720 l6 535 26 49 26 48 -28 23 c-27
22 -28 25 -24 98 4 98 12 106 83 83 l55 -17 -2 -312 c-3 -310 -3 -312 -24
-315 -12 -2 -30 -12 -39 -22 -16 -17 -17 -69 -19 -649 -1 -499 2 -631 12 -631
9 0 12 131 12 623 0 697 -5 652 70 659 33 3 35 5 43 53 4 28 7 171 5 320 -3
250 -2 270 15 273 16 3 17 -17 17 -322 0 -324 0 -325 -22 -340 -12 -9 -39 -16
-59 -16 -20 0 -42 -6 -48 -14 -9 -11 -11 -141 -7 -513 3 -274 5 -549 5 -610 1
-74 5 -113 12 -113 7 0 8 168 3 578 -4 318 -4 595 0 615 6 34 9 37 42 37 19 0
43 4 52 9 16 8 17 -17 14 -372 -3 -379 -1 -427 18 -427 7 0 10 254 10 714 0
440 4 725 10 740 8 21 16 26 45 26 31 0 35 -3 35 -25 0 -20 -5 -25 -24 -25
-50 0 -56 -18 -56 -185 0 -153 0 -153 25 -172 25 -18 26 -21 35 -208 5 -105 9
-381 10 -615 l0 -425 -22 -10 c-22 -10 -23 -16 -26 -134 -3 -132 4 -158 13
-51 3 46 10 69 22 78 17 12 18 7 21 -68 2 -51 7 -80 14 -80 15 0 3 1167 -12
1185 -13 15 -12 315 1 315 5 0 9 -66 9 -160 0 -134 2 -160 15 -160 12 0 15
-39 20 -247 9 -463 21 -928 23 -930 1 -2 24 -3 51 -3 48 0 51 2 116 72 65 71
136 178 157 240 9 26 8 33 -7 45 -37 26 -100 16 -181 -29 -42 -24 -83 -53 -91
-65 -19 -29 -9 -73 22 -103 30 -28 72 -22 139 21 l48 30 -23 -33 c-42 -62 -94
-110 -151 -139 -32 -16 -60 -29 -63 -29 -3 0 -5 142 -5 316 l0 316 23 -6 c12
-3 40 -9 62 -13 l40 -7 -35 -6 -35 -5 -3 -76 c-2 -55 1 -79 11 -87 20 -17 98
-26 152 -18 43 7 48 11 92 76 25 38 50 67 55 64 14 -9 -1 -84 -27 -129 -20
-36 -21 -43 -8 -73 13 -31 11 -38 -22 -113 -40 -91 -81 -156 -133 -211 l-36
-38 89 0 c80 0 93 3 120 24 28 23 28 24 8 30 -35 11 -37 55 -9 140 26 75 73
163 83 153 2 -3 -1 -15 -7 -27 -6 -11 -10 -28 -8 -37 2 -12 18 -2 61 36 35 33
63 51 72 47 28 -10 14 -31 -51 -75 -83 -57 -99 -77 -42 -51 24 10 63 22 86 26
42 7 42 6 42 -24 0 -29 -2 -31 -29 -26 -65 13 -130 -62 -146 -169 l-7 -47 182
0 182 0 -6 87 c-3 49 -6 95 -7 103 0 8 3 44 7 80 l7 64 32 -37 c23 -27 36 -55
45 -100 14 -72 28 -103 64 -136 14 -14 26 -33 26 -43 0 -14 8 -18 38 -18 31 0
41 5 52 25 7 14 55 62 107 106 51 45 93 84 93 86 0 2 -45 -20 -99 -49 -96 -51
-101 -52 -118 -35 -14 14 -18 34 -18 93 l0 76 -13 -44 c-9 -30 -10 -57 -4 -91
l9 -48 -28 27 c-42 40 -44 58 -14 119 19 39 44 68 87 102 33 26 56 49 50 51
-11 3 -61 -14 -138 -48 -29 -13 -59 -20 -69 -16 -39 14 16 106 109 183 28 23
62 51 76 63 l25 21 -35 -17 c-53 -26 -142 -83 -172 -112 -42 -38 -43 -21 -2
26 63 74 225 148 377 172 84 14 180 9 203 -11 25 -20 54 -85 61 -134 l6 -45
-56 0 c-31 0 -80 -5 -109 -12 l-53 -12 63 -7 c130 -16 252 -73 252 -118 0 -10
-24 -41 -54 -69 l-54 -51 48 -31 c50 -32 80 -68 80 -94 0 -12 -5 -14 -26 -6
-36 14 -36 14 -18 -28 9 -20 18 -43 21 -50 3 -7 -11 -3 -33 10 -54 32 -186 32
-256 0 -59 -26 -62 -34 -5 -17 61 18 191 29 182 16 -3 -6 -23 -11 -43 -12 -20
0 -46 -4 -57 -9 -11 -5 177 -9 438 -9 l457 -1 0 1946 0 1945 -122 -65 c-68
-36 -182 -96 -255 -133 l-132 -69 28 -17 c16 -9 37 -17 46 -17 10 0 13 -5 9
-12 -5 -8 -2 -9 9 -5 9 3 19 2 22 -3 4 -6 1 -10 -6 -10 -6 0 -1 -9 12 -19 21
-17 22 -19 5 -18 -10 1 -21 -5 -23 -13 -3 -11 -2 -12 5 -2 13 18 42 4 42 -22
0 -11 3 -32 7 -45 6 -23 7 -23 14 -5 5 13 8 5 8 -27 1 -25 6 -60 12 -77 11
-33 -4 -76 -44 -120 -11 -12 -17 -22 -12 -22 5 0 0 -7 -11 -15 -19 -14 -19
-14 1 -9 11 3 27 20 35 37 19 41 68 49 99 18 17 -17 25 -19 47 -11 23 9 25 9
15 -4 -7 -9 -21 -18 -31 -21 -11 -3 -22 -15 -25 -26 -10 -32 -41 -42 -76 -25
-30 15 -86 8 -61 -8 7 -4 12 -4 12 -1 0 4 7 -1 16 -10 9 -9 21 -14 28 -12 6 2
16 -6 21 -17 6 -12 18 -21 26 -21 9 0 23 -8 33 -17 13 -14 15 -22 6 -38 -6
-12 -7 -20 -1 -20 6 0 6 -11 1 -28 -4 -17 -3 -36 2 -47 8 -14 8 -16 -2 -10
-10 6 -12 4 -7 -8 3 -9 1 -18 -6 -21 -7 -2 -2 -5 11 -5 18 -1 22 -7 22 -31 0
-23 -4 -30 -20 -30 -11 0 -20 -4 -20 -9 0 -5 10 -7 22 -4 13 3 19 1 13 -4 -5
-4 -11 -23 -11 -40 -2 -30 5 -38 29 -34 5 1 7 -4 4 -11 -2 -7 -10 -12 -16 -11
-6 2 -11 -2 -11 -7 0 -6 4 -10 8 -10 4 0 9 -17 10 -37 2 -28 0 -34 -8 -23 -15
23 -12 -4 4 -34 8 -15 11 -37 8 -49 -5 -18 -8 -14 -13 18 -5 30 -7 33 -8 13 0
-16 -6 -28 -13 -28 -6 0 -9 -3 -5 -6 3 -4 0 -13 -8 -21 -22 -21 -18 -30 14
-36 23 -5 30 -12 33 -37 3 -16 1 -30 -4 -30 -5 0 -7 -4 -4 -8 8 -13 -40 -36
-59 -29 -22 9 -30 36 -16 58 6 11 7 19 1 19 -20 0 -22 -49 -2 -77 10 -15 17
-34 15 -41 -3 -6 6 -16 19 -21 13 -6 17 -10 8 -11 -10 -1 -7 -4 7 -10 18 -8
20 -13 13 -44 -9 -41 -2 -53 16 -28 7 9 14 12 14 6 0 -6 -7 -17 -15 -24 -8 -7
-15 -9 -15 -4 0 5 -5 1 -11 -9 -6 -9 -14 -15 -20 -12 -5 4 -9 2 -9 -4 0 -5 -3
-17 -6 -25 -4 -12 -2 -15 9 -10 8 3 18 1 22 -5 3 -7 -3 -11 -15 -11 -12 0 -18
-4 -15 -10 3 -5 -1 -23 -10 -40 -9 -17 -18 -44 -20 -60 -2 -16 -6 -37 -9 -47
-14 -46 -22 -143 -12 -147 7 -3 6 -5 -2 -5 -7 -1 -10 -5 -7 -11 3 -5 1 -10 -4
-10 -6 0 -11 -5 -11 -11 0 -5 4 -7 10 -4 15 9 12 -27 -4 -47 -7 -10 -19 -18
-27 -19 -8 0 -5 -4 6 -9 20 -8 20 -9 -1 -9 -16 -1 -21 -7 -19 -25 2 -14 6 -29
9 -34 3 -5 -10 -27 -29 -48 -37 -41 -43 -59 -22 -67 7 -4 6 -6 -4 -6 -13 -1
-16 -9 -12 -37 3 -25 1 -34 -6 -30 -7 4 -11 -1 -11 -12 0 -11 -6 -25 -14 -31
-7 -6 -11 -22 -8 -36 3 -18 0 -25 -11 -25 -8 0 -25 -16 -36 -36 -15 -24 -17
-35 -8 -31 7 3 14 -1 14 -8 0 -7 -8 -10 -17 -8 -11 3 -20 -3 -25 -19 -12 -36
-13 -58 -3 -58 18 0 -28 -49 -47 -50 l-20 -1 20 -9 c19 -8 19 -9 -4 -9 -16 -1
-21 -6 -18 -15 3 -8 -1 -17 -9 -20 -9 -3 -12 -10 -9 -16 3 -5 2 -10 -4 -10 -5
0 -8 -10 -6 -22 3 -13 -3 -31 -15 -43 -46 -48 -60 -66 -60 -76 0 -11 -41 -9
-41 3 0 4 -13 21 -29 38 -33 35 -68 103 -72 140 -2 14 -6 27 -10 30 -12 9 -12
194 0 217 10 17 9 34 -3 79 -8 31 -12 61 -9 65 6 11 -38 107 -76 164 -15 22
-69 121 -120 220 -135 262 -195 342 -348 467 l-74 61 5 52 c7 65 -6 133 -38
202 l-24 53 44 44 c47 47 75 117 75 187 0 49 15 87 43 109 21 17 22 26 22 155
0 116 -3 138 -17 149 -9 7 -19 28 -23 48 -10 55 -26 69 -78 75 -39 5 -47 10
-56 33 -6 20 -19 30 -40 35 -23 5 -32 14 -42 43 -18 56 -87 190 -131 255 l-40
58 94 97 c168 173 269 351 304 532 19 99 18 252 -1 318 -53 178 -226 186 -405
18 l-55 -51 45 49 c51 55 135 113 228 157 64 31 86 32 152 7 l24 -9 -23 -12
c-21 -11 -28 -36 -9 -30 5 2 8 -2 8 -8 0 -5 6 -7 13 -3 8 5 7 2 -2 -9 -12 -15
-12 -17 1 -12 9 4 18 -1 21 -9 4 -9 14 -16 22 -16 9 0 13 -4 10 -10 -3 -5 -1
-10 4 -10 6 0 11 7 11 16 0 12 5 11 20 -7 10 -13 19 -19 20 -12 0 6 8 10 18 8
9 -2 20 -4 25 -4 17 -2 5 -32 -15 -41 l-23 -9 23 0 c12 -1 22 4 22 9 0 6 16
10 36 10 32 0 35 -2 24 -16 -8 -8 -9 -14 -4 -13 5 1 16 1 24 -1 11 -1 9 -4 -5
-10 -19 -8 -19 -9 2 -9 12 -1 24 5 26 12 3 7 6 5 6 -5 1 -9 -6 -21 -15 -26
-14 -8 -12 -11 12 -17 16 -4 45 -8 64 -7 19 0 27 -2 18 -4 -31 -9 -20 -24 12
-17 31 6 70 -17 70 -40 0 -6 -7 -2 -16 9 -15 18 -15 18 -5 -2 6 -12 7 -25 3
-29 -4 -3 -2 -6 3 -5 21 5 36 0 30 -10 -3 -5 -1 -10 5 -10 7 0 10 -7 7 -14 -4
-10 -1 -13 9 -9 9 3 14 -1 14 -12 0 -11 -5 -15 -15 -11 -8 3 -15 3 -15 1 0 -7
73 -38 83 -36 5 1 6 -2 3 -7 -3 -5 3 -18 13 -28 9 -11 16 -25 13 -32 -5 -15 9
-16 26 -2 9 7 9 7 2 -2 -16 -20 -11 -32 7 -17 15 13 16 12 11 -8 -4 -13 -2
-26 3 -29 5 -3 6 -10 3 -16 -4 -7 -2 -8 4 -4 6 4 20 -1 32 -11 11 -10 25 -19
30 -19 6 -1 15 -2 21 -3 6 0 9 -10 6 -20 -4 -16 1 -20 27 -23 23 -2 32 -8 34
-25 4 -29 -24 -31 -31 -3 -3 11 -13 20 -23 20 -16 0 -16 -1 2 -15 13 -10 15
-14 5 -15 -10 0 -9 -5 5 -17 11 -10 19 -28 18 -41 -1 -15 3 -21 11 -18 13 5
35 -12 35 -27 0 -4 -5 -5 -12 -1 -7 4 -8 3 -4 -4 4 -6 14 -8 23 -5 12 5 15 2
10 -10 -3 -9 -3 -16 1 -16 19 3 25 -2 12 -11 -12 -8 -10 -10 10 -10 20 0 22
-2 10 -10 -10 -6 3 -7 39 -3 43 5 53 4 46 -7 -4 -7 12 1 36 18 24 17 143 100
264 185 l220 153 3 312 2 312 -919 0 c-685 0 -922 -3 -927 -12 -5 -7 -3 -8 6
-3 10 6 11 2 6 -20 -6 -23 -4 -27 10 -21 9 3 23 1 31 -6 10 -8 17 -8 21 -1 5
7 18 6 42 -3 27 -10 30 -13 13 -13 -15 -1 -23 -7 -23 -18 0 -10 4 -14 8 -8 7
10 32 19 32 11 0 -8 -71 -46 -86 -46 -8 0 -14 -5 -14 -11 0 -7 -27 -39 -60
-71 -86 -86 -175 -209 -249 -345 -36 -65 -65 -119 -66 -121 -1 -1 -42 9 -90
23 -146 42 -317 33 -495 -26 -36 -11 -76 -27 -90 -34 l-24 -13 -37 112 c-63
190 -87 233 -242 436 -51 67 -60 114 -25 123 10 3 16 1 12 -4 -3 -5 2 -6 10
-3 9 3 16 10 16 15 0 5 12 9 26 9 14 0 23 4 19 10 -3 6 0 10 8 10 8 0 20 7 27
15 11 13 -104 15 -1024 15 l-1036 0 0 -2560z m3597 2524 c-3 -3 -12 -4 -19 -1
-8 3 -5 6 6 6 11 1 17 -2 13 -5z m-1974 -21 c-7 -2 -19 -2 -25 0 -7 3 -2 5 12
5 14 0 19 -2 13 -5z m132 -39 c45 -21 205 -147 205 -161 0 -3 -21 13 -47 35
-64 53 -103 71 -171 81 -31 5 -46 9 -32 11 14 1 19 4 12 7 -6 2 -9 10 -5 16 4
7 0 8 -11 4 -11 -4 -15 -3 -11 4 4 6 -2 13 -14 16 -12 3 -21 10 -21 15 0 12
31 3 95 -28z m113 -9 c-3 -3 -9 2 -12 12 -6 14 -5 15 5 6 7 -7 10 -15 7 -18z
m42 21 c0 -2 -7 -6 -15 -10 -8 -3 -15 -1 -15 4 0 6 7 10 15 10 8 0 15 -2 15
-4z m-114 -112 c44 -21 154 -122 198 -183 20 -27 51 -79 70 -117 39 -80 106
-270 107 -305 0 -22 1 -22 8 -4 13 31 34 -59 28 -118 -4 -48 -4 -48 22 -43 25
6 25 6 6 -9 -11 -9 -49 -35 -84 -58 l-63 -41 -18 21 c-14 18 -18 50 -23 190
-3 125 -10 188 -26 246 -38 143 -127 285 -231 367 -53 42 -90 52 -127 34 l-28
-14 28 25 c33 29 82 33 133 9z m2629 -6 c15 -14 28 -38 31 -59 5 -30 2 -41
-22 -68 -41 -44 -82 -50 -121 -17 -18 15 -34 40 -38 56 -7 32 15 83 42 99 31
18 80 12 108 -11z m-841 -23 c92 -85 80 -354 -25 -583 -52 -114 -110 -191
-218 -294 -64 -61 -93 -96 -97 -117 -8 -41 -20 -39 -34 4 -6 19 -16 38 -22 42
-8 4 -9 0 -4 -13 7 -18 6 -18 -9 -3 -28 27 -2 56 89 99 141 67 233 191 307
411 26 77 33 115 37 211 4 115 4 117 -21 142 -17 17 -37 26 -58 26 -43 0 -125
-43 -178 -93 -26 -25 -39 -33 -32 -20 14 28 87 91 128 111 25 12 30 18 22 29
-28 33 -167 -92 -234 -211 -59 -107 -85 -182 -131 -386 -25 -107 -48 -198 -53
-203 -4 -4 -20 10 -36 33 -29 41 -46 49 -25 11 18 -34 -5 -24 -44 19 -42 47
-45 72 -15 150 34 91 124 271 168 337 60 89 237 254 313 292 78 39 134 41 172
6z m-1771 -74 c23 -22 62 -74 86 -116 43 -75 102 -229 100 -263 0 -9 -11 15
-23 53 -34 102 -61 160 -111 236 -72 107 -121 125 -159 59 -18 -30 -22 -56
-24 -173 -4 -148 6 -227 42 -343 31 -95 16 -86 -22 14 -41 105 -56 208 -50
344 5 122 24 187 61 213 33 23 54 18 100 -24z m2162 -11 c3 -5 1 -10 -4 -10
-6 0 -11 5 -11 10 0 6 2 10 4 10 3 0 8 -4 11 -10z m-398 -60 c17 -33 16 -119
-2 -205 -18 -86 -100 -253 -155 -318 -41 -46 -125 -105 -137 -94 -3 3 2 28 11
54 l15 48 -30 -35 c-17 -19 -51 -62 -75 -95 -24 -32 -44 -54 -44 -47 0 6 13
53 29 104 16 51 41 131 55 178 33 111 69 166 178 272 50 49 87 88 84 88 -12 0
-90 -42 -136 -73 -25 -17 -72 -56 -104 -86 l-59 -56 24 44 c13 24 57 79 97
122 113 119 218 161 249 99z m-1774 -20 c74 -65 143 -199 161 -310 l6 -35 -21
25 c-17 21 -20 21 -14 5 21 -62 45 -175 44 -210 l-1 -40 -28 60 c-42 87 -39
36 5 -105 39 -125 41 -142 20 -160 -13 -11 -20 -9 -39 9 l-24 22 11 -40 c10
-38 9 -43 -18 -71 -36 -38 -45 -38 -45 1 0 22 5 32 20 36 28 7 12 33 -51 79
-29 21 -69 64 -91 98 -39 61 -91 206 -102 286 l-6 45 18 -55 c47 -140 109
-235 194 -296 29 -20 68 -51 86 -68 l32 -30 0 35 c0 61 -60 213 -77 196 -3 -3
0 -22 7 -42 7 -20 10 -39 7 -42 -10 -9 -99 112 -133 181 -48 100 -67 196 -62
319 4 102 17 147 42 147 7 0 34 -18 59 -40z m-920 5 c1 -5 -6 -11 -15 -13 -11
-2 -18 3 -18 13 0 17 30 18 33 0z m3887 -30 c0 -19 -20 -29 -32 -17 -15 15 -2
43 17 36 8 -3 15 -12 15 -19z m-3163 -107 c-3 -7 -5 -2 -5 12 0 14 2 19 5 13
2 -7 2 -19 0 -25z m3211 -5 c5 -17 -26 -29 -40 -15 -6 6 -7 15 -3 22 9 14 37
9 43 -7z m-4346 -18 c0 -5 -5 -11 -11 -13 -6 -2 -11 4 -11 13 0 9 5 15 11 13
6 -2 11 -8 11 -13z m428 -39 c0 -2 -7 -7 -16 -10 -8 -3 -12 -2 -9 4 6 10 25
14 25 6z m717 -38 c-3 -8 -6 -5 -6 6 -1 11 2 17 5 13 3 -3 4 -12 1 -19z m10
-60 c-3 -7 -5 -2 -5 12 0 14 2 19 5 13 2 -7 2 -19 0 -25z m2714 -15 c13 -16
12 -17 -3 -4 -17 13 -22 21 -14 21 2 0 10 -8 17 -17z m-2334 -35 c-3 -7 -5 -2
-5 12 0 14 2 19 5 13 2 -7 2 -19 0 -25z m754 -227 c157 -49 335 -214 390 -359
12 -32 10 -30 -64 70 -58 76 -131 140 -197 173 -27 13 -18 1 43 -56 98 -90
232 -265 210 -273 -9 -4 -35 12 -66 40 -43 39 -127 92 -127 81 0 -2 24 -20 53
-40 30 -21 64 -48 76 -61 21 -22 22 -27 10 -60 -7 -20 -16 -36 -20 -36 -3 0
-53 22 -110 49 -186 89 -313 118 -464 108 -113 -8 -214 -36 -333 -92 -96 -46
-214 -81 -231 -70 -6 3 -16 23 -22 44 -10 32 -8 45 12 92 68 163 224 308 399
373 136 50 313 57 441 17z m-2456 -86 c31 -31 31 -49 0 -80 -29 -30 -35 -31
-69 -4 -33 26 -35 71 -4 93 31 22 45 20 73 -9z m1522 -312 c-3 -10 -22 -56
-42 -103 -20 -47 -40 -95 -45 -107 -10 -24 -40 -32 -40 -12 0 19 114 239 124
239 4 0 6 -8 3 -17z m1543 -91 c34 -71 48 -122 33 -122 -6 0 -21 28 -33 63
-12 34 -33 83 -46 109 -13 26 -24 51 -24 55 1 16 41 -44 70 -105z m-1540 -21
c-58 -123 -79 -192 -82 -266 -1 -46 -2 -47 -5 -11 -3 22 1 68 7 104 16 91 110
305 127 288 3 -3 -18 -55 -47 -115z m1490 17 c26 -57 54 -130 61 -163 16 -74
16 -458 0 -495 -8 -19 -9 -11 -4 40 4 36 7 133 7 215 0 177 -11 227 -84 384
-54 116 -55 121 -39 121 5 0 32 -46 59 -102z m-610 66 c6 -6 2 -32 -13 -79
-22 -69 -45 -99 -125 -166 -28 -23 -32 -33 -32 -76 0 -79 24 -143 70 -188 23
-22 51 -57 62 -77 12 -21 45 -53 75 -73 55 -36 97 -90 108 -137 7 -28 7 -28
-46 -29 l-54 -1 47 -8 c61 -11 68 -16 68 -50 0 -38 -13 -44 -52 -24 l-32 17
38 -36 c21 -20 57 -48 80 -61 48 -30 86 -61 86 -72 0 -4 -10 2 -22 13 -13 11
-52 37 -88 59 -36 21 -80 51 -98 66 -52 44 -52 31 1 -15 26 -24 47 -46 47 -50
0 -4 33 -39 73 -78 l72 -71 -73 63 c-40 35 -82 64 -92 64 -10 0 -29 10 -42 21
-12 12 -34 27 -48 34 -20 10 -17 4 14 -28 22 -23 43 -39 46 -37 4 3 14 -3 21
-13 11 -14 11 -15 0 -5 -10 8 -21 8 -47 -3 -99 -42 -254 22 -254 104 0 42 35
89 95 127 53 34 75 60 75 86 0 10 -3 10 -11 2 -8 -8 -20 -7 -45 3 -19 8 -40
12 -46 8 -18 -11 -238 -10 -242 1 -2 6 -7 2 -11 -8 -13 -32 3 -61 48 -85 68
-36 111 -85 111 -127 0 -44 -30 -76 -97 -105 -42 -18 -63 -21 -114 -17 -35 4
-63 3 -63 -1 0 -4 -11 -20 -25 -37 -18 -22 -15 -14 10 29 19 33 45 70 57 83
12 13 16 23 10 23 -6 0 -23 -16 -38 -35 -15 -20 -29 -33 -32 -30 -3 3 -29 -16
-56 -42 l-51 -48 45 48 44 47 -17 29 c-23 40 -22 46 16 70 37 24 29 28 -13 6
-25 -13 -29 -13 -34 1 -11 29 -6 62 10 68 9 3 34 6 55 6 24 0 38 4 34 10 -3 6
-26 10 -51 10 -54 0 -55 8 -17 112 22 59 40 86 100 149 86 90 104 127 108 228
4 72 4 73 -5 21 -11 -71 -34 -144 -56 -178 l-17 -26 -24 94 c-28 117 -65 179
-116 199 -27 10 -44 11 -60 4 -19 -9 -17 -10 19 -10 22 0 49 -5 60 -11 15 -8
11 -10 -22 -5 -44 6 -86 -10 -118 -46 -11 -12 -26 -21 -33 -21 -10 0 -7 -9 11
-31 18 -21 26 -42 26 -69 0 -27 8 -48 24 -67 22 -25 32 -29 102 -33 117 -8
104 -26 -15 -22 -96 3 -141 -6 -141 -29 0 -6 9 -5 23 2 24 14 181 19 193 6 4
-4 -4 -20 -18 -35 -32 -34 -71 -111 -91 -182 l-16 -55 -81 -18 c-45 -10 -84
-16 -87 -13 -6 5 86 33 132 39 24 3 22 4 -11 6 -23 0 -61 -6 -84 -14 -23 -8
-46 -15 -50 -15 -4 0 -16 19 -26 42 -14 31 -19 65 -19 124 0 77 3 86 43 163
37 72 44 94 52 178 6 68 16 110 35 148 22 46 30 54 63 60 20 3 80 26 133 51
151 70 219 84 381 81 76 -1 142 -7 148 -13z m91 -129 c-8 -59 -9 -59 -10 -15
0 25 2 63 6 85 12 63 15 2 4 -70z m446 10 c50 -103 52 -137 9 -157 -19 -8 -32
-7 -62 8 -45 22 -70 61 -79 124 -6 42 -4 48 30 83 20 20 40 37 46 37 5 0 30
-43 56 -95z m-1516 48 c-12 -20 -14 -14 -5 12 4 9 9 14 11 11 3 -2 0 -13 -6
-23z m1120 -96 c-26 -40 -29 -13 -3 37 14 27 18 30 20 15 2 -11 -6 -34 -17
-52z m-2631 13 c0 -23 -35 -28 -43 -6 -7 18 1 26 25 26 11 0 18 -7 18 -20z
m1633 -53 c-61 -64 -64 -76 -73 -317 l-7 -175 -1 177 c-2 226 6 267 65 324 64
62 76 55 16 -9z m1065 23 c-14 -4 -32 -11 -40 -16 -10 -6 -10 -4 1 9 7 9 25
17 40 16 l26 -1 -27 -8z m43 -30 c32 -18 21 -28 -25 -23 -23 3 -53 0 -65 -6
-13 -7 -21 -8 -21 -2 0 13 49 40 73 41 10 0 27 -5 38 -10z m369 -60 c13 -35
28 -391 16 -379 -3 3 -7 75 -10 160 -2 105 -9 170 -20 204 -9 28 -16 54 -16
60 0 16 17 -8 30 -45z m153 -45 c4 -42 4 -129 0 -195 -5 -104 -8 -120 -23
-120 -36 0 -41 24 -44 209 l-2 181 31 0 32 0 6 -75z m-1818 -190 c0 -267 -16
-306 -23 -56 -4 156 3 291 16 291 4 0 7 -106 7 -235z m-102 198 c-5 -16 -8
-121 -8 -235 l0 -208 -27 0 c-38 0 -46 20 -53 146 -6 99 6 292 21 315 3 5 21
9 40 9 33 0 34 -1 27 -27z m164 -40 c-4 -38 -7 -130 -7 -206 0 -126 -2 -138
-17 -135 -15 3 -19 18 -25 88 -6 79 -1 279 7 308 3 6 14 12 26 12 21 0 22 -3
16 -67z m426 36 c23 -37 -25 -68 -52 -35 -9 11 -10 20 -1 36 13 24 38 23 53
-1z m742 -9 c8 -25 -1 -40 -25 -40 -10 0 -22 5 -25 10 -11 17 6 50 25 50 10 0
21 -9 25 -20z m-1289 -205 c0 -147 -3 -214 -10 -212 -17 6 -25 72 -25 217 -1
150 6 210 23 210 8 0 12 -60 12 -215z m2004 45 l0 -170 -30 0 -30 0 0 170 0
170 30 0 30 0 0 -170z m-331 124 c26 -33 27 -58 1 -84 -39 -39 -100 -12 -100
45 0 31 28 65 55 65 14 0 32 -11 44 -26z m371 0 c6 -14 10 -86 10 -160 0 -127
-1 -134 -20 -134 -19 0 -20 7 -20 160 0 158 8 193 30 134z m-639 -64 c-16 -70
-38 -85 -134 -87 l-82 -1 71 7 c91 9 120 28 135 87 15 56 23 52 10 -6z m-1264
-242 c-2 -18 -4 -4 -4 32 0 36 2 50 4 33 2 -18 2 -48 0 -65z m1730 -18 c-2
-20 -8 -26 -34 -28 l-33 -3 0 50 0 50 35 -22 c26 -17 34 -28 32 -47z m173 12
c0 -5 -6 -16 -13 -26 -13 -18 -14 -18 -14 0 0 11 5 22 11 26 14 10 16 10 16 0z
m-40 -31 c0 -49 -9 -61 -45 -61 -41 0 -48 9 -39 55 6 33 9 35 45 35 36 0 39
-2 39 -29z m-300 -17 c11 -12 10 -25 -4 -69 -20 -64 -28 -71 -51 -45 -17 19
-17 22 0 75 17 56 33 67 55 39z m157 -10 c-3 -3 -12 -4 -19 -1 -8 3 -5 6 6 6
11 1 17 -2 13 -5z m-847 -14 c0 -5 -13 -10 -29 -10 -29 0 -81 -39 -94 -70 -4
-12 -10 -9 -27 13 -26 33 -70 57 -105 57 -14 0 -25 5 -25 10 0 6 53 10 140 10
87 0 140 -4 140 -10z m-2475 -35 c0 -25 -4 -31 -27 -33 -19 -2 -28 2 -33 18
-8 27 12 52 39 48 16 -2 21 -10 21 -33z m3207 3 c-9 -9 -12 -7 -12 12 0 19 3
21 12 12 9 -9 9 -15 0 -24z m-1500 -56 c11 -30 41 -75 70 -107 51 -56 58 -85
19 -85 -36 0 -141 160 -141 213 0 26 9 39 23 34 5 -1 18 -26 29 -55z m1325 42
c13 -6 -41 -9 -142 -9 -90 0 -161 3 -157 7 17 17 255 18 299 2z m-1537 -21 c0
-10 3 -28 6 -40 8 -29 -31 -46 -87 -37 -50 8 -69 26 -69 65 l0 29 75 0 c65 0
75 -2 75 -17z m110 -3 c0 -11 11 -45 25 -77 23 -51 24 -58 10 -72 -21 -21 -31
-8 -61 75 -24 65 -24 69 -8 81 25 18 34 16 34 -7z m1646 -44 c-37 -98 -144
-233 -237 -302 -47 -34 -52 -36 -67 -21 -9 9 -14 18 -11 20 2 1 30 20 62 40
76 49 139 116 188 198 21 36 39 68 39 71 0 4 5 19 10 34 8 20 14 24 22 16 8
-8 7 -23 -6 -56z m184 44 l58 0 -9 -41 c-6 -23 -15 -51 -21 -63 -15 -30 -70
-86 -84 -86 -20 0 -73 75 -75 106 -1 16 1 44 5 63 7 30 10 33 38 27 17 -3 56
-6 88 -6z m-3282 -17 c-2 -9 -11 -17 -21 -19 -9 -1 -15 2 -11 7 3 5 -1 9 -8 9
-9 0 -9 3 2 10 23 15 42 12 38 -7z m2618 -1 c-10 -2 -22 0 -28 6 -6 6 0 7 19
4 21 -5 23 -7 9 -10z m-826 -22 c0 -5 -2 -10 -5 -10 -2 0 -34 -11 -70 -25 -54
-20 -65 -21 -65 -9 0 8 19 24 43 34 45 21 97 26 97 10z m971 -61 c21 -10 39
-22 39 -24 0 -3 -12 1 -27 9 -16 8 -62 24 -103 36 -41 13 -79 26 -84 31 -15
14 132 -30 175 -52z m187 33 c4 -27 -32 -90 -42 -73 -12 18 -43 12 -58 -11 -8
-13 -20 -39 -28 -58 -7 -19 -17 -39 -21 -44 -11 -12 -49 22 -49 43 0 22 160
172 179 169 9 -2 17 -13 19 -26z m-1168 -26 c0 -10 -84 -44 -94 -39 -5 4 8 14
30 24 38 17 64 23 64 15z m893 -35 c64 -28 60 -36 -5 -10 -29 12 -61 24 -70
26 -10 3 -18 9 -18 14 0 9 14 4 93 -30z m-898 -41 c-21 -22 -44 -40 -50 -40
-9 0 74 79 85 80 2 0 -14 -18 -35 -40z m-220 -21 c9 -16 12 -29 7 -29 -16 0
-54 48 -47 59 9 15 22 5 40 -30z m275 10 c0 -6 -4 -7 -10 -4 -5 3 -10 11 -10
16 0 6 5 7 10 4 6 -3 10 -11 10 -16z m1070 13 c0 -5 -9 -17 -20 -27 -16 -14
-20 -15 -20 -4 0 16 19 39 32 39 4 0 8 -4 8 -8z m196 -36 c0 -13 -4 -22 -8
-20 -3 2 -15 -6 -25 -19 -37 -47 -42 -37 -6 12 21 28 39 51 39 51 1 0 1 -11 0
-24z m-1561 -34 c-6 -7 -35 18 -35 31 0 5 9 2 20 -8 11 -10 18 -20 15 -23z
m-223 -25 c-18 -50 -39 -65 -27 -19 7 29 34 76 40 70 2 -2 -4 -25 -13 -51z
m49 -28 c-12 -30 -21 -66 -21 -81 0 -34 -9 -58 -22 -58 -6 0 -9 22 -6 58 5 67
43 161 59 145 7 -7 4 -27 -10 -64z m167 -46 c86 -101 176 -171 297 -229 297
-144 574 -160 890 -53 112 39 248 108 306 156 33 28 38 30 19 9 -72 -81 -234
-178 -357 -215 -298 -88 -631 -60 -896 77 -162 82 -231 147 -321 296 -40 66
-48 98 -13 51 12 -16 46 -58 75 -92z m189 97 c-3 -11 -2 -18 2 -15 12 7 54
-42 46 -54 -3 -6 -15 -11 -25 -11 -22 0 -80 46 -80 64 0 18 21 36 43 36 14 0
18 -5 14 -20z m487 -8 c-35 -7 -39 -22 -7 -22 17 0 39 -3 49 -7 12 -4 15 -3
10 5 -9 16 -3 15 41 -3 19 -8 54 -15 77 -15 l41 -1 -36 -33 c-40 -37 -104 -56
-192 -56 -75 0 -124 17 -165 55 l-37 34 26 1 c15 0 45 7 68 15 24 8 41 10 41
4 0 -6 5 -6 13 1 51 43 62 48 76 37 12 -10 11 -13 -5 -15z m865 -60 c-30 -61
-99 -129 -194 -191 -245 -160 -590 -204 -874 -111 -103 33 -231 95 -231 111 0
6 6 9 13 6 133 -59 247 -92 353 -103 42 -5 64 -11 64 -20 0 -19 112 -27 211
-15 178 23 332 79 453 165 61 44 170 152 203 203 26 40 28 9 2 -45z m122 11
c23 -51 35 -122 26 -147 -5 -13 -11 -14 -30 -5 -22 10 -25 19 -31 96 -6 76 -3
103 9 103 3 0 14 -21 26 -47z m-253 -70 c-51 -52 -135 -113 -154 -113 -5 0 38
45 96 99 70 66 106 94 108 84 2 -9 -20 -40 -50 -70z m-1450 -18 c-7 -7 -58 68
-58 86 0 7 14 -8 31 -34 18 -26 30 -50 27 -52z m221 -63 c1 -19 -34 2 -92 56
-81 76 -74 88 12 21 44 -35 80 -70 80 -77z m91 23 c141 -71 301 -101 494 -92
148 7 252 29 382 82 93 37 104 40 104 27 0 -17 -130 -72 -227 -97 -126 -33
-275 -48 -383 -40 -99 8 -255 39 -320 65 -98 39 -230 131 -230 161 0 6 28 -10
63 -34 34 -25 87 -57 117 -72z m-516 72 c-7 -18 -24 -23 -24 -8 0 22 13 42 22
33 5 -5 6 -16 2 -25z m549 -1 c233 -129 544 -136 830 -21 37 15 71 24 75 21
10 -10 -13 -22 -108 -56 -142 -52 -210 -63 -375 -63 -129 0 -164 4 -248 26
-137 37 -265 96 -252 117 9 14 10 14 78 -24z m-553 -46 c0 -11 -7 -20 -15 -20
-8 0 -15 9 -15 20 0 11 7 20 15 20 8 0 15 -9 15 -20z m308 -175 c72 -57 228
-138 341 -176 120 -41 283 -69 436 -76 72 -3 135 -9 141 -14 25 -20 283 82
391 154 39 26 99 77 134 115 61 64 62 65 39 23 -80 -141 -245 -247 -480 -306
-151 -38 -304 -58 -393 -50 -101 8 -142 -4 -151 -47 -3 -17 -6 -207 -6 -422 0
-312 -3 -404 -15 -455 -18 -76 -21 -82 -41 -74 -11 4 -13 15 -8 42 4 25 -8 7
-38 -60 -84 -181 -166 -289 -222 -289 -43 0 -98 -31 -175 -99 -91 -80 -168
-134 -183 -129 -6 2 23 29 63 60 41 31 117 98 169 150 52 52 131 118 175 146
43 29 72 52 64 52 -17 0 -135 -57 -196 -95 -24 -14 -43 -24 -43 -22 0 2 22 52
50 110 80 172 114 294 126 452 l7 83 38 6 c53 9 72 40 73 123 1 57 -2 67 -23
84 -22 18 -37 20 -133 17 l-107 -3 5 120 c5 103 3 133 -16 215 -23 95 -54 192
-85 264 l-17 39 24 -15 c247 -162 330 -197 528 -223 124 -16 208 -18 280 -6
43 7 41 8 -40 15 -203 18 -347 52 -518 122 -163 67 -269 153 -318 257 -36 79
-29 85 22 18 25 -33 71 -81 102 -106z m-318 130 c0 -8 -4 -15 -10 -15 -5 0
-10 7 -10 15 0 8 5 15 10 15 6 0 10 -7 10 -15z m-1386 -33 c3 -5 -1 -9 -9 -9
-8 0 -12 4 -9 9 3 4 7 8 9 8 2 0 6 -4 9 -8z m1479 1 c3 -5 -11 -15 -29 -24
-24 -11 -34 -13 -34 -5 0 27 51 50 63 29z m223 -38 c69 -57 200 -123 323 -164
92 -30 279 -71 326 -71 18 0 23 -4 18 -16 -5 -14 -17 -16 -73 -10 -209 19
-474 130 -610 255 -69 63 -59 66 16 6z m-1626 21 c0 -8 -8 -20 -17 -27 -9 -8
-14 -9 -11 -4 4 6 3 17 -3 25 -7 12 -9 11 -10 -5 0 -11 -3 -14 -6 -7 -2 6 -10
10 -16 6 -7 -3 -5 1 4 8 22 18 59 20 59 4z m1430 -11 c0 -6 -56 -35 -67 -35
-14 1 39 40 53 40 8 0 14 -2 14 -5z m1282 -27 c-24 -11 -46 -17 -49 -14 -7 6
56 34 77 34 8 0 -5 -9 -28 -20z m-1269 -4 c4 -4 -8 -14 -26 -23 -37 -19 -60
-4 -24 16 25 14 41 16 50 7z m-57 -129 c71 -149 96 -260 101 -460 3 -145 1
-181 -15 -245 l-20 -75 -1 101 c-1 55 -6 127 -12 160 -14 81 -51 202 -56 187
-3 -7 2 -71 11 -143 9 -71 16 -169 15 -217 l0 -88 -20 95 c-48 225 -140 414
-276 561 l-53 57 62 55 c35 30 92 73 128 96 77 48 70 53 136 -84z m73 90 c-3
-15 -58 -35 -64 -25 -3 5 7 16 22 24 30 16 46 16 42 1z m1084 -12 c-7 -2 -19
-2 -25 0 -7 3 -2 5 12 5 14 0 19 -2 13 -5z m894 -79 l58 -52 -61 -64 c-61 -63
-164 -209 -164 -232 0 -7 5 -17 11 -23 8 -8 -1 -34 -35 -95 -51 -93 -54 -88
-32 57 8 50 12 92 11 94 -2 1 -13 -26 -23 -60 l-20 -64 -1 109 c-1 162 35 289
109 379 l32 37 28 -17 c16 -9 55 -40 87 -69z m-954 69 c-13 -2 -35 -2 -50 0
-16 2 -5 4 22 4 28 0 40 -2 28 -4z m-1003 -8 c0 -5 -55 -35 -65 -35 -14 0 -3
18 18 28 24 11 47 15 47 7z m913 -2 c-7 -2 -21 -2 -30 0 -10 3 -4 5 12 5 17 0
24 -2 18 -5z m-896 -40 c2 -6 -4 -13 -14 -16 -10 -2 -26 -8 -35 -12 -27 -11
-23 20 5 33 25 12 39 11 44 -5z m1679 -28 c24 -18 7 -19 -26 0 -16 9 -19 14
-9 15 8 0 24 -7 35 -15z m-1656 -14 c0 -7 -51 -31 -66 -31 -10 0 -2 29 9 33
21 9 57 7 57 -2z m1660 -28 c13 -14 13 -15 -3 -9 -11 3 -30 9 -43 12 -13 3
-21 10 -18 15 7 12 45 1 64 -18z m-1640 -18 c0 -17 -46 -39 -67 -31 -21 9 -15
24 15 34 39 15 52 14 52 -3z m1431 -170 c-48 -131 -59 -171 -51 -186 6 -10 17
-19 25 -19 8 0 15 -3 15 -7 0 -13 -20 -86 -32 -115 l-10 -28 -129 0 -129 0 0
65 c0 70 -1 69 63 80 48 8 138 97 180 176 29 56 27 53 -47 -42 -56 -72 -104
-108 -153 -116 -57 -9 -63 -17 -63 -94 0 -64 -2 -69 -22 -69 -12 0 -30 -7 -40
-17 -16 -14 -18 -34 -18 -175 0 -210 -12 -198 198 -198 216 0 203 -11 201 185
l-1 154 -176 -2 -177 -2 -3 -125 c-1 -69 0 -135 3 -148 l6 -23 159 3 c87 2
156 0 151 -5 -4 -4 -79 -6 -167 -5 l-159 3 -3 157 c-2 142 -1 158 15 167 25
13 312 7 346 -7 l27 -12 0 -113 c0 -63 3 -142 7 -177 6 -59 10 -66 63 -124 58
-62 86 -103 76 -113 -5 -5 -71 45 -143 109 l-43 38 -123 0 c-133 0 -143 -3
-198 -64 l-28 -31 -1 -177 c0 -157 2 -180 18 -193 110 -98 123 -105 189 -105
81 0 82 -15 1 -24 -51 -5 -66 -3 -92 14 -46 29 -96 52 -109 47 -6 -2 6 -14 27
-26 44 -27 42 -40 -3 -17 -58 31 -62 51 -59 306 l3 230 -22 0 c-23 0 -23 1
-23 153 0 83 4 168 10 186 5 19 13 87 16 151 6 100 4 121 -11 154 -25 51 -11
79 52 102 185 68 305 130 380 199 32 29 60 51 61 50 2 -2 -24 -78 -57 -170z
m178 164 c17 -6 31 -15 31 -21 0 -6 -7 -7 -16 -4 -9 3 -27 9 -40 12 -13 3 -24
10 -24 15 0 12 10 11 49 -2z m383 -16 c15 -17 10 -24 -57 -96 -67 -73 -74 -78
-94 -65 -11 7 -21 16 -21 19 0 13 132 159 144 159 7 0 20 -8 28 -17z m-2422
-50 c63 -71 154 -216 191 -303 40 -97 44 -122 10 -61 -48 83 -106 157 -215
269 l-99 102 23 25 c13 14 27 25 31 25 4 0 31 -26 59 -57z m729 21 c14 -12
-19 -1 -35 12 -18 14 -18 14 6 3 14 -6 27 -13 29 -15z m-282 -1 c4 -11 -27
-23 -59 -23 -27 0 -21 17 10 28 31 12 44 10 49 -5z m1589 7 c15 -6 24 -13 21
-16 -9 -9 -77 6 -77 16 0 13 22 13 56 0z m-1266 -20 c8 -5 11 -10 5 -10 -5 0
-17 5 -25 10 -8 5 -10 10 -5 10 6 0 17 -5 25 -10z m1694 -8 c3 -5 -26 -40 -63
-78 -107 -110 -230 -315 -291 -486 l-19 -53 0 78 c-1 74 2 85 50 188 33 72 49
118 45 132 -6 25 38 107 58 107 8 0 19 -6 25 -14 9 -10 8 -16 -4 -26 -9 -8
-21 -23 -26 -34 -5 -12 36 27 92 87 96 101 121 119 133 99z m-1624 -17 c19 -7
28 -14 20 -14 -8 0 -28 6 -45 14 -39 17 -21 18 25 0z m-855 -97 c182 -190 261
-329 279 -488 l6 -55 -15 40 -15 40 5 -40 c16 -129 15 -130 -24 -13 -76 225
-207 412 -358 512 -25 16 -40 33 -36 40 29 51 45 66 62 57 9 -5 53 -47 96 -93z
m475 93 c0 -7 -51 -31 -66 -31 -13 0 -1 29 14 33 30 8 52 7 52 -2z m1574 3 c9
-3 16 -10 16 -14 0 -8 -58 4 -68 15 -7 7 33 6 52 -1z m-1127 -20 c-3 -3 -12
-4 -19 -1 -8 3 -5 6 6 6 11 1 17 -2 13 -5z m1616 -63 c20 -37 37 -71 37 -74 0
-3 -56 -24 -125 -47 -69 -23 -125 -46 -125 -51 0 -5 19 -49 43 -97 24 -48 50
-103 57 -122 7 -19 20 -43 27 -52 13 -14 12 -18 -6 -28 -12 -6 -21 -16 -21
-22 0 -6 23 -70 50 -142 53 -137 81 -176 125 -176 20 0 116 32 199 65 17 8 18
5 12 -30 -18 -96 -87 -170 -233 -254 -51 -29 -93 -54 -93 -56 0 -6 147 61 189
86 18 11 35 18 37 16 7 -6 -61 -64 -106 -91 -25 -14 -38 -26 -30 -26 28 0 145
61 190 100 l46 38 62 -70 c34 -38 62 -76 62 -84 0 -8 -20 -27 -45 -43 l-45
-29 30 -12 c52 -21 43 -29 -30 -29 -54 0 -83 -5 -125 -25 -30 -14 -55 -27 -55
-29 0 -3 21 1 47 9 50 15 139 19 147 6 2 -4 -50 -16 -117 -25 -169 -25 -227
-41 -353 -97 -80 -36 -112 -46 -122 -38 -17 15 -6 47 32 86 61 66 168 114 301
138 134 23 135 17 12 -50 -152 -83 -123 -77 68 16 105 50 199 97 209 104 18
13 18 14 -8 24 -110 42 -491 -47 -622 -146 l-32 -23 -6 22 c-11 44 16 99 103
215 82 109 127 179 119 187 -2 2 -48 -42 -103 -98 -55 -55 -94 -98 -87 -93 24
14 12 -11 -19 -40 l-32 -29 6 60 c4 33 22 123 41 200 19 77 46 194 60 260 14
66 29 131 32 145 14 52 -7 9 -81 -170 -43 -102 -80 -187 -83 -190 -2 -3 -1 29
3 70 10 111 -3 79 -20 -45 -8 -59 -19 -113 -24 -118 -6 -6 -11 -7 -11 -2 0 6
-5 39 -10 74 -12 86 1 185 45 334 43 145 71 212 139 336 49 91 165 231 190
231 6 0 28 -31 49 -69z m-637 -65 c-20 -46 -36 -91 -36 -100 0 -9 -4 -16 -10
-16 -25 0 7 120 56 211 17 31 19 32 22 11 2 -12 -13 -60 -32 -106z m148 103
c16 -14 1 -20 -32 -13 -18 4 -32 13 -32 20 0 11 8 13 28 8 15 -4 31 -10 36
-15z m-1564 -8 c0 -23 -59 -39 -72 -19 -7 12 2 16 70 37 1 1 2 -7 2 -18z
m1569 -37 c14 -13 -12 -13 -40 0 l-34 16 35 -6 c19 -4 37 -8 39 -10z m-2077
-115 c63 -63 85 -94 121 -171 88 -184 135 -373 144 -570 4 -82 2 -128 -4 -128
-6 0 -38 47 -73 104 -34 57 -73 117 -86 132 l-24 29 24 -70 c13 -38 37 -101
55 -139 34 -76 62 -162 55 -169 -10 -9 -91 15 -159 48 -67 33 -284 169 -372
234 -61 45 -71 89 -49 201 10 47 19 87 22 89 2 2 52 -6 110 -18 58 -13 108
-20 111 -18 8 8 82 309 83 334 0 27 -18 37 -95 53 -102 20 -97 16 -79 58 8 20
26 56 40 79 l24 42 38 -21 c20 -12 72 -56 114 -99z m518 101 c0 -5 -1 -10 -3
-10 -1 0 -17 -4 -35 -9 -25 -8 -32 -7 -32 4 0 13 18 22 53 24 9 0 17 -3 17 -9z
m568 -11 c-10 -5 -22 -26 -28 -47 -6 -24 -10 -298 -10 -774 0 -644 -2 -738
-15 -738 -8 0 -22 -15 -32 -32 l-18 -33 -5 82 c-4 72 -8 86 -31 109 -47 47
-149 45 -208 -4 -28 -23 -34 -36 -38 -79 -4 -42 -1 -59 17 -87 27 -45 14 -46
-55 -7 -60 35 -80 66 -71 114 6 31 15 39 78 72 40 21 90 54 112 74 23 21 57
50 76 65 19 16 53 50 74 75 l40 46 -52 -50 c-60 -57 -65 -53 -20 12 39 58 95
189 114 268 11 47 14 152 14 477 0 246 4 427 10 442 7 20 17 26 37 26 24 -1
25 -2 11 -11z m973 1 c10 0 19 -5 19 -10 0 -12 -50 -2 -65 13 -7 7 -4 8 8 3
10 -3 27 -6 38 -6z m-1531 -40 c0 -16 -7 -20 -35 -20 -40 0 -50 26 -12 33 42
8 47 7 47 -13z m1535 0 c16 -7 13 -9 -17 -9 -21 -1 -38 4 -38 9 0 12 27 12 55
0z m-96 -200 c12 -204 29 -319 67 -454 35 -123 31 -130 -38 -65 l-58 55 0 146
c0 81 -4 158 -10 172 -5 14 -23 34 -39 44 -27 16 -28 20 -16 42 7 14 20 61 30
105 18 82 47 166 51 149 2 -5 8 -92 13 -194z m109 158 c-7 -20 -68 -23 -68 -4
0 12 10 16 36 16 24 0 34 -4 32 -12z m-1538 -8 c0 -5 -18 -10 -40 -10 -22 0
-40 5 -40 10 0 6 18 10 40 10 22 0 40 -4 40 -10z m710 -284 c1 -159 -1 -291
-4 -294 -4 -3 -6 129 -6 293 0 164 2 296 5 294 2 -3 5 -135 5 -293z m1380 275
c15 -30 12 -38 -17 -46 -20 -5 -31 -2 -40 11 -11 16 -18 16 -64 6 -79 -19 -69
-7 18 21 97 31 90 31 103 8z m1028 -17 c27 -18 30 -69 5 -96 -34 -38 -103 -11
-103 41 0 31 8 44 35 59 27 15 37 15 63 -4z m-3118 -14 c0 -5 -18 -10 -40 -10
-22 0 -40 5 -40 10 0 6 18 10 40 10 22 0 40 -4 40 -10z m1540 0 c0 -5 -16 -10
-35 -10 -19 0 -35 5 -35 10 0 6 16 10 35 10 19 0 35 -4 35 -10z m330 -15 c-10
-12 -2 -36 41 -131 29 -64 58 -118 65 -121 7 -2 62 11 123 30 61 19 113 31
116 27 3 -5 2 -11 -2 -13 -9 -5 -152 -49 -216 -66 l-39 -10 -23 52 c-19 43
-89 193 -103 220 -2 4 7 11 20 16 32 13 32 13 18 -4z m-1010 -149 c0 -150 -8
-191 -31 -155 -10 16 -12 292 -2 302 3 4 12 7 20 7 10 0 13 -32 13 -154z m27
-13 c-2 -32 -3 -8 -3 52 0 61 1 87 3 58 2 -29 2 -78 0 -110z m1237 142 c5 -14
-27 -35 -55 -35 -19 0 -8 31 14 40 31 12 34 12 41 -5z m-2124 -5 c0 -5 -16
-10 -35 -10 -19 0 -35 5 -35 10 0 6 16 10 35 10 19 0 35 -4 35 -10z m1530 0
c0 -5 -13 -10 -30 -10 -16 0 -30 5 -30 10 0 6 14 10 30 10 17 0 30 -4 30 -10z
m-2235 -24 c57 -12 60 -14 58 -41 -3 -45 -14 -48 -95 -34 -40 7 -74 13 -76 14
-1 1 5 18 13 38 17 41 16 41 100 23z m705 -21 c0 -10 -11 -15 -35 -15 -24 0
-35 5 -35 15 0 10 11 15 35 15 24 0 35 -5 35 -15z m2145 4 c9 -14 4 -18 -33
-25 -38 -8 -45 12 -9 26 30 12 35 12 42 -1z m-615 -9 c0 -5 -13 -10 -30 -10
-16 0 -30 5 -30 10 0 6 14 10 30 10 17 0 30 -4 30 -10z m-2149 -77 c-11 -37
-29 -101 -41 -141 -12 -41 -24 -71 -27 -68 -3 3 14 68 37 146 24 77 45 138 47
136 3 -2 -5 -35 -16 -73z m1189 57 c0 -4 -8 -22 -17 -41 -17 -32 -18 -32 -21
-10 -6 38 6 71 23 65 8 -4 15 -9 15 -14z m-570 -17 c0 -15 -5 -15 -50 -7 -37
8 -26 19 19 19 18 0 31 -5 31 -12z m1530 -8 c0 -10 -10 -15 -30 -15 -20 0 -30
5 -30 15 0 10 10 15 30 15 20 0 30 -5 30 -15z m640 6 c0 -11 -189 -76 -196
-68 -3 3 22 14 56 25 33 12 67 28 76 36 17 17 64 22 64 7z m-160 -21 c0 -5 -5
-10 -11 -10 -5 0 -7 5 -4 10 3 6 8 10 11 10 2 0 4 -4 4 -10z m-2749 -11 c38
-7 69 -16 69 -22 0 -6 -17 -7 -42 -3 -24 4 -62 10 -85 13 -24 3 -43 10 -43 14
0 12 17 11 101 -2z m726 3 c10 -6 10 -22 3 -67 -18 -108 -24 -120 -55 -118
-15 1 -29 4 -32 6 -2 3 2 45 8 96 12 88 13 91 38 91 14 0 32 -4 38 -8z m1547
-18 c3 -9 6 -33 6 -54 0 -33 -3 -38 -27 -43 -16 -3 -31 0 -35 6 -10 15 -10 91
-1 100 12 13 51 7 57 -9z m654 4 c-3 -7 -44 -25 -92 -40 -108 -34 -114 -35
-116 -23 -1 9 168 72 198 74 8 1 12 -4 10 -11z m-3673 -28 c3 -5 1 -10 -4 -10
-6 0 -11 5 -11 10 0 6 2 10 4 10 3 0 8 -4 11 -10z m789 -6 c25 -9 19 -27 -6
-21 -13 3 -51 9 -85 13 -35 3 -63 11 -63 17 0 10 123 3 154 -9z m954 -30 c6
-2 12 -13 12 -24 0 -19 -6 -20 -106 -20 -105 0 -105 0 -98 23 4 12 12 25 18
29 10 7 146 1 174 -8z m-1016 -1 c67 -6 68 -6 62 -32 -4 -14 -10 -29 -13 -33
-7 -8 -157 15 -168 26 -3 3 20 6 53 7 42 0 53 3 39 9 -11 5 -35 9 -52 9 -18 1
-33 6 -33 11 0 12 20 12 112 3z m784 -40 c-1 -35 5 -57 23 -81 21 -30 23 -41
17 -100 -11 -126 -107 -400 -183 -526 -38 -62 -119 -156 -134 -156 -14 0 -11
51 6 106 8 28 37 97 64 155 66 141 136 363 195 622 9 39 13 33 12 -20z m2224
17 c10 -18 6 -22 -33 -39 -62 -27 -192 -61 -230 -61 -17 0 -39 4 -47 10 -18
11 -20 10 155 66 157 50 142 48 155 24z m-962 -127 l3 -123 -126 0 -125 0 0
125 0 126 123 -3 122 -3 3 -122z m256 85 c9 -35 7 -118 -3 -118 -5 0 -16 -2
-24 -6 -10 -4 -17 9 -26 52 -15 77 -14 82 12 87 12 2 25 5 28 6 4 0 9 -9 13
-21z m-1247 -20 c-3 -7 -5 -2 -5 12 0 14 2 19 5 13 2 -7 2 -19 0 -25z m2539 5
c-10 -10 -19 5 -10 18 6 11 8 11 12 0 2 -7 1 -15 -2 -18z m-2596 3 c0 -15 -39
-24 -125 -28 -38 -2 -50 1 -50 12 0 11 18 16 75 21 41 3 81 6 88 7 6 1 12 -4
12 -12z m-1019 -8 c42 -7 66 -15 61 -20 -11 -11 -172 11 -172 24 0 11 28 10
111 -4z m1069 -27 c0 -19 -32 -41 -58 -41 l-27 1 31 13 c18 8 35 19 38 25 9
13 16 14 16 2z m2010 -10 c0 -5 -8 -11 -17 -14 -10 -3 -63 -22 -117 -42 -55
-20 -106 -33 -115 -30 -10 4 27 21 97 45 63 21 116 41 119 44 10 9 33 7 33 -3z
m-2359 -9 c15 -6 15 -12 -2 -69 -11 -35 -23 -63 -27 -63 -5 0 -16 6 -26 13
-16 12 -17 19 -6 70 12 58 21 66 61 49z m189 -67 c0 -30 5 -64 12 -75 16 -24
10 -30 -25 -23 -18 4 -26 10 -23 19 3 7 8 40 12 73 8 76 24 80 24 6z m2166 28
c-17 -17 -222 -90 -231 -82 -14 14 2 24 80 49 39 13 88 31 110 41 24 11 41 14
44 8 1 -6 0 -13 -3 -16z m-300 -1 c5 -4 23 -37 39 -74 15 -38 31 -68 34 -68 4
0 54 18 111 41 144 56 153 58 148 28 -2 -20 -20 -30 -111 -67 -59 -23 -121
-45 -137 -49 -33 -6 -32 -8 -84 131 -24 63 -24 75 0 58z m-441 -42 c-3 -5 -16
-10 -28 -9 -21 0 -21 1 -2 9 28 12 37 12 30 0z m-12 -37 c-7 -2 -19 -2 -25 0
-7 3 -2 5 12 5 14 0 19 -2 13 -5z m-1658 -46 c11 -9 14 -16 8 -20 -6 -4 -22 2
-34 13 -18 14 -20 19 -8 20 8 0 23 -6 34 -13z m-1230 -17 c-3 -5 -12 -10 -18
-10 -7 0 -6 4 3 10 19 12 23 12 15 0z m4445 5 c0 -8 -139 -115 -149 -115 -31
0 -13 25 51 69 65 44 98 60 98 46z m-2965 -15 c13 -21 -3 -38 -29 -33 -35 7
-36 43 -2 43 14 0 28 -5 31 -10z m-259 -53 c-6 -32 -51 -126 -68 -142 -11 -11
-3 95 13 157 9 36 11 37 35 26 21 -10 25 -17 20 -41z m252 -1 c9 -9 -13 -36
-25 -32 -8 3 -19 6 -24 6 -5 0 -9 9 -9 21 0 18 4 20 27 14 16 -4 29 -8 31 -9z
m-44 -46 c25 -9 37 -40 15 -40 -20 0 -49 21 -49 35 0 18 1 18 34 5z m1279 -36
c45 -44 47 -48 47 -102 0 -32 -5 -64 -10 -72 -8 -13 -10 -13 -10 1 0 9 -19 33
-41 54 -39 35 -45 37 -92 32 -42 -4 -56 -10 -84 -40 -20 -23 -35 -51 -39 -75
-4 -28 -11 -39 -22 -38 -23 2 -34 -70 -17 -106 16 -34 12 -35 -15 -6 -18 19
-20 35 -20 145 0 100 3 129 17 150 10 14 17 36 18 47 0 20 5 21 80 19 44 -1
93 -4 110 -8 26 -5 28 -4 15 9 -10 10 -47 17 -110 22 -81 6 -98 4 -112 -9 -9
-9 -14 -25 -11 -35 2 -10 -4 -26 -16 -36 -19 -17 -19 -27 -14 -160 l5 -141 36
-37 c50 -53 33 -59 -22 -8 l-46 43 0 161 0 161 36 38 35 37 117 0 117 0 48
-46z m1522 26 c94 -58 79 -202 -26 -244 -115 -46 -221 80 -161 192 37 69 122
92 187 52z m-4470 -51 c0 -17 -6 -25 -21 -27 -29 -4 -41 28 -17 45 24 18 38
11 38 -18z m1678 -19 c-4 -16 -9 -17 -29 -8 -13 6 -24 19 -24 29 0 15 4 17 29
8 21 -8 28 -15 24 -29z m-38 -22 c25 -11 33 -32 15 -43 -16 -10 -50 14 -50 35
0 23 1 24 35 8z m1466 -114 c19 -41 19 -44 3 -69 -13 -20 -16 -41 -12 -100 3
-41 1 -75 -4 -75 -4 0 -8 4 -8 10 0 5 -5 9 -11 7 -6 -1 -19 9 -29 23 -15 20
-19 52 -24 169 l-6 145 35 -34 c19 -19 44 -53 56 -76z m-1487 61 c16 -11 22
-22 19 -35 -5 -18 -7 -18 -33 -5 -21 11 -27 20 -23 35 6 24 7 24 37 5z m1286
-35 c12 -8 10 -10 -10 -10 -68 0 -138 -97 -110 -151 12 -23 12 -23 -6 -7 -12
12 -18 33 -18 68 -1 46 3 55 32 81 33 30 82 38 112 19z m470 7 c0 -2 -10 -12
-22 -23 l-23 -19 19 23 c18 21 26 27 26 19z m-1762 -60 c-8 -16 -12 -17 -29
-5 -11 7 -20 16 -20 21 1 4 1 14 1 22 0 12 5 11 29 -3 24 -13 28 -20 19 -35z
m390 12 c-8 -24 -13 -27 -29 -19 -15 9 -17 14 -8 34 8 16 17 22 29 19 16 -4
17 -9 8 -34z m-1868 6 c0 -8 -7 -15 -15 -15 -8 0 -15 7 -15 15 0 8 7 15 15 15
8 0 15 -7 15 -15z m1458 -51 c1 -1 0 -9 -4 -18 -6 -16 -8 -16 -25 0 -11 9 -19
26 -19 37 0 20 0 20 23 1 12 -10 23 -19 25 -20z m1340 10 c25 -45 -16 -97 -75
-92 -32 3 -38 7 -41 29 -5 39 32 79 73 79 21 0 38 -6 43 -16z m-959 -7 c6 -8
8 -16 5 -20 -10 -9 -34 4 -34 19 0 18 14 18 29 1z m2176 -7 c3 -5 1 -10 -4
-10 -6 0 -11 5 -11 10 0 6 2 10 4 10 3 0 8 -4 11 -10z m-2583 -62 c-17 -17
-52 16 -45 43 6 20 7 20 32 -5 19 -20 23 -28 13 -38z m385 24 c9 -6 7 -16 -8
-41 -19 -32 -39 -37 -47 -12 -3 10 2 11 19 6 21 -7 22 -6 11 7 -7 9 -10 23 -6
32 7 18 13 19 31 8z m2137 0 c-7 -4 -14 -18 -17 -32 -4 -21 -4 -20 -6 8 -1 24
3 32 17 32 11 0 13 -3 6 -8z m-1364 -19 c0 -10 9 -32 20 -50 41 -68 148 -67
209 2 20 24 31 30 31 20 0 -47 -69 -95 -138 -95 -76 0 -172 73 -157 119 8 25
35 28 35 4z m-1180 -34 c0 -4 -10 -24 -21 -44 -20 -34 -22 -35 -40 -19 -23 20
-24 37 -5 53 10 9 15 8 20 -4 3 -8 10 -15 16 -15 6 0 3 11 -6 25 -21 32 -9 53
17 29 10 -9 19 -21 19 -25z m-1126 15 c3 -8 2 -12 -4 -9 -6 3 -10 10 -10 16 0
14 7 11 14 -7z m1486 -59 c0 -19 -20 -29 -31 -18 -14 14 0 43 17 36 8 -3 14
-11 14 -18z m2174 13 c-3 -4 -9 -8 -15 -8 -5 0 -9 4 -9 8 0 5 7 9 15 9 8 0 12
-4 9 -9z m-2598 -75 c-7 -16 -9 -16 -21 7 -23 40 -19 58 6 33 15 -14 19 -27
15 -40z m1500 -2 c-14 -14 -39 -34 -55 -44 -29 -17 -30 -17 -41 2 -9 18 -5 23
38 45 27 13 55 32 63 42 13 16 14 16 17 0 2 -10 -8 -30 -22 -45z m-1112 15
c-5 -13 -9 -14 -20 -5 -11 9 -12 15 -3 26 15 17 32 2 23 -21z m2183 -8 c-3 -8
-6 -5 -6 6 -1 11 2 17 5 13 3 -3 4 -12 1 -19z m-2603 -10 c11 -16 13 -25 4
-35 -9 -11 -13 -10 -24 4 -16 21 -18 53 -5 53 6 0 17 -10 25 -22z m368 -40
c-26 -29 -27 -29 -30 -8 -4 27 28 62 45 48 9 -7 5 -17 -15 -40z m-397 -5 c3
-13 2 -23 -3 -23 -17 0 -34 29 -28 47 8 19 21 9 31 -24z m-919 -19 c9 -21 12
-40 7 -43 -4 -3 -8 -17 -8 -30 0 -14 -6 -25 -16 -26 -9 -2 -16 3 -16 11 0 7 4
11 9 8 4 -3 9 1 9 8 2 19 2 19 -6 66 -8 52 1 54 21 6z m1242 24 c-2 -6 -16
-21 -31 -31 -22 -17 -29 -18 -42 -7 -20 17 -19 25 8 38 30 15 70 15 65 0z
m1268 0 c4 -6 -5 -21 -21 -34 -22 -18 -32 -20 -43 -12 -11 9 -8 16 15 34 32
27 39 28 49 12z m-1632 -24 c9 -24 7 -54 -4 -54 -5 0 -10 6 -10 13 0 6 -3 22
-6 35 -7 25 11 31 20 6z m2908 1 c0 -5 -5 -11 -11 -13 -6 -2 -11 4 -11 13 0 9
5 15 11 13 6 -2 11 -8 11 -13z m-2518 -17 c-4 -5 -29 -21 -57 -34 l-51 -23
-23 21 c-24 22 -31 48 -13 48 5 0 12 -11 16 -25 8 -33 32 -32 80 4 37 27 62
32 48 9z m1272 1 c3 -6 -5 -23 -20 -37 -20 -21 -28 -24 -38 -14 -10 10 -7 17
12 37 28 27 36 30 46 14z m-1686 -43 c0 -20 0 -20 -16 0 -15 18 -15 18 -9 -8
7 -33 -2 -37 -14 -6 -9 26 18 66 31 45 4 -6 8 -21 8 -31z m1727 -2 c2 -6 -6
-23 -18 -38 -20 -25 -23 -26 -37 -12 -14 14 -14 18 8 41 24 25 41 28 47 9z
m-1487 -23 c0 -23 -16 -36 -25 -21 -9 14 1 40 15 40 5 0 10 -9 10 -19z m1185
9 c31 -5 55 -4 62 2 7 5 17 8 22 6 6 -1 -10 -29 -34 -60 l-45 -56 -80 -4 c-91
-3 -97 2 -85 72 8 50 45 60 160 40z m-1481 -40 c-6 -6 -10 -2 -11 12 -2 16 1
18 10 9 7 -7 8 -14 1 -21z m1819 24 c10 -11 -35 -63 -49 -57 -11 4 -10 11 7
34 20 29 30 34 42 23z m1004 -36 c-3 -8 -6 -5 -6 6 -1 11 2 17 5 13 3 -3 4
-12 1 -19z m-3627 2 c0 -5 -5 -10 -11 -10 -5 0 -7 5 -4 10 3 6 8 10 11 10 2 0
4 -4 4 -10z m1079 -43 c-5 -12 -14 -34 -20 -49 -13 -34 -19 -35 -48 -4 -25 27
-23 35 18 78 24 24 28 25 43 11 12 -11 14 -20 7 -36z m396 33 c24 -26 16 -33
-24 -19 -39 14 -93 5 -114 -19 -8 -9 -22 -33 -30 -52 l-15 -35 -1 48 c-1 70
28 97 107 97 46 0 63 -4 77 -20z m1160 -14 c-15 -22 -35 -35 -35 -22 0 7 45
55 48 51 2 -2 -4 -15 -13 -29z m59 8 c21 -8 20 -23 -3 -53 -15 -20 -21 -22
-40 -12 l-22 12 21 30 c24 32 22 31 44 23z m1169 -18 c3 -8 0 -21 -6 -30 -11
-15 -15 -15 -31 -3 -12 9 -17 20 -13 31 8 20 43 21 50 2z m-3873 0 c0 -3 -4
-8 -10 -11 -5 -3 -10 -1 -10 4 0 6 5 11 10 11 6 0 10 -2 10 -4z m2507 -22 c22
-24 23 -28 9 -49 -8 -13 -29 -33 -46 -45 l-30 -21 0 41 c0 38 23 100 37 100 3
0 17 -12 30 -26z m-1627 2 c0 -2 -9 -6 -20 -9 -11 -3 -18 -1 -14 4 5 9 34 13
34 5z m-920 -10 c0 -2 -8 -10 -17 -17 -16 -13 -17 -12 -4 4 13 16 21 21 21 13z
m1531 -11 c0 -5 -24 -14 -53 -20 -43 -8 -53 -14 -53 -30 0 -26 45 -32 79 -10
l24 16 -5 -43 c-7 -65 -9 -68 -50 -68 -31 1 -35 3 -20 11 25 14 21 29 -7 29
-38 0 -59 27 -53 68 9 53 23 63 84 60 29 -2 53 -7 54 -13z m-542 -32 c-22 -28
-81 -83 -89 -83 -8 0 -20 35 -20 57 0 11 74 39 109 42 11 1 11 -2 0 -16z
m1829 -1 c26 -3 32 -9 32 -28 0 -13 -3 -24 -6 -24 -13 0 -104 43 -104 50 0 14
14 20 29 14 9 -4 31 -9 49 -12z m-1738 -46 c0 -7 -13 -25 -29 -40 l-29 -28
-16 23 c-16 24 -21 49 -9 49 4 0 18 -10 31 -22 l25 -23 -12 22 c-6 12 -16 25
-22 28 -7 5 -6 11 1 21 10 11 16 11 36 -3 13 -8 24 -21 24 -27z m566 2 c-3
-13 -6 -48 -6 -79 0 -87 -16 -101 -117 -102 -86 -1 -113 10 -113 44 0 15 7 19
33 19 61 0 108 19 125 52 39 71 92 115 78 66z m-830 -86 c-13 -13 -17 9 -9 55
l8 48 3 -49 c2 -26 1 -51 -2 -54z m1571 54 c22 -21 -102 -155 -159 -173 -33
-10 -41 -8 -63 9 -30 23 -33 67 -7 90 9 9 44 32 77 52 49 29 68 35 103 32 23
-2 46 -6 49 -10z m-1372 -57 c-10 -15 -24 -10 -41 16 -24 37 -6 54 23 21 13
-15 21 -32 18 -37z m-1115 26 c0 -8 -7 -15 -15 -15 -16 0 -20 12 -8 23 11 12
23 8 23 -8z m1080 -57 c0 -4 -4 -9 -10 -13 -11 -7 -42 49 -32 59 6 7 41 -32
42 -46z m-991 -5 c1 -7 -3 -13 -9 -13 -5 0 -10 15 -9 33 0 27 2 29 9 12 5 -11
9 -26 9 -32z m941 7 c10 -24 10 -33 0 -45 -18 -22 -35 -18 -49 11 -10 22 -9
30 5 45 23 26 29 24 44 -11z m1828 -76 c-5 -79 -20 -99 -42 -56 -21 41 -20 65
5 114 19 36 22 39 31 24 6 -10 8 -47 6 -82z m-1981 64 c-3 -8 -6 -5 -6 6 -1
11 2 17 5 13 3 -3 4 -12 1 -19z m2920 15 c-4 -3 1 -16 10 -27 18 -21 18 -21
-4 -2 -20 16 -23 36 -6 36 4 0 3 -3 0 -7z m-1681 -69 c-3 -8 -15 -14 -26 -14
-30 0 -28 57 3 69 19 7 22 5 25 -16 2 -14 1 -31 -2 -39z m-1150 20 c15 -22 15
-27 3 -34 -10 -7 -17 -2 -26 13 -27 48 -6 66 23 21z m-30 -52 c-9 -8 -26 10
-26 26 1 15 2 15 15 -2 8 -11 13 -21 11 -24z m-889 -34 c-3 -8 -6 -5 -6 6 -1
11 2 17 5 13 3 -3 4 -12 1 -19z m1003 -8 c0 -13 -11 -13 -30 0 -12 8 -11 10 8
10 12 0 22 -4 22 -10z m1642 -45 c6 -7 9 -5 8 5 -4 30 0 40 20 40 25 0 27 -35
3 -49 -10 -6 -13 -11 -7 -11 14 0 39 21 53 45 11 17 12 15 7 -15 -10 -56 -57
-78 -89 -42 -16 18 -21 36 -17 62 2 10 4 8 7 -5 3 -11 9 -24 15 -30z m-1642
10 c0 -16 -28 -19 -67 -9 -38 10 -26 24 22 24 33 0 45 -4 45 -15z"/>
<path d="M3036 4328 c-8 -31 -6 -149 3 -171 4 -10 7 29 7 87 0 58 -1 106 -2
106 -1 0 -4 -10 -8 -22z"/>
<path d="M1911 4304 c0 -11 3 -14 6 -6 3 7 2 16 -1 19 -3 4 -6 -2 -5 -13z"/>
<path d="M2230 4024 c-46 -31 -112 -99 -151 -157 -22 -31 -57 -68 -79 -82 -43
-27 -56 -55 -40 -85 13 -23 52 -27 70 -5 9 11 16 12 30 3 15 -10 36 -4 117 34
128 60 195 78 324 85 158 9 300 -23 436 -96 30 -17 49 -23 42 -15 -21 25 -142
82 -226 106 -65 19 -101 22 -213 22 -116 -1 -148 -5 -225 -28 -49 -15 -119
-43 -154 -62 -75 -42 -102 -41 -114 2 -8 28 -3 38 54 115 35 46 85 105 112
132 52 51 55 56 17 31z m-215 -290 c0 -10 -8 -20 -17 -22 -18 -3 -26 27 -11
42 12 11 28 0 28 -20z"/>
<path d="M2180 2760 c-14 -11 -20 -20 -14 -20 6 0 19 9 29 20 23 25 17 25 -15
0z"/>
<path d="M2140 2006 c0 -13 48 -82 85 -121 42 -46 38 -37 -34 59 -28 38 -51
66 -51 62z"/>
<path d="M3451 479 c-7 -12 -10 -23 -8 -26 3 -3 11 5 17 17 15 28 8 35 -9 9z"/>
<path d="M3350 5000 c-9 -6 -10 -10 -3 -10 6 0 15 5 18 10 8 12 4 12 -15 0z"/>
<path d="M1218 4573 c7 -3 16 -2 19 1 4 3 -2 6 -13 5 -11 0 -14 -3 -6 -6z"/>
<path d="M1172 4520 c0 -14 2 -19 5 -12 2 6 2 18 0 25 -3 6 -5 1 -5 -13z"/>
<path d="M1271 4484 c0 -11 3 -14 6 -6 3 7 2 16 -1 19 -3 4 -6 -2 -5 -13z"/>
<path d="M5030 4399 c-47 -33 -150 -104 -230 -159 -189 -130 -231 -165 -135
-114 39 20 66 33 60 27 -16 -17 -148 -93 -160 -93 -7 0 -23 -10 -36 -21 l-24
-21 25 7 c23 7 24 7 10 -10 -9 -11 -10 -16 -2 -11 8 5 15 -2 22 -18 5 -14 15
-26 21 -26 8 0 7 5 -2 17 -12 14 -11 14 13 -1 15 -10 25 -22 23 -27 -3 -4 4
-13 15 -19 11 -6 18 -15 15 -20 -3 -5 -1 -11 5 -15 5 -3 10 -15 10 -26 0 -11
4 -18 9 -14 5 3 13 0 17 -6 4 -7 3 -9 -3 -6 -6 4 -13 -1 -15 -11 -6 -22 15
-55 28 -44 4 4 3 0 -4 -9 -6 -8 -12 -30 -14 -47 -1 -18 -6 -32 -10 -32 -4 0
-8 -5 -8 -10 0 -7 7 -7 21 1 18 9 19 13 8 21 -11 8 -10 9 4 4 12 -4 91 32 222
102 l205 107 0 268 c0 147 -1 267 -2 267 -2 -1 -41 -28 -88 -61z m-3 -135 c7
-18 -14 -35 -34 -27 -7 3 -13 14 -13 24 0 24 38 26 47 3z m-149 -406 c-6 -18
-28 -21 -28 -4 0 9 7 16 16 16 9 0 14 -5 12 -12z"/>
<path d="M3950 4332 c0 -5 12 -14 27 -21 28 -13 28 -13 9 8 -20 22 -36 27 -36
13z"/>
<path d="M1204 4278 l-19 -23 23 19 c21 18 27 26 19 26 -2 0 -12 -10 -23 -22z"/>
<path d="M4487 4122 c-10 -2 -16 -10 -14 -17 3 -7 2 -16 -3 -21 -5 -5 -1 -20
10 -34 15 -19 20 -21 20 -9 0 9 7 22 15 29 9 7 13 20 11 27 -4 10 -1 13 13 8
11 -3 22 -1 26 5 3 5 3 11 -2 11 -22 4 -60 4 -76 1z"/>
<path d="M4065 4070 c3 -5 8 -10 11 -10 2 0 4 5 4 10 0 6 -5 10 -11 10 -5 0
-7 -4 -4 -10z"/>
<path d="M4100 4031 c0 -5 5 -13 10 -16 6 -3 10 -2 10 4 0 5 -4 13 -10 16 -5
3 -10 2 -10 -4z"/>
<path d="M540 3671 c0 -6 4 -13 10 -16 6 -3 7 1 4 9 -7 18 -14 21 -14 7z"/>
<path d="M679 3613 c-13 -16 -12 -17 4 -4 9 7 17 15 17 17 0 8 -8 3 -21 -13z"/>
<path d="M1290 3565 c0 -9 5 -15 11 -13 6 2 11 8 11 13 0 5 -5 11 -11 13 -6 2
-11 -4 -11 -13z"/>
<path d="M4591 2944 c0 -11 3 -14 6 -6 3 7 2 16 -1 19 -3 4 -6 -2 -5 -13z"/>
<path d="M3947 2884 c-14 -14 -7 -35 11 -32 9 2 17 10 17 17 0 16 -18 25 -28
15z"/>
<path d="M4573 2810 c0 -25 2 -35 4 -22 2 12 2 32 0 45 -2 12 -4 2 -4 -23z"/>
<path d="M4603 2755 c0 -38 2 -53 4 -32 2 20 2 52 0 70 -2 17 -4 1 -4 -38z"/>
<path d="M4591 2564 c0 -11 3 -14 6 -6 3 7 2 16 -1 19 -3 4 -6 -2 -5 -13z"/>
<path d="M261 2544 c0 -11 3 -14 6 -6 3 7 2 16 -1 19 -3 4 -6 -2 -5 -13z"/>
<path d="M4610 2541 c0 -6 4 -13 10 -16 6 -3 7 1 4 9 -7 18 -14 21 -14 7z"/>
<path d="M4850 2221 c0 -5 5 -13 10 -16 6 -3 10 -2 10 4 0 5 -4 13 -10 16 -5
3 -10 2 -10 -4z"/>
<path d="M376 1811 c-28 -19 -28 -19 -7 -30 18 -10 20 -9 14 5 -5 13 -3 15 8
9 8 -4 11 -5 7 0 -4 4 -3 14 3 22 15 18 9 16 -25 -6z"/>
<path d="M517 1631 c-4 -17 -3 -21 5 -13 5 5 8 16 6 23 -3 8 -7 3 -11 -10z"/>
<path d="M540 1410 c0 -5 5 -10 10 -10 6 0 10 5 10 10 0 6 -4 10 -10 10 -5 0
-10 -4 -10 -10z"/>
<path d="M4316 1187 c3 -10 9 -15 12 -12 3 3 0 11 -7 18 -10 9 -11 8 -5 -6z"/>
<path d="M686 1033 c-6 -14 -5 -15 5 -6 7 7 10 15 7 18 -3 3 -9 -2 -12 -12z"/>
<path d="M772 898 c-12 -6 -21 -15 -20 -20 6 -17 20 -13 36 10 16 25 16 25
-16 10z"/>
<path d="M4069 595 c-85 -17 -178 -55 -240 -97 -26 -18 -47 -34 -45 -36 2 -1
88 31 192 72 104 42 182 75 174 75 -8 -1 -45 -7 -81 -14z"/>
<path d="M4153 399 c-29 -5 -67 -16 -85 -24 -18 -8 -24 -13 -13 -9 11 3 59 8
106 11 99 6 129 -4 129 -43 0 -42 -33 -76 -143 -153 -58 -40 -113 -82 -123
-93 -16 -18 -12 -17 16 4 19 14 75 49 124 78 92 55 153 103 187 152 26 36 16
51 -44 66 -69 18 -99 20 -154 11z"/>
<path d="M991 300 c33 -19 269 -108 263 -99 -10 17 -143 79 -201 94 -65 17
-85 19 -62 5z"/>
<path d="M2200 51 c17 -9 199 -41 233 -41 41 1 -24 28 -94 39 -78 13 -161 14
-139 2z"/>
<path d="M1225 10 c-3 -5 1 -10 10 -10 9 0 13 5 10 10 -3 6 -8 10 -10 10 -2 0
-7 -4 -10 -10z"/>
<path d="M3735 10 c3 -5 8 -10 11 -10 2 0 4 5 4 10 0 6 -5 10 -11 10 -5 0 -7
-4 -4 -10z"/>
</g>
</svg>