<?xml version="1.0" standalone="no"?>
<!DOCTYPE svg PUBLIC "-//W3C//DTD SVG 20010904//EN"
 "http://www.w3.org/TR/2001/REC-SVG-20010904/DTD/svg10.dtd">
<svg version="1.0" xmlns="http://www.w3.org/2000/svg"
 width="512.000000pt" height="512.000000pt" viewBox="0 0 512.000000 512.000000"
 preserveAspectRatio="xMidYMid meet">
<metadata>
Created by potrace 1.16, written by Peter Selinger 2001-2019
</metadata>
<g transform="translate(0.000000,512.000000) scale(0.100000,-0.100000)"
fill="#000000" stroke="none">
<path d="M1916 4699 c-68 -17 -153 -69 -218 -135 -34 -35 -78 -70 -98 -78 -19
-7 -78 -17 -130 -21 -149 -11 -211 -50 -210 -132 l1 -28 27 33 c15 18 49 41
77 52 28 10 44 19 36 20 -11 0 -11 3 -1 15 9 10 36 14 108 14 53 0 110 3 126
7 20 5 27 4 22 -4 -8 -14 -97 -41 -140 -44 -17 -1 16 -4 74 -7 58 -4 106 -5
108 -4 2 0 -4 14 -14 29 l-18 27 43 -28 c24 -15 62 -36 85 -46 22 -11 32 -17
21 -13 -11 3 -114 11 -230 16 -169 8 -216 8 -240 -3 -30 -13 -30 -13 -5 -15
14 -2 120 -8 235 -14 116 -6 217 -14 225 -16 8 -3 -11 -16 -45 -30 -75 -32
-111 -41 -65 -17 l35 18 -155 17 c-85 9 -178 19 -206 22 -34 4 -56 1 -68 -7
-16 -12 -7 -16 70 -34 49 -12 120 -24 157 -28 67 -7 70 -8 159 -83 110 -92
148 -141 148 -191 0 -76 -48 -304 -120 -571 -33 -122 -60 -305 -67 -453 l-6
-139 -90 -86 c-243 -237 -337 -418 -354 -688 -10 -174 33 -304 102 -304 14 0
34 9 44 19 19 19 40 78 41 111 1 36 62 166 115 245 31 47 95 126 142 176 l86
90 37 -99 c45 -118 172 -371 268 -532 52 -86 81 -124 118 -152 67 -51 236
-134 309 -152 113 -27 117 -27 110 -17 -3 6 -45 23 -93 37 -134 41 -266 109
-316 165 -63 70 -295 516 -380 731 -25 64 -58 161 -73 215 -25 92 -27 111 -27
293 1 165 5 218 28 345 34 197 56 258 114 331 69 86 147 124 251 124 136 0
277 -59 389 -164 80 -75 130 -175 166 -336 32 -137 78 -282 118 -367 22 -46
41 -71 78 -98 41 -30 50 -42 50 -67 0 -16 -5 -38 -11 -50 -8 -14 -7 -65 2
-183 17 -233 -8 -554 -55 -716 -29 -98 -114 -238 -135 -224 -5 2 -11 28 -15
57 -14 104 -82 257 -121 271 -7 3 -1 -15 16 -41 49 -80 68 -148 70 -257 l1
-100 -38 2 c-76 5 -177 36 -272 85 l-97 49 -21 -25 -22 -24 -28 29 c-15 16
-31 29 -36 29 -4 0 -8 -21 -8 -47 0 -45 0 -46 -19 -29 -28 25 -56 90 -113 255
-50 148 -66 186 -74 178 -7 -6 61 -267 92 -360 27 -80 31 -139 10 -160 -8 -7
-63 -22 -122 -31 -118 -20 -179 -38 -205 -62 -15 -14 -27 -14 -92 -4 -112 18
-282 9 -333 -18 -49 -25 -94 -75 -94 -104 0 -30 62 -84 124 -107 29 -11 105
-29 167 -41 173 -32 258 -77 274 -143 9 -36 -5 -34 -30 6 -40 64 -156 92 -212
51 -62 -45 -90 -154 -59 -227 23 -54 56 -77 130 -88 59 -9 71 -8 104 9 24 12
44 33 57 61 23 47 -1 45 189 17 l79 -12 21 -64 c13 -40 30 -70 46 -82 30 -22
141 -42 181 -33 64 14 118 128 105 218 -14 92 -57 128 -170 142 l-59 7 25 24
c20 21 49 30 159 50 153 28 590 104 601 104 4 0 3 -12 -2 -26 -17 -43 -12
-126 10 -161 25 -41 46 -52 120 -60 l61 -6 45 47 44 47 56 -8 c53 -8 57 -10
69 -46 7 -21 21 -47 31 -58 37 -41 163 -53 206 -19 78 61 78 237 -1 279 -33
18 -143 30 -166 18 -11 -5 -32 -24 -47 -41 l-27 -31 -23 24 c-13 13 -17 21
-11 17 9 -5 11 -2 7 8 -3 9 -12 16 -20 16 -25 0 -15 19 14 26 15 4 37 18 49
31 13 13 34 23 50 23 15 0 66 9 113 19 184 41 268 108 212 168 -9 10 -14 14
-9 9 30 -39 -22 -92 -118 -121 -54 -15 -541 -104 -720 -130 -60 -9 -274 -45
-475 -81 -200 -35 -391 -64 -423 -64 -44 0 -94 12 -191 44 -73 25 -186 54
-256 66 -69 11 -154 30 -189 42 -74 24 -128 66 -118 92 6 15 10 14 32 -13 35
-40 104 -64 265 -91 76 -13 194 -42 270 -66 167 -54 192 -55 455 -9 110 19
295 51 410 70 997 168 942 158 986 188 53 36 59 54 26 82 -47 41 -124 58 -251
53 -122 -5 -189 -24 -277 -78 -54 -33 -142 -60 -196 -60 -31 0 -46 14 -23 22
6 2 16 37 21 78 18 131 128 517 141 495 3 -5 -14 -77 -38 -160 -63 -213 -85
-298 -79 -303 3 -3 13 13 22 37 l16 42 56 -6 c43 -5 52 -4 41 5 -12 9 -6 10
25 6 22 -3 58 -2 80 2 l40 8 -40 15 c-40 14 -39 14 80 20 66 3 134 12 150 19
30 13 29 13 -42 26 -120 21 -124 36 -8 28 90 -6 98 -5 87 9 -8 9 -44 26 -80
38 -113 36 -206 85 -246 129 -42 47 -42 43 -24 296 16 240 -10 535 -62 693
-11 30 -18 57 -16 58 6 6 126 -219 156 -292 18 -44 64 -174 102 -290 38 -115
87 -247 109 -293 48 -96 132 -192 168 -192 l24 0 -7 153 c-15 349 -124 838
-224 1007 -20 35 -76 105 -124 157 -109 117 -133 151 -196 283 -60 125 -138
244 -236 360 -163 192 -188 240 -246 462 -71 274 -167 421 -324 498 -59 29
-80 34 -155 37 -47 1 -103 -2 -125 -8z m227 -122 c87 -43 162 -117 187 -185
32 -84 32 -230 1 -294 -23 -49 -65 -87 -122 -111 -51 -21 -203 -55 -283 -63
l-69 -7 6 39 c10 62 29 71 212 99 22 4 60 15 85 26 133 59 158 174 59 280
l-28 30 46 30 c39 24 43 29 24 29 -13 0 -68 20 -121 45 -150 68 -192 73 -292
30 -43 -17 -48 -18 -48 -6 0 12 74 60 119 77 58 22 156 14 224 -19z m-163 -92
c15 -8 38 -27 50 -42 12 -16 31 -31 43 -35 22 -6 22 -6 -1 -7 -13 -1 -40 -12
-60 -26 -48 -33 -88 -32 -124 2 -15 15 -28 31 -28 37 0 12 71 86 83 86 4 0 21
-7 37 -15z m385 -68 c34 -59 51 -110 85 -261 61 -265 101 -347 240 -491 120
-125 133 -155 85 -199 -52 -48 -53 -96 -5 -242 18 -53 34 -74 128 -170 195
-199 311 -399 412 -716 53 -168 87 -262 155 -433 15 -37 15 -39 -1 -20 -36 44
-96 191 -164 405 -40 124 -92 268 -117 320 -75 162 -264 423 -352 488 -17 12
-31 20 -31 18 0 -3 25 -60 55 -128 96 -218 135 -405 135 -658 0 -182 -11 -287
-46 -465 -15 -71 -39 -209 -54 -305 -16 -99 -28 -155 -29 -130 -1 59 19 190
64 430 33 172 38 219 42 395 8 306 -15 436 -130 725 -91 228 -119 315 -124
386 -5 59 -4 62 32 103 29 31 36 46 31 65 -3 13 -48 69 -101 125 -143 153
-172 212 -230 471 -41 183 -61 243 -100 302 -15 22 -22 37 -16 34 6 -4 22 -26
36 -49z m-198 -23 c-3 -3 -12 -4 -19 -1 -8 3 -5 6 6 6 11 1 17 -2 13 -5z m865
-1273 c73 -75 106 -125 153 -223 70 -150 259 -737 242 -755 -3 -2 -12 26 -21
63 -27 109 -134 437 -182 562 -59 154 -97 219 -187 323 -47 55 -80 104 -91
135 -23 68 -19 68 14 0 15 -32 48 -79 72 -105z m-1401 -348 c-5 -10 -40 -52
-76 -93 -37 -41 -87 -100 -110 -131 -128 -164 -195 -373 -195 -602 0 -55 -3
-98 -6 -95 -14 15 -23 156 -15 238 26 245 99 395 290 592 97 101 135 131 112
91z m-1 -91 c0 -5 -40 -54 -88 -110 -48 -56 -103 -127 -121 -157 -49 -81 -102
-242 -108 -332 -4 -54 -9 -70 -15 -58 -14 24 18 205 51 291 36 92 100 188 196
292 76 82 85 89 85 74z m1807 -574 c-3 -8 -6 -5 -6 6 -1 11 2 17 5 13 3 -3 4
-12 1 -19z m20 -80 c-3 -7 -5 -2 -5 12 0 14 2 19 5 13 2 -7 2 -19 0 -25z
m-287 -449 l25 -20 -25 6 c-14 4 -32 13 -40 21 -24 23 10 17 40 -7z m-836
-144 c83 -37 193 -65 253 -65 59 0 69 -14 34 -49 -42 -42 -107 -62 -261 -81
-47 -6 -102 -13 -123 -16 -37 -6 -38 -5 -28 15 7 12 14 49 16 84 5 80 25 134
51 137 1 0 27 -11 58 -25z m1170 -69 c32 -8 65 -21 73 -29 13 -13 5 -17 -64
-35 -79 -22 -448 -86 -558 -97 -33 -4 -68 -9 -77 -11 -13 -4 -18 0 -18 13 0
15 15 22 83 35 54 12 116 35 182 68 55 28 120 55 145 59 70 14 169 12 234 -3z
m-1401 -30 c81 -29 101 -77 43 -101 -37 -16 -166 -32 -166 -21 0 4 5 17 11 28
10 19 9 20 -17 13 -16 -4 -50 -9 -76 -12 -99 -10 -28 49 75 63 l62 8 -47 4
c-28 2 -79 -6 -121 -17 -82 -24 -97 -25 -97 -11 0 17 39 31 128 44 112 18 158
18 205 2z m-373 -41 c0 -2 -10 -10 -22 -16 -21 -11 -22 -11 -9 4 13 16 31 23
31 12z m1060 -23 c52 -25 53 -63 3 -96 -41 -26 -119 -53 -129 -43 -3 3 -1 15
6 26 16 31 -1 26 -47 -14 -48 -40 -53 -42 -53 -15 0 29 55 86 102 104 28 12
38 20 31 27 -13 13 -49 7 -46 -8 1 -6 -17 -14 -40 -18 -58 -10 -102 -29 -148
-66 -39 -31 -39 -31 -28 -5 13 28 65 66 119 86 19 7 46 22 60 32 20 15 36 18
80 13 30 -3 71 -13 90 -23z m785 19 c-9 -15 -93 -39 -215 -61 -319 -57 -550
-96 -550 -93 0 14 84 36 225 57 277 43 447 74 490 90 48 18 58 19 50 7z
m-1934 -41 c53 -11 113 -21 132 -22 31 -3 35 -6 31 -24 -5 -20 0 -23 59 -33
95 -16 171 -14 334 13 82 13 173 27 203 30 l55 7 -35 -30 c-21 -18 -47 -31
-65 -31 -16 -1 -64 -8 -105 -15 l-75 -14 93 5 c77 5 92 3 92 -9 0 -16 -7 -18
-145 -42 -111 -20 -201 -21 -251 -5 -22 7 -82 34 -134 60 -154 76 -286 111
-410 109 -46 -2 -40 -3 31 -9 125 -12 225 -42 384 -118 l140 -67 90 0 c50 0
160 8 247 18 86 11 164 17 175 15 30 -6 -487 -88 -554 -88 -43 0 -99 12 -190
40 -70 22 -180 50 -243 61 -244 43 -311 79 -250 134 54 48 206 54 391 15z
m916 -76 c-36 -33 -62 -38 -51 -10 5 14 60 46 79 46 6 -1 -7 -16 -28 -36z
m-147 -44 c0 -5 -4 -10 -10 -10 -5 0 -10 5 -10 10 0 6 5 10 10 10 6 0 10 -4
10 -10z m756 -59 c7 -3 30 -30 53 -58 23 -29 46 -53 51 -53 6 0 10 -5 10 -11
0 -7 -12 -8 -32 -4 -60 12 -66 15 -79 46 -7 17 -29 47 -48 66 l-36 35 35 -7
c19 -4 40 -10 46 -14z m-152 -42 c-10 -11 -21 -41 -25 -67 l-6 -47 -2 41 c-1
37 27 94 46 94 3 0 -2 -9 -13 -21z m27 -23 c-15 -17 -12 -106 3 -107 6 -1 17
-1 25 0 7 2 10 -2 6 -8 -19 -32 -65 12 -65 62 0 33 16 67 32 67 7 0 7 -4 -1
-14z m408 -15 c-29 -40 -36 -110 -15 -153 16 -31 16 -32 0 -17 -27 27 -29 99
-6 153 12 25 26 46 32 46 6 0 1 -13 -11 -29z m-341 -28 c2 -9 -8 -13 -32 -13
-34 0 -44 8 -29 24 11 11 56 2 61 -11z m416 1 c35 -34 10 -144 -33 -144 -28 0
-41 21 -41 70 0 73 38 111 74 74z m-1459 -64 c-11 -5 -33 -8 -50 -8 l-30 0 30
8 c17 4 39 8 50 8 l20 1 -20 -9z m-130 -52 c34 -34 42 -47 25 -38 -31 16 -69
49 -81 73 -17 31 5 17 56 -35z m-340 -3 c-20 -19 -25 -34 -25 -73 0 -55 14
-79 50 -85 25 -4 25 -4 -2 -6 -60 -3 -87 112 -39 163 14 14 28 26 32 26 5 0
-3 -11 -16 -25z m443 -2 c-27 -26 -27 -26 -55 -7 l-28 18 30 7 c17 4 41 7 55
8 l25 1 -27 -27z m-183 -49 c66 -9 124 -20 130 -25 14 -13 -17 -11 -175 11
-106 16 -145 18 -161 10 -30 -17 -19 -44 21 -52 29 -5 27 -6 -15 -5 -47 2 -50
4 -53 30 -7 64 -7 64 253 31z m320 -10 c-44 -65 -45 -145 -3 -200 16 -21 17
-25 5 -15 -30 24 -47 67 -47 116 0 50 10 77 43 113 29 32 30 27 2 -14z m85
-26 c44 -48 12 -174 -43 -166 -50 7 -63 133 -17 170 28 23 35 23 60 -4z"/>
<path d="M1894 4439 l-29 -30 25 -19 c43 -33 69 -34 113 -4 l41 27 -32 28
c-43 38 -80 38 -118 -2z m86 -9 c0 -5 -9 -10 -21 -10 -11 0 -17 5 -14 10 3 6
13 10 21 10 8 0 14 -4 14 -10z"/>
<path d="M1338 1233 c7 -3 16 -2 19 1 4 3 -2 6 -13 5 -11 0 -14 -3 -6 -6z"/>
<path d="M3482 948 c-18 -18 -15 -97 3 -104 25 -10 45 16 45 55 0 33 -14 61
-30 61 -3 0 -11 -5 -18 -12z"/>
<path d="M2204 739 c-3 -6 0 -22 7 -36 11 -20 11 -26 0 -32 -22 -14 -9 -46 19
-46 21 0 27 7 34 37 11 46 -5 88 -33 88 -11 0 -23 -5 -27 -11z"/>
<path d="M1747 3073 c-24 -168 -22 -353 5 -337 5 4 8 -2 7 -12 -2 -11 -1 -23
2 -29 3 -5 12 -39 19 -75 21 -99 23 -54 4 72 -12 79 -17 171 -17 306 1 105 0
192 -1 192 -1 0 -10 -53 -19 -117z"/>
</g>
</svg>